<svg width="189" height="189" viewBox="0 0 189 189" fill="none" xmlns="http://www.w3.org/2000/svg">
<g filter="url(#filter0_i)">
<path d="M94.6695 188.823C146.669 188.823 188.823 146.669 188.823 94.6692C188.823 42.6694 146.669 0.515318 94.6695 0.51532C42.6697 0.515322 0.515623 42.6694 0.515625 94.6692C0.515627 146.669 42.6697 188.823 94.6695 188.823Z" fill="url(#paint0_radial)"/>
<path d="M94.6695 188.823C146.669 188.823 188.823 146.669 188.823 94.6692C188.823 42.6694 146.669 0.515318 94.6695 0.51532C42.6697 0.515322 0.515623 42.6694 0.515625 94.6692C0.515627 146.669 42.6697 188.823 94.6695 188.823Z" fill="url(#paint1_radial)"/>
</g>
<defs>
<filter id="filter0_i" x="0.515625" y="0.51532" width="188.308" height="188.308" filterUnits="userSpaceOnUse" color-interpolation-filters="sRGB">
<feFlood flood-opacity="0" result="BackgroundImageFix"/>
<feBlend mode="normal" in="SourceGraphic" in2="BackgroundImageFix" result="shape"/>
<feColorMatrix in="SourceAlpha" type="matrix" values="0 0 0 0 0 0 0 0 0 0 0 0 0 0 0 0 0 0 127 0" result="hardAlpha"/>
<feOffset/>
<feGaussianBlur stdDeviation="21.6733"/>
<feComposite in2="hardAlpha" operator="arithmetic" k2="-1" k3="1"/>
<feColorMatrix type="matrix" values="0 0 0 0 1 0 0 0 0 1 0 0 0 0 1 0 0 0 1 0"/>
<feBlend mode="hard-light" in2="shape" result="effect1_innerShadow"/>
</filter>
<radialGradient id="paint0_radial" cx="0" cy="0" r="1" gradientUnits="userSpaceOnUse" gradientTransform="translate(124.407 147.715) rotate(-108.71) scale(176.727)">
<stop offset="0.377782" stop-color="#45F0FF"/>
<stop offset="0.766535" stop-color="#ACFFF2"/>
<stop offset="1" stop-color="#BFFFCD"/>
</radialGradient>
<radialGradient id="paint1_radial" cx="0" cy="0" r="1" gradientUnits="userSpaceOnUse" gradientTransform="translate(86.9452 27.9178) rotate(86.4452) scale(153.695)">
<stop offset="0.244792" stop-color="#31FFDF" stop-opacity="0"/>
<stop offset="0.904105" stop-color="#FFFE39" stop-opacity="0.7"/>
</radialGradient>
</defs>
</svg>
