<svg width="1108" height="836" viewBox="0 0 1108 836" fill="none" xmlns="http://www.w3.org/2000/svg">
    <path fill-rule="evenodd" clip-rule="evenodd" d="M775.317 85.2459C775.199 85.3286 774.899 85.1052 774.651 84.7496C774.403 84.3939 774.103 84.1706 773.984 84.2533C773.866 84.3359 773.498 84.0156 773.167 83.5414C772.837 83.0672 772.469 82.7468 772.351 82.8295C772.232 82.9122 771.932 82.6888 771.684 82.3332C771.436 81.9775 771.16 81.7377 771.07 81.8002C770.981 81.8627 770.588 81.7203 770.198 81.4836C769.164 80.8565 765.737 80.4166 764.861 80.7986C764.45 80.9781 764.055 81.0399 763.983 80.9362C763.91 80.8325 763.518 80.9803 763.11 81.2648C762.702 81.5493 762.24 81.7268 762.084 81.6593C761.663 81.4772 760.162 82.6114 758.727 84.1952C758.03 84.9646 757.13 85.8959 756.727 86.2647C756.323 86.6338 756.039 87.0012 756.095 87.0814C756.151 87.1616 755.827 87.6789 755.375 88.2309C754.923 88.7832 753.694 90.7889 752.644 92.6879C750.322 96.8884 750.238 97.0578 750.382 97.2643C750.445 97.3548 750.324 97.5491 750.113 97.6961C749.902 97.8433 749.725 98.255 749.72 98.6113C749.714 98.9676 749.545 99.3738 749.344 99.5139C749.143 99.6542 749 99.8681 749.025 99.9895C749.052 100.111 748.885 100.768 748.655 101.449C747.93 103.602 747.78 104.134 747.053 107.145C746.762 108.346 746.455 109.611 746.37 109.955C746.284 110.3 746.258 110.645 746.313 110.723C746.367 110.8 746.265 111.739 746.086 112.809C745.352 117.197 744.911 120.197 744.984 120.301C745.026 120.362 745.001 120.792 744.929 121.256C744.586 123.45 744.368 125.39 744.451 125.51C744.502 125.583 744.36 126.62 744.136 127.814C743.911 129.008 743.785 130.067 743.854 130.167C743.924 130.267 743.934 130.881 743.876 131.531C743.771 132.713 743.771 132.713 743.47 132.043C743.304 131.674 743.254 131.312 743.358 131.239C743.463 131.166 743.38 130.864 743.173 130.568C742.966 130.271 742.894 129.961 743.013 129.878C743.131 129.796 743.093 129.534 742.928 129.297C742.762 129.06 742.724 128.798 742.843 128.716C742.961 128.633 742.855 128.274 742.607 127.919C742.359 127.563 742.253 127.204 742.372 127.122C742.49 127.039 742.351 126.632 742.061 126.217C741.772 125.802 741.632 125.395 741.751 125.312C741.869 125.23 741.767 124.877 741.524 124.528C741.281 124.179 741.137 123.767 741.205 123.611C741.272 123.455 741.1 123.002 740.823 122.603C740.545 122.206 740.373 121.793 740.44 121.688C740.582 121.464 738.441 115.952 737.935 115.239C737.747 114.974 737.69 114.689 737.809 114.606C737.927 114.524 737.686 113.971 737.272 113.378C736.859 112.785 736.618 112.233 736.736 112.15C736.855 112.067 736.648 111.563 736.276 111.03C735.904 110.496 735.696 109.992 735.815 109.91C735.933 109.827 735.692 109.274 735.279 108.682C734.865 108.089 734.624 107.536 734.743 107.454C734.861 107.371 734.654 106.867 734.282 106.333C733.91 105.8 733.702 105.296 733.821 105.213C733.94 105.13 733.766 104.675 733.435 104.201C733.105 103.726 732.931 103.271 733.05 103.188C733.168 103.105 732.995 102.65 732.664 102.176C732.333 101.701 732.16 101.246 732.278 101.163C732.397 101.081 732.245 100.656 731.941 100.22C731.637 99.7839 731.269 99.0668 731.124 98.6269C730.67 97.2476 729.014 93.7222 728.424 92.8783C728.114 92.4343 727.957 92.0031 728.075 91.9204C728.194 91.8377 727.986 91.3336 727.614 90.8002C727.242 90.2667 727.035 89.7626 727.153 89.6799C727.272 89.5972 727.031 89.0446 726.617 88.4519C726.204 87.8591 725.963 87.3065 726.081 87.2239C726.2 87.1412 726.06 86.7341 725.771 86.3192C725.482 85.9042 725.342 85.4971 725.46 85.4145C725.579 85.3318 725.405 84.8762 725.075 84.402C724.744 83.9278 724.57 83.4722 724.689 83.3895C724.807 83.3068 724.6 82.8027 724.228 82.2693C723.856 81.7358 723.649 81.2317 723.767 81.149C723.886 81.0663 723.716 80.6165 723.39 80.1492C723.065 79.6819 722.853 79.1722 722.921 79.0163C722.988 78.8603 722.843 78.4461 722.599 78.0958C722.355 77.7456 722.125 77.2297 722.088 76.9496C722.003 76.3036 720.573 72.8791 720.121 72.2389C719.933 71.9734 719.877 71.6883 719.995 71.6056C720.114 71.5229 719.94 71.0673 719.61 70.5931C719.279 70.1189 719.105 69.6633 719.224 69.5807C719.342 69.498 719.101 68.9454 718.688 68.3526C718.275 67.7599 718.033 67.2073 718.152 67.1246C718.27 67.0419 718.063 66.5378 717.691 66.0044C717.319 65.4709 717.112 64.9668 717.23 64.8841C717.349 64.8014 717.078 64.2062 716.628 63.561C716.178 62.9159 715.865 62.2607 715.933 62.1048C716 61.9488 715.924 61.6331 715.764 61.4029C715.603 61.1727 715.375 61.0521 715.256 61.1348C715.138 61.2175 714.808 60.9515 714.523 60.5434C714.239 60.1354 713.868 59.8095 713.698 59.8188C713.528 59.8282 713.258 59.6478 713.098 59.4176C712.937 59.1874 712.709 59.0668 712.59 59.1495C712.472 59.2322 712.206 59.0573 711.999 58.7609C711.792 58.4646 711.526 58.2897 711.408 58.3724C711.289 58.455 711.091 58.3772 710.967 58.1994C710.843 58.0215 710.664 57.9302 710.569 57.9961C710.474 58.0623 710.061 57.8788 709.65 57.5887C709.239 57.2984 708.309 56.9371 707.584 56.7858C706.859 56.6344 706.23 56.4605 706.187 56.3988C706.084 56.2512 702.134 55.5487 701.987 55.6518C701.924 55.6957 701.365 55.653 700.745 55.5568C700.124 55.4607 699.486 55.4735 699.326 55.5851C699.165 55.697 698.967 55.6914 698.884 55.5728C698.801 55.4543 698.451 55.5546 698.105 55.7957C697.759 56.0368 697.367 56.153 697.235 56.0538C697.088 55.9446 696.265 56.3666 695.15 57.1227C693.466 58.2645 693.23 58.5172 692.407 60.0664C691.912 60.9986 691.501 61.8564 691.494 61.9729C691.487 62.0895 691.165 62.7641 690.778 63.4721C690.391 64.1801 690.004 65.0604 689.919 65.4283C689.834 65.7961 689.637 66.1857 689.482 66.2942C689.326 66.4026 689.262 66.5818 689.339 66.6923C689.417 66.8029 689.334 67.0828 689.156 67.3146C688.978 67.5464 688.717 68.3872 688.575 69.1832C688.433 69.9793 688.231 70.6905 688.126 70.7638C687.765 71.0153 685.774 79.9549 686.005 80.286C686.061 80.3668 686.03 80.9708 685.935 81.6282C685.84 82.2857 685.786 83.3479 685.815 83.9884C685.844 84.6292 685.772 85.2199 685.654 85.3017C685.537 85.3833 685.562 85.6227 685.709 85.8335C685.856 86.0445 685.88 86.4921 685.762 86.8284C685.644 87.1646 685.668 87.6122 685.815 87.8232C685.962 88.034 685.986 88.2743 685.867 88.357C685.748 88.4396 685.74 88.6344 685.849 88.7899C685.957 88.9455 686.003 89.3816 685.951 89.7593C685.837 90.5933 686.494 94.7687 686.811 95.2233C686.936 95.4026 686.941 95.6168 686.823 95.6995C686.704 95.7822 686.743 96.0438 686.908 96.2809C687.073 96.518 687.112 96.7796 686.993 96.8623C686.874 96.945 686.947 97.2551 687.153 97.5515C687.36 97.8478 687.432 98.158 687.313 98.2406C687.195 98.3233 687.233 98.5849 687.399 98.822C687.564 99.0591 687.602 99.3207 687.484 99.4034C687.365 99.4861 687.403 99.7477 687.569 99.9848C687.734 100.222 687.772 100.484 687.654 100.566C687.535 100.649 687.574 100.91 687.739 101.148C687.904 101.385 687.943 101.646 687.824 101.729C687.705 101.812 687.728 102.05 687.874 102.26C688.02 102.469 688.261 103.418 688.411 104.368C688.56 105.319 688.869 106.508 689.097 107.012C689.325 107.516 689.462 108.041 689.403 108.179C689.343 108.317 689.56 108.813 689.886 109.28C690.212 109.747 690.382 110.197 690.263 110.28C690.144 110.362 690.25 110.721 690.498 111.077C690.746 111.432 690.852 111.791 690.734 111.874C690.615 111.956 690.683 112.261 690.885 112.55C691.087 112.839 691.197 113.204 691.129 113.36C691.062 113.516 691.172 113.88 691.374 114.169C691.576 114.459 691.644 114.763 691.525 114.846C691.407 114.928 691.512 115.287 691.76 115.643C692.008 115.998 692.114 116.357 691.996 116.44C691.877 116.522 692.013 116.924 692.298 117.332C692.582 117.74 692.76 118.201 692.692 118.357C692.625 118.513 692.731 118.871 692.928 119.154C693.124 119.436 693.23 119.795 693.163 119.951C693.095 120.107 693.217 120.499 693.432 120.823C693.897 121.52 695.11 124.731 695.046 125.092C695.021 125.23 695.26 125.715 695.577 126.169C695.894 126.624 696.057 127.063 695.938 127.146C695.819 127.228 695.892 127.539 696.098 127.835C696.305 128.131 696.377 128.441 696.258 128.524C696.14 128.607 696.246 128.965 696.494 129.321C696.742 129.677 696.848 130.035 696.729 130.118C696.611 130.201 696.717 130.559 696.965 130.915C697.213 131.271 697.319 131.629 697.2 131.712C697.081 131.795 697.187 132.153 697.435 132.509C697.683 132.864 697.789 133.223 697.671 133.306C697.552 133.388 697.62 133.693 697.822 133.982C698.024 134.272 698.134 134.636 698.066 134.792C697.999 134.948 698.073 135.26 698.23 135.486C698.543 135.935 698.893 138.635 698.679 138.956C698.607 139.066 698.661 139.32 698.802 139.521C698.942 139.722 698.96 140.162 698.842 140.498C698.724 140.834 698.748 141.282 698.895 141.493C699.042 141.704 699.066 141.944 698.947 142.027C698.829 142.109 698.852 142.35 698.999 142.56C699.146 142.771 699.17 143.219 699.052 143.555C698.934 143.891 698.912 144.272 699.002 144.402C699.092 144.531 699.065 145.131 698.942 145.735C698.818 146.338 698.769 147.229 698.832 147.713C698.895 148.198 698.877 148.876 698.791 149.221C698.705 149.566 698.712 149.958 698.805 150.092C698.899 150.226 698.879 150.404 698.76 150.486C698.641 150.569 698.63 150.759 698.734 150.908C698.838 151.058 698.814 151.436 698.68 151.75C698.546 152.063 698.508 152.422 698.595 152.547C698.683 152.673 698.664 153.37 698.552 154.097C698.441 154.823 698.416 155.768 698.497 156.196C698.578 156.625 698.57 157.026 698.481 157.089C698.391 157.151 698.404 157.326 698.51 157.478C698.616 157.63 698.606 158.029 698.488 158.365C698.37 158.701 698.379 159.127 698.508 159.312C698.636 159.497 698.645 159.923 698.528 160.259C698.41 160.596 698.419 161.022 698.547 161.207C698.676 161.391 698.685 161.818 698.567 162.154C698.449 162.49 698.423 162.865 698.508 162.988C698.594 163.11 698.52 164.142 698.345 165.281C698.17 166.42 698.085 167.434 698.156 167.536C698.226 167.637 698.175 168.391 698.042 169.21C697.908 170.029 697.855 170.779 697.923 170.877C697.991 170.975 697.963 171.452 697.861 171.937C697.759 172.422 697.755 172.933 697.852 173.073C697.95 173.212 697.951 173.834 697.855 174.454C697.758 175.074 697.748 175.679 697.831 175.799C697.915 175.919 697.886 176.084 697.768 176.167C697.649 176.249 697.637 176.439 697.741 176.588C697.845 176.738 697.821 177.116 697.687 177.43C697.554 177.743 697.534 178.129 697.645 178.288C697.755 178.446 697.774 178.887 697.687 179.267C697.599 179.646 697.582 180.035 697.648 180.13C697.768 180.302 697.871 182.312 697.801 183.098C697.78 183.325 697.819 183.591 697.887 183.688C697.955 183.785 697.914 184.14 697.796 184.476C697.678 184.813 697.687 185.239 697.816 185.424C697.945 185.608 697.954 186.035 697.836 186.371C697.718 186.707 697.715 187.116 697.829 187.279C697.942 187.442 697.939 188.029 697.821 188.582C697.703 189.135 697.688 189.852 697.789 190.174C697.889 190.497 697.881 190.824 697.77 190.902C697.66 190.979 697.704 191.236 697.87 191.473C698.035 191.71 698.073 191.972 697.955 192.054C697.836 192.137 697.86 192.377 698.007 192.588C698.154 192.799 698.178 193.247 698.06 193.583C697.942 193.919 697.966 194.367 698.113 194.578C698.26 194.789 698.283 195.029 698.165 195.112C698.046 195.194 698.051 195.407 698.175 195.585C698.299 195.763 698.318 195.965 698.218 196.035C698.119 196.105 698.125 196.785 698.232 197.547C698.34 198.309 698.421 199.081 698.413 199.263C698.369 200.263 698.487 202.005 698.611 202.183C698.69 202.296 698.658 202.456 698.539 202.539C698.421 202.622 698.444 202.862 698.591 203.073C698.738 203.284 698.762 203.731 698.644 204.068C698.526 204.404 698.55 204.852 698.697 205.063C698.844 205.273 698.868 205.514 698.749 205.596C698.631 205.679 698.669 205.941 698.834 206.178C699 206.415 699.063 206.66 698.974 206.723C698.886 206.786 699.007 207.927 699.243 209.259C699.479 210.591 699.593 211.736 699.496 211.803C699.398 211.871 699.438 212.097 699.584 212.306C699.729 212.514 699.739 212.941 699.605 213.255C699.471 213.568 699.447 213.948 699.552 214.099C699.658 214.249 699.647 214.647 699.529 214.984C699.411 215.32 699.42 215.746 699.549 215.931C699.678 216.116 699.687 216.542 699.569 216.878C699.451 217.214 699.435 217.605 699.534 217.747C699.632 217.888 699.617 218.59 699.5 219.307C699.384 220.024 699.36 220.713 699.448 220.84C699.637 221.11 698.895 225.036 698.62 225.229C698.517 225.301 698.306 226.096 698.152 226.996C697.998 227.897 697.769 228.705 697.642 228.793C697.516 228.882 697.311 229.457 697.187 230.072C697.063 230.687 696.878 231.248 696.778 231.319C696.676 231.389 696.525 231.747 696.441 232.114C696.179 233.26 696.035 233.676 695.625 234.464C695.406 234.885 695.154 235.58 695.064 236.01C694.975 236.44 694.816 236.851 694.711 236.925C694.606 236.998 694.479 237.375 694.43 237.761C694.381 238.148 694.246 238.53 694.13 238.611C694.014 238.692 693.887 239.046 693.848 239.399C693.808 239.751 693.627 240.329 693.445 240.684C693.263 241.038 693.07 241.486 693.017 241.678C692.847 242.289 692.036 244.236 691.916 244.319C691.853 244.364 691.699 245.048 691.574 245.84C691.449 246.631 691.244 247.351 691.119 247.439C690.993 247.527 690.786 248.022 690.66 248.54C690.069 250.959 689.764 251.907 689.522 252.076C689.378 252.176 689.191 252.739 689.107 253.327C689.023 253.914 688.799 254.503 688.609 254.635C688.42 254.767 688.332 254.972 688.415 255.091C688.498 255.209 688.465 255.376 688.341 255.462C688.06 255.659 687.508 257.188 687.183 258.673C686.71 260.831 686.666 260.908 685.495 261.649C684.871 262.044 684.204 262.34 684.013 262.307C683.555 262.227 682.696 262.838 682.718 263.228C682.727 263.398 682.304 263.837 681.778 264.204C681.251 264.572 680.888 264.969 680.971 265.087C681.053 265.206 680.927 265.438 680.69 265.604C680.453 265.769 680.327 266.001 680.409 266.12C680.492 266.238 680.414 266.437 680.236 266.561C679.959 266.754 679.471 266.153 676.84 262.38C674.954 259.675 673.649 257.981 673.46 257.991C673.278 258.001 672.29 256.774 671.056 255.004C669.759 253.144 668.878 252.056 668.745 252.149C668.618 252.237 668.003 251.545 667.251 250.467C666.5 249.389 665.885 248.697 665.758 248.785C665.632 248.874 665.02 248.186 664.274 247.116C663.576 246.115 662.866 245.305 662.697 245.314C662.522 245.324 661.678 244.312 660.744 242.973C659.748 241.544 659.014 240.674 658.884 240.765C658.755 240.854 658.092 240.089 657.24 238.867C656.388 237.646 655.725 236.88 655.597 236.97C655.47 237.058 654.855 236.366 654.104 235.288C653.352 234.211 652.737 233.518 652.61 233.606C652.488 233.692 651.955 233.128 651.379 232.303C650.82 231.503 649.853 230.339 649.23 229.717C647.051 227.541 645.547 225.854 643.99 223.84C643.127 222.724 642.33 221.874 642.219 221.951C642.108 222.029 641.515 221.37 640.9 220.488C640.284 219.606 639.642 218.892 639.473 218.901C639.303 218.911 638.932 218.585 638.647 218.177C638.362 217.769 638.033 217.502 637.914 217.585C637.796 217.668 637.428 217.347 637.097 216.873C636.767 216.399 636.399 216.079 636.281 216.161C636.162 216.244 635.832 215.978 635.548 215.57C635.263 215.162 634.892 214.836 634.722 214.845C634.553 214.855 634.249 214.626 634.047 214.336C633.845 214.047 633.583 213.878 633.465 213.961C633.346 214.043 633.114 213.917 632.948 213.68C632.783 213.443 632.562 213.309 632.456 213.382C632.351 213.456 631.945 213.198 631.553 212.81C631.162 212.423 630.432 211.915 629.93 211.682C629.428 211.449 628.922 211.122 628.805 210.954C628.688 210.787 628.158 210.439 627.627 210.183C627.095 209.926 626.561 209.573 626.439 209.399C626.318 209.225 626.122 209.15 626.003 209.233C625.884 209.315 625.618 209.14 625.412 208.844C625.205 208.548 624.939 208.373 624.82 208.456C624.702 208.538 624.503 208.46 624.379 208.283C624.255 208.105 624.057 208.027 623.938 208.109C623.82 208.192 623.588 208.066 623.422 207.829C623.257 207.592 623.025 207.465 622.906 207.548C622.788 207.631 622.561 207.512 622.402 207.285C622.244 207.058 622.017 206.892 621.897 206.917C621.649 206.968 617.917 204.987 617.715 204.697C617.641 204.592 617.242 204.433 616.828 204.344C616.413 204.255 615.986 204.055 615.877 203.9C615.769 203.744 615.583 203.685 615.464 203.767C615.346 203.85 615.114 203.724 614.948 203.486C614.783 203.249 614.551 203.123 614.432 203.206C614.314 203.288 614.115 203.21 613.991 203.033C613.867 202.855 613.669 202.777 613.55 202.86C613.432 202.942 613.199 202.816 613.034 202.579C612.869 202.342 612.636 202.215 612.518 202.298C612.399 202.381 612.199 202.301 612.074 202.121C611.948 201.941 611.335 201.578 610.711 201.315C610.088 201.053 609.508 200.739 609.424 200.618C609.34 200.497 609.174 200.465 609.055 200.548C608.936 200.631 608.704 200.504 608.539 200.267C608.374 200.03 608.141 199.904 608.023 199.987C607.904 200.069 607.706 199.991 607.582 199.814C607.458 199.636 607.277 199.545 607.181 199.612C607.084 199.68 606.636 199.488 606.184 199.187C605.731 198.885 605.283 198.694 605.186 198.761C605.09 198.828 604.909 198.738 604.785 198.56C604.661 198.382 604.463 198.304 604.344 198.387C604.226 198.47 604.027 198.392 603.903 198.214C603.779 198.036 603.581 197.958 603.462 198.041C603.344 198.124 603.112 197.997 602.946 197.76C602.781 197.523 602.572 197.379 602.483 197.44C602.393 197.5 601.824 197.248 601.219 196.879C600.614 196.51 600.043 196.26 599.951 196.325C599.859 196.389 599.683 196.296 599.559 196.118C599.435 195.94 599.236 195.862 599.118 195.945C598.999 196.028 598.801 195.95 598.677 195.772C598.553 195.594 598.372 195.504 598.276 195.571C598.179 195.638 597.731 195.447 597.278 195.145C596.826 194.844 596.378 194.652 596.281 194.719C596.185 194.787 596.004 194.696 595.88 194.518C595.756 194.34 595.558 194.263 595.439 194.345C595.321 194.428 595.137 194.371 595.032 194.22C594.926 194.068 594.548 193.94 594.192 193.934C593.835 193.928 593.474 193.823 593.388 193.7C593.177 193.399 589.282 191.885 588.48 191.793C588.129 191.752 587.765 191.61 587.672 191.475C587.578 191.341 587.404 191.299 587.286 191.381C587.167 191.464 586.969 191.386 586.845 191.208C586.721 191.031 586.522 190.953 586.404 191.035C586.285 191.118 586.087 191.04 585.963 190.862C585.839 190.684 585.64 190.607 585.522 190.689C585.403 190.772 585.234 190.736 585.146 190.61C584.923 190.291 582.962 189.664 581.333 189.391C580.585 189.266 579.927 189.097 579.871 189.017C579.815 188.937 579.313 188.807 578.756 188.728C574.759 188.164 573.7 188.065 573.231 188.211C572.937 188.302 572.634 188.286 572.557 188.176C572.48 188.065 572.223 188.11 571.986 188.275C571.749 188.441 571.495 188.49 571.422 188.385C571.06 187.866 566.603 189.466 564.692 190.801C562.58 192.276 562.121 193.015 561.569 195.819C561.295 197.211 561.112 198.409 561.163 198.481C561.214 198.554 561.262 199.14 561.27 199.783C561.278 200.426 561.411 201.133 561.565 201.354C561.718 201.574 561.747 201.822 561.629 201.905C561.51 201.988 561.548 202.249 561.714 202.486C561.879 202.724 561.917 202.985 561.799 203.068C561.663 203.163 562.635 204.727 564.439 207.313C566.243 209.9 567.374 211.353 567.511 211.259C567.63 211.175 568.127 211.683 568.628 212.401C569.124 213.113 569.613 213.637 569.715 213.566C569.817 213.495 570.572 214.158 571.393 215.038C574.061 217.899 574.258 218.087 574.453 217.95C574.559 217.876 574.849 218.107 575.097 218.462C575.345 218.818 575.645 219.041 575.763 218.959C575.882 218.876 576.25 219.196 576.58 219.67C576.911 220.145 577.278 220.465 577.397 220.382C577.516 220.3 577.734 220.407 577.883 220.62C578.219 221.102 579.444 221.832 579.665 221.682C579.754 221.621 580.03 221.862 580.278 222.217C580.526 222.573 580.826 222.796 580.945 222.714C581.063 222.631 581.363 222.854 581.611 223.21C581.859 223.566 582.159 223.789 582.278 223.706C582.396 223.624 582.629 223.75 582.794 223.987C582.959 224.224 583.184 224.356 583.293 224.28C583.402 224.204 583.757 224.387 584.082 224.687C584.407 224.987 584.801 225.225 584.957 225.217C585.114 225.208 585.34 225.342 585.46 225.514C585.738 225.912 587.98 227.223 588.275 227.16C588.397 227.133 588.626 227.298 588.785 227.525C588.943 227.752 589.17 227.87 589.288 227.788C589.407 227.705 589.639 227.831 589.804 228.068C589.97 228.306 590.202 228.432 590.321 228.349C590.439 228.267 590.739 228.49 590.987 228.846C591.235 229.201 591.535 229.425 591.654 229.342C591.772 229.259 592.004 229.386 592.17 229.623C592.335 229.86 592.567 229.986 592.686 229.903C592.804 229.821 593.003 229.899 593.127 230.076C593.251 230.254 593.449 230.332 593.568 230.249C593.686 230.167 593.886 230.246 594.011 230.425C594.292 230.828 598.075 232.993 598.381 232.926C598.504 232.9 598.734 233.064 598.892 233.291C599.051 233.518 599.277 233.636 599.396 233.554C599.514 233.471 599.814 233.694 600.062 234.05C600.31 234.406 600.61 234.629 600.729 234.546C600.847 234.464 601.08 234.59 601.245 234.827C601.41 235.064 601.624 235.203 601.721 235.136C601.817 235.069 602.266 235.26 602.718 235.562C603.17 235.863 603.619 236.055 603.716 235.987C603.812 235.92 604.026 236.059 604.192 236.296C604.357 236.533 604.583 236.664 604.695 236.586C604.806 236.509 605.268 236.837 605.721 237.316C606.174 237.795 606.668 238.18 606.818 238.172C606.968 238.163 607.256 238.393 607.458 238.683C607.659 238.972 607.921 239.141 608.04 239.059C608.159 238.976 608.488 239.242 608.773 239.65C609.057 240.058 609.429 240.384 609.598 240.375C609.768 240.365 610.038 240.546 610.199 240.776C610.359 241.006 610.587 241.127 610.706 241.044C610.846 240.947 612.797 243.584 616.249 248.533C619.638 253.393 621.531 256.275 621.453 256.455C621.378 256.629 622.492 258.404 624.328 261.037C626.226 263.759 627.404 265.28 627.541 265.185C627.682 265.086 630.938 269.597 637 278.291C643.063 286.984 646.17 291.598 646.029 291.697C645.91 291.779 646.016 292.138 646.264 292.494C646.512 292.849 646.641 293.192 646.55 293.255C646.46 293.318 646.48 293.845 646.595 294.426C646.71 295.006 646.75 295.837 646.685 296.271C646.62 296.706 646.643 297.172 646.738 297.307C646.832 297.443 646.808 298.028 646.684 298.608C646.56 299.188 646.511 299.749 646.575 299.853C646.64 299.958 646.58 300.699 646.444 301.499C646.307 302.299 646.248 303.031 646.312 303.126C646.48 303.37 646.408 304.074 645.997 306.236C645.798 307.278 645.689 308.207 645.754 308.3C645.819 308.394 645.789 308.996 645.687 309.638C645.585 310.28 645.48 311.318 645.453 311.944C645.427 312.57 644.875 316.116 644.227 319.824L643.048 326.566L641.559 328.172C640.74 329.056 639.806 329.969 639.484 330.203C639.162 330.436 638.967 330.724 639.05 330.842C639.132 330.961 638.963 331.223 638.674 331.425C638.384 331.627 638.155 331.93 638.165 332.1C638.174 332.27 637.951 332.57 637.668 332.767C637.386 332.963 637.163 333.263 637.172 333.433C637.182 333.603 636.953 333.906 636.663 334.108C636.374 334.31 636.205 334.572 636.287 334.691C636.37 334.809 636.147 335.109 635.791 335.357C635.435 335.605 635.212 335.905 635.295 336.024C635.377 336.142 635.27 336.361 635.057 336.51C634.844 336.659 634.633 336.925 634.589 337.101C634.544 337.278 634.166 337.861 633.747 338.399C633.329 338.936 632.424 340.385 631.737 341.618C631.05 342.852 630.392 343.928 630.276 344.009C630.16 344.089 629.956 344.359 629.823 344.607C629.691 344.855 629.407 345.324 629.192 345.648C628.394 346.852 627.363 348.771 627.402 348.976C627.424 349.093 627.257 349.317 627.03 349.476C626.802 349.634 626.668 349.837 626.73 349.927C626.793 350.016 626.603 350.416 626.308 350.815C626.013 351.213 625.654 351.731 625.509 351.965C625.285 352.326 625.162 352.272 624.703 351.613C624.405 351.186 624.064 350.904 623.945 350.986C623.827 351.069 623.362 350.609 622.912 349.964C622.462 349.319 621.955 348.799 621.786 348.808C621.616 348.817 621.021 348.171 620.464 347.372C619.907 346.573 619.299 345.888 619.113 345.85C618.927 345.813 618.186 345.039 617.468 344.131C616.153 342.471 612.904 338.854 610.655 336.548C609.99 335.866 609.069 334.883 608.608 334.364C608.146 333.845 607.648 333.427 607.5 333.436C607.353 333.444 606.868 332.929 606.423 332.291C605.978 331.653 605.475 331.138 605.305 331.148C605.136 331.157 604.697 330.734 604.33 330.207C603.962 329.681 603.565 329.318 603.446 329.401C603.328 329.483 602.931 329.12 602.563 328.594C602.196 328.067 601.757 327.644 601.587 327.653C601.418 327.663 600.979 327.24 600.612 326.713C600.244 326.187 599.847 325.824 599.728 325.906C599.61 325.989 599.175 325.572 598.761 324.979C598.348 324.386 597.913 323.969 597.794 324.052C597.676 324.134 597.397 323.942 597.176 323.624C596.955 323.307 596.474 322.813 596.109 322.527C595.743 322.24 594.976 321.54 594.403 320.97C593.831 320.4 592.995 319.613 592.547 319.221C590.559 317.481 588.924 315.925 588.612 315.478C588.426 315.211 588.177 315.061 588.058 315.143C587.94 315.226 587.61 314.96 587.325 314.552C587.041 314.144 586.669 313.818 586.5 313.827C586.33 313.837 585.963 313.516 585.683 313.115C585.403 312.714 585.036 312.394 584.866 312.404C584.697 312.413 584.393 312.184 584.191 311.894C583.989 311.605 583.727 311.436 583.609 311.519C583.49 311.601 583.122 311.281 582.792 310.807C582.461 310.333 582.094 310.012 581.975 310.095C581.856 310.178 581.527 309.912 581.242 309.504C580.958 309.095 580.606 308.769 580.461 308.776C580.315 308.785 579.818 308.366 579.356 307.846C578.893 307.327 577.833 306.368 577 305.715C576.167 305.063 575.115 304.211 574.663 303.821C574.21 303.432 573.635 303.006 573.385 302.875C573.134 302.744 572.726 302.344 572.476 301.987C572.227 301.629 571.926 301.405 571.808 301.487C571.689 301.57 571.36 301.304 571.075 300.896C570.791 300.488 570.419 300.162 570.249 300.171C570.08 300.181 569.78 299.957 569.583 299.675C569.386 299.393 569.086 299.169 568.917 299.179C568.747 299.188 568.375 298.862 568.091 298.454C567.806 298.046 567.477 297.78 567.358 297.863C567.24 297.945 567.011 297.825 566.851 297.595C566.69 297.364 566.42 297.184 566.251 297.193C566.081 297.203 565.791 297 565.606 296.743C565.421 296.486 564.996 296.186 564.662 296.078C564.327 295.969 563.962 295.748 563.85 295.588C563.737 295.426 563.172 295.029 562.592 294.703C562.013 294.378 561.45 293.984 561.342 293.829C561.233 293.673 561.047 293.614 560.929 293.696C560.81 293.779 560.592 293.672 560.443 293.458C560.107 292.977 558.882 292.246 558.661 292.397C558.572 292.458 558.363 292.314 558.198 292.077C558.033 291.84 557.8 291.713 557.682 291.796C557.563 291.879 557.331 291.752 557.166 291.515C557 291.278 556.768 291.152 556.649 291.234C556.531 291.317 556.299 291.191 556.133 290.954C555.968 290.717 555.736 290.59 555.617 290.673C555.499 290.756 555.336 290.729 555.255 290.613C555.024 290.281 550.649 287.899 550.089 287.8C549.989 287.782 549.583 287.597 549.187 287.388C548.792 287.179 548.388 287.064 548.289 287.133C548.191 287.202 547.975 287.064 547.81 286.827C547.644 286.59 547.436 286.447 547.346 286.509C547.256 286.572 546.881 286.438 546.51 286.211C543.908 284.617 542.77 283.935 541.895 283.443C541.344 283.133 540.804 282.753 540.696 282.597C540.587 282.442 540.401 282.382 540.283 282.465C540.164 282.548 539.898 282.373 539.691 282.076C539.485 281.78 539.219 281.605 539.1 281.688C538.982 281.77 538.749 281.644 538.584 281.407C538.419 281.17 538.186 281.044 538.068 281.126C537.949 281.209 537.649 280.985 537.401 280.63C537.153 280.274 536.853 280.051 536.735 280.134C536.616 280.216 536.384 280.09 536.219 279.853C536.053 279.616 535.821 279.489 535.703 279.572C535.584 279.655 535.386 279.577 535.262 279.399C535.138 279.221 535.133 279.008 535.252 278.925C535.37 278.843 535.197 278.387 534.866 277.913C534.535 277.439 534.362 276.983 534.48 276.9C534.599 276.818 534.531 276.513 534.329 276.224C534.127 275.934 534.017 275.57 534.085 275.414C534.152 275.258 534.046 274.9 533.849 274.617C533.652 274.335 533.546 273.976 533.614 273.82C533.681 273.664 533.508 273.209 533.228 272.808C532.949 272.407 532.769 271.966 532.829 271.827C532.889 271.688 532.773 271.22 532.571 270.786C531.401 268.277 530.413 265.897 530.017 264.636C529.858 264.13 529.536 263.201 529.302 262.571C529.069 261.941 528.847 261.196 528.811 260.916C528.774 260.636 528.54 260.114 528.291 259.757C528.042 259.399 527.935 259.039 528.054 258.957C528.172 258.874 527.999 258.418 527.668 257.944C527.337 257.47 527.164 257.014 527.282 256.932C527.401 256.849 527.198 256.351 526.83 255.824C526.463 255.297 526.218 254.739 526.286 254.583C526.353 254.427 526.04 253.772 525.59 253.127C525.14 252.482 524.857 251.896 524.959 251.824C525.062 251.753 524.724 250.943 524.209 250.025C523.694 249.106 522.881 247.619 522.402 246.72C519.329 240.948 518.418 239.483 516.284 236.89C514.192 234.347 511.452 231.726 510.99 231.825C510.868 231.851 510.672 231.734 510.554 231.564C510.435 231.395 510.135 231.148 509.886 231.016C509.637 230.883 508.867 230.449 508.176 230.05C507.484 229.651 506.835 229.312 506.732 229.295C506.63 229.278 506.199 229.074 505.775 228.841C505.35 228.609 503.303 228.108 501.224 227.728C498.359 227.204 496.935 227.106 495.331 227.321C494.168 227.477 492.704 227.652 492.078 227.709C491.452 227.766 490.755 227.943 490.528 228.101C490.302 228.259 489.989 228.333 489.833 228.265C489.677 228.198 489.318 228.304 489.036 228.5C488.754 228.697 488.395 228.803 488.239 228.736C488.083 228.668 487.724 228.774 487.442 228.971C487.16 229.168 486.801 229.274 486.645 229.207C486.488 229.139 485.448 229.721 484.318 230.509C480.744 233.002 479.417 235.411 479.33 239.566C479.285 241.727 479.437 243.446 479.707 243.834C479.826 244.005 479.838 244.205 479.734 244.278C479.629 244.351 479.628 244.64 479.731 244.92C479.843 245.225 479.738 245.557 479.469 245.744C478.903 246.139 476.17 250.755 475.531 252.398C475.267 253.076 474.984 253.677 474.903 253.733C474.659 253.904 473.415 260.991 473.586 261.239C473.673 261.365 473.696 261.812 473.636 262.232C473.576 262.652 473.588 263.082 473.662 263.188C473.736 263.294 473.718 263.888 473.622 264.508C473.525 265.128 473.515 265.733 473.599 265.853C473.682 265.973 473.663 266.131 473.557 266.205C473.45 266.279 473.501 267.29 473.668 268.45C474.138 271.706 474.236 272.895 474.089 273.56C474.015 273.897 474.065 274.331 474.2 274.524C474.335 274.718 474.348 274.944 474.23 275.027C474.111 275.109 474.144 275.363 474.302 275.59C474.461 275.817 474.535 276.089 474.469 276.195C474.332 276.411 474.743 278.979 474.966 279.298C475.183 279.609 475.866 283.961 475.732 284.177C475.668 284.28 475.813 284.648 476.054 284.993C476.296 285.339 476.396 285.69 476.277 285.772C476.159 285.855 476.197 286.117 476.362 286.354C476.528 286.591 476.566 286.853 476.447 286.935C476.329 287.018 476.365 287.276 476.528 287.51C476.691 287.744 476.871 288.415 476.928 289.003C476.985 289.59 477.152 290.242 477.298 290.452C477.445 290.662 477.543 290.985 477.518 291.17C477.493 291.355 477.661 292.13 477.893 292.891C478.124 293.653 478.263 294.394 478.201 294.538C478.138 294.682 478.249 295.031 478.445 295.313C478.642 295.595 478.748 295.954 478.681 296.11C478.613 296.266 478.689 296.582 478.85 296.812C479.01 297.042 479.069 297.282 478.981 297.345C478.791 297.48 479.009 298.877 479.282 299.269C479.387 299.419 479.52 300.023 479.577 300.611C479.634 301.198 479.814 301.87 479.977 302.103C480.14 302.337 480.176 302.596 480.058 302.678C479.939 302.761 479.978 303.024 480.145 303.263C480.311 303.501 480.469 303.932 480.495 304.22C480.543 304.759 481.002 306.49 481.504 308.031C481.661 308.512 481.834 309.369 481.89 309.934C481.945 310.499 482.123 311.152 482.286 311.386C482.449 311.619 482.485 311.878 482.366 311.961C482.248 312.043 482.286 312.305 482.451 312.542C482.617 312.779 482.655 313.041 482.536 313.123C482.418 313.206 482.524 313.565 482.772 313.92C483.02 314.276 483.126 314.635 483.007 314.717C482.889 314.8 482.957 315.104 483.159 315.394C483.361 315.683 483.47 316.047 483.403 316.203C483.335 316.359 483.441 316.718 483.638 317C483.835 317.283 483.941 317.641 483.874 317.797C483.806 317.953 483.883 318.27 484.045 318.502C484.207 318.734 484.362 319.157 484.391 319.443C484.453 320.059 485.156 322.392 485.374 322.704C485.458 322.825 485.612 323.46 485.717 324.116C485.822 324.772 486.027 325.479 486.172 325.687C486.317 325.894 486.38 326.192 486.313 326.348C486.245 326.504 486.423 326.965 486.707 327.373C486.992 327.781 487.128 328.182 487.009 328.265C486.89 328.348 486.996 328.706 487.244 329.062C487.492 329.418 487.598 329.776 487.48 329.859C487.361 329.942 487.497 330.343 487.781 330.751C488.066 331.159 488.243 331.62 488.176 331.776C488.109 331.932 488.215 332.291 488.411 332.573C488.608 332.855 488.714 333.214 488.647 333.37C488.579 333.526 488.743 333.968 489.011 334.352C489.279 334.736 489.478 335.202 489.452 335.387C489.427 335.573 489.939 337.082 490.592 338.741C491.245 340.4 491.728 341.842 491.665 341.944C491.603 342.046 491.817 342.51 492.141 342.974C492.464 343.438 492.632 343.886 492.514 343.968C492.395 344.051 492.531 344.452 492.815 344.86C493.1 345.268 493.277 345.73 493.21 345.886C493.143 346.042 493.32 346.503 493.605 346.911C493.889 347.319 494.025 347.72 493.906 347.803C493.788 347.885 493.961 348.341 494.292 348.815C494.623 349.29 494.796 349.745 494.678 349.828C494.559 349.91 494.598 350.173 494.765 350.412C494.931 350.651 495.097 351.076 495.133 351.357C495.169 351.638 495.394 352.379 495.634 353.005C496.242 354.596 497.482 358.492 497.573 359.097C497.615 359.374 497.781 359.79 497.942 360.022C498.104 360.254 498.181 360.571 498.114 360.727C498.046 360.883 498.224 361.344 498.508 361.752C498.793 362.16 498.928 362.561 498.81 362.644C498.691 362.727 498.797 363.085 499.045 363.441C499.293 363.797 499.399 364.155 499.281 364.238C499.162 364.321 499.23 364.625 499.432 364.914C499.634 365.204 499.744 365.568 499.676 365.724C499.609 365.88 499.715 366.239 499.912 366.521C500.109 366.803 500.214 367.162 500.147 367.318C500.08 367.474 500.253 367.929 500.533 368.33C500.812 368.731 500.986 369.187 500.918 369.343C500.851 369.499 500.957 369.857 501.154 370.14C501.351 370.422 501.464 370.765 501.404 370.901C501.345 371.038 501.606 372.168 501.983 373.413C502.361 374.657 502.623 375.783 502.566 375.914C502.51 376.045 502.625 376.383 502.821 376.665C503.018 376.948 503.124 377.306 503.057 377.462C502.989 377.618 503.099 377.983 503.301 378.272C503.503 378.562 503.571 378.866 503.452 378.949C503.334 379.031 503.372 379.293 503.538 379.53C503.703 379.767 503.741 380.029 503.623 380.111C503.504 380.194 503.542 380.456 503.708 380.693C503.873 380.93 503.935 381.175 503.845 381.237C503.756 381.3 503.766 381.762 503.867 382.264C504.353 384.672 504.938 388.656 504.83 388.827C504.763 388.932 504.838 389.204 504.996 389.431C505.155 389.659 505.188 389.912 505.069 389.995C504.951 390.078 504.989 390.339 505.154 390.576C505.32 390.813 505.358 391.075 505.239 391.158C505.121 391.24 505.159 391.502 505.324 391.739C505.49 391.976 505.548 392.224 505.454 392.29C505.359 392.355 505.407 392.971 505.559 393.658C505.711 394.345 505.769 394.953 505.689 395.009C505.608 395.065 505.654 395.754 505.79 396.541C505.925 397.327 505.981 398.01 505.912 398.058C505.844 398.106 505.917 398.848 506.075 399.706C506.232 400.563 506.289 401.316 506.2 401.379C506.112 401.441 506.174 401.686 506.34 401.923C506.505 402.16 506.543 402.422 506.425 402.505C506.306 402.587 506.345 402.849 506.51 403.086C506.675 403.323 506.714 403.585 506.595 403.668C506.476 403.75 506.476 403.956 506.594 404.126C506.712 404.295 506.777 404.646 506.738 404.906C506.637 405.581 506.906 407.789 507.128 408.107C507.231 408.255 507.254 408.652 507.18 408.989C507.105 409.325 507.102 409.993 507.173 410.472C507.245 410.951 507.264 411.65 507.217 412.024C507.17 412.399 507.191 412.791 507.264 412.895C507.436 413.143 507.266 414.092 507.018 414.265C506.912 414.339 506.95 415.069 507.104 415.887C507.258 416.705 507.262 417.988 507.113 418.738C506.965 419.489 506.936 420.234 507.048 420.395C507.16 420.556 507.155 420.963 507.038 421.299C506.92 421.635 506.893 422.011 506.979 422.135C507.065 422.258 507.086 422.752 507.025 423.233C506.964 423.715 506.962 424.471 507.022 424.914C507.081 425.358 507.049 425.777 506.95 425.845C506.852 425.914 506.878 426.123 507.008 426.31C507.139 426.498 507.117 427.294 506.961 428.08C506.805 428.866 506.739 429.599 506.815 429.709C506.892 429.818 506.883 430.219 506.795 430.599C506.708 430.978 506.698 431.378 506.774 431.487C506.85 431.595 506.885 431.904 506.852 432.173C506.729 433.176 506.751 433.566 507.048 435.548C507.216 436.664 507.29 437.855 507.213 438.193C507.137 438.532 507.185 438.967 507.32 439.16C507.455 439.354 507.468 439.58 507.35 439.663C507.231 439.745 507.269 440.007 507.435 440.244C507.6 440.481 507.638 440.743 507.52 440.825C507.401 440.908 507.369 441.068 507.448 441.182C507.586 441.38 507.7 443.33 507.624 444.183C507.603 444.41 507.759 444.843 507.969 445.144C508.179 445.445 508.254 445.76 508.135 445.842C508.017 445.925 508.011 446.123 508.122 446.282C508.233 446.442 508.26 446.853 508.18 447.196C508.102 447.539 508.141 448.254 508.268 448.786C508.396 449.317 508.421 449.808 508.325 449.875C508.228 449.942 508.285 450.191 508.45 450.428C508.615 450.665 508.628 450.945 508.479 451.049C508.329 451.153 508.198 451.638 508.189 452.127C508.179 452.615 508.109 453.391 508.034 453.851C507.958 454.311 507.961 454.779 508.039 454.892C508.117 455.004 508.012 456.093 507.804 457.312C507.597 458.53 507.525 459.667 507.644 459.838C507.764 460.009 507.755 460.307 507.624 460.499C507.494 460.691 507.516 461.032 507.672 461.257C507.829 461.481 507.86 461.732 507.741 461.815C507.623 461.898 507.646 462.138 507.793 462.349C507.94 462.56 507.964 463.007 507.846 463.343C507.728 463.68 507.752 464.127 507.899 464.338C508.046 464.549 508.07 464.789 507.951 464.872C507.833 464.955 507.807 465.125 507.894 465.25C507.981 465.375 507.972 465.994 507.874 466.625C507.776 467.257 507.744 468.172 507.804 468.659C507.863 469.146 507.841 469.827 507.755 470.172C507.669 470.517 507.665 470.894 507.746 471.01C507.827 471.126 507.822 471.531 507.734 471.911C507.647 472.291 507.656 472.717 507.754 472.858C507.852 473 507.861 473.426 507.774 473.806C507.686 474.185 507.691 474.605 507.784 474.739C507.877 474.872 507.856 475.256 507.738 475.592C507.621 475.929 507.6 476.313 507.693 476.446C507.943 476.804 508.158 478.503 507.971 478.634C507.801 478.753 508.217 481.332 508.464 481.686C508.543 481.799 508.512 482.167 508.394 482.504C508.276 482.84 508.294 483.28 508.434 483.481C508.574 483.682 508.635 483.931 508.57 484.036C508.505 484.14 508.592 485.209 508.763 486.411C509.151 489.126 509.315 491.598 509.126 491.871C509.047 491.984 509.18 492.36 509.421 492.706C509.663 493.052 509.763 493.402 509.644 493.485C509.526 493.568 509.564 493.829 509.729 494.066C509.895 494.303 509.933 494.565 509.815 494.648C509.696 494.73 509.724 494.978 509.877 495.197C510.03 495.417 510.393 497.281 510.684 499.34C510.975 501.399 511.369 503.308 511.56 503.582C511.751 503.856 511.811 504.148 511.692 504.231C511.574 504.313 511.612 504.575 511.777 504.812C511.943 505.049 511.981 505.311 511.862 505.394C511.744 505.476 511.776 505.729 511.933 505.954C512.24 506.394 512.63 508.792 512.444 509.099C512.383 509.201 512.462 509.47 512.621 509.697C512.779 509.924 512.812 510.178 512.693 510.26C512.575 510.343 512.571 510.544 512.684 510.707C512.798 510.87 512.956 511.588 513.037 512.303C513.117 513.018 513.374 514.155 513.607 514.829C513.84 515.503 513.956 516.107 513.863 516.172C513.77 516.237 513.819 516.469 513.972 516.688C514.513 517.463 514.517 518.91 513.982 519.832C513.686 520.34 513.41 521.04 513.367 521.387C513.324 521.734 513.18 522.095 513.045 522.188C512.911 522.282 512.869 522.456 512.951 522.574C513.034 522.693 512.995 522.864 512.865 522.955C512.505 523.206 512.039 526.777 512.256 527.625C512.361 528.036 512.378 528.42 512.294 528.479C512.21 528.537 512.298 529.521 512.489 530.666C512.68 531.81 512.776 533.021 512.702 533.357C512.629 533.694 512.664 534.106 512.781 534.273C512.897 534.441 512.896 534.853 512.779 535.189C512.661 535.525 512.684 535.973 512.832 536.184C512.979 536.395 513.014 536.627 512.91 536.699C512.806 536.772 512.814 537.559 512.928 538.448C513.042 539.337 513.062 540.116 512.974 540.178C512.885 540.24 512.948 540.485 513.113 540.722C513.279 540.959 513.317 541.221 513.198 541.303C513.08 541.386 513.072 541.581 513.18 541.737C513.289 541.892 513.281 542.501 513.163 543.09C513.045 543.679 513.005 544.242 513.075 544.342C513.222 544.553 513.005 546.577 512.659 548.225C512.526 548.856 512.471 549.448 512.535 549.54C512.6 549.633 512.455 550.93 512.214 552.422L511.776 555.135L502.227 562.1C496.079 566.584 489.863 570.916 484.771 574.266C480.422 577.126 475.195 580.628 473.155 582.047C470.92 583.603 469.335 584.579 469.164 584.505C469.002 584.435 467.826 585.117 466.415 586.102C464.914 587.148 463.89 587.737 463.798 587.606C463.703 587.468 461.852 588.643 458.691 590.847C455.53 593.052 453.679 594.226 453.583 594.089C453.489 593.953 451.996 594.875 449.553 596.579C447.111 598.282 445.618 599.204 445.523 599.069C445.433 598.939 444.475 599.479 443.11 600.431C441.745 601.383 440.787 601.924 440.697 601.794C440.61 601.669 439.864 602.054 438.93 602.706C437.996 603.357 437.25 603.742 437.163 603.617C437.078 603.496 436.402 603.828 435.612 604.379C434.821 604.93 434.145 605.262 434.06 605.14C433.974 605.016 433.242 605.391 432.337 606.022C431.471 606.625 430.608 607.092 430.418 607.06C430.228 607.028 429.07 607.63 427.844 608.399C425.529 609.851 422.845 611.336 419.984 612.747C419.066 613.199 417.708 613.991 416.965 614.505C416.212 615.027 415.549 615.345 415.465 615.224C415.378 615.1 414.632 615.485 413.698 616.136C412.764 616.787 412.018 617.173 411.931 617.048C411.843 616.921 411.027 617.358 409.949 618.11C408.871 618.861 408.055 619.299 407.966 619.172C407.878 619.045 407.062 619.483 405.984 620.234C404.906 620.986 404.09 621.423 404.002 621.296C403.915 621.172 403.173 621.554 402.248 622.199C401.366 622.814 400.516 623.262 400.36 623.195C400.204 623.127 399.355 623.575 398.473 624.19C397.548 624.836 396.806 625.218 396.719 625.093C396.634 624.972 395.962 625.301 395.18 625.846C394.417 626.378 393.665 626.759 393.509 626.691C393.353 626.624 392.558 627.034 391.742 627.603C390.926 628.172 390.131 628.582 389.975 628.515C389.819 628.447 389.088 628.807 388.35 629.313C387.613 629.82 386.513 630.452 385.905 630.718C385.298 630.984 383.711 631.861 382.378 632.666C381.046 633.471 379.897 634.046 379.826 633.945C379.755 633.843 379.164 634.132 378.512 634.586C377.86 635.041 377.259 635.316 377.176 635.197C377.09 635.074 376.379 635.433 375.517 636.034C374.655 636.635 373.944 636.994 373.858 636.871C373.773 636.749 373.097 637.081 372.307 637.632C371.516 638.183 370.84 638.515 370.756 638.393C370.671 638.272 369.995 638.604 369.204 639.155C368.414 639.706 367.738 640.038 367.653 639.916C367.567 639.793 366.856 640.152 365.994 640.753C365.132 641.354 364.421 641.713 364.335 641.589C364.248 641.465 363.502 641.85 362.568 642.501C361.634 643.152 360.888 643.537 360.801 643.413C360.719 643.294 360.123 643.565 359.478 644.015C358.833 644.465 358.178 644.778 358.022 644.71C357.866 644.643 357.266 644.917 356.688 645.321C356.109 645.724 355.314 646.134 354.92 646.233C354.526 646.332 353.196 647.022 351.964 647.766C350.732 648.51 349.667 649.037 349.596 648.936C349.526 648.835 348.79 649.226 347.96 649.805C347.098 650.406 346.387 650.765 346.301 650.642C346.218 650.523 345.617 650.798 344.965 651.253C344.313 651.707 343.712 651.982 343.629 651.864C343.545 651.742 342.868 652.074 342.078 652.625C341.288 653.176 340.612 653.508 340.527 653.387C340.443 653.267 339.802 653.572 339.083 654.073C338.365 654.574 337.723 654.879 337.64 654.759C337.557 654.641 336.962 654.912 336.317 655.361C335.672 655.811 335.016 656.124 334.86 656.057C334.705 655.989 334.049 656.302 333.404 656.752C332.759 657.202 332.17 657.481 332.095 657.373C332.019 657.265 331.363 657.513 330.637 657.924C329.911 658.335 328.617 659.013 327.763 659.431C324.306 661.123 322.843 661.906 321.757 662.647C321.131 663.075 320.551 663.329 320.468 663.21C320.383 663.088 319.707 663.42 318.917 663.971C318.126 664.523 317.45 664.854 317.365 664.733C317.282 664.613 316.64 664.918 315.922 665.419C315.203 665.92 314.562 666.225 314.478 666.105C314.393 665.984 313.717 666.316 312.927 666.867C312.137 667.418 311.46 667.75 311.376 667.628C311.293 667.51 310.74 667.751 310.148 668.164C309.555 668.578 309.002 668.819 308.92 668.7C308.837 668.582 308.236 668.857 307.584 669.311C306.932 669.766 306.331 670.041 306.248 669.922C306.164 669.801 305.491 670.13 304.71 670.675C303.946 671.207 303.194 671.588 303.038 671.52C302.882 671.453 302.13 671.833 301.366 672.366C300.602 672.898 299.919 673.249 299.847 673.146C299.775 673.043 298.479 673.717 296.968 674.645C295.457 675.573 293.722 676.557 293.114 676.832C292.506 677.107 290.63 678.19 288.947 679.239C287.262 680.288 285.827 681.064 285.756 680.962C285.686 680.861 284.997 681.218 284.227 681.755C283.436 682.306 282.76 682.638 282.676 682.516C282.593 682.398 281.992 682.673 281.34 683.128C280.688 683.582 280.087 683.857 280.004 683.739C279.92 683.619 279.279 683.924 278.561 684.425C277.842 684.926 277.201 685.231 277.117 685.111C277.034 684.993 276.433 685.268 275.781 685.722C275.129 686.177 274.528 686.452 274.446 686.334C274.363 686.215 273.768 686.486 273.123 686.936C272.477 687.386 271.822 687.698 271.666 687.631C271.51 687.563 270.855 687.876 270.21 688.326C269.565 688.776 268.97 689.047 268.887 688.928C268.804 688.81 268.209 689.081 267.564 689.531C266.919 689.98 266.264 690.293 266.108 690.226C265.952 690.158 265.466 690.353 265.027 690.659C264.589 690.964 263.826 691.353 263.332 691.522C262.839 691.691 261.637 692.292 260.662 692.857C259.687 693.423 258.832 693.803 258.761 693.701C258.69 693.6 258.196 693.821 257.662 694.193C257.129 694.565 256.625 694.772 256.542 694.654C256.459 694.535 255.907 694.777 255.314 695.19C254.721 695.603 254.169 695.844 254.086 695.726C254.001 695.604 253.325 695.936 252.535 696.487C251.744 697.038 251.068 697.37 250.983 697.249C250.901 697.13 250.306 697.401 249.66 697.851C249.015 698.301 248.36 698.614 248.204 698.546C248.048 698.479 247.49 698.724 246.963 699.091C246.437 699.458 245.939 699.661 245.856 699.543C245.773 699.424 245.318 699.598 244.844 699.929C244.369 700.259 243.914 700.433 243.831 700.314C243.748 700.196 243.347 700.331 242.939 700.616C242.531 700.9 242.07 701.078 241.914 701.01C241.758 700.943 241.2 701.188 240.673 701.555C240.147 701.922 239.656 702.137 239.583 702.033C239.511 701.928 238.579 702.349 237.513 702.968C236.446 703.586 235.513 704.004 235.437 703.896C235.362 703.789 234.912 703.971 234.438 704.301C233.964 704.632 233.509 704.806 233.426 704.687C233.343 704.568 232.839 704.776 232.306 705.148C231.772 705.52 231.268 705.727 231.185 705.609C231.103 705.49 230.647 705.664 230.173 705.994C229.699 706.325 229.243 706.499 229.161 706.38C229.078 706.261 228.768 706.334 228.471 706.54C228.175 706.747 227.865 706.819 227.782 706.7C227.7 706.582 227.341 706.688 226.985 706.936C226.63 707.184 226.271 707.29 226.188 707.171C226.106 707.053 225.65 707.226 225.176 707.557C224.702 707.888 224.246 708.061 224.163 707.943C224.077 707.818 223.331 708.203 222.397 708.854C221.463 709.506 220.844 710.072 220.93 710.197C221.013 710.316 220.79 710.616 220.434 710.864C220.079 711.112 219.855 711.411 219.938 711.53C220.021 711.649 219.894 711.881 219.657 712.046C219.42 712.211 219.294 712.444 219.376 712.562C219.459 712.681 219.333 712.913 219.096 713.078C218.859 713.244 218.732 713.476 218.815 713.595C218.898 713.713 218.838 713.899 218.683 714.007C218.527 714.116 218.327 714.544 218.238 714.958C218.149 715.373 218.016 715.753 217.943 715.804C217.768 715.927 217.599 716.904 217.723 717.082C217.776 717.158 217.692 717.865 217.536 718.651C217.379 719.438 217.343 720.212 217.455 720.373C217.568 720.534 217.563 720.941 217.445 721.277C217.327 721.614 217.307 721.998 217.4 722.131C217.675 722.526 217.856 724.195 217.639 724.346C217.529 724.422 217.575 724.679 217.74 724.916C217.905 725.153 217.944 725.415 217.825 725.497C217.707 725.58 217.745 725.842 217.91 726.079C218.076 726.316 218.114 726.577 217.995 726.66C217.877 726.743 217.915 727.004 218.08 727.242C218.246 727.479 218.284 727.74 218.166 727.823C218.047 727.906 218.153 728.264 218.401 728.62C218.649 728.976 218.773 729.322 218.676 729.389C218.43 729.561 218.732 731.851 219.063 732.326C219.214 732.542 219.287 732.802 219.226 732.904C219.165 733.005 219.432 734.164 219.82 735.479C220.209 736.794 220.476 737.953 220.415 738.054C220.354 738.156 220.568 738.619 220.892 739.083C221.216 739.547 221.384 739.995 221.265 740.078C221.147 740.16 221.287 740.567 221.576 740.982C221.865 741.397 222.005 741.804 221.886 741.887C221.768 741.97 221.941 742.425 222.272 742.899C222.603 743.374 222.776 743.829 222.658 743.912C222.539 743.995 222.675 744.396 222.96 744.804C223.244 745.212 223.422 745.673 223.354 745.829C223.287 745.985 223.464 746.446 223.749 746.854C224.033 747.262 224.169 747.664 224.05 747.746C223.932 747.829 224.135 748.327 224.502 748.854C224.87 749.38 225.115 749.939 225.047 750.095C224.98 750.251 225.153 750.706 225.433 751.107C225.713 751.508 225.886 751.964 225.819 752.12C225.751 752.275 225.98 752.81 226.327 753.308C226.674 753.805 227.096 754.619 227.266 755.117C227.435 755.614 228.171 757.01 228.901 758.219C229.631 759.428 230.145 760.475 230.045 760.545C229.944 760.616 230.335 761.352 230.914 762.182C231.515 763.044 231.873 763.755 231.75 763.841C231.626 763.928 232.011 764.674 232.662 765.608C233.313 766.542 233.698 767.288 233.574 767.375C233.443 767.466 234.035 768.495 235.087 770.004C236.139 771.513 236.731 772.541 236.6 772.633C236.465 772.727 237.336 774.148 238.94 776.447C240.543 778.747 241.414 780.168 241.279 780.262C241.139 780.36 243.168 783.43 247.076 789.034C250.984 794.638 253.164 797.603 253.304 797.506C253.439 797.412 254.396 798.612 255.849 800.696C257.302 802.78 258.26 803.981 258.395 803.887C258.526 803.795 259.287 804.706 260.339 806.215C261.391 807.724 262.152 808.635 262.283 808.544C262.41 808.455 263.025 809.148 263.776 810.226C264.528 811.303 265.143 811.996 265.269 811.907C265.394 811.821 265.958 812.435 266.603 813.361C267.218 814.243 267.84 814.958 267.985 814.95C268.13 814.942 268.944 815.788 269.794 816.831C270.645 817.874 271.496 818.755 271.687 818.789C271.878 818.823 272.354 819.311 272.746 819.873C273.138 820.435 273.598 820.887 273.767 820.878C273.937 820.869 274.372 821.286 274.734 821.805C275.097 822.325 275.532 822.742 275.702 822.733C275.871 822.723 276.31 823.146 276.678 823.673C277.045 824.2 277.442 824.563 277.561 824.48C277.679 824.397 278.114 824.815 278.528 825.407C278.941 826 279.376 826.417 279.495 826.335C279.613 826.252 280.015 826.621 280.387 827.154C280.759 827.688 281.16 828.057 281.279 827.974C281.397 827.891 281.765 828.212 282.095 828.686C282.426 829.16 282.794 829.48 282.912 829.398C283.031 829.315 283.432 829.684 283.804 830.217C284.176 830.751 284.577 831.12 284.696 831.037C284.815 830.954 285.182 831.275 285.513 831.749C285.843 832.223 286.192 832.556 286.289 832.489C286.442 832.382 287.508 833.322 289.485 835.309C289.822 835.648 290.221 835.919 290.372 835.91C290.523 835.902 290.842 836.175 291.08 836.516C291.318 836.858 291.652 837.13 291.821 837.121C291.991 837.111 292.291 837.335 292.488 837.617C292.685 837.899 292.985 838.123 293.154 838.113C293.324 838.104 293.696 838.43 293.98 838.838C294.265 839.246 294.594 839.512 294.713 839.429C294.831 839.347 295.131 839.57 295.379 839.926C295.627 840.281 295.927 840.505 296.046 840.422C296.164 840.339 296.43 840.514 296.637 840.81C296.844 841.107 297.11 841.282 297.228 841.199C297.347 841.116 297.613 841.291 297.82 841.588C298.026 841.884 298.292 842.059 298.411 841.976C298.529 841.893 298.829 842.117 299.077 842.472C299.325 842.828 299.625 843.051 299.744 842.969C299.862 842.886 300.107 843.029 300.286 843.287C300.632 843.783 304.338 845.937 304.711 845.858C304.832 845.833 305.06 845.998 305.218 846.226C305.377 846.453 305.604 846.571 305.722 846.488C305.841 846.406 306.073 846.532 306.238 846.769C306.404 847.006 306.636 847.133 306.754 847.05C306.873 846.967 307.059 847.027 307.167 847.182C307.276 847.338 307.703 847.538 308.118 847.627C308.533 847.716 308.976 847.939 309.103 848.122C309.231 848.304 309.432 848.386 309.551 848.304C309.669 848.221 309.854 848.28 309.962 848.434C310.378 849.031 314.302 849.487 316.194 849.159L318.088 848.831L323.29 844.807C326.151 842.593 329.694 839.819 331.163 838.641C336.41 834.434 339.61 831.837 342.005 829.84C349.385 823.687 352.705 820.891 355.123 818.793C356.111 817.935 358.692 815.849 360.86 814.156C364.869 811.025 370.719 806.27 375.275 802.441C376.663 801.273 381.665 797.49 386.389 794.032C396.611 786.553 403.45 781.378 406.205 779.037C410.581 775.32 411.037 774.909 411.321 774.429C411.482 774.155 413.473 772.565 415.744 770.895C418.015 769.225 421.701 766.448 423.934 764.724C426.168 763 431.173 759.221 435.057 756.328C438.942 753.434 442.94 750.346 443.943 749.467C444.945 748.588 447.349 746.763 449.284 745.413C451.22 744.063 454.044 741.947 455.561 740.711C460.569 736.633 479.719 722.944 488.377 717.254C494.505 713.228 497.6 711.052 500.954 708.416C504.266 705.812 505.748 704.769 506.755 704.332C508.364 703.634 509.402 702.932 520.687 694.909C525.501 691.486 530.193 687.994 531.231 687.061C532.26 686.136 535.52 683.679 538.476 681.601C545.798 676.454 561.316 664.727 565.959 660.833C567.293 659.714 570.119 657.461 572.239 655.827C578.658 650.878 579.077 650.53 579.218 650.017C579.308 649.691 580.687 648.503 583.278 646.521C588.373 642.622 597.036 635.553 599.772 633.064C600.526 632.377 603.406 630.098 606.171 627.999C613.257 622.621 616.6 619.756 616.297 619.321C616.229 619.223 617.185 618.372 618.422 617.43C619.659 616.488 621.084 615.275 621.588 614.735C622.092 614.194 622.802 613.456 623.167 613.095C623.532 612.734 623.963 612.215 624.125 611.943C624.755 610.885 625.93 609.425 626.442 609.063C626.738 608.855 627.55 608.056 628.247 607.288C628.945 606.519 629.797 605.621 630.141 605.291C630.485 604.961 630.76 604.567 630.752 604.416C630.743 604.265 630.926 604.01 631.158 603.848C631.39 603.686 631.687 603.349 631.818 603.099C631.949 602.848 632.412 602.223 632.847 601.709C633.281 601.196 633.744 600.57 633.875 600.32C634.007 600.069 634.262 599.761 634.443 599.635C634.624 599.509 634.879 599.199 635.01 598.948C635.231 598.521 636.307 597.143 639.449 593.261C640.158 592.384 640.846 591.46 640.976 591.208C641.106 590.956 641.382 590.629 641.59 590.481C642.031 590.168 643.165 588.646 643.231 588.28C643.255 588.142 643.496 587.876 643.766 587.688C644.035 587.5 644.248 587.207 644.239 587.037C644.229 586.868 644.411 586.597 644.643 586.435C644.875 586.274 645.173 585.939 645.307 585.691C645.44 585.444 645.855 584.854 646.23 584.38C647.253 583.086 649.157 580.106 649.796 578.798C650.108 578.162 650.479 577.56 650.622 577.46C650.964 577.222 655.435 569.064 655.55 568.471C655.598 568.218 655.867 567.614 656.148 567.128C656.428 566.642 656.839 565.784 657.061 565.222C657.283 564.659 657.654 563.851 657.886 563.425C658.117 563 658.321 562.569 658.339 562.468C658.357 562.367 658.646 561.748 658.982 561.093C659.317 560.437 659.741 559.456 659.924 558.914C660.106 558.371 660.313 557.888 660.382 557.84C660.452 557.791 660.733 557.199 661.008 556.524C661.283 555.849 661.696 554.948 661.927 554.52C662.157 554.092 662.57 553.191 662.845 552.516C663.12 551.841 663.443 551.22 663.564 551.135C663.685 551.051 663.727 550.901 663.658 550.801C663.588 550.702 663.7 550.336 663.905 549.99C664.11 549.643 664.327 549.178 664.386 548.957C664.609 548.129 665.39 546.338 665.589 546.2C665.702 546.121 665.727 545.959 665.644 545.84C665.562 545.722 665.613 545.537 665.759 545.43C665.904 545.323 666.382 544.199 666.819 542.931C667.256 541.663 667.856 539.991 668.151 539.214C668.446 538.437 668.636 537.727 668.573 537.637C668.51 537.546 668.566 537.396 668.699 537.303C668.831 537.211 669.086 536.595 669.266 535.935C669.751 534.153 669.784 534.051 670.326 532.647C670.601 531.935 670.845 531.119 670.869 530.833C670.893 530.547 670.998 530.253 671.104 530.18C671.209 530.107 671.396 529.543 671.52 528.928C671.644 528.313 671.877 527.718 672.037 527.607C672.198 527.495 672.279 527.33 672.217 527.241C672.156 527.151 672.301 526.583 672.539 525.979C672.776 525.374 672.981 524.791 672.994 524.683C673.007 524.575 673.207 523.931 673.438 523.253C673.67 522.574 673.897 521.738 673.943 521.396C673.989 521.053 674.15 520.688 674.3 520.583C674.45 520.478 674.611 520.114 674.658 519.772C674.705 519.431 674.964 518.331 675.233 517.327C675.502 516.323 675.825 514.98 675.952 514.343C676.078 513.705 676.246 513.139 676.324 513.084C676.403 513.029 676.659 512.166 676.894 511.165C677.489 508.629 677.943 507.15 678.177 506.987C678.287 506.91 678.452 506.362 678.545 505.769C678.638 505.176 678.792 504.636 678.888 504.569C678.984 504.502 679.186 503.856 679.337 503.135C679.487 502.413 679.676 501.777 679.756 501.721C679.835 501.666 680.064 500.848 680.264 499.905C680.464 498.962 680.784 497.694 680.974 497.088C681.164 496.482 681.418 495.503 681.539 494.913C681.66 494.324 681.98 493.02 682.249 492.016C682.518 491.012 682.811 489.778 682.899 489.274C682.988 488.77 683.335 487.303 683.669 486.014C684.004 484.725 684.259 483.575 684.237 483.459C684.215 483.343 684.346 483.143 684.53 483.014C684.714 482.886 684.899 482.497 684.941 482.149C684.984 481.802 685.136 481.207 685.279 480.828C685.422 480.449 685.722 479.275 685.944 478.219C686.167 477.164 686.422 476.249 686.51 476.187C686.599 476.125 686.881 475.1 687.136 473.909C687.391 472.718 687.799 470.956 688.043 469.993C688.286 469.03 688.561 467.866 688.653 467.405C688.744 466.944 688.87 466.533 688.93 466.491C688.991 466.448 689.239 465.41 689.481 464.184C689.724 462.958 690.014 461.891 690.127 461.812C690.239 461.734 690.519 460.601 690.748 459.296C690.978 457.991 691.254 456.861 691.362 456.786C691.471 456.71 691.691 455.908 691.853 455.002C692.014 454.097 692.229 453.298 692.33 453.228C692.431 453.157 692.643 452.433 692.801 451.618C692.959 450.803 693.173 450.077 693.277 450.004C693.382 449.931 693.591 449.245 693.744 448.478C693.896 447.711 694.206 446.528 694.433 445.851C694.66 445.173 694.881 444.334 694.923 443.987C694.966 443.64 695.114 443.277 695.253 443.18C695.391 443.084 695.609 442.464 695.737 441.802C695.864 441.14 696.123 440.058 696.312 439.398C696.501 438.738 696.703 437.984 696.762 437.723C696.82 437.462 696.948 437.192 697.044 437.123C697.141 437.055 697.341 436.345 697.49 435.547C697.638 434.749 697.834 434.037 697.925 433.964C698.016 433.892 698.198 433.326 698.329 432.707C698.461 432.088 698.645 431.527 698.738 431.461C698.832 431.395 699.001 430.915 699.114 430.396C699.227 429.877 699.401 429.395 699.5 429.326C699.674 429.205 700.126 427.666 700.772 424.995C700.939 424.306 701.152 423.689 701.246 423.623C701.452 423.48 701.761 422.464 702.02 421.081C702.125 420.524 702.338 419.979 702.493 419.87C702.649 419.762 702.781 419.382 702.786 419.025C702.792 418.669 702.921 418.291 703.074 418.184C703.227 418.078 703.464 417.516 703.6 416.936C703.737 416.357 704.07 415.337 704.34 414.671C704.611 414.005 704.909 413.112 705.002 412.687C705.096 412.263 705.278 411.842 705.406 411.752C705.534 411.663 705.713 411.214 705.803 410.755C706.105 409.215 706.346 408.574 707.32 406.722C707.853 405.709 708.33 404.432 708.38 403.884C708.429 403.336 708.571 402.817 708.695 402.731C708.819 402.645 709.123 401.568 709.371 400.339C709.619 399.11 709.908 398.044 710.014 397.969C710.121 397.893 710.315 397.108 710.447 396.223C710.579 395.338 710.797 394.538 710.931 394.444C711.065 394.351 711.416 392.881 711.709 391.179C712.003 389.476 712.348 388.01 712.477 387.92C712.606 387.83 712.969 386.425 713.283 384.797C714.241 379.836 714.665 377.553 714.849 376.374C714.945 375.754 715.221 374.137 715.463 372.78C716.274 368.229 716.406 367.352 716.3 367.201C716.168 367.011 716.729 363.811 716.917 363.68C717.164 363.507 718.533 356.312 718.523 355.241C718.519 354.864 718.668 354.45 718.854 354.32C719.041 354.19 719.317 353.529 719.468 352.851C719.619 352.173 719.855 351.382 719.991 351.094C720.128 350.806 720.224 350.091 720.204 349.504C720.184 348.918 720.225 348.149 720.294 347.796C720.448 347.011 721.352 341.95 721.521 340.923C721.589 340.514 721.876 338.905 722.161 337.347C722.445 335.789 722.745 334.071 722.828 333.528C722.911 332.986 723.087 332.467 723.219 332.375C723.569 332.131 724.086 329.212 723.841 328.861C723.727 328.696 723.724 328.499 723.834 328.422C723.945 328.345 723.961 328.045 723.871 327.755C723.781 327.466 723.844 327.134 724.011 327.017C724.377 326.762 725.073 323.736 724.842 323.405C724.752 323.275 724.774 322.895 724.892 322.558C725.01 322.222 724.986 321.774 724.839 321.563C724.692 321.353 724.678 321.106 724.809 321.015C724.939 320.924 725.111 320.393 725.191 319.835C725.271 319.276 725.52 318.466 725.745 318.034C725.97 317.601 726.22 316.929 726.301 316.539C726.382 316.15 726.666 315.472 726.932 315.033C727.199 314.594 727.365 314.161 727.303 314.071C727.24 313.982 727.383 313.773 727.62 313.608C727.857 313.442 727.984 313.21 727.901 313.092C727.818 312.973 727.945 312.741 728.182 312.576C728.419 312.41 728.545 312.178 728.463 312.059C728.38 311.941 728.506 311.709 728.743 311.543C728.981 311.378 729.107 311.146 729.024 311.027C728.942 310.909 729.068 310.676 729.305 310.511C729.542 310.346 729.676 310.124 729.603 310.019C729.529 309.914 729.7 309.59 729.981 309.299C730.797 308.454 731.723 307.088 731.599 306.91C731.537 306.821 731.728 306.578 732.025 306.372C732.321 306.165 732.496 305.899 732.413 305.781C732.33 305.662 732.457 305.43 732.694 305.264C732.931 305.099 733.057 304.867 732.975 304.748C732.892 304.63 733.018 304.397 733.255 304.232C733.493 304.067 733.619 303.834 733.536 303.716C733.454 303.597 733.677 303.297 734.032 303.049C734.388 302.801 734.611 302.502 734.529 302.383C734.446 302.264 734.572 302.032 734.81 301.867C735.047 301.702 735.173 301.469 735.09 301.351C735.008 301.232 735.134 301 735.371 300.835C735.608 300.669 735.734 300.437 735.652 300.318C735.569 300.2 735.744 299.934 736.04 299.727C736.337 299.52 736.519 299.266 736.446 299.161C736.373 299.056 736.497 298.768 736.721 298.521C737.116 298.085 737.799 297.149 738.686 295.826C738.923 295.472 739.067 295.109 739.004 295.019C738.942 294.93 739.084 294.721 739.322 294.556C739.559 294.39 739.685 294.158 739.602 294.04C739.52 293.921 739.743 293.621 740.099 293.373C740.454 293.125 740.678 292.825 740.595 292.707C740.512 292.588 740.639 292.356 740.876 292.19C741.113 292.025 741.239 291.793 741.156 291.674C741.074 291.556 741.249 291.29 741.545 291.083C741.841 290.876 742.016 290.61 741.933 290.492C741.851 290.373 741.977 290.141 742.214 289.976C742.451 289.81 742.578 289.578 742.495 289.459C742.412 289.341 742.539 289.109 742.776 288.943C743.013 288.778 743.139 288.546 743.057 288.427C742.974 288.309 743.197 288.009 743.553 287.761C743.908 287.513 744.139 287.224 744.066 287.118C743.992 287.013 744.227 286.626 744.588 286.259C744.949 285.892 745.179 285.499 745.1 285.386C745.021 285.273 745.151 285.045 745.388 284.879C745.625 284.714 745.751 284.482 745.668 284.363C745.586 284.245 745.809 283.945 746.165 283.697C746.52 283.449 746.744 283.149 746.661 283.03C746.578 282.912 746.705 282.679 746.942 282.514C747.179 282.349 747.305 282.117 747.223 281.998C747.14 281.879 747.218 281.681 747.396 281.557C747.573 281.433 747.651 281.235 747.569 281.116C747.486 280.997 747.612 280.765 747.849 280.6C748.086 280.434 748.213 280.202 748.13 280.084C748.047 279.965 748.174 279.733 748.411 279.568C748.648 279.402 748.774 279.17 748.692 279.051C748.609 278.933 748.832 278.633 749.188 278.385C749.543 278.137 749.767 277.837 749.684 277.718C749.601 277.6 749.638 277.43 749.765 277.342C749.892 277.253 750.04 276.934 750.094 276.632C750.147 276.33 750.378 275.953 750.607 275.794C750.836 275.634 750.955 275.407 750.872 275.288C750.79 275.169 750.881 274.962 751.074 274.827C751.268 274.692 751.466 274.302 751.514 273.96C751.627 273.159 752.096 272.192 752.511 271.903C752.691 271.777 752.77 271.578 752.687 271.459C752.605 271.341 752.683 271.142 752.86 271.018C753.038 270.894 753.116 270.696 753.033 270.577C752.951 270.459 753.174 270.159 753.53 269.911C753.885 269.663 754.109 269.363 754.026 269.245C753.943 269.126 754.07 268.894 754.307 268.728C754.544 268.563 754.67 268.331 754.588 268.212C754.505 268.094 754.631 267.861 754.868 267.696C755.105 267.531 755.232 267.298 755.149 267.18C755.066 267.061 755.217 266.811 755.483 266.625C755.749 266.438 756.122 265.987 756.313 265.623C756.502 265.258 757.022 264.505 757.468 263.948C757.913 263.392 758.237 262.879 758.187 262.808C758.138 262.738 758.344 262.31 758.646 261.858C758.947 261.406 759.139 260.957 759.071 260.861C759.004 260.764 759.143 260.55 759.38 260.385C759.617 260.22 759.744 259.987 759.661 259.869C759.578 259.75 759.705 259.518 759.942 259.353C760.179 259.187 760.305 258.955 760.223 258.836C760.14 258.718 760.266 258.486 760.503 258.32C760.74 258.155 760.867 257.923 760.784 257.804C760.701 257.686 760.828 257.453 761.065 257.288C761.302 257.123 761.446 256.914 761.384 256.825C761.323 256.736 761.583 256.18 761.963 255.589C762.343 254.998 762.593 254.427 762.519 254.32C762.444 254.213 762.578 253.991 762.815 253.825C763.052 253.66 763.178 253.428 763.095 253.309C763.013 253.191 763.139 252.958 763.376 252.793C763.613 252.628 763.74 252.395 763.657 252.277C763.574 252.158 763.652 251.96 763.83 251.836C764.008 251.712 764.086 251.513 764.003 251.395C763.92 251.276 764.047 251.044 764.284 250.879C764.521 250.713 764.647 250.481 764.564 250.363C764.482 250.244 764.608 250.012 764.845 249.846C765.082 249.681 765.209 249.449 765.126 249.33C765.043 249.212 765.121 249.013 765.298 248.89C765.476 248.766 765.744 248.074 765.895 247.352C766.045 246.631 766.255 245.98 766.36 245.906C766.466 245.833 766.621 245.292 766.706 244.705C766.79 244.117 766.966 243.562 767.097 243.471C767.228 243.38 767.817 240.59 768.405 237.272C768.994 233.954 769.573 231.172 769.692 231.089C769.811 231.006 770.113 229.699 770.363 228.185C771.23 222.935 771.55 221.465 771.874 221.235C772.025 221.128 772.175 220.563 772.207 219.978C772.24 219.394 772.375 218.4 772.508 217.77C773.162 214.649 773.281 214.17 773.422 214.072C773.505 214.014 773.755 212.902 773.977 211.602C774.199 210.302 774.501 209.154 774.65 209.051C774.955 208.838 775.681 205.206 775.477 204.913C775.403 204.808 775.492 204.619 775.674 204.492C775.856 204.365 776.119 203.713 776.26 203.043C776.726 200.812 776.907 200.109 777.035 200.019C777.105 199.97 777.328 198.95 777.53 197.752C777.732 196.553 778.023 195.483 778.176 195.373C778.33 195.263 778.572 194.446 778.715 193.556C778.857 192.667 779.069 191.873 779.184 191.793C779.3 191.712 779.56 190.666 779.762 189.468C779.964 188.269 780.232 187.218 780.357 187.131C780.482 187.043 780.742 186.069 780.934 184.966C781.126 183.863 781.389 182.887 781.517 182.797C781.646 182.707 781.909 181.731 782.101 180.628C782.293 179.525 782.554 178.551 782.68 178.463C782.806 178.375 783.044 177.488 783.208 176.493C783.372 175.497 783.563 174.643 783.633 174.594C783.703 174.545 783.902 173.795 784.073 172.926C784.502 170.764 784.621 170.383 784.939 170.152C785.091 170.043 785.275 169.316 785.349 168.538C785.423 167.76 785.574 166.581 785.685 165.919C785.796 165.257 785.849 164.662 785.804 164.597C785.758 164.531 785.919 163.263 786.16 161.777C786.935 157.007 787.085 155.869 786.962 155.692C786.896 155.597 786.938 155.244 787.056 154.908C787.174 154.572 787.165 154.145 787.036 153.961C786.907 153.776 786.898 153.35 787.016 153.013C787.134 152.677 787.11 152.23 786.963 152.019C786.816 151.808 786.771 151.583 786.862 151.519C786.954 151.455 786.975 150.936 786.909 150.365C786.843 149.794 786.871 149.27 786.971 149.201C787.071 149.131 787.044 148.919 786.912 148.73C786.78 148.54 786.773 147.91 786.897 147.33C787.021 146.75 787.029 146.141 786.915 145.978C786.801 145.815 786.805 145.406 786.923 145.07C787.04 144.733 787.059 144.346 786.963 144.209C786.867 144.072 786.852 143.732 786.929 143.453C787.006 143.175 786.943 142.336 786.789 141.589C786.636 140.842 786.596 140.172 786.699 140.099C786.803 140.027 786.753 139.774 786.588 139.537C786.422 139.299 786.384 139.038 786.503 138.955C786.621 138.872 786.632 138.681 786.526 138.529C786.42 138.377 786.43 137.978 786.548 137.642C786.666 137.306 786.642 136.858 786.495 136.647C786.348 136.436 786.325 136.196 786.443 136.113C786.562 136.031 786.523 135.769 786.358 135.532C786.193 135.295 786.154 135.033 786.273 134.951C786.392 134.868 786.359 134.615 786.2 134.387C786.042 134.16 785.967 133.888 786.032 133.783C786.195 133.526 785.64 130.369 785.363 129.97C785.241 129.796 785.238 129.585 785.357 129.503C785.475 129.42 785.437 129.158 785.272 128.921C785.107 128.684 785.068 128.422 785.187 128.34C785.305 128.257 785.267 127.996 785.102 127.758C784.936 127.521 784.898 127.26 785.017 127.177C785.135 127.094 785.063 126.784 784.856 126.488C784.65 126.192 784.578 125.881 784.696 125.799C784.815 125.716 784.776 125.454 784.611 125.217C784.446 124.98 784.407 124.719 784.526 124.636C784.644 124.553 784.606 124.292 784.441 124.055C784.276 123.817 784.237 123.556 784.356 123.473C784.474 123.39 784.442 123.137 784.283 122.91C784.125 122.682 784.049 122.411 784.115 122.306C784.278 122.048 783.723 118.891 783.446 118.493C783.324 118.318 783.321 118.108 783.44 118.025C783.558 117.942 783.52 117.681 783.355 117.444C783.189 117.207 783.151 116.945 783.27 116.862C783.388 116.78 783.35 116.518 783.184 116.281C783.019 116.044 782.981 115.782 783.099 115.7C783.218 115.617 783.146 115.307 782.939 115.01C782.732 114.714 782.66 114.404 782.779 114.321C782.897 114.239 782.859 113.977 782.694 113.74C782.528 113.503 782.49 113.241 782.609 113.158C782.727 113.076 782.689 112.814 782.524 112.577C782.358 112.34 782.32 112.078 782.439 111.996C782.557 111.913 782.519 111.651 782.353 111.414C782.188 111.177 782.125 110.932 782.214 110.87C782.303 110.808 782.224 109.926 782.038 108.911C781.852 107.895 781.777 107.011 781.87 106.946C781.963 106.881 781.903 106.634 781.738 106.397C781.573 106.16 781.516 105.911 781.613 105.844C781.709 105.777 781.685 105.289 781.558 104.761C781.431 104.232 781.407 103.745 781.503 103.678C781.6 103.611 781.543 103.362 781.378 103.124C781.212 102.887 781.174 102.626 781.293 102.543C781.411 102.46 781.373 102.199 781.208 101.962C781.042 101.725 781.004 101.463 781.123 101.38C781.241 101.298 781.203 101.036 781.037 100.799C780.872 100.562 780.834 100.3 780.952 100.218C781.071 100.135 781.033 99.8733 780.867 99.6362C780.702 99.3991 780.644 99.1513 780.738 99.0856C780.832 99.0199 780.785 98.4041 780.633 97.7172C780.481 97.0304 780.439 96.4108 780.54 96.3407C780.64 96.2705 780.587 96.0191 780.422 95.782C780.257 95.5449 780.218 95.2832 780.337 95.2006C780.455 95.1179 780.432 94.8776 780.285 94.6668C780.138 94.4558 780.114 94.0082 780.232 93.6719C780.371 93.2746 780.274 92.8133 779.953 92.3538C779.682 91.9651 779.558 91.5794 779.676 91.4967C779.81 91.4033 779.065 90.1609 777.712 88.221C776.359 86.2811 775.451 85.1526 775.317 85.2459ZM581.521 364.179C581.448 364.289 582.221 365.574 583.24 367.035C585.018 369.585 585.072 369.698 584.583 369.879C584.302 369.982 584.013 369.981 583.94 369.876C583.867 369.772 583.635 369.806 583.424 369.953C583.213 370.1 582.765 370.124 582.429 370.006C582.093 369.888 581.645 369.912 581.434 370.059C581.224 370.206 580.983 370.23 580.901 370.111C580.818 369.993 580.623 369.984 580.468 370.093C580.312 370.201 579.674 370.372 579.05 370.472C578.426 370.572 577.216 370.788 576.361 370.952C575.506 371.115 574.477 371.17 574.074 371.073C573.671 370.977 573.255 370.958 573.149 371.031C573.044 371.105 572.546 371.092 572.043 371.002C571.54 370.913 571.036 370.904 570.922 370.983C570.809 371.061 570.213 370.404 569.598 369.522C568.983 368.64 568.341 367.926 568.171 367.935C567.979 367.946 566.476 365.964 564.189 362.684C561.84 359.316 560.593 357.362 560.731 357.266C560.86 357.176 560.348 356.258 559.452 354.973C558.618 353.777 558.012 352.705 558.081 352.547C558.148 352.391 557.646 351.464 556.965 350.487C556.283 349.51 555.749 348.558 555.777 348.371C555.804 348.184 555.609 347.607 555.343 347.087C554.424 345.295 553.506 343.236 552.947 341.711C552.638 340.869 552.252 339.877 552.089 339.506C551.926 339.135 551.878 338.771 551.983 338.698C552.089 338.625 551.976 338.28 551.733 337.931C551.489 337.582 551.346 337.17 551.413 337.014C551.481 336.858 551.371 336.493 551.169 336.204C550.967 335.914 550.899 335.61 551.017 335.527C551.136 335.445 551.03 335.086 550.782 334.731C550.534 334.375 550.428 334.016 550.547 333.934C550.665 333.851 550.525 333.444 550.236 333.029C549.947 332.614 549.807 332.207 549.926 332.124C550.044 332.042 549.938 331.683 549.69 331.327C549.442 330.972 549.336 330.613 549.455 330.53C549.573 330.448 549.467 330.089 549.219 329.733C548.971 329.378 548.865 329.019 548.984 328.936C549.103 328.854 549.067 328.597 548.906 328.365C548.745 328.134 548.549 327.657 548.472 327.306C548.395 326.955 548.081 325.942 547.774 325.055C547.467 324.168 547.292 323.389 547.384 323.325C547.476 323.26 547.383 322.965 547.176 322.669C546.969 322.372 546.897 322.062 547.016 321.98C547.134 321.897 547.028 321.538 546.78 321.183C546.532 320.827 546.426 320.468 546.545 320.386C546.664 320.303 546.625 320.041 546.46 319.804C546.26 319.517 546.303 319.273 546.59 319.073C546.95 318.822 547.122 318.916 547.623 319.634C547.953 320.108 548.321 320.429 548.439 320.346C548.558 320.263 549.027 320.729 549.482 321.381C549.936 322.033 550.405 322.499 550.524 322.416C550.642 322.334 551.078 322.751 551.491 323.344C551.904 323.937 552.34 324.354 552.458 324.271C552.58 324.187 553.099 324.732 553.651 325.522C554.202 326.312 554.722 326.858 554.843 326.773C554.97 326.684 555.585 327.377 556.336 328.455C557.08 329.52 557.703 330.224 557.827 330.138C558.239 329.851 581.82 363.73 581.521 364.179Z" fill="#fff"/>
</svg>
