<svg width="409" height="409" viewBox="0 0 409 409" fill="none" xmlns="http://www.w3.org/2000/svg">
<path fill-rule="evenodd" clip-rule="evenodd" d="M156.823 61.4103C159.405 62.0203 161.144 62.6048 163.211 63.5583C167.3 65.4444 168.18 65.6111 173.324 65.4785C175.828 65.4138 180.245 65.3735 183.14 65.3888C188.166 65.4152 188.646 65.4683 193.809 66.5723C203.567 68.6587 207.548 69.0816 221.121 69.4732C230.788 69.7524 232.48 69.9384 240.895 71.6488C245.12 72.5079 246.691 72.6897 251.279 72.8504C255.268 72.9902 256.871 73.1501 257.396 73.4605C257.984 73.8087 259.901 73.8911 268.492 73.9374C274.203 73.9681 279.132 74.0152 279.445 74.0425C279.758 74.0694 281.114 73.995 282.458 73.8772C284.76 73.6749 284.976 73.7048 286.157 74.3847C286.847 74.7817 288.422 75.3115 289.657 75.5614C291.979 76.0312 293.338 76.6773 294.808 78.0104C295.278 78.4362 296.137 78.9355 296.717 79.1204C297.298 79.305 298.514 79.9597 299.42 80.5751C300.326 81.1903 302.028 82.0906 303.201 82.5757C304.375 83.0608 305.538 83.6363 305.786 83.8541C306.033 84.0722 306.92 84.4826 307.756 84.7661C308.591 85.0495 309.447 85.5397 309.657 85.855C309.99 86.3563 309.95 86.5574 309.341 87.4537L308.644 88.4787L310.156 88.9175C312.976 89.7361 313.533 90.9366 311.83 92.5285C311.211 93.1073 310.851 93.1903 309.079 93.1616C307.695 93.1394 306.584 92.9347 305.619 92.524C303.983 91.8281 297.242 90.0275 293.244 89.2183C292.585 89.0851 292.594 89.1089 293.374 89.5412C293.836 89.798 294.856 90.5137 295.639 91.1317C296.422 91.7495 298.22 92.8341 299.634 93.5416C301.777 94.6135 303.867 95.9821 307.232 98.5173C308.143 99.2029 308.123 100.025 307.172 100.974C306.431 101.713 306.071 101.856 304.958 101.85C303.504 101.843 300.988 100.924 299.474 99.8487C298.945 99.4721 297.574 98.7573 296.429 98.2603C295.284 97.7632 293.49 96.8442 292.444 96.2176C290.454 95.0267 285.546 92.8565 284.566 92.7347C282.151 92.4339 277.88 95.1284 277.88 96.9529C277.88 97.7627 278.641 99.0328 279.581 99.7936C279.819 99.9865 281.358 100.817 283 101.64C288.634 104.461 291.292 107.564 290.075 109.899C289.257 111.472 288.07 111.995 286.842 111.324C286.373 111.067 285.093 110.387 283.997 109.813C282.902 109.238 281.063 108.14 279.912 107.372C276.354 104.999 274.726 104.184 271.385 103.107C267.497 101.854 265.92 100.851 264.226 98.5582C258.771 91.1718 257.536 89.5719 256.896 89.0695C254.74 87.3764 250.414 87.2816 243.74 88.7809C238.797 89.8911 237.225 90.4058 231.4 92.8222C223.587 96.0628 217.236 97.3094 210.619 96.9004C206.552 96.6487 204.973 96.3491 201.206 95.1125C198.269 94.1483 197.853 94.0852 194.443 94.0864C192.212 94.0872 190.689 94.2068 190.5 94.3956C190.157 94.7382 194.6 98.4366 197.996 100.635C201.14 102.671 205.679 104.413 207.837 104.413C209.257 104.413 221.932 107.889 224.747 109.05C230.151 111.279 234.596 115.098 239.023 121.312C244.173 128.543 247.514 134.406 250.432 141.335C253.855 149.462 254.956 151.848 257.287 156.181C260.467 162.094 267.122 173.564 271.215 180.186C273.021 183.108 275.791 188.099 277.37 191.276C278.948 194.454 280.816 197.841 281.521 198.803C283.651 201.712 287.999 205.929 293.045 209.979C298.956 214.724 303.259 219.504 307.826 226.398C310.869 230.991 312.015 233.691 313.985 240.912C314.862 244.127 316.06 247.584 318.402 253.664C319.124 255.538 320.428 259.372 321.299 262.184C323.193 268.295 326.193 275.055 327.663 276.52C328.825 277.677 330.807 278.37 333.786 278.658C337.125 278.981 341.526 280.749 343.088 282.394C344.166 283.528 344.915 285.393 345.321 287.953C345.718 290.456 345.49 292.129 344.28 295.609C343.312 298.389 343.132 301.419 343.692 305.501C344.702 312.863 344.479 320.736 343.161 324.273C342.14 327.013 342.054 327.549 342.447 328.737C343.113 330.751 342.302 332.642 340.543 333.175C340.055 333.322 339.902 333.584 339.898 334.272C339.891 335.656 338.781 337.399 337.704 337.717C337.034 337.915 336.747 338.199 336.616 338.792C336.355 339.983 335.28 340.584 333.99 340.263C333.086 340.038 332.867 340.091 332.281 340.678C331.704 341.256 331.409 341.332 330.181 341.214C328.972 341.098 328.643 341.177 328.046 341.73C327.657 342.09 326.99 342.46 326.563 342.554C325.671 342.749 322.829 342.079 321.953 341.467C321.519 341.163 321.124 341.12 320.476 341.306C319.741 341.516 319.244 341.393 317.514 340.574C315.929 339.823 315.435 339.451 315.435 339.007C315.435 338.687 315.211 338.342 314.937 338.241C314.201 337.97 314.022 337.581 314.017 336.241C314.014 335.417 313.832 334.854 313.444 334.466C313.101 334.124 312.875 333.52 312.875 332.947C312.875 332.423 312.749 331.624 312.594 331.171C312.44 330.719 312.265 329.198 312.205 327.792C312.146 326.386 311.889 323.51 311.635 321.402C311.381 319.293 311.097 315.906 311.004 313.875L310.835 310.183L308.4 302.941C307.061 298.957 305.613 294.995 305.183 294.136C304.455 292.682 299.061 284.811 296.133 280.929C292.629 276.283 286.899 270.377 279.303 263.58C272.9 257.852 263.386 248.601 256.662 241.568C253.159 237.903 250.154 235.178 247.369 233.141C246.887 232.788 245.685 232.25 244.698 231.946C243.712 231.642 242.485 231.182 241.971 230.925C240.535 230.205 238.034 227.642 234.502 223.274C232.294 220.543 228.314 216.363 221.79 209.925C211.984 200.249 209.352 197.327 202.304 188.293C194.452 178.23 190.178 171.164 185.121 159.884C184.014 157.414 182.891 155.179 182.626 154.917C182.361 154.654 180.286 153.477 178.015 152.301C173.966 150.204 173.818 150.093 170.344 146.585C166.188 142.389 164.097 141.003 159.629 139.484C157.929 138.906 154.17 137.494 151.275 136.347C148.38 135.2 144.283 133.783 142.171 133.199C138.41 132.158 138.239 132.137 133.99 132.211C130.618 132.27 129.289 132.181 128.029 131.816C125.641 131.123 121.521 129.127 119.072 127.478L116.923 126.03L116.744 127.332C116.458 129.415 116.539 132.139 116.994 135.786C117.228 137.655 117.419 140.305 117.419 141.675C117.419 143.045 117.62 146.309 117.866 148.928C118.514 155.823 118.165 159 115.998 165.933C115.391 167.873 114.682 170.449 114.421 171.658C113.548 175.706 113.171 176.662 111.655 178.677L110.164 180.659L110.164 183.222C110.164 185.601 110.097 185.903 109.217 187.452C108.562 188.605 108.323 189.328 108.44 189.794C108.629 190.546 110.626 193.71 111.984 195.409C112.975 196.648 113.061 197.224 112.435 198.433C111.974 199.322 111.001 199.727 110.049 199.425C109.729 199.324 108.68 198.152 107.718 196.822L105.969 194.403L105.027 196.1L104.085 197.796L104.777 200.308C105.616 203.353 105.637 204.098 104.907 205.024C103.831 206.39 102.491 206.122 101.776 204.398C101.579 203.923 101.319 203.535 101.198 203.535C100.799 203.535 100.134 205.638 99.9417 207.511C99.3456 213.308 99.0244 214.677 97.9023 216.203C97.1253 217.259 95.2988 217.841 93.8049 217.51C92.8367 217.295 92.8031 217.242 92.5969 215.595C92.4799 214.663 92.2628 212.207 92.1146 210.137C91.9661 208.066 91.7809 206.268 91.703 206.142C91.625 206.017 91.7624 204.452 92.0082 202.665C92.3539 200.153 92.3872 199.051 92.155 197.803C91.7695 195.729 92.0452 194.811 94.1013 191.322C96.0428 188.028 96.4875 186.93 97.2005 183.67C97.506 182.271 98.1604 180.291 98.6543 179.268C99.4882 177.543 99.5308 177.312 99.248 176.058C99.0805 175.315 98.8634 174.068 98.7653 173.287C98.5109 171.26 97.9308 169.057 96.3714 164.199C94.6456 158.822 94.255 156.565 94.282 152.128C94.2982 149.475 94.4538 148.019 94.8985 146.368L95.4934 144.157L94.3164 143.101C92.6298 141.588 91.151 139.164 89.8272 135.743C88.3609 131.953 87.5156 128.702 87.2937 125.998L87.119 123.868L85.726 123.78C84.9598 123.731 83.9985 123.83 83.5897 123.999C83.1808 124.168 82.3353 124.321 81.7108 124.338C81.0109 124.358 80.3352 124.587 79.9491 124.936C79.4365 125.401 79.0506 125.478 77.8153 125.362C76.9863 125.284 76.1157 125.14 75.881 125.042C75.5854 124.917 75.2551 125.211 74.8064 125.997C74.4502 126.621 73.8342 127.344 73.4374 127.603C72.7705 128.039 72.6433 128.04 71.7505 127.615C71.2194 127.363 70.2992 126.719 69.7055 126.184C68.3333 124.95 63.4324 121.773 62.5544 121.55C62.1883 121.456 61.3791 121.532 60.7564 121.718C58.8337 122.293 55.7442 121.637 53.9017 120.262C53.0809 119.65 51.1289 118.364 49.5642 117.405C44.8001 114.485 43.6717 113.485 41.0443 109.854C39.7979 108.132 38.032 104.219 37.2903 101.536C36.5392 98.8192 36.5975 93.0625 37.4063 90.0704C38.6414 85.5008 39.9205 83.0026 42.4683 80.1835C47.5641 74.5455 54.1362 72.356 63.5206 73.1703C69.25 73.6676 72.6345 74.8684 77.3314 78.0707C78.8336 79.0946 80.626 80.2207 81.3145 80.5729C82.9072 81.3877 85.9713 81.6112 88.8377 81.1219C90.7356 80.7978 91.1615 80.5976 92.8799 79.2218C96.7854 76.0953 101.521 73.5969 106.836 71.859C108.499 71.3148 110.279 70.611 110.792 70.2949C113.822 68.4255 121.041 65.7302 126.523 64.4212C132.761 62.9321 133.473 62.8315 138.188 62.777C142.056 62.7318 143.283 62.6111 145.158 62.0894C146.958 61.5886 148.357 61.4376 151.844 61.3663C154.27 61.3166 156.51 61.3364 156.823 61.4103Z" fill="#fff"/>
</svg>
