<svg width="409" height="409" viewBox="0 0 409 409" fill="none" xmlns="http://www.w3.org/2000/svg">
<path fill-rule="evenodd" clip-rule="evenodd" d="M194.702 58.433C197.009 59.7441 198.513 60.7937 200.229 62.2895C203.624 65.2487 204.421 65.6558 209.395 66.9742C211.816 67.6156 216.067 68.8181 218.841 69.6463C223.657 71.0841 224.103 71.2699 228.747 73.7801C237.526 78.5244 241.228 80.0491 254.144 84.239C263.343 87.2233 264.915 87.8774 272.509 91.8832C276.323 93.8952 277.78 94.511 282.138 95.9545C285.927 97.2097 287.42 97.8134 287.837 98.2589C288.303 98.7584 290.12 99.3761 298.351 101.834C303.824 103.469 308.541 104.899 308.834 105.013C309.127 105.127 310.449 105.437 311.772 105.701C314.038 106.154 314.236 106.243 315.179 107.228C315.73 107.803 317.093 108.754 318.208 109.341C320.304 110.444 321.426 111.446 322.463 113.138C322.794 113.679 323.478 114.4 323.983 114.74C324.488 115.08 325.472 116.05 326.168 116.896C326.865 117.741 328.245 119.083 329.235 119.878C330.225 120.674 331.179 121.553 331.356 121.831C331.532 122.11 332.268 122.753 332.99 123.26C333.713 123.767 334.396 124.478 334.509 124.839C334.688 125.414 334.593 125.596 333.757 126.285L332.8 127.073L334.128 127.919C336.604 129.497 336.801 130.805 334.719 131.855C333.962 132.236 333.593 132.215 331.901 131.689C330.579 131.279 329.571 130.77 328.76 130.105C327.385 128.977 321.422 125.355 317.812 123.455C317.217 123.142 317.22 123.168 317.846 123.801C318.218 124.178 318.995 125.151 319.573 125.964C320.151 126.777 321.571 128.323 322.73 129.4C324.485 131.031 326.106 132.931 328.624 136.31C329.305 137.224 329.055 138.007 327.876 138.651C326.957 139.152 326.571 139.188 325.504 138.87C324.111 138.454 321.954 136.865 320.804 135.408C320.402 134.898 319.287 133.827 318.328 133.028C317.368 132.229 315.906 130.843 315.077 129.948C313.503 128.246 309.402 124.784 308.496 124.391C306.263 123.424 301.407 124.81 300.894 126.561C300.667 127.338 301.04 128.771 301.728 129.765C301.902 130.017 303.146 131.247 304.491 132.498C309.105 136.789 310.784 140.513 308.96 142.412C307.732 143.692 306.446 143.86 305.457 142.871C305.078 142.493 304.041 141.48 303.151 140.621C302.261 139.762 300.805 138.191 299.916 137.131C297.168 133.853 295.835 132.614 292.931 130.642C289.552 128.346 288.32 126.941 287.339 124.265C284.18 115.643 283.443 113.76 282.971 113.098C281.377 110.868 277.253 109.561 270.425 109.125C265.37 108.801 263.717 108.853 257.447 109.536C249.039 110.45 242.593 109.862 236.358 107.61C232.525 106.225 231.094 105.494 227.826 103.249C225.278 101.498 224.898 101.321 221.624 100.364C219.483 99.7376 217.988 99.4246 217.753 99.5527C217.328 99.785 220.553 104.583 223.194 107.647C225.639 110.484 229.506 113.432 231.577 114.038C232.94 114.437 244.128 121.335 246.502 123.24C251.062 126.898 254.256 131.812 256.757 139.02C259.668 147.406 261.227 153.972 262.08 161.442C263.081 170.203 263.468 172.802 264.487 177.616C265.877 184.184 269.041 197.062 271.108 204.567C272.021 207.88 273.277 213.448 273.899 216.94C274.521 220.433 275.362 224.209 275.768 225.33C276.995 228.721 279.982 233.989 283.687 239.295C288.026 245.509 290.813 251.305 293.259 259.205C294.889 264.468 295.23 267.381 295.091 274.865C295.03 278.197 295.208 281.851 295.747 288.344C295.914 290.346 296.088 294.392 296.134 297.335C296.233 303.732 297.213 311.062 298.213 312.881C299.002 314.319 300.71 315.54 303.488 316.654C306.601 317.903 310.329 320.836 311.365 322.853C312.081 324.245 312.275 326.245 311.946 328.816C311.624 331.33 310.935 332.871 308.795 335.871C307.086 338.267 306.062 341.124 305.452 345.199C304.352 352.549 301.926 360.042 299.667 363.066C297.917 365.409 297.685 365.899 297.728 367.149C297.801 369.269 296.491 370.856 294.653 370.873C294.144 370.878 293.923 371.085 293.726 371.745C293.33 373.071 291.775 374.432 290.652 374.435C289.954 374.436 289.598 374.628 289.306 375.16C288.721 376.23 287.52 376.505 286.373 375.834C285.568 375.364 285.343 375.354 284.616 375.752C283.9 376.145 283.595 376.134 282.45 375.677C281.322 375.225 280.984 375.209 280.255 375.572C279.782 375.808 279.037 375.976 278.601 375.946C277.69 375.883 275.15 374.441 274.482 373.607C274.151 373.194 273.784 373.042 273.11 373.038C272.345 373.033 271.903 372.775 270.473 371.503C269.163 370.337 268.794 369.841 268.918 369.415C269.008 369.108 268.89 368.714 268.655 368.54C268.025 368.073 267.963 367.649 268.334 366.362C268.563 365.57 268.547 364.979 268.283 364.498C268.05 364.073 268.003 363.429 268.164 362.879C268.311 362.377 268.414 361.575 268.394 361.097C268.373 360.619 268.632 359.11 268.97 357.744C269.308 356.378 269.869 353.546 270.218 351.451C270.567 349.356 271.246 346.025 271.727 344.05L272.603 340.46L272.301 332.825C272.135 328.626 271.859 324.416 271.688 323.471C271.398 321.871 268.433 312.801 266.714 308.253C264.656 302.81 260.817 295.531 255.437 286.874C250.902 279.577 244.37 268.026 239.894 259.387C237.561 254.885 235.443 251.426 233.344 248.688C232.98 248.213 231.977 247.359 231.116 246.79C230.255 246.221 229.206 245.435 228.785 245.044C227.61 243.95 225.929 240.787 223.767 235.603C222.416 232.361 219.771 227.232 215.318 219.22C208.627 207.178 206.922 203.633 202.696 192.984C197.988 181.119 195.872 173.137 194.188 160.89C193.82 158.209 193.37 155.749 193.19 155.423C193.009 155.096 191.349 153.384 189.5 151.616C186.203 148.466 186.092 148.318 183.744 143.976C180.935 138.781 179.317 136.862 175.456 134.149C173.987 133.117 170.776 130.706 168.32 128.791C165.865 126.877 162.331 124.366 160.468 123.211C157.151 121.156 156.993 121.088 152.894 119.965C149.641 119.073 148.39 118.615 147.284 117.911C145.187 116.574 141.794 113.502 139.907 111.23L138.251 109.237L137.714 110.436C136.854 112.355 136.166 114.992 135.579 118.62C135.278 120.479 134.716 123.076 134.331 124.391C133.946 125.706 133.222 128.895 132.722 131.478C131.406 138.277 130.178 141.227 126.151 147.272C125.024 148.964 123.619 151.237 123.029 152.323C121.053 155.963 120.423 156.775 118.402 158.283L116.414 159.766L115.694 162.225C115.025 164.509 114.876 164.779 113.597 166.018C112.644 166.941 112.211 167.568 112.193 168.048C112.163 168.823 113.19 172.421 114.016 174.432C114.619 175.9 114.539 176.477 113.599 177.461C112.907 178.185 111.859 178.301 111.031 177.744C110.752 177.556 110.074 176.137 109.525 174.59L108.526 171.777L107.145 173.141L105.764 174.504L105.723 177.11C105.672 180.267 105.483 180.988 104.523 181.671C103.106 182.68 101.895 182.046 101.693 180.191C101.637 179.68 101.497 179.234 101.381 179.2C100.998 179.088 99.769 180.92 99.0581 182.663C96.8571 188.059 96.1641 189.283 94.6585 190.432C93.6162 191.227 91.6995 191.273 90.359 190.534C89.4902 190.056 89.4729 189.996 89.7377 188.358C89.8872 187.431 90.369 185.012 90.8087 182.984C91.248 180.954 91.5754 179.177 91.536 179.035C91.4965 178.892 92.0681 177.429 92.806 175.783C93.8438 173.469 94.1854 172.421 94.3133 171.158C94.5261 169.059 95.0486 168.256 98.0022 165.485C100.791 162.87 101.526 161.941 103.127 159.012C103.813 157.756 104.998 156.039 105.759 155.197C107.044 153.775 107.15 153.565 107.231 152.283C107.279 151.522 107.421 150.265 107.546 149.488C107.872 147.47 107.934 145.193 107.803 140.093C107.657 134.447 107.917 132.172 109.189 127.921C109.95 125.379 110.509 124.027 111.4 122.566L112.592 120.612L111.759 119.268C110.565 117.342 109.827 114.6 109.518 110.944C109.176 106.895 109.278 103.538 109.825 100.881L110.256 98.7875L108.944 98.3113C108.222 98.0494 107.272 97.8738 106.832 97.9214C106.392 97.9687 105.538 97.8775 104.934 97.7186C104.256 97.5408 103.543 97.5711 103.075 97.7979C102.452 98.0992 102.06 98.0647 100.907 97.6063C100.134 97.299 99.3386 96.9158 99.141 96.7556C98.8922 96.5534 98.4926 96.7427 97.8413 97.3703C97.3241 97.869 96.5298 98.3896 96.076 98.5273C95.3134 98.7585 95.1911 98.7236 94.4537 98.065C94.015 97.6731 93.3129 96.7966 92.8931 96.1171C91.9231 94.5469 88.1124 90.121 87.3327 89.6595C87.0075 89.467 86.2096 89.3124 85.5596 89.3162C83.5528 89.3279 80.7722 87.8298 79.3903 85.9928C78.7747 85.1742 77.2627 83.3918 76.0304 82.0316C72.2789 77.8906 71.4769 76.614 69.9756 72.3911C69.2633 70.3883 68.6682 66.1363 68.7104 63.3529C68.7529 60.5347 70.4265 55.0263 72.0436 52.382C74.5129 48.3437 76.4425 46.3055 79.6798 44.3159C86.1545 40.337 93.0771 40.0825 101.855 43.501C107.213 45.5883 110.124 47.6917 113.732 52.0848C114.886 53.4896 116.29 55.074 116.851 55.6055C118.151 56.835 121.029 57.9106 123.917 58.2464C125.83 58.4687 126.295 58.3962 128.33 57.5587C132.957 55.6557 138.204 54.5886 143.793 54.4141C145.542 54.3593 147.449 54.1842 148.029 54.0249C151.462 53.0821 159.148 52.5239 164.777 52.8082C171.182 53.1319 171.894 53.2356 176.434 54.5081C180.159 55.5518 181.37 55.7806 183.317 55.8069C185.185 55.8321 186.569 56.0802 189.936 56.9917C192.278 57.6256 194.422 58.2742 194.702 58.433Z" fill="#fff"/>
</svg>
