<svg width="256" height="554" viewBox="0 0 256 554" fill="none" xmlns="http://www.w3.org/2000/svg">
<path fill-rule="evenodd" clip-rule="evenodd" d="M124.524 50.4507C119.06 51.3139 114.81 53.8438 112.571 57.566C110.499 61.0115 109.337 64.745 108.757 69.828C108.589 71.2991 108.355 72.8381 108.236 73.2484C108.044 73.9102 107.937 73.9961 107.285 74.0097C106.881 74.0182 106.403 74.148 106.222 74.2981C105.639 74.7829 104.873 76.7131 104.399 78.8964C103.777 81.756 103.777 83.456 104.398 85.0773C104.894 86.3729 106.012 87.7415 106.574 87.7415C107.106 87.7415 107.628 88.5345 107.936 89.8121C108.303 91.3356 108.723 100.657 108.528 102.971C108.29 105.803 106.941 108.677 104.692 111.145C102.938 113.071 101.948 113.66 95.8947 116.388C93.0415 117.674 90.1095 119.162 88.9915 119.892C84.754 122.658 79.5188 125.821 78.1076 126.467C73.487 128.581 72.2183 129.196 70.77 130.026C69.765 130.602 68.6581 131.042 67.7923 131.209C67.0342 131.355 66.0286 131.669 65.5576 131.907C63.9103 132.739 61.2837 134.58 59.8503 135.905C59.0554 136.641 58.3805 137.206 58.3503 137.162C58.3203 137.118 57.7382 135.643 57.0569 133.885C55.1482 128.959 54.0579 125.481 53.1813 121.523C52.5255 118.562 52.3804 117.49 52.3874 115.658C52.3968 113.231 52.4908 112.929 53.6939 111.451C54.6828 110.236 55.8203 109.429 59.4823 107.344C65.9339 103.67 68.3499 101.808 70.671 98.7179C71.2876 97.8973 72.064 96.9229 72.3967 96.5526C73.0067 95.8734 77.0809 92.758 79.2022 91.349C80.7015 90.353 81.4762 89.6119 82.6074 88.091C83.4254 86.9915 83.5364 86.7095 83.5364 85.7331C83.5364 84.7977 83.4449 84.5389 82.9512 84.079C82.6292 83.7791 82.0933 83.4692 81.7602 83.3906C80.3366 83.0538 76.4094 84.8254 74.0655 86.8614C70.7749 89.72 70.2328 90.0766 68.5051 90.519C66.1805 91.1145 65.0048 91.0774 64.1803 90.3826C62.8414 89.2543 62.9106 89.0966 64.8657 88.8208C67.6359 88.4297 68.8537 88.0115 69.6339 87.1831C70.491 86.273 70.7383 85.1781 70.2541 84.4379L69.9068 83.907L66.9503 84.0037C65.3241 84.057 63.7302 84.1668 63.4082 84.2478C62.8414 84.3902 62.8593 84.3418 63.9626 82.7433C64.5898 81.8349 65.6491 80.6158 66.3167 80.0343C66.9844 79.4527 68.113 78.1895 68.8247 77.2269C69.5364 76.2646 70.4044 75.3081 70.7534 75.1016C71.4777 74.6734 72.6693 73.2688 73.2054 72.2119C73.4055 71.8178 73.6181 71.0026 73.6779 70.4003C73.7694 69.4817 73.7041 69.1854 73.2718 68.5594C72.4788 67.4109 71.8955 67.575 70.126 69.4444L68.6617 70.9913L68.2188 70.4273C67.4098 69.3975 67.0395 69.4576 65.5859 70.8553C64.8603 71.5531 63.8377 72.343 63.3133 72.6107C62.7889 72.8784 61.5457 73.7861 60.5507 74.628C59.5557 75.4699 58.1191 76.6261 57.3583 77.1975C55.812 78.3585 55.7356 78.4529 55.0961 79.9904C54.4763 81.4807 53.0833 83.505 51.4677 85.2632C50.7277 86.0686 50.122 86.8474 50.122 86.9938C50.122 87.14 49.7012 87.3779 49.1868 87.5219L48.2519 87.7841L47.8792 89.5623C47.5783 90.9984 47.3535 91.5261 46.7105 92.3051C46.1231 93.0172 45.8173 93.6766 45.544 94.8216C45.3403 95.6752 44.8525 97.2445 44.4599 98.3091C44.0674 99.3737 43.5462 101.1 43.3016 102.145C43.0573 103.191 42.6236 104.797 42.3377 105.715C42.0519 106.632 41.636 108.215 41.4138 109.232C41.1916 110.248 40.7577 111.748 40.4497 112.566C40.0589 113.602 39.7927 114.954 39.5682 117.041C39.3915 118.686 39.1004 120.846 38.9211 121.843C38.5644 123.828 36.0726 134.387 34.9225 138.787C33.7134 143.413 33.1441 150.384 33.5063 156.123C33.8841 162.108 35.0227 165.644 37.4058 168.233C39.5956 170.612 42.4801 171.261 47.7204 170.554C48.9827 170.383 50.9621 170.136 52.1188 170.003C56.0017 169.559 61.6347 167.755 65.7406 165.642C66.6905 165.153 68.7781 163.982 70.3799 163.04L73.292 161.326L73.9197 162.108C74.6608 163.032 75.7311 165.103 76.4358 166.978C77.0296 168.557 77.7417 172.022 78.7567 178.269C79.8343 184.9 80.3251 186.972 82.3289 193.349C85.9674 204.929 87.0207 208.913 87.7667 213.917C88.5235 218.994 88.7089 221.868 88.5708 226.385C88.3113 234.866 87.8697 240.167 87.0437 244.715C85.4528 253.473 85.2391 255.071 85.0205 259.847C84.6857 267.159 84.4265 269.428 82.1722 284.784C80.2752 297.707 79.6272 306.476 79.6368 319.098C79.6453 330.228 80.1265 340.727 80.8901 346.438C81.067 347.76 81.5822 350.882 82.0352 353.376C82.4883 355.871 82.9771 359.058 83.1217 360.458C83.4924 364.053 83.27 368.324 82.5562 371.316C81.4633 375.896 81.3645 376.692 81.3656 380.907C81.3681 392.764 84.2603 402.155 91.5393 413.943C97.5099 423.611 101.373 433.449 102.92 442.929C103.373 445.704 103.379 446.504 102.983 450.963C102.901 451.886 102.97 452.939 103.178 453.947C103.392 454.98 103.503 456.76 103.509 459.234C103.518 463.413 103.816 465.442 104.715 467.441C105.564 469.327 107.799 476.895 107.799 477.882C107.8 478.981 108.25 481.479 109.031 484.719C109.984 488.669 112.701 494.697 114.431 496.699C114.916 497.261 115.035 497.604 115.035 498.433C115.035 499.675 115.959 501.611 116.749 502.025C117.371 502.351 118.264 502.222 118.974 501.704C119.6 501.249 119.673 500.054 119.186 498.237C118.814 496.849 118.794 496.532 119.079 496.532C119.196 496.532 119.292 496.723 119.292 496.956C119.292 497.189 119.484 497.885 119.717 498.501C119.952 499.118 120.143 499.965 120.143 500.383C120.143 500.801 120.288 501.632 120.465 502.228C120.83 503.461 121.968 504.631 122.801 504.631C124.696 504.631 125.126 503.097 124.06 500.138C123.388 498.271 123.396 497.642 124.078 498.836C124.373 499.352 124.739 500.539 124.914 501.539C125.335 503.956 126.132 505.484 126.971 505.484C127.465 505.484 128.447 507.607 128.436 508.653C128.428 509.531 128.016 511.313 127.493 512.73C126.322 515.909 127.231 520.658 129.341 522.39C130.457 523.305 131.176 523.6 132.295 523.6C133.84 523.6 135.202 522.729 135.764 521.382C136.22 520.29 136.809 515.837 136.669 514.542C136.576 513.689 136.593 513.603 136.75 514.111C136.858 514.461 136.93 515.864 136.91 517.23C136.877 519.486 136.922 519.806 137.394 520.726C138.056 522.013 139.04 522.598 140.321 522.466C141.608 522.333 142.256 521.427 142.301 519.697L142.324 518.805L142.508 519.738C142.879 521.632 143.933 522.293 145.383 521.54C146.295 521.066 146.682 520.415 146.857 519.061L146.989 518.038L147.404 518.567C148.216 519.6 149.611 519.288 150.255 517.931C150.553 517.3 150.598 516.852 150.481 515.662C150.401 514.846 150.277 514.028 150.207 513.844C150.123 513.625 150.237 513.668 150.536 513.967C150.787 514.218 151.237 514.486 151.535 514.561C152.273 514.746 153.339 514.267 153.576 513.642C153.823 512.991 153.812 510.574 153.557 509.32C153.355 508.331 152.905 503.517 152.492 497.917C152.221 494.251 151.544 491.186 149.94 486.368L148.894 483.224L149.018 479.808C149.14 476.426 149.133 476.357 148.37 473.087C147.946 471.27 147.599 469.523 147.599 469.205C147.599 468.887 147.792 467.64 148.029 466.434C148.471 464.188 148.626 462.474 149.192 453.601C149.715 445.413 150.145 443.119 152.536 435.789C154.323 430.31 156.114 425.67 158.336 420.763C162.489 411.592 164.798 404.554 166.2 396.785C167.295 390.727 167.645 386.514 168.025 374.833C168.299 366.43 168.463 364.376 169.423 357.356C169.945 353.539 170.35 348.715 170.578 343.609C171.371 325.83 171.389 323.264 170.799 310.851C170.356 301.551 170.31 300.991 169.29 292.563C168.155 283.188 166.781 276.31 163.989 266.028C162.997 262.373 160.762 252.47 160.285 249.617C160.109 248.562 159.861 246.547 159.733 245.141C159.482 242.363 158.614 234.957 157.572 226.705C156.503 218.235 156.518 213.12 157.628 207.31C158.42 203.169 161.432 191.037 162.603 187.275C165.148 179.093 167.511 167.641 168.156 160.367C168.236 159.458 168.369 158.715 168.45 158.715C168.532 158.715 168.859 159.698 169.178 160.9C169.946 163.799 171.141 166.195 173.935 170.437C177.542 175.914 180.74 179.465 185.16 182.899C188.035 185.133 189.423 186.357 192.08 188.998C195.235 192.134 197.658 193.193 201.21 192.987C202.623 192.905 203.179 192.752 204.67 192.032C206.94 190.937 208.277 189.864 210.121 187.658C214.946 181.888 217.227 176.527 218.035 169.052C219.002 160.117 219.859 153.331 220.282 151.255C221.065 147.415 221.201 145.983 221.337 140.172C221.471 134.432 221.477 134.491 220.377 129.729C219.818 127.306 219.702 126.324 219.64 123.51C219.6 121.673 219.464 119.976 219.338 119.741C219.212 119.506 219.11 118.867 219.11 118.321C219.11 117.593 218.917 116.981 218.386 116.016C217.988 115.294 217.592 114.371 217.508 113.965C217.423 113.56 217.171 112.981 216.948 112.679C216.726 112.377 216.389 111.318 216.2 110.326C215.715 107.768 215.572 107.464 214.218 106.109C213.553 105.443 212.882 104.658 212.727 104.365C212.572 104.073 211.827 102.97 211.072 101.915C210.317 100.86 209.458 99.5171 209.163 98.931C208.869 98.3449 208.089 97.2622 207.431 96.5247C206.772 95.7875 205.85 94.4938 205.382 93.6498C204.472 92.0088 204.079 91.7627 203.244 92.3104C202.015 93.1171 201.74 95.8318 202.698 97.7117C203.048 98.3997 203.087 98.6113 202.861 98.6113C202.307 98.6113 201.461 99.4805 201.329 100.185C201.248 100.617 201.323 101.187 201.524 101.67C202.007 102.828 203.912 104.749 204.858 105.033C205.959 105.363 207.796 107.478 208.388 109.097C208.637 109.777 208.794 110.334 208.738 110.334C208.682 110.334 208.373 110.112 208.051 109.841C207.729 109.57 206.662 108.933 205.679 108.427C204.696 107.92 203.736 107.37 203.545 107.204C203.096 106.815 202.177 107.037 201.759 107.635C201.291 108.303 201.363 109.832 201.904 110.707C202.156 111.116 203.312 112.159 204.473 113.024C206.728 114.704 206.722 114.939 204.445 114.223C203.424 113.903 202.899 113.505 200.702 111.386C196.191 107.036 193.762 106.124 191.847 108.062C190.767 109.155 190.966 109.574 193.957 112.501C195.442 113.953 197.374 115.678 198.252 116.334C200.754 118.203 203.011 120.924 203.264 122.376C203.511 123.796 204.824 128.686 205.321 130.043C205.578 130.742 206.364 132.229 207.067 133.346C208.452 135.544 209.634 138.267 210.003 140.109C210.201 141.094 210.18 141.384 209.866 142.043C209.394 143.034 206.738 146.875 204.977 149.113C203.658 150.791 200.39 154.345 200.298 154.203C200.272 154.164 199.754 153.287 199.147 152.253C197.584 149.596 196.103 147.696 193.293 144.746L190.849 142.179L189.953 139.63C188.769 136.264 187.757 134.353 185.723 131.647C182.703 127.63 180.733 126.068 176.233 124.121C173.349 122.873 171.321 122.202 166.86 121.017C164.636 120.427 162.241 119.742 161.539 119.496C158.754 118.521 152.864 116.96 149.94 116.422C145.422 115.592 145.036 115.486 143.94 114.782C142.339 113.755 140.287 111.418 139.39 109.6C138.656 108.113 138.582 107.795 138.499 105.799C138.423 103.992 138.499 103.238 138.943 101.382C139.596 98.6505 140.69 95.1801 141.261 94.0289C141.891 92.7595 143.106 91.5779 143.781 91.5779C144.93 91.5779 147.042 89.7852 147.88 88.0987C148.596 86.6566 149.013 83.2556 148.689 81.4981C148.323 79.5183 147.781 78.8203 146.17 78.2538C146.146 78.2451 146.309 77.2163 146.534 75.9673C146.759 74.7184 147.007 72.8475 147.085 71.8095C147.327 68.5991 146.575 63.7349 145.413 61.0032C143.395 56.2565 138.616 52.4521 132.805 50.9667C130.411 50.3546 126.626 50.1189 124.524 50.4507ZM126.224 287.354C126.525 288.035 126.885 289.506 127.072 290.817C127.251 292.07 128.261 299.186 129.316 306.63C131.361 321.049 131.647 322.728 133.47 331.034C136.082 342.937 137.59 348.201 140.445 355.379C142.25 359.92 142.491 360.868 142.491 363.44C142.491 364.989 142.359 365.6 141.408 368.473C139.165 375.249 136.996 384.74 135.791 393.056C134.763 400.147 134.555 407.069 135.151 414.369C135.644 420.425 135.757 425.896 135.486 430.567C134.827 441.886 133.541 452.686 132.472 455.874C131.48 458.835 131.232 459.226 129.736 460.204C128.966 460.706 128.274 461.053 128.197 460.975C128.119 460.896 127.65 459.921 127.154 458.807C126.658 457.694 125.94 456.292 125.56 455.692C124.221 453.584 123.163 451.224 122.8 449.536C122.33 447.348 121.455 444.873 120.224 442.245C117.831 437.134 116.083 430.157 114.923 421.083C113.922 413.257 113.988 407.24 115.147 400.529C115.929 396.006 116.126 393.337 115.874 390.677C115.641 388.217 114.11 379.892 113.114 375.668C112.766 374.193 112.481 372.571 112.481 372.064C112.481 371.556 112.871 369.454 113.347 367.392C114.89 360.709 118.344 343.365 119.377 337.108C119.902 333.93 121.483 322.391 122.152 316.86C122.329 315.395 122.811 310.695 123.223 306.417C124.657 291.521 125.285 286.169 125.597 286.169C125.654 286.169 125.936 286.702 126.224 287.354ZM136.464 512.557C136.396 512.727 136.346 512.677 136.335 512.428C136.326 512.204 136.376 512.078 136.447 512.149C136.518 512.219 136.525 512.403 136.464 512.557Z" fill="#fff"/>
</svg>
