<svg width="428" height="422" viewBox="0 0 428 422" fill="none" xmlns="http://www.w3.org/2000/svg">
<path fill-rule="evenodd" clip-rule="evenodd" d="M326.164 38.0484C330.863 38.4137 335.694 40.6375 339.419 44.151C343.054 47.5793 344.847 50.439 346.105 54.8153C347.914 61.1083 347.713 64.2539 345.031 71.5947C342.635 78.1523 342.303 78.7845 340.561 80.1189C339.274 81.1043 339.044 81.4681 338.278 83.7307C337.81 85.1145 337.11 87.5121 336.723 89.0587C336.011 91.9038 335.369 92.9067 334.259 92.9067C333.983 92.9067 333.043 92.6927 332.17 92.4313C330.394 91.8997 330.637 91.7665 329.145 94.0907C328.541 95.0325 328.355 95.1267 327.101 95.1267C325.871 95.1267 325.661 95.227 325.162 96.0517C324.782 96.6807 324.167 97.1264 323.242 97.4443C322.493 97.7013 321.259 98.4652 320.499 99.1419C318.937 100.533 318.17 100.899 316.815 100.899C315.673 100.899 315.048 100.485 312.272 97.8925C309.871 95.6494 309.13 95.3777 306.3 95.7003C304.04 95.9581 299.892 97.1525 297.915 98.1148C296.552 98.7784 294.015 101.185 294.015 101.814C294.015 101.947 294.609 102.32 295.334 102.644C297.567 103.639 301.964 106.856 304.204 109.132C307.566 112.55 310.445 117.265 312.135 122.124C312.866 124.223 312.94 124.83 312.963 128.871C312.991 134.015 313.144 134.797 314.029 134.32C315.181 133.698 319.438 132.603 322.054 132.254C325.791 131.756 328.121 131.999 339.239 134.044C346.582 135.394 350.735 135.995 355.672 136.422C359.305 136.736 362.476 137.018 362.718 137.049C364.022 137.213 364.512 136.904 366.141 134.897C369.733 130.469 370.688 129.579 373.125 128.385C375.069 127.433 375.764 127.243 377.287 127.243C378.804 127.243 379.262 127.367 379.98 127.977C380.456 128.38 381.013 129.146 381.219 129.679C382.792 133.761 383.651 134.893 385.224 134.963C385.522 134.976 386.552 135.409 387.513 135.925C388.918 136.679 389.451 137.186 390.23 138.51L391.199 140.157L390.726 141.558C390.291 142.845 390.291 143.111 390.725 144.855C391.394 147.538 391.335 147.948 390.075 149.421C388.989 150.691 388.965 150.765 389.329 151.789C389.955 153.555 389.834 153.991 388.44 154.981C387.423 155.704 387.016 156.263 386.515 157.628C385.651 159.979 385.076 160.38 382.557 160.388C380.688 160.394 378.509 159.904 375.343 158.767C374.778 158.564 373.655 158.245 372.847 158.058C372.04 157.871 369.918 156.989 368.131 156.098C363.859 153.966 362.732 153.842 357.433 154.913C355.253 155.353 351.64 156.233 349.404 156.867C341.268 159.174 335.538 159.937 322.69 160.422C312.937 160.79 310.709 160.699 307.139 159.781C302.299 158.538 298.617 156.341 292.58 151.098C291.027 149.749 288.7 147.872 287.408 146.925C286.117 145.978 284.161 144.472 283.063 143.578L281.067 141.952L280.599 142.663C279.506 144.324 276.363 147.012 273.888 148.404C272.443 149.216 270.679 150.415 269.969 151.068C268.532 152.389 264.398 157.285 260.339 162.473C257.221 166.457 254.733 168.904 249.679 172.956C244.937 176.758 243.651 177.941 240.342 181.544C238.454 183.599 237.283 185.183 236.553 186.668C235.971 187.85 235.581 188.903 235.685 189.008C235.79 189.114 237.429 189.721 239.328 190.357C243.827 191.865 247.607 193.696 253.203 197.077C259.53 200.9 266.713 206.231 279.188 216.362C281.933 218.591 285.764 221.563 287.702 222.966C294.252 227.708 295.758 229.29 297.577 233.348C300.323 239.473 299.626 249.609 296.047 255.593C293.203 260.347 288.586 263.551 273.56 271.194C251.968 282.178 236.059 292.286 226.571 301.05C221.01 306.186 218.564 309.683 218.553 312.512C218.547 313.923 217.772 319.628 216.963 324.214C216.556 326.521 216.537 327.91 216.812 335.014C217.107 342.64 217.534 346.386 218.265 347.763C218.752 348.681 218.599 350.619 217.952 351.724L217.346 352.76L218.006 355.47L218.665 358.18L217.511 359.176C216.587 359.973 216.097 360.175 215.063 360.183C213.938 360.193 213.63 360.047 212.696 359.057C211.193 357.464 210.556 355.948 210.353 353.485C210.242 352.136 210.002 351.166 209.694 350.821C209.427 350.523 209.123 349.946 209.018 349.539C208.905 349.102 208.208 348.374 207.319 347.763C205.356 346.415 203.3 343.813 201.825 340.812C200.613 338.344 199.18 333.358 199.18 331.606C199.18 330.956 198.371 329.032 196.8 325.946C194.214 320.865 193.274 319.464 190.193 316.091C186.174 311.692 184.768 309.887 183.767 307.846C181.814 303.861 181.854 302.191 183.951 300.207C185.508 298.734 190.437 296.426 194.899 295.081C199.862 293.586 204.652 291.466 207.322 289.583C211.45 286.675 217.136 281.747 222.669 276.284C225.817 273.174 229.847 269.305 231.624 267.686C236.097 263.608 238.112 261.486 241.672 257.103C243.363 255.022 245.832 252.398 247.159 251.272C249.665 249.144 255.956 244.764 256.54 244.742C256.723 244.734 253.967 243.558 250.414 242.128C246.862 240.698 240.123 237.824 235.44 235.742C226.321 231.688 213.21 226.129 212.246 225.907C211.823 225.809 211.508 226.028 211.122 226.69C209.495 229.473 202.61 237.636 193.26 247.866C188.531 253.04 184.313 257.226 169.106 271.839C166.057 274.769 161.743 279.306 159.519 281.921C153.511 288.988 152.034 290.175 146.67 292.251C145.273 292.792 143.072 293.726 141.78 294.327C140.489 294.928 138.176 295.928 136.642 296.55C131.746 298.534 128.408 300.091 125.068 301.95C118.424 305.648 109.057 311.218 104.786 314.012C102.364 315.596 98.5325 318.035 96.2717 319.431C84.6121 326.633 77.7655 332.244 64.9685 345.087L60.0899 349.983L58.4055 353.535C56.6697 357.195 55.8379 358.686 52.9204 363.365C51.9855 364.865 51.0081 366.597 50.7483 367.213C49.5994 369.94 46.7934 377.69 46.5265 378.873C45.9693 381.342 45.3313 385.316 45.3313 386.317C45.3313 388.058 44.5027 389.978 43.4325 390.718C42.3964 391.433 42.1113 392.297 42.1048 394.739C42.1001 396.499 41.5989 397.417 40.4295 397.806C38.906 398.313 35.0624 397.764 34.0192 396.892C33.7814 396.693 33.5871 396.151 33.5871 395.687C33.5871 395.224 33.3122 394.313 32.9766 393.664C32.6029 392.941 32.3945 392.048 32.4394 391.361C32.4875 390.623 32.2949 389.884 31.8766 389.203C31.1464 388.013 31.0741 386.717 31.6786 385.651C32.282 384.587 32.213 383.062 31.5096 381.914C30.1634 379.718 29.7682 376.227 29.6199 365.227C29.5444 359.61 29.4024 354.289 29.3043 353.401C29.2062 352.514 28.5617 350.109 27.872 348.057C26.1835 343.032 25.7384 341.108 25.3544 337.17C24.8359 331.858 25.5567 329.784 28.434 328.31C30.6184 327.19 34.5099 327.065 40.3593 327.927C45.868 328.738 48.6778 328.623 51.1423 327.485C53.1858 326.542 57.404 322.424 64.7861 314.167C67.6969 310.911 72.7431 305.583 75.9995 302.327C80.3193 298.008 82.7594 295.285 85.0211 292.258C88.5009 287.601 91.2132 284.733 95.0973 281.603C103.177 275.093 110.866 270.779 119.32 268.014C122.558 266.956 124.966 265.984 125.832 265.386C128.177 263.77 132.215 260.102 134.206 257.779C136.357 255.269 141.114 248.129 146.039 240.019C147.867 237.007 151.833 230.746 154.851 226.107C161.682 215.603 163.428 212.682 166.143 207.214C168.687 202.091 169.617 199.515 171.267 193.008C174.231 181.32 177.456 175.807 184.764 169.932C186.314 168.685 188.518 166.852 189.661 165.859C190.803 164.865 193.578 162.64 195.826 160.914C200.513 157.315 201.529 156.298 207.733 148.999C217.728 137.239 220.589 132.537 224.455 121.519C226.426 115.9 226.439 115.844 225.805 115.577C219.458 112.906 216.525 111.078 213.511 107.914C210.68 104.943 210.439 104.896 209.77 107.185C208.877 110.237 206.247 114.031 203.649 116.014C201.241 117.852 199.571 118.646 194.303 120.456C185.256 123.565 177.588 128.637 176.978 131.918C176.869 132.498 176.872 135.463 176.983 138.507C177.221 145.024 177.157 145.288 174.27 149.703C173.271 151.23 172.378 152.829 172.285 153.255C171.935 154.862 171.171 157.059 170.265 159.063C169.749 160.202 169.158 161.568 168.951 162.097C168.607 162.974 168.463 163.059 167.31 163.059C166.281 163.059 165.926 162.907 165.406 162.245C164.844 161.53 164.783 161.161 164.898 159.211C165.009 157.336 165.251 156.507 166.457 153.883C168.736 148.924 168.308 147.251 164.765 147.269C161.759 147.285 161.098 147.734 159.34 150.952C158.504 152.482 157.553 154.451 157.227 155.327C156.901 156.203 156.288 157.448 155.864 158.094C155.44 158.74 154.901 159.817 154.666 160.488C153.675 163.322 151.934 165.427 150.582 165.427C150.217 165.427 149.616 165.179 149.245 164.876L148.57 164.325L149.244 161.99C149.614 160.705 150.498 158.42 151.207 156.912C151.916 155.404 152.636 153.543 152.806 152.777C152.976 152.012 153.397 150.915 153.742 150.34C155.142 148.007 155.134 147.884 153.686 149.443C151.57 151.721 146.796 157.723 146.243 158.801C145.692 159.875 143.716 161.732 142.819 162.019C141.906 162.311 140.823 161.968 140.452 161.268C140.118 160.64 140.343 159.965 141.454 158.263L141.976 157.464L140.99 157.625C140.264 157.744 139.814 157.628 139.278 157.182L138.551 156.578L139.112 155.6C140.751 152.743 141.322 151.405 141.044 151.067C140.842 150.823 141.244 149.715 142.353 147.454C143.232 145.661 144.044 143.809 144.155 143.34C144.47 142.025 145.591 140.24 146.923 138.935C147.588 138.283 148.41 137.253 148.751 136.645C149.344 135.587 150.034 135.009 152.644 133.381C153.29 132.978 154.787 131.77 155.972 130.696C157.156 129.623 159.336 127.983 160.816 127.052C164.56 124.697 167.108 122.579 167.963 121.111C168.363 120.424 169.496 119.159 170.483 118.299C171.469 117.439 173.557 114.991 175.123 112.86C180.738 105.218 184.127 101.62 192.28 94.6424C198.825 89.0424 199.121 88.8183 202.557 86.8795C206.069 84.8972 208.757 83.937 213.111 83.1094C214.896 82.7699 218.14 82.0293 220.32 81.4636C228.212 79.4153 233.729 79.8353 244.395 83.2973C249.549 84.97 249.349 84.9825 253.383 82.7468C257.837 80.2784 262.798 78.0232 266.55 76.762C269.376 75.8121 271.075 75.4551 277.838 74.3913C282.593 73.6433 287.344 71.8306 292.316 68.8668C296.578 66.3262 298.061 64.3972 299.896 59.0064C302.368 51.7426 305.617 47.2774 311.929 42.468C315.957 39.3988 321.48 37.684 326.164 38.0484Z" fill="white"/>
</svg>
