<svg width="189" height="189" fill="none" xmlns="http://www.w3.org/2000/svg"><g filter="url(#a)"><path d="M47.593 176.209c45.033 26 102.616 10.57 128.616-34.463 26-45.033 10.571-102.617-34.463-128.616C96.713-12.87 39.13 2.56 13.13 47.592c-26 45.033-10.57 102.617 34.463 128.617z" fill="url(#b)"/><path d="M47.593 176.209c45.033 26 102.616 10.57 128.616-34.463 26-45.033 10.571-102.617-34.463-128.616C96.713-12.87 39.13 2.56 13.13 47.592c-26 45.033-10.57 102.617 34.463 128.617z" fill="url(#c)"/></g><defs><radialGradient id="b" cx="0" cy="0" r="1" gradientUnits="userSpaceOnUse" gradientTransform="rotate(-78.71 141.742 20.489) scale(176.727)"><stop offset=".378" stop-color="#4584FF"/><stop offset=".767" stop-color="#ACFAFF"/><stop offset="1" stop-color="#FFE9BF"/></radialGradient><radialGradient id="c" cx="0" cy="0" r="1" gradientUnits="userSpaceOnUse" gradientTransform="rotate(116.445 50.457 54.088) scale(153.695)"><stop stop-color="#A431FF" stop-opacity="0"/><stop offset=".904" stop-color="#FF6939" stop-opacity=".7"/></radialGradient><filter id="a" x=".5" y=".5" width="188.339" height="188.339" filterUnits="userSpaceOnUse" color-interpolation-filters="sRGB"><feFlood flood-opacity="0" result="BackgroundImageFix"/><feBlend in="SourceGraphic" in2="BackgroundImageFix" result="shape"/><feColorMatrix in="SourceAlpha" values="0 0 0 0 0 0 0 0 0 0 0 0 0 0 0 0 0 0 127 0" result="hardAlpha"/><feOffset/><feGaussianBlur stdDeviation="18.831"/><feComposite in2="hardAlpha" operator="arithmetic" k2="-1" k3="1"/><feColorMatrix values="0 0 0 0 1 0 0 0 0 1 0 0 0 0 1 0 0 0 1 0"/><feBlend mode="hard-light" in2="shape" result="effect1_innerShadow"/></filter></defs></svg>