<svg width="189" height="189" fill="none" xmlns="http://www.w3.org/2000/svg"><g filter="url(#a)"><path d="M94.67 188.823c51.999 0 94.153-42.154 94.153-94.154 0-52-42.154-94.154-94.154-94.154C42.67.515.516 42.67.516 94.67s42.154 94.154 94.153 94.154z" fill="url(#b)"/><path d="M94.67 188.823c51.999 0 94.153-42.154 94.153-94.154 0-52-42.154-94.154-94.154-94.154C42.67.515.516 42.67.516 94.67s42.154 94.154 94.153 94.154z" fill="url(#c)"/></g><defs><radialGradient id="b" cx="0" cy="0" r="1" gradientUnits="userSpaceOnUse" gradientTransform="rotate(-108.71 115.168 29.25) scale(176.727)"><stop offset=".378" stop-color="#45F0FF"/><stop offset=".767" stop-color="#ACFFF2"/><stop offset="1" stop-color="#BFFFCD"/></radialGradient><radialGradient id="c" cx="0" cy="0" r="1" gradientUnits="userSpaceOnUse" gradientTransform="rotate(86.445 28.62 60.216) scale(153.695)"><stop offset=".245" stop-color="#31FFDF" stop-opacity="0"/><stop offset=".904" stop-color="#FFFE39" stop-opacity=".7"/></radialGradient><filter id="a" x=".516" y=".515" width="188.308" height="188.308" filterUnits="userSpaceOnUse" color-interpolation-filters="sRGB"><feFlood flood-opacity="0" result="BackgroundImageFix"/><feBlend in="SourceGraphic" in2="BackgroundImageFix" result="shape"/><feColorMatrix in="SourceAlpha" values="0 0 0 0 0 0 0 0 0 0 0 0 0 0 0 0 0 0 127 0" result="hardAlpha"/><feOffset/><feGaussianBlur stdDeviation="21.673"/><feComposite in2="hardAlpha" operator="arithmetic" k2="-1" k3="1"/><feColorMatrix values="0 0 0 0 1 0 0 0 0 1 0 0 0 0 1 0 0 0 1 0"/><feBlend mode="hard-light" in2="shape" result="effect1_innerShadow"/></filter></defs></svg>