<svg width="93" height="92" fill="none" xmlns="http://www.w3.org/2000/svg"><path fill-rule="evenodd" clip-rule="evenodd" d="M50.651 75.081c1.399-6.102 2.371-14.646 2.606-24.306l2.143.052c-.237 9.753-1.22 18.449-2.66 24.733-.718 3.134-1.562 5.725-2.517 7.558-.477.915-1.008 1.695-1.607 2.258-.604.568-1.346.977-2.206.977-.988 0-1.815-.536-2.468-1.24-.655-.707-1.237-1.689-1.76-2.853-1.049-2.334-1.963-5.637-2.705-9.612l2.107-.394c.729 3.905 1.605 7.017 2.553 9.128.476 1.058.945 1.807 1.378 2.274.435.47.733.553.895.553.142 0 .384-.062.738-.394.358-.337.757-.886 1.174-1.687.832-1.598 1.628-3.987 2.33-7.047z" fill="url(#a)"/><path fill-rule="evenodd" clip-rule="evenodd" d="M42.83 14.76c-1.283 4.485-2.302 10.873-2.86 18.374l-2.138-.16c.565-7.58 1.6-14.125 2.937-18.804.666-2.33 1.425-4.26 2.275-5.628.809-1.302 1.91-2.428 3.356-2.428.86 0 1.602.409 2.206.976.6.564 1.13 1.343 1.607 2.258.955 1.834 1.8 4.425 2.517 7.559 1.44 6.284 2.423 14.98 2.66 24.733l-2.143.052c-.235-9.66-1.207-18.204-2.606-24.306-.701-3.06-1.497-5.45-2.33-7.047-.416-.801-.815-1.35-1.173-1.687-.354-.332-.596-.394-.738-.394-.25 0-.795.223-1.535 1.415-.698 1.124-1.392 2.836-2.035 5.086z" fill="url(#b)"/><path fill-rule="evenodd" clip-rule="evenodd" d="M39.967 33.134c-.305 4.09-.472 8.5-.472 13.1 0 10.04.797 19.17 2.076 26.02l-2.107.394c-1.309-7.01-2.112-16.274-2.112-26.415 0-4.65.169-9.114.477-13.258l2.138.159z" fill="url(#c)"/><path fill-rule="evenodd" clip-rule="evenodd" d="M38.978 49.875c-6.954-4.245-12.96-8.549-17.422-12.352l-1.391 1.63c4.566 3.893 10.67 8.262 17.696 12.552l1.117-1.83z" fill="url(#d)"/><path fill-rule="evenodd" clip-rule="evenodd" d="M69.227 64.332c-5.983-1.84-13.868-5.27-22.351-9.896l-1.026 1.882c8.564 4.67 16.585 8.168 22.747 10.062 3.073.945 5.74 1.509 7.804 1.599 1.03.045 1.971-.025 2.759-.263.793-.239 1.518-.677 1.948-1.422.726-1.258.296-2.781-.434-4.138-.768-1.428-2.07-3.058-3.77-4.811-3.411-3.518-8.605-7.71-14.933-12.01l-1.204 1.773c6.262 4.255 11.326 8.355 14.598 11.729 1.642 1.693 2.79 3.159 3.421 4.334.67 1.246.592 1.833.466 2.051-.07.123-.246.302-.71.442-.47.142-1.146.213-2.048.173-1.8-.078-4.266-.583-7.267-1.505z" fill="url(#e)"/><path fill-rule="evenodd" clip-rule="evenodd" d="M49.814 40.256a177.643 177.643 0 0 1 10.952 6.852l1.204-1.773A179.782 179.782 0 0 0 50.886 38.4c-9.383-5.417-18.36-9.541-25.293-11.844-3.458-1.149-6.46-1.863-8.774-2.037-1.153-.087-2.198-.046-3.064.18-.869.227-1.672.672-2.136 1.475-.498.862-.443 1.855-.153 2.779.29.928.86 1.932 1.618 2.977 1.522 2.097 3.963 4.566 7.08 7.223l1.39-1.63c-3.062-2.612-5.357-4.954-6.735-6.852-.692-.953-1.115-1.743-1.308-2.36-.195-.62-.117-.924-.036-1.065.076-.132.275-.33.82-.473.548-.143 1.33-.195 2.363-.117 2.059.156 4.87.809 8.259 1.934 6.76 2.246 15.603 6.3 24.897 11.666z" fill="url(#f)"/><path fill-rule="evenodd" clip-rule="evenodd" d="M47.157 37.922c7.2-3.915 13.966-6.966 19.493-8.909l-.71-2.022c-5.66 1.989-12.531 5.091-19.807 9.047l1.024 1.884z" fill="url(#g)"/><path fill-rule="evenodd" clip-rule="evenodd" d="M19.302 57.03c4.552-4.241 11.42-9.331 19.619-14.348l-1.119-1.828c-8.279 5.065-15.272 10.24-19.96 14.607-2.339 2.178-4.147 4.196-5.248 5.931-.55.866-.957 1.712-1.143 2.51-.187.805-.168 1.648.26 2.39.725 1.256 2.256 1.646 3.793 1.693 1.618.05 3.675-.26 6.038-.853 4.74-1.19 10.953-3.583 17.825-6.903l-.932-1.93c-6.801 3.285-12.869 5.612-17.415 6.753-2.282.573-4.12.832-5.45.79-1.41-.043-1.877-.404-2.002-.621-.071-.123-.138-.363-.03-.832.112-.475.385-1.091.865-1.848.96-1.512 2.617-3.385 4.9-5.511z" fill="url(#h)"/><path fill-rule="evenodd" clip-rule="evenodd" d="M49.903 52.211A177.556 177.556 0 0 1 38.432 58.3l.932 1.93c3.71-1.793 7.623-3.86 11.61-6.163 9.383-5.417 17.444-11.13 22.905-15.982 2.724-2.42 4.843-4.664 6.15-6.58.653-.955 1.14-1.88 1.377-2.744.238-.865.254-1.784-.21-2.587-.492-.852-1.364-1.3-2.296-1.515-.936-.214-2.07-.23-3.332-.103-2.532.253-5.829 1.103-9.62 2.435l.71 2.023c3.724-1.308 6.837-2.096 9.123-2.325 1.147-.115 2.023-.082 2.64.06.619.142.839.358.919.497.076.131.149.403 0 .947-.151.545-.496 1.248-1.08 2.104-1.165 1.705-3.136 3.814-5.805 6.186-5.325 4.73-13.258 10.362-22.552 15.728z" fill="url(#i)"/><circle cx="40.866" cy="72.357" fill="#fff" r="2.8"/><circle transform="matrix(.5 -.86603 -.86602 -.5 20.967 37.97)" fill="#fff" r="2.8"/><circle transform="matrix(.5 .86603 .86602 -.5 66.31 28.375)" fill="#fff" r="2.8"/><path fill-rule="evenodd" clip-rule="evenodd" d="M46.416 41.36a4.875 4.875 0 1 1 0 9.749 4.875 4.875 0 0 1 0-9.75z" fill="#fff"/><defs><linearGradient id="a" x1="47.438" y1="86.353" x2="57.794" y2="51.486" gradientUnits="userSpaceOnUse"><stop offset=".377" stop-color="#fff" stop-opacity=".6"/><stop offset=".992" stop-color="#fff" stop-opacity="0"/></linearGradient><linearGradient id="b" x1="46.611" y1="6.114" x2="59.969" y2="39.892" gradientUnits="userSpaceOnUse"><stop offset=".635" stop-color="#fff" stop-opacity=".81"/><stop offset="1" stop-color="#fff" stop-opacity="0"/></linearGradient><linearGradient id="c" x1="41.53" y1="32.975" x2="41.53" y2="72.693" gradientUnits="userSpaceOnUse"><stop stop-color="#fff" stop-opacity=".81"/><stop offset=".646" stop-color="#fff"/></linearGradient><linearGradient id="d" x1="21.614" y1="37.245" x2="39.13" y2="49.601" gradientUnits="userSpaceOnUse"><stop stop-color="#fff" stop-opacity=".6"/><stop offset="1" stop-color="#fff" stop-opacity="0"/></linearGradient><linearGradient id="e" x1="83.151" y1="66.154" x2="44.313" y2="59.691" gradientUnits="userSpaceOnUse"><stop offset=".607" stop-color="#fff" stop-opacity=".81"/><stop offset="1" stop-color="#fff" stop-opacity="0"/></linearGradient><linearGradient id="f" x1="60.931" y1="44.966" x2="10.515" y2="26.273" gradientUnits="userSpaceOnUse"><stop stop-color="#fff" stop-opacity=".81"/><stop offset=".478" stop-color="#fff"/></linearGradient><linearGradient id="g" x1="67.051" y1="29.163" x2="46.047" y2="38.923" gradientUnits="userSpaceOnUse"><stop stop-color="#fff" stop-opacity=".6"/><stop offset="1" stop-color="#fff" stop-opacity="0"/></linearGradient><linearGradient id="h" x1="10.545" y1="66.435" x2="36.838" y2="39.015" gradientUnits="userSpaceOnUse"><stop offset=".545" stop-color="#fff" stop-opacity=".81"/><stop offset="1" stop-color="#fff" stop-opacity="0"/></linearGradient><linearGradient id="i" x1="82.276" y1="25.181" x2="39.822" y2="60.492" gradientUnits="userSpaceOnUse"><stop offset=".519" stop-color="#fff"/><stop offset="1" stop-color="#fff" stop-opacity=".81"/></linearGradient></defs></svg>