<svg width="409" height="409" fill="none" xmlns="http://www.w3.org/2000/svg"><path fill-rule="evenodd" clip-rule="evenodd" d="M156.823 61.41c2.582.61 4.321 1.195 6.388 2.148 4.089 1.886 4.969 2.053 10.113 1.92a393.39 393.39 0 0 1 9.816-.09c5.026.027 5.506.08 10.669 1.184 9.758 2.087 13.739 2.51 27.312 2.901 9.667.28 11.359.465 19.774 2.176 4.225.859 5.796 1.04 10.384 1.201 3.989.14 5.592.3 6.117.61.588.349 2.505.431 11.096.477 5.711.031 10.64.078 10.953.106.313.026 1.669-.048 3.013-.166 2.302-.202 2.518-.172 3.699.508.69.397 2.265.926 3.5 1.176 2.322.47 3.681 1.116 5.151 2.45.47.425 1.329.925 1.909 1.11.581.184 1.797.839 2.703 1.454.906.615 2.608 1.516 3.781 2 1.174.486 2.337 1.061 2.585 1.28.247.217 1.134.628 1.97.911.835.283 1.691.774 1.901 1.089.333.501.293.702-.316 1.599l-.697 1.025 1.512.439c2.82.818 3.377 2.019 1.674 3.61-.619.58-.979.662-2.751.634-1.384-.023-2.495-.227-3.46-.638-1.636-.696-8.377-2.496-12.375-3.306-.659-.133-.65-.11.13.323.462.257 1.482.973 2.265 1.59.783.618 2.581 1.703 3.995 2.41 2.143 1.073 4.233 2.441 7.598 4.976.911.686.891 1.508-.06 2.457-.741.739-1.101.882-2.214.876-1.454-.007-3.97-.926-5.484-2.001-.529-.377-1.9-1.092-3.045-1.589a41.701 41.701 0 0 1-3.985-2.042c-1.99-1.191-6.898-3.362-7.878-3.483-2.415-.301-6.686 2.393-6.686 4.218 0 .81.761 2.08 1.701 2.84.238.194 1.777 1.024 3.419 1.847 5.634 2.821 8.292 5.924 7.075 8.259-.818 1.573-2.005 2.096-3.233 1.425-.469-.257-1.749-.937-2.845-1.511-1.095-.575-2.934-1.673-4.085-2.441-3.558-2.373-5.186-3.188-8.527-4.265-3.888-1.253-5.465-2.256-7.159-4.549-5.455-7.386-6.69-8.986-7.33-9.489-2.156-1.693-6.482-1.787-13.156-.288-4.943 1.11-6.515 1.625-12.34 4.041-7.813 3.24-14.164 4.487-20.781 4.078-4.067-.251-5.646-.55-9.413-1.788-2.937-.964-3.353-1.027-6.763-1.026-2.231.001-3.754.12-3.943.31-.343.342 4.1 4.04 7.496 6.239 3.144 2.036 7.683 3.778 9.841 3.778 1.42 0 14.095 3.476 16.91 4.637 5.404 2.229 9.849 6.048 14.276 12.262 5.15 7.231 8.491 13.094 11.409 20.023 3.423 8.127 4.524 10.513 6.855 14.846 3.18 5.913 9.835 17.383 13.928 24.005 1.806 2.922 4.576 7.913 6.155 11.09 1.578 3.178 3.446 6.565 4.151 7.527 2.13 2.909 6.478 7.126 11.524 11.176 5.911 4.745 10.214 9.525 14.781 16.419 3.043 4.593 4.189 7.293 6.159 14.514.877 3.215 2.075 6.672 4.417 12.752.722 1.874 2.026 5.708 2.897 8.52 1.894 6.111 4.894 12.871 6.364 14.336 1.162 1.157 3.144 1.85 6.123 2.138 3.339.323 7.74 2.091 9.302 3.736 1.078 1.134 1.827 2.999 2.233 5.559.397 2.503.169 4.176-1.041 7.656-.968 2.78-1.148 5.81-.588 9.892 1.01 7.362.787 15.235-.531 18.772-1.021 2.74-1.107 3.276-.714 4.464.666 2.014-.145 3.905-1.904 4.438-.488.147-.641.409-.645 1.097-.007 1.384-1.117 3.127-2.194 3.445-.67.198-.957.482-1.088 1.075-.261 1.191-1.336 1.792-2.626 1.471-.904-.225-1.123-.172-1.709.415-.577.578-.872.654-2.1.536-1.209-.116-1.538-.037-2.135.516-.389.36-1.056.73-1.483.824-.892.195-3.734-.475-4.61-1.087-.434-.304-.829-.347-1.477-.161-.735.21-1.232.087-2.962-.732-1.585-.751-2.079-1.123-2.079-1.567 0-.32-.224-.665-.498-.766-.736-.271-.915-.66-.92-2-.003-.824-.185-1.387-.573-1.775-.343-.342-.569-.946-.569-1.519 0-.524-.126-1.323-.281-1.776-.154-.452-.329-1.973-.389-3.379-.059-1.406-.316-4.282-.57-6.39a123.575 123.575 0 0 1-.631-7.527l-.169-3.692-2.435-7.242c-1.339-3.984-2.787-7.946-3.217-8.805-.728-1.454-6.122-9.325-9.05-13.207-3.504-4.646-9.234-10.552-16.83-17.349-6.403-5.728-15.917-14.979-22.641-22.012-3.503-3.665-6.508-6.39-9.293-8.427-.482-.353-1.684-.891-2.671-1.195-.986-.304-2.213-.764-2.727-1.021-1.436-.72-3.937-3.283-7.469-7.651-2.208-2.731-6.188-6.911-12.712-13.349-9.806-9.676-12.438-12.598-19.486-21.632-7.852-10.063-12.126-17.129-17.183-28.409-1.107-2.47-2.23-4.705-2.495-4.967-.265-.263-2.34-1.44-4.611-2.616-4.049-2.097-4.197-2.208-7.671-5.716-4.156-4.196-6.247-5.582-10.715-7.101-1.7-.578-5.459-1.99-8.354-3.137-2.895-1.147-6.992-2.564-9.104-3.148-3.761-1.041-3.932-1.062-8.181-.988-3.372.059-4.701-.03-5.961-.395-2.388-.693-6.508-2.689-8.957-4.338l-2.149-1.448-.179 1.302c-.286 2.083-.205 4.807.25 8.454.234 1.869.425 4.519.425 5.889s.201 4.634.447 7.253c.648 6.895.299 10.072-1.868 17.005-.607 1.94-1.316 4.516-1.577 5.725-.873 4.048-1.25 5.004-2.766 7.019l-1.491 1.982v2.563c0 2.379-.067 2.681-.947 4.23-.655 1.153-.894 1.876-.777 2.342.189.752 2.186 3.916 3.544 5.615.991 1.239 1.077 1.815.451 3.024a1.97 1.97 0 0 1-2.386.992c-.32-.101-1.369-1.273-2.331-2.603l-1.749-2.419-.942 1.697-.942 1.696.692 2.512c.839 3.045.86 3.79.13 4.716-1.076 1.366-2.416 1.098-3.131-.626-.197-.475-.457-.863-.578-.863-.399 0-1.064 2.103-1.256 3.976-.596 5.797-.918 7.166-2.04 8.692-.777 1.056-2.603 1.638-4.097 1.307-.968-.215-1.002-.268-1.208-1.915-.117-.932-.334-3.388-.482-5.458-.149-2.071-.334-3.869-.412-3.995-.078-.125.06-1.69.305-3.477.346-2.512.38-3.614.147-4.862-.386-2.074-.11-2.992 1.946-6.481 1.942-3.294 2.386-4.392 3.1-7.652.305-1.399.96-3.379 1.453-4.402.834-1.725.877-1.956.594-3.21a35.225 35.225 0 0 1-.483-2.771c-.254-2.027-.834-4.23-2.394-9.088-1.725-5.377-2.116-7.634-2.089-12.071.016-2.653.172-4.109.617-5.76l.594-2.211-1.177-1.056c-1.686-1.513-3.165-3.937-4.489-7.358-1.466-3.79-2.311-7.041-2.533-9.745l-.175-2.13-1.393-.088c-.766-.049-1.727.05-2.136.219-.41.169-1.255.322-1.88.339-.7.02-1.375.249-1.76.598-.514.465-.9.542-2.135.426-.829-.078-1.7-.222-1.934-.32-.296-.125-.626.169-1.075.955-.356.624-.972 1.347-1.369 1.606-.666.436-.794.437-1.686.012-.532-.252-1.452-.896-2.046-1.431-1.372-1.234-6.273-4.411-7.15-4.634-.367-.094-1.176-.018-1.799.168-1.922.575-5.012-.081-6.854-1.456-.821-.612-2.773-1.898-4.338-2.857-4.764-2.92-5.892-3.92-8.52-7.551-1.246-1.722-3.012-5.635-3.754-8.318-.75-2.717-.693-8.474.116-11.466 1.235-4.57 2.514-7.067 5.062-9.886 5.096-5.638 11.668-7.828 21.053-7.014 5.729.498 9.114 1.698 13.81 4.9 1.503 1.025 3.295 2.15 3.983 2.503 1.593.815 4.657 1.038 7.524.549 1.898-.324 2.324-.524 4.042-1.9 3.905-3.127 8.641-5.625 13.956-7.363 1.663-.544 3.443-1.248 3.956-1.564 3.03-1.87 10.249-4.565 15.731-5.874 6.238-1.489 6.95-1.59 11.665-1.644 3.868-.045 5.095-.166 6.97-.688 1.8-.5 3.199-.651 6.686-.723 2.426-.05 4.666-.03 4.979.044z" fill="#fff"/></svg>