<svg width="1108" height="836" fill="none" xmlns="http://www.w3.org/2000/svg"><path fill-rule="evenodd" clip-rule="evenodd" d="M775.317 85.246c-.118.083-.418-.14-.666-.496-.248-.356-.548-.58-.667-.497-.118.083-.486-.237-.817-.712-.33-.474-.698-.794-.816-.712-.119.083-.419-.14-.667-.496-.248-.355-.524-.595-.614-.533-.089.063-.482-.08-.872-.316-1.034-.627-4.461-1.067-5.337-.685-.411.18-.806.24-.878.137-.073-.104-.465.044-.873.329-.408.284-.87.462-1.026.394-.421-.182-1.922.952-3.357 2.536-.697.77-1.597 1.7-2 2.07-.404.369-.688.736-.632.816.056.08-.268.598-.72 1.15-.452.552-1.681 2.558-2.731 4.457-2.322 4.2-2.406 4.37-2.262 4.576.063.09-.058.285-.269.432-.211.147-.388.559-.393.915-.006.357-.175.763-.376.903s-.344.354-.319.476c.027.121-.14.778-.37 1.459-.725 2.153-.875 2.685-1.602 5.696-.291 1.201-.598 2.466-.683 2.81-.086.345-.112.69-.057.768.054.077-.048 1.016-.227 2.086-.734 4.388-1.175 7.388-1.102 7.492.042.061.017.491-.055.955-.343 2.194-.561 4.134-.478 4.254.051.073-.091 1.11-.315 2.304-.225 1.194-.351 2.253-.282 2.353.07.1.08.714.022 1.364-.105 1.182-.105 1.182-.406.512-.166-.369-.216-.731-.112-.804.105-.073.022-.375-.185-.671-.207-.297-.279-.607-.16-.69.118-.082.08-.344-.085-.581-.166-.237-.204-.499-.085-.581.118-.083.012-.442-.236-.797-.248-.356-.354-.715-.235-.797.118-.083-.021-.49-.311-.905-.289-.415-.429-.822-.31-.905.118-.082.016-.435-.227-.784-.243-.349-.387-.761-.319-.917.067-.156-.105-.609-.382-1.008-.278-.397-.45-.81-.383-.915.142-.224-1.999-5.736-2.505-6.449-.188-.265-.245-.55-.126-.633.118-.082-.123-.635-.537-1.228-.413-.593-.654-1.145-.536-1.228.119-.083-.088-.587-.46-1.12-.372-.534-.58-1.038-.461-1.12.118-.083-.123-.636-.536-1.228-.414-.593-.655-1.146-.536-1.228.118-.083-.089-.587-.461-1.121-.372-.533-.58-1.037-.461-1.12.119-.083-.055-.538-.386-1.012-.33-.475-.504-.93-.385-1.013.118-.083-.055-.538-.386-1.012-.331-.475-.504-.93-.386-1.013.119-.082-.033-.507-.337-.943-.304-.436-.672-1.153-.817-1.593-.454-1.38-2.11-4.905-2.7-5.749-.31-.444-.467-.875-.349-.958.119-.082-.089-.586-.461-1.12-.372-.533-.579-1.037-.461-1.12.119-.083-.122-.635-.536-1.228-.413-.593-.654-1.145-.536-1.228.119-.083-.021-.49-.31-.905-.289-.415-.429-.822-.311-.904.119-.083-.055-.539-.385-1.013-.331-.474-.505-.93-.386-1.013.118-.082-.089-.586-.461-1.12-.372-.533-.579-1.037-.461-1.12.119-.083-.051-.532-.377-1-.325-.467-.537-.977-.469-1.133.067-.156-.078-.57-.322-.92-.244-.35-.474-.866-.511-1.146-.085-.646-1.515-4.07-1.967-4.711-.188-.266-.244-.55-.126-.633.119-.083-.055-.539-.385-1.013-.331-.474-.505-.93-.386-1.012.118-.083-.123-.636-.536-1.228-.413-.593-.655-1.146-.536-1.228.118-.083-.089-.587-.461-1.12-.372-.534-.579-1.038-.461-1.12.119-.084-.152-.679-.602-1.324-.45-.645-.763-1.3-.695-1.456.067-.156-.009-.472-.169-.702-.161-.23-.389-.35-.508-.268-.118.083-.448-.183-.733-.592-.284-.408-.655-.733-.825-.724-.17.01-.44-.171-.6-.401-.161-.23-.389-.351-.508-.268-.118.082-.384-.093-.591-.39-.207-.295-.473-.47-.591-.388-.119.083-.317.005-.441-.173-.124-.177-.303-.269-.398-.203-.095.066-.508-.117-.919-.407-.411-.29-1.341-.652-2.066-.803-.725-.152-1.354-.325-1.397-.387-.103-.148-4.053-.85-4.2-.747-.063.044-.622.001-1.242-.095-.621-.096-1.259-.084-1.419.028-.161.112-.359.106-.442-.012-.083-.119-.433-.018-.779.223-.346.24-.738.357-.87.258-.147-.11-.97.313-2.085 1.069-1.684 1.142-1.92 1.394-2.743 2.943-.495.933-.906 1.79-.913 1.907-.007.117-.329.791-.716 1.5-.387.707-.774 1.587-.859 1.955-.085.368-.282.758-.437.866-.156.109-.22.288-.143.398.078.11-.005.39-.183.623-.178.231-.439 1.072-.581 1.868-.142.796-.344 1.507-.449 1.58-.361.252-2.352 9.192-2.121 9.523.056.08.025.685-.07 1.342a15.16 15.16 0 0 0-.12 2.36c.029.641-.043 1.232-.161 1.314-.117.081-.092.32.055.531.147.212.171.66.053.995-.118.337-.094.784.053.995.147.211.171.451.052.534-.119.083-.127.277-.018.433.108.155.154.592.102.97-.114.833.543 5.009.86 5.463.125.18.13.394.012.477-.119.082-.08.344.085.58.165.238.204.5.085.582-.119.083-.046.393.16.69.207.296.279.606.16.689-.118.082-.08.344.086.581.165.237.203.499.085.581-.119.083-.081.345.085.582.165.237.203.499.085.581-.119.083-.08.344.085.582.165.237.204.498.085.581-.119.083-.096.321.05.531.146.209.387 1.158.537 2.108.149.951.458 2.14.686 2.644.228.504.365 1.029.306 1.167-.06.138.157.634.483 1.101.326.467.496.917.377 1-.119.082-.013.441.235.797.248.355.354.714.236.797-.119.082-.051.387.151.676.202.289.312.654.244.81-.067.156.043.52.245.809.202.29.27.594.151.677-.118.082-.013.441.235.797.248.355.354.714.236.797-.119.082.017.484.302.892.284.408.462.869.394 1.025-.067.156.039.514.236.797.196.282.302.641.235.797-.068.156.054.548.269.872.465.697 1.678 3.908 1.614 4.269-.025.138.214.623.531 1.077.317.455.48.894.361.977-.119.082-.046.393.16.689.207.296.279.606.16.689-.118.083-.012.441.236.797.248.356.354.714.235.797-.118.083-.012.441.236.797.248.356.354.714.235.797-.119.083-.013.441.235.797.248.355.354.714.236.797-.119.082-.051.387.151.676.202.29.312.654.244.81-.067.156.007.468.164.694.313.449.663 3.149.449 3.47-.072.11-.018.364.123.565.14.201.158.641.04.977-.118.336-.094.784.053.995.147.211.171.451.052.534-.118.082-.095.323.052.533.147.211.171.659.053.995-.118.336-.14.717-.05.847.09.129.063.729-.06 1.333-.124.603-.173 1.494-.11 1.978.063.485.045 1.163-.041 1.508s-.079.737.014.871c.094.134.074.312-.045.394-.119.083-.13.273-.026.422.104.15.08.528-.054.842-.134.313-.172.672-.085.797.088.126.069.823-.043 1.55-.111.726-.136 1.671-.055 2.099.081.429.073.83-.016.893-.09.062-.077.237.029.389.106.152.096.551-.022.887-.118.336-.109.762.02.947.128.185.137.611.02.947-.118.337-.109.763.019.948.129.184.138.611.02.947-.118.336-.144.711-.059.834.086.122.012 1.154-.163 2.293-.175 1.139-.26 2.153-.189 2.255.07.101.019.855-.114 1.674-.134.819-.187 1.569-.119 1.667.068.098.04.575-.062 1.06-.102.485-.106.996-.009 1.136.098.139.099.761.003 1.381-.097.62-.107 1.225-.024 1.345a.265.265 0 0 1-.063.368c-.119.082-.131.272-.027.421.104.15.08.528-.054.842-.133.313-.153.699-.042.858.11.158.129.599.042.979-.088.379-.105.768-.039.863.12.172.223 2.182.153 2.968-.021.227.018.493.086.59.068.097.027.452-.091.788-.118.337-.109.763.02.948.129.184.138.611.02.947-.118.336-.121.745-.007.908.113.163.11.75-.008 1.303-.118.553-.133 1.27-.032 1.592.1.323.092.65-.019.728-.11.077-.066.334.1.571.165.237.203.499.085.581-.119.083-.095.323.052.534.147.211.171.659.053.995-.118.336-.094.784.053.995.147.211.17.451.052.534-.119.082-.114.295.01.473s.143.38.043.45c-.099.07-.093.75.014 1.512.108.762.189 1.534.181 1.716-.044 1 .074 2.742.198 2.92a.257.257 0 0 1-.072.356c-.118.083-.095.323.052.534.147.211.171.658.053.995-.118.336-.094.784.053.995.147.21.171.451.052.533-.118.083-.08.345.085.582.166.237.229.482.14.545-.088.063.033 1.204.269 2.536.236 1.332.35 2.477.253 2.544-.098.068-.058.294.088.503.145.208.155.635.021.949-.134.313-.158.693-.053.844.106.15.095.548-.023.885-.118.336-.109.762.02.947.129.185.138.611.02.947-.118.336-.134.727-.035.869.098.141.083.843-.034 1.56-.116.717-.14 1.406-.052 1.533.189.27-.553 4.196-.828 4.389-.103.072-.314.867-.468 1.767-.154.901-.383 1.709-.51 1.797-.126.089-.331.664-.455 1.279-.124.615-.309 1.176-.409 1.247-.102.07-.253.428-.337.795-.262 1.146-.406 1.562-.816 2.35a7.273 7.273 0 0 0-.561 1.546c-.089.43-.248.841-.353.915-.105.073-.232.45-.281.836-.049.387-.184.769-.3.85-.116.081-.243.435-.282.788-.04.352-.221.93-.403 1.285-.182.354-.375.802-.428.994-.17.611-.981 2.558-1.101 2.641-.063.045-.217.729-.342 1.521-.125.791-.33 1.511-.455 1.599-.126.088-.333.583-.459 1.101-.591 2.419-.896 3.367-1.138 3.536-.144.1-.331.663-.415 1.251-.084.587-.308 1.176-.498 1.308-.189.132-.277.337-.194.456a.267.267 0 0 1-.074.371c-.281.197-.833 1.726-1.158 3.211-.473 2.158-.517 2.235-1.688 2.976-.624.395-1.291.691-1.482.658-.458-.08-1.317.531-1.295.921.009.17-.414.609-.94.976-.527.368-.89.765-.807.883.082.119-.044.351-.281.517-.237.165-.363.397-.281.516.083.118.005.317-.173.441-.277.193-.765-.408-3.396-4.181-1.886-2.705-3.191-4.399-3.38-4.389-.182.01-1.17-1.217-2.404-2.987-1.297-1.86-2.178-2.948-2.311-2.855-.127.088-.742-.604-1.494-1.682-.751-1.078-1.366-1.77-1.493-1.682-.126.089-.738-.599-1.484-1.669-.698-1.001-1.408-1.811-1.577-1.802-.175.01-1.019-1.002-1.953-2.341-.996-1.429-1.73-2.299-1.86-2.208-.129.089-.792-.676-1.644-1.898-.852-1.221-1.515-1.987-1.643-1.897-.127.088-.742-.604-1.493-1.682-.752-1.077-1.367-1.77-1.494-1.682-.122.086-.655-.478-1.231-1.303-.559-.8-1.526-1.964-2.149-2.586-2.179-2.176-3.683-3.863-5.24-5.877-.863-1.116-1.66-1.966-1.771-1.889-.111.078-.704-.581-1.319-1.463-.616-.882-1.258-1.596-1.427-1.587-.17.01-.541-.316-.826-.724-.285-.408-.614-.675-.733-.592-.118.083-.486-.238-.817-.712-.33-.474-.698-.794-.816-.712-.119.083-.449-.183-.733-.591-.285-.408-.656-.734-.826-.725-.169.01-.473-.219-.675-.509-.202-.289-.464-.458-.582-.375-.119.082-.351-.044-.517-.281-.165-.237-.386-.371-.492-.298-.105.074-.511-.184-.903-.572a6.896 6.896 0 0 0-1.623-1.128c-.502-.233-1.008-.56-1.125-.728-.117-.167-.647-.515-1.178-.771-.532-.257-1.066-.61-1.188-.784-.121-.174-.317-.249-.436-.166-.119.082-.385-.093-.591-.389-.207-.296-.473-.471-.592-.388-.118.082-.317.004-.441-.173-.124-.178-.322-.256-.441-.174-.118.083-.35-.043-.516-.28-.165-.237-.397-.364-.516-.281-.118.083-.345-.036-.504-.263-.158-.227-.385-.393-.505-.368-.248.051-3.98-1.93-4.182-2.22-.074-.105-.473-.264-.887-.353-.415-.089-.842-.289-.951-.444-.108-.156-.294-.215-.413-.133-.118.083-.35-.043-.516-.281-.165-.237-.397-.363-.516-.28-.118.082-.317.004-.441-.173-.124-.178-.322-.256-.441-.173-.118.082-.351-.044-.516-.281-.165-.237-.398-.364-.516-.281-.119.083-.319.003-.444-.177-.126-.18-.739-.543-1.363-.806-.623-.262-1.203-.576-1.287-.697a.266.266 0 0 0-.369-.07c-.119.083-.351-.044-.516-.281-.165-.237-.398-.363-.516-.28-.119.082-.317.004-.441-.173-.124-.178-.305-.269-.401-.202-.097.068-.545-.124-.997-.425-.453-.302-.901-.493-.998-.426-.096.067-.277-.023-.401-.201-.124-.178-.322-.256-.441-.173-.118.083-.317.005-.441-.173s-.322-.256-.441-.173c-.118.083-.35-.044-.516-.281-.165-.237-.374-.381-.463-.32-.09.06-.659-.192-1.264-.561-.605-.369-1.176-.619-1.268-.554-.092.064-.268-.029-.392-.207s-.323-.256-.441-.173c-.119.083-.317.005-.441-.173s-.305-.268-.401-.201c-.097.067-.545-.124-.998-.426-.452-.301-.9-.493-.997-.426-.096.068-.277-.023-.401-.201-.124-.178-.322-.255-.441-.173-.118.083-.302.026-.407-.125-.106-.152-.484-.28-.84-.286-.357-.006-.718-.111-.804-.234-.211-.301-4.106-1.815-4.908-1.907-.351-.041-.715-.183-.808-.318-.094-.134-.268-.176-.386-.094-.119.083-.317.005-.441-.173-.124-.177-.323-.255-.441-.173-.119.083-.317.005-.441-.173s-.323-.255-.441-.173c-.119.083-.288.047-.376-.079-.223-.319-2.184-.946-3.813-1.219-.748-.125-1.406-.294-1.462-.374-.056-.08-.558-.21-1.115-.289-3.997-.564-5.056-.663-5.525-.517-.294.091-.597.075-.674-.035-.077-.111-.334-.066-.571.099-.237.166-.491.215-.564.11-.362-.519-4.819 1.081-6.73 2.416-2.112 1.475-2.571 2.214-3.123 5.018-.274 1.392-.457 2.59-.406 2.662.051.073.099.659.107 1.302.008.643.141 1.35.295 1.571.153.22.182.468.064.551-.119.083-.081.344.085.581.165.238.203.499.085.582-.136.095.836 1.659 2.64 4.245 1.804 2.587 2.935 4.04 3.072 3.946.119-.084.616.424 1.117 1.142.496.712.985 1.236 1.087 1.165.102-.071.857.592 1.678 1.472 2.668 2.861 2.865 3.049 3.06 2.912.106-.074.396.157.644.512.248.356.548.579.666.497.119-.083.487.237.817.711.331.475.698.795.817.712.119-.082.337.025.486.238.336.482 1.561 1.212 1.782 1.062.089-.061.365.18.613.535.248.356.548.579.667.497.118-.083.418.14.666.496.248.356.548.579.667.496.118-.082.351.044.516.281.165.237.39.369.499.293.109-.076.464.107.789.407s.719.538.875.53c.157-.009.383.125.503.297.278.398 2.52 1.709 2.815 1.646.122-.027.351.138.51.365.158.227.385.345.503.263.119-.083.351.043.516.28.166.238.398.364.517.281.118-.082.418.141.666.497.248.355.548.579.667.496.118-.083.35.044.516.281.165.237.397.363.516.28.118-.082.317-.004.441.173.124.178.322.256.441.173.118-.082.318-.003.443.176.281.403 4.064 2.568 4.37 2.501.123-.026.353.138.511.365.159.227.385.345.504.263.118-.083.418.14.666.496.248.356.548.579.667.496.118-.082.351.044.516.281.165.237.379.376.476.309.096-.067.545.124.997.426.452.301.901.493.998.425.096-.067.31.072.476.309.165.237.391.368.503.29.111-.077.573.251 1.026.73.453.479.947.864 1.097.856.15-.009.438.221.64.511.201.289.463.458.582.376.119-.083.448.183.733.591.284.408.656.734.825.725.17-.01.44.171.601.401.16.23.388.351.507.268.14-.097 2.091 2.54 5.543 7.489 3.389 4.86 5.282 7.742 5.204 7.922-.075.174 1.039 1.949 2.875 4.582 1.898 2.722 3.076 4.243 3.213 4.148.141-.099 3.397 4.412 9.459 13.106 6.063 8.693 9.17 13.307 9.029 13.406-.119.082-.013.441.235.797.248.355.377.698.286.761-.09.063-.07.59.045 1.171.115.58.155 1.411.09 1.845-.065.435-.042.901.053 1.036.094.136.07.721-.054 1.301s-.173 1.141-.109 1.245c.065.105.005.846-.131 1.646-.137.8-.196 1.532-.132 1.627.168.244.096.948-.315 3.11-.199 1.042-.308 1.971-.243 2.064.065.094.035.696-.067 1.338-.102.642-.207 1.68-.234 2.306-.026.626-.578 4.172-1.226 7.88l-1.179 6.742-1.489 1.606c-.819.884-1.753 1.797-2.075 2.031-.322.233-.517.521-.434.639.082.119-.087.381-.376.583-.29.202-.519.505-.509.675.009.17-.214.47-.497.667-.282.196-.505.496-.496.666.01.17-.219.473-.509.675-.289.202-.458.464-.376.583.083.118-.14.418-.496.666-.356.248-.579.548-.496.667.082.118-.025.337-.238.486-.213.149-.424.415-.468.591-.045.177-.423.76-.842 1.298-.418.537-1.323 1.986-2.01 3.219-.687 1.234-1.345 2.31-1.461 2.391-.116.08-.32.35-.453.598-.132.248-.416.717-.631 1.041-.798 1.204-1.829 3.123-1.79 3.328.022.117-.145.341-.372.5-.228.158-.362.361-.3.451.063.089-.127.489-.422.888-.295.398-.654.916-.799 1.15-.224.361-.347.307-.806-.352-.298-.427-.639-.709-.758-.627-.118.083-.583-.377-1.033-1.022-.45-.645-.957-1.165-1.126-1.156-.17.009-.765-.637-1.322-1.436-.557-.799-1.165-1.484-1.351-1.522-.186-.037-.927-.811-1.645-1.719-1.315-1.66-4.564-5.277-6.813-7.583a79.584 79.584 0 0 1-2.047-2.184c-.462-.519-.96-.937-1.108-.928-.147.008-.632-.507-1.077-1.145-.445-.638-.948-1.153-1.118-1.143-.169.009-.608-.414-.975-.941-.368-.526-.765-.889-.884-.806-.118.082-.515-.281-.883-.807-.367-.527-.806-.95-.976-.941-.169.01-.608-.413-.975-.94-.368-.526-.765-.889-.884-.807-.118.083-.553-.334-.967-.927-.413-.593-.848-1.01-.967-.927-.118.082-.397-.11-.618-.428-.221-.317-.702-.811-1.067-1.097-.366-.287-1.133-.987-1.706-1.557a48.533 48.533 0 0 0-1.856-1.749c-1.988-1.74-3.623-3.296-3.935-3.743-.186-.267-.435-.417-.554-.335-.118.083-.448-.183-.733-.591-.284-.408-.656-.734-.825-.725-.17.01-.537-.311-.817-.712-.28-.401-.647-.721-.817-.711-.169.009-.473-.22-.675-.51-.202-.289-.464-.458-.582-.375-.119.082-.487-.238-.817-.712-.331-.474-.698-.795-.817-.712-.119.083-.448-.183-.733-.591-.284-.409-.636-.735-.781-.728-.146.009-.643-.41-1.105-.93-.463-.519-1.523-1.478-2.356-2.131a81.908 81.908 0 0 1-2.337-1.894c-.453-.389-1.028-.815-1.278-.946-.251-.131-.659-.531-.909-.888-.249-.358-.55-.582-.668-.5-.119.083-.448-.183-.733-.591-.284-.408-.656-.734-.826-.725-.169.01-.469-.214-.666-.496-.197-.282-.497-.506-.666-.496-.17.009-.542-.317-.826-.725-.285-.408-.614-.674-.733-.591-.118.082-.347-.038-.507-.268-.161-.231-.431-.411-.6-.402-.17.01-.46-.193-.645-.45s-.61-.557-.944-.665c-.335-.109-.7-.33-.812-.49-.113-.162-.678-.559-1.258-.885-.579-.325-1.142-.719-1.25-.874-.109-.156-.295-.215-.413-.133-.119.083-.337-.024-.486-.238-.336-.481-1.561-1.212-1.782-1.061-.089.061-.298-.083-.463-.32-.165-.237-.398-.364-.516-.281-.119.083-.351-.044-.516-.281-.166-.237-.398-.363-.517-.281-.118.083-.35-.043-.516-.28-.165-.237-.397-.364-.516-.281a.26.26 0 0 1-.362-.06c-.231-.332-4.606-2.714-5.166-2.813-.1-.018-.506-.203-.902-.412-.395-.209-.799-.324-.898-.255-.098.069-.314-.069-.479-.306-.166-.237-.374-.38-.464-.318-.09.063-.465-.071-.836-.298-2.602-1.594-3.74-2.276-4.615-2.768-.551-.31-1.091-.69-1.199-.846-.109-.155-.295-.215-.413-.132-.119.083-.385-.092-.592-.389-.206-.296-.472-.471-.591-.388-.118.082-.351-.044-.516-.281-.165-.237-.398-.363-.516-.281-.119.083-.419-.141-.667-.496-.248-.356-.548-.579-.666-.496-.119.082-.351-.044-.516-.281-.166-.237-.398-.364-.516-.281-.119.083-.317.005-.441-.173s-.129-.391-.01-.474c.118-.082-.055-.538-.386-1.012s-.504-.93-.386-1.013c.119-.082.051-.387-.151-.676-.202-.29-.312-.654-.244-.81.067-.156-.039-.514-.236-.797-.197-.282-.303-.641-.235-.797.067-.156-.106-.611-.386-1.012-.279-.401-.459-.842-.399-.981s-.056-.607-.258-1.041c-1.17-2.509-2.158-4.889-2.554-6.15a52.416 52.416 0 0 0-.715-2.065c-.233-.63-.455-1.375-.491-1.655-.037-.28-.271-.802-.52-1.159-.249-.358-.356-.718-.237-.8.118-.083-.055-.539-.386-1.013-.331-.474-.504-.93-.386-1.012.119-.083-.084-.581-.452-1.108-.367-.527-.612-1.085-.544-1.241.067-.156-.246-.811-.696-1.456-.45-.645-.733-1.231-.631-1.303.103-.071-.235-.881-.75-1.799a215.04 215.04 0 0 1-1.807-3.305c-3.073-5.772-3.984-7.237-6.118-9.83-2.092-2.543-4.832-5.164-5.294-5.065-.122.026-.318-.091-.436-.261-.119-.169-.419-.416-.668-.548a87.04 87.04 0 0 1-1.71-.966c-.692-.399-1.341-.738-1.444-.755-.102-.017-.533-.221-.957-.454-.425-.232-2.472-.733-4.551-1.113-2.865-.524-4.289-.622-5.893-.407a101.49 101.49 0 0 1-3.253.388c-.626.057-1.323.234-1.55.392-.226.158-.539.232-.695.164-.156-.067-.515.039-.797.235-.282.197-.641.303-.797.236-.156-.068-.515.038-.797.235-.282.197-.641.303-.797.236-.157-.068-1.197.514-2.327 1.302-3.574 2.493-4.901 4.902-4.988 9.057-.045 2.161.107 3.88.377 4.268.119.171.131.371.027.444-.105.073-.106.362-.003.642a.7.7 0 0 1-.262.824c-.566.395-3.299 5.011-3.938 6.654-.264.678-.547 1.279-.628 1.335-.244.171-1.488 7.258-1.317 7.506.087.126.11.573.05.993-.06.42-.048.85.026.956.074.106.056.7-.04 1.32-.097.62-.107 1.225-.023 1.345.083.12.064.278-.042.352-.107.074-.056 1.085.111 2.245.47 3.256.568 4.445.421 5.11-.074.337-.024.771.111.964.135.194.148.42.03.503-.119.082-.086.336.072.563.159.227.233.499.167.605-.137.216.274 2.784.497 3.103.217.311.9 4.663.766 4.879-.064.103.081.471.322.816.242.346.342.697.223.779-.118.083-.08.345.085.582.166.237.204.499.085.581-.118.083-.082.341.081.575.163.234.343.905.4 1.493.057.587.224 1.239.37 1.449.147.21.245.533.22.718-.025.185.143.96.375 1.721.231.762.37 1.503.308 1.647-.063.144.048.493.244.775.197.282.303.641.236.797-.068.156.008.472.169.702.16.23.219.47.131.533-.19.135.028 1.532.301 1.924.105.15.238.754.295 1.342.057.587.237 1.259.4 1.492.163.234.199.493.081.575-.119.083-.08.346.087.585.166.238.324.669.35.957.048.539.507 2.27 1.009 3.811.157.481.33 1.338.386 1.903.055.565.233 1.218.396 1.452.163.233.199.492.08.575-.118.082-.08.344.085.581.166.237.204.499.085.581-.118.083-.012.442.236.797.248.356.354.715.235.797-.118.083-.05.387.152.677.202.289.311.653.244.809-.068.156.038.515.235.797.197.283.303.641.236.797-.068.156.009.473.171.705.162.232.317.655.346.941.062.616.765 2.949.983 3.261.084.121.238.756.343 1.412.105.656.31 1.363.455 1.571.145.207.208.505.141.661-.068.156.11.617.394 1.025.285.408.421.809.302.892-.119.083-.013.441.235.797.248.356.354.714.236.797-.119.083.017.484.301.892.285.408.462.869.395 1.025-.067.156.039.515.235.797.197.282.303.641.236.797-.068.156.096.598.364.982s.467.85.441 1.035c-.025.186.487 1.695 1.14 3.354.653 1.659 1.136 3.101 1.073 3.203-.062.102.152.566.476 1.03.323.464.491.912.373.994-.119.083.017.484.301.892.285.408.462.87.395 1.026-.067.156.11.617.395 1.025.284.408.42.809.301.892-.118.082.055.538.386 1.012.331.475.504.93.386 1.013-.119.082-.08.345.087.584.166.239.332.664.368.945.036.281.261 1.022.501 1.648.608 1.591 1.848 5.487 1.939 6.092.042.277.208.693.369.925.162.232.239.549.172.705-.068.156.11.617.394 1.025.285.408.42.809.302.892-.119.083-.013.441.235.797.248.356.354.714.236.797-.119.083-.051.387.151.676.202.29.312.654.244.81-.067.156.039.515.236.797.197.282.302.641.235.797-.067.156.106.611.386 1.012.279.401.453.857.385 1.013-.067.156.039.514.236.797.197.282.31.625.25.761-.059.137.202 1.267.579 2.512.378 1.244.64 2.37.583 2.501-.056.131.059.469.255.751.197.283.303.641.236.797-.068.156.042.521.244.81.202.29.27.594.151.677-.118.082-.08.344.086.581.165.237.203.499.085.581-.119.083-.081.345.085.582.165.237.227.482.137.544-.089.063-.079.525.022 1.027.486 2.408 1.071 6.392.963 6.563-.067.105.008.377.166.604.159.228.192.481.073.564-.118.083-.08.344.085.581.166.237.204.499.085.582-.118.082-.08.344.085.581.166.237.224.485.13.551-.095.065-.047.681.105 1.368s.21 1.295.13 1.351c-.081.056-.035.745.101 1.532.135.786.191 1.469.122 1.517-.068.048.005.79.163 1.648.157.857.214 1.61.125 1.673-.088.062-.026.307.14.544.165.237.203.499.085.582-.119.082-.08.344.085.581s.204.499.085.582c-.119.082-.119.288-.001.458.118.169.183.52.144.78-.101.675.168 2.883.39 3.201.103.148.126.545.052.882-.075.336-.078 1.004-.007 1.483.072.479.091 1.178.044 1.552-.047.375-.026.767.047.871.172.248.002 1.197-.246 1.37-.106.074-.068.804.086 1.622.154.818.158 2.101.009 2.851-.148.751-.177 1.496-.065 1.657.112.161.107.568-.01.904-.118.336-.145.712-.059.836.086.123.107.617.046 1.098a7.81 7.81 0 0 0-.003 1.681c.059.444.027.863-.072.931-.098.069-.072.278.058.465.131.188.109.984-.047 1.77s-.222 1.519-.146 1.629c.077.109.068.51-.02.89-.087.379-.097.779-.021.888.076.108.111.417.078.686-.123 1.003-.101 1.393.196 3.375.168 1.116.242 2.307.165 2.645-.076.339-.028.774.107.967.135.194.148.42.03.503-.119.082-.081.344.085.581.165.237.203.499.085.581a.258.258 0 0 0-.072.357c.138.198.252 2.148.176 3.001-.021.227.135.66.345.961.21.301.285.616.166.698-.118.083-.124.281-.013.44.111.16.138.571.058.914-.078.343-.039 1.058.088 1.59.128.531.153 1.022.057 1.089-.097.067-.04.316.125.553.165.237.178.517.029.621-.15.104-.281.589-.29 1.078-.01.488-.08 1.264-.155 1.724-.076.46-.073.928.005 1.041.078.112-.027 1.201-.235 2.42-.207 1.218-.279 2.355-.16 2.526.12.171.111.469-.02.661-.13.192-.108.533.048.758.157.224.188.475.069.558-.118.083-.095.323.052.534.147.211.171.658.053.994-.118.337-.094.784.053.995.147.211.171.451.052.534a.272.272 0 0 0-.057.378c.087.125.078.744-.02 1.375-.098.632-.13 1.547-.07 2.034.059.487.037 1.168-.049 1.513s-.09.722-.009.838c.081.116.076.521-.012.901-.087.38-.078.806.02.947.098.142.107.568.02.948-.088.379-.083.799.01.933.093.133.072.517-.046.853-.117.337-.138.721-.045.854.25.358.465 2.057.278 2.188-.17.119.246 2.698.493 3.052.079.113.048.481-.07.818-.118.336-.1.776.04.977.14.201.201.45.136.555-.065.104.022 1.173.193 2.375.388 2.715.552 5.187.363 5.46-.079.113.054.489.295.835.242.346.342.696.223.779-.118.083-.08.344.085.581.166.237.204.499.086.582-.119.082-.091.33.062.549.153.22.516 2.084.807 4.143.291 2.059.685 3.968.876 4.242.191.274.251.566.132.649-.118.082-.08.344.085.581.166.237.204.499.085.582-.118.082-.086.335.071.56.307.44.697 2.838.511 3.145-.061.102.018.371.177.598.158.227.191.481.072.563-.118.083-.122.284-.009.447.114.163.272.881.353 1.596.08.715.337 1.852.57 2.526.233.674.349 1.278.256 1.343-.093.065-.044.297.109.516.541.775.545 2.222.01 3.144-.296.508-.572 1.208-.615 1.555-.043.347-.187.708-.322.801-.134.094-.176.268-.094.386.083.119.044.29-.086.381-.36.251-.826 3.822-.609 4.67.105.411.122.795.038.854-.084.058.004 1.042.195 2.187.191 1.144.287 2.355.213 2.691-.073.337-.038.749.079.916.116.168.115.58-.002.916-.118.336-.095.784.053.995.147.211.182.443.078.515-.104.073-.096.86.018 1.749.114.889.134 1.668.046 1.73-.089.062-.026.307.139.544.166.237.204.499.085.581-.118.083-.126.278-.018.434.109.155.101.764-.017 1.353-.118.589-.158 1.152-.088 1.252.147.211-.07 2.235-.416 3.883-.133.631-.188 1.223-.124 1.315.065.093-.08 1.39-.321 2.882l-.438 2.713-9.549 6.965c-6.148 4.484-12.364 8.816-17.456 12.166-4.349 2.86-9.576 6.362-11.616 7.781-2.235 1.556-3.82 2.532-3.991 2.458-.162-.07-1.338.612-2.749 1.597-1.501 1.046-2.525 1.635-2.617 1.504-.095-.138-1.946 1.037-5.107 3.241-3.161 2.205-5.012 3.379-5.108 3.242-.094-.136-1.587.786-4.03 2.49-2.442 1.703-3.935 2.625-4.03 2.49-.09-.13-1.048.41-2.413 1.362-1.365.952-2.323 1.493-2.413 1.363-.087-.125-.833.26-1.767.912-.934.651-1.68 1.036-1.767.911-.085-.121-.761.211-1.551.762-.791.551-1.467.883-1.552.761-.086-.124-.818.251-1.723.882-.866.603-1.729 1.07-1.919 1.038-.19-.032-1.348.57-2.574 1.339-2.315 1.452-4.999 2.937-7.86 4.348-.918.452-2.276 1.244-3.019 1.758-.753.522-1.416.84-1.5.719-.087-.124-.833.261-1.767.912-.934.651-1.68 1.037-1.767.912-.088-.127-.904.31-1.982 1.062-1.078.751-1.894 1.189-1.983 1.062-.088-.127-.904.311-1.982 1.062-1.078.752-1.894 1.189-1.982 1.062-.087-.124-.829.258-1.754.903-.882.615-1.732 1.063-1.888.996-.156-.068-1.005.38-1.887.995-.925.646-1.667 1.028-1.754.903-.085-.121-.757.208-1.539.753-.763.532-1.515.913-1.671.845-.156-.067-.951.343-1.767.912s-1.611.979-1.767.912c-.156-.068-.887.292-1.625.798-.737.507-1.837 1.139-2.445 1.405-.607.266-2.194 1.143-3.527 1.948-1.332.805-2.481 1.38-2.552 1.279-.071-.102-.662.187-1.314.641-.652.455-1.253.73-1.336.611-.086-.123-.797.236-1.659.837s-1.573.96-1.659.837c-.085-.122-.761.21-1.551.761-.791.551-1.467.883-1.551.761-.085-.121-.761.211-1.552.762-.79.551-1.466.883-1.551.761-.086-.123-.797.236-1.659.837s-1.573.96-1.659.836c-.087-.124-.833.261-1.767.912-.934.651-1.68 1.036-1.767.912-.082-.119-.678.152-1.323.602-.645.45-1.3.763-1.456.695-.156-.067-.756.207-1.334.611-.579.403-1.374.813-1.768.912-.394.099-1.724.789-2.956 1.533-1.232.744-2.297 1.271-2.368 1.17-.07-.101-.806.29-1.636.869-.862.601-1.573.96-1.659.837-.083-.119-.684.156-1.336.611-.652.454-1.253.729-1.336.611-.084-.122-.761.21-1.551.761-.79.551-1.466.883-1.551.762-.084-.12-.725.185-1.444.686-.718.501-1.36.806-1.443.686-.083-.118-.678.153-1.323.602-.645.45-1.301.763-1.457.696-.155-.068-.811.245-1.456.695-.645.45-1.234.729-1.309.621-.076-.108-.732.14-1.458.551a65.893 65.893 0 0 1-2.874 1.507c-3.457 1.692-4.92 2.475-6.006 3.216-.626.428-1.206.682-1.289.563-.085-.122-.761.21-1.551.761-.791.552-1.467.883-1.552.762-.083-.12-.725.185-1.443.686-.719.501-1.36.806-1.444.686-.085-.121-.761.211-1.551.762-.79.551-1.467.883-1.551.761-.083-.118-.636.123-1.228.536-.593.414-1.146.655-1.228.536-.083-.118-.684.157-1.336.611-.652.455-1.253.73-1.336.611-.084-.121-.757.208-1.538.753-.764.532-1.516.913-1.672.845-.156-.067-.908.313-1.672.846-.764.532-1.447.883-1.519.78-.072-.103-1.368.571-2.879 1.499-1.511.928-3.246 1.912-3.854 2.187-.608.275-2.484 1.358-4.167 2.407-1.685 1.049-3.12 1.825-3.191 1.723-.07-.101-.759.256-1.529.793-.791.551-1.467.883-1.551.761-.083-.118-.684.157-1.336.612-.652.454-1.253.729-1.336.611-.084-.12-.725.185-1.443.686-.719.501-1.36.806-1.444.686-.083-.118-.684.157-1.336.611-.652.455-1.253.73-1.335.612-.083-.119-.678.152-1.323.602-.646.45-1.301.762-1.457.695-.156-.068-.811.245-1.456.695-.645.45-1.24.721-1.323.602-.083-.118-.678.153-1.323.603-.645.449-1.3.762-1.456.695-.156-.068-.642.127-1.081.433a8.253 8.253 0 0 1-1.695.863c-.493.169-1.695.77-2.67 1.335-.975.566-1.83.946-1.901.844-.071-.101-.565.12-1.099.492-.533.372-1.037.579-1.12.461-.083-.119-.635.123-1.228.536-.593.413-1.145.654-1.228.536-.085-.122-.761.21-1.551.761-.791.551-1.467.883-1.552.762-.082-.119-.677.152-1.323.602-.645.45-1.3.763-1.456.695-.156-.067-.714.178-1.241.545-.526.367-1.024.57-1.107.452-.083-.119-.538.055-1.012.386-.475.33-.93.504-1.013.385-.083-.118-.484.017-.892.302-.408.284-.869.462-1.025.394-.156-.067-.714.178-1.241.545-.526.367-1.017.582-1.09.478-.072-.105-1.004.316-2.07.935-1.067.618-2 1.036-2.076.928-.075-.107-.525.075-.999.405-.474.331-.929.505-1.012.386-.083-.119-.587.089-1.12.461-.534.372-1.038.579-1.121.461-.082-.119-.538.055-1.012.385-.474.331-.93.505-1.012.386-.083-.119-.393-.046-.69.16-.296.207-.606.279-.689.16-.082-.118-.441-.012-.797.236-.355.248-.714.354-.797.235-.082-.118-.538.055-1.012.386s-.93.504-1.013.386c-.086-.125-.832.26-1.766.911-.934.652-1.553 1.218-1.467 1.343.083.119-.14.419-.496.667-.355.248-.579.547-.496.666.083.119-.044.351-.281.516-.237.165-.363.398-.281.516.083.119-.043.351-.28.516-.237.166-.364.398-.281.517.083.118.023.304-.132.412-.156.109-.356.537-.445.951-.089.415-.222.795-.295.846-.175.123-.344 1.1-.22 1.278.053.076-.031.783-.187 1.569-.157.787-.193 1.561-.081 1.722.113.161.108.568-.01.904-.118.337-.138.721-.045.854.275.395.456 2.064.239 2.215-.11.076-.064.333.101.57.165.237.204.499.085.581-.118.083-.08.345.085.582.166.237.204.498.085.581-.118.083-.08.344.085.582.166.237.204.498.086.581-.119.083-.013.441.235.797.248.356.372.702.275.769-.246.172.056 2.462.387 2.937.151.216.224.476.163.578-.061.101.206 1.26.594 2.575.389 1.315.656 2.474.595 2.575-.061.102.153.565.477 1.029.324.464.492.912.373.995-.118.082.022.489.311.904.289.415.429.822.31.905-.118.083.055.538.386 1.012.331.475.504.93.386 1.013-.119.083.017.484.302.892.284.408.462.869.394 1.025-.067.156.11.617.395 1.025.284.408.42.81.301.892-.118.083.085.581.452 1.108.368.526.613 1.085.545 1.241-.067.156.106.611.386 1.012s.453.857.386 1.013c-.068.155.161.69.508 1.188.347.497.769 1.311.939 1.809.169.497.905 1.893 1.635 3.102.73 1.209 1.244 2.256 1.144 2.326-.101.071.29.807.869 1.637.601.862.959 1.573.836 1.659-.124.087.261.833.912 1.767.651.934 1.036 1.68.912 1.767-.131.091.461 1.12 1.513 2.629 1.052 1.509 1.644 2.537 1.513 2.629-.135.094.736 1.515 2.34 3.814 1.603 2.3 2.474 3.721 2.339 3.815-.14.098 1.889 3.168 5.797 8.772 3.908 5.604 6.088 8.569 6.228 8.472.135-.094 1.092 1.106 2.545 3.19 1.453 2.084 2.411 3.285 2.546 3.191.131-.092.892.819 1.944 2.328s1.813 2.42 1.944 2.329c.127-.089.742.604 1.493 1.682.752 1.077 1.367 1.77 1.493 1.681.125-.086.689.528 1.334 1.454.615.882 1.237 1.597 1.382 1.589.145-.008.959.838 1.809 1.881.851 1.043 1.702 1.924 1.893 1.958.191.034.667.522 1.059 1.084.392.562.852 1.014 1.021 1.005.17-.009.605.408.967.927.363.52.798.937.968.928.169-.01.608.413.976.94.367.527.764.89.883.807.118-.083.553.335.967.927.413.593.848 1.01.967.928.118-.083.52.286.892.819.372.534.773.903.892.82.118-.083.486.238.816.712.331.474.699.794.817.712.119-.083.52.286.892.819.372.534.773.903.892.82.119-.083.486.238.817.712.33.474.679.807.776.74.153-.107 1.219.833 3.196 2.82.337.339.736.61.887.601.151-.008.47.265.708.606.238.342.572.614.741.605.17-.01.47.214.667.496.197.282.497.506.666.496.17-.009.542.317.826.725.285.408.614.674.733.591.118-.082.418.141.666.497.248.355.548.579.667.496.118-.083.384.092.591.388.207.297.473.472.591.389.119-.083.385.092.592.389.206.296.472.471.591.388.118-.083.418.141.666.496.248.356.548.579.667.497.118-.083.363.06.542.318.346.496 4.052 2.65 4.425 2.571.121-.025.349.14.507.368.159.227.386.345.504.262.119-.082.351.044.516.281.166.237.398.364.516.281.119-.083.305-.023.413.132.109.156.536.356.951.445.415.089.858.312.985.495.128.182.329.264.448.182.118-.083.303-.024.411.13.416.597 4.34 1.053 6.232.725l1.894-.328 5.202-4.024a768.118 768.118 0 0 0 7.873-6.166c5.247-4.207 8.447-6.804 10.842-8.801 7.38-6.153 10.7-8.949 13.118-11.047.988-.858 3.569-2.944 5.737-4.637 4.009-3.131 9.859-7.886 14.415-11.715 1.388-1.168 6.39-4.951 11.114-8.409 10.222-7.479 17.061-12.654 19.816-14.995 4.376-3.717 4.832-4.128 5.116-4.608.161-.274 2.152-1.864 4.423-3.534a531.147 531.147 0 0 0 8.19-6.171c2.234-1.724 7.239-5.503 11.123-8.396 3.885-2.894 7.883-5.982 8.886-6.861 1.002-.879 3.406-2.704 5.341-4.054 1.936-1.35 4.76-3.466 6.277-4.702 5.008-4.078 24.158-17.767 32.816-23.457 6.128-4.026 9.223-6.202 12.577-8.838 3.312-2.604 4.794-3.647 5.801-4.084 1.609-.698 2.647-1.4 13.932-9.423 4.814-3.423 9.506-6.915 10.544-7.848 1.029-.925 4.289-3.382 7.245-5.46 7.322-5.147 22.84-16.874 27.483-20.768 1.334-1.119 4.16-3.372 6.28-5.006 6.419-4.949 6.838-5.297 6.979-5.81.09-.326 1.469-1.514 4.06-3.496 5.095-3.899 13.758-10.968 16.494-13.457.754-.687 3.634-2.966 6.399-5.065 7.086-5.378 10.429-8.243 10.126-8.678-.068-.098.888-.949 2.125-1.891 1.237-.942 2.662-2.155 3.166-2.695a69.526 69.526 0 0 1 1.579-1.64c.365-.361.796-.88.958-1.152.63-1.058 1.805-2.518 2.317-2.88.296-.208 1.108-1.007 1.805-1.775.698-.769 1.55-1.667 1.894-1.997.344-.33.619-.724.611-.875-.009-.151.174-.406.406-.568.232-.162.529-.499.66-.749.131-.251.594-.876 1.029-1.39.434-.513.897-1.139 1.028-1.389.132-.251.387-.559.568-.685.181-.126.436-.436.567-.687.221-.427 1.297-1.805 4.439-5.687.709-.877 1.397-1.801 1.527-2.053.13-.252.406-.579.614-.727.441-.313 1.575-1.835 1.641-2.201.024-.138.265-.404.535-.592.269-.188.482-.481.473-.651-.01-.169.172-.44.404-.602.232-.161.53-.496.664-.744.133-.247.548-.837.923-1.311 1.023-1.294 2.927-4.274 3.566-5.582.312-.636.683-1.238.826-1.338.342-.238 4.813-8.396 4.928-8.989.048-.253.317-.857.598-1.343.28-.486.691-1.344.913-1.906.222-.563.593-1.371.825-1.797.231-.425.435-.856.453-.957.018-.101.307-.72.643-1.375.335-.656.759-1.637.942-2.179.182-.543.389-1.026.458-1.074.07-.049.351-.641.626-1.316s.688-1.576.919-2.004c.23-.428.643-1.329.918-2.004s.598-1.296.719-1.381c.121-.084.163-.234.094-.334-.07-.099.042-.465.247-.811.205-.347.422-.812.481-1.033.223-.828 1.004-2.619 1.203-2.757a.259.259 0 0 0 .055-.36c-.082-.118-.031-.303.115-.41.145-.107.623-1.231 1.06-2.499.437-1.268 1.037-2.94 1.332-3.717.295-.777.485-1.487.422-1.577-.063-.091-.007-.241.126-.334.132-.092.387-.708.567-1.368.485-1.782.518-1.884 1.06-3.288.275-.712.519-1.528.543-1.814.024-.286.129-.58.235-.653.105-.073.292-.637.416-1.252s.357-1.21.517-1.321c.161-.112.242-.277.18-.366-.061-.09.084-.658.322-1.262.237-.605.442-1.188.455-1.296.013-.108.213-.752.444-1.43.232-.679.459-1.515.505-1.857.046-.343.207-.708.357-.813.15-.105.311-.469.358-.811.047-.341.306-1.441.575-2.445.269-1.004.592-2.347.719-2.984.126-.638.294-1.204.372-1.259.079-.055.335-.918.57-1.919.595-2.536 1.049-4.015 1.283-4.178.11-.077.275-.625.368-1.218.093-.593.247-1.133.343-1.2.096-.067.298-.713.449-1.434.15-.722.339-1.358.419-1.414.079-.055.308-.873.508-1.816.2-.943.52-2.211.71-2.817.19-.606.444-1.585.565-2.175.121-.589.441-1.893.71-2.897.269-1.004.562-2.238.65-2.742.089-.504.436-1.971.77-3.26.335-1.289.59-2.439.568-2.555-.022-.116.109-.316.293-.445.184-.128.369-.517.411-.865.043-.347.195-.942.338-1.321.143-.379.443-1.553.665-2.609.223-1.055.478-1.97.566-2.032.089-.062.371-1.087.626-2.278s.663-2.953.907-3.916c.243-.963.518-2.127.61-2.588.091-.461.217-.872.277-.914.061-.043.309-1.081.551-2.307.243-1.226.533-2.293.646-2.372.112-.078.392-1.211.621-2.516.23-1.305.506-2.435.614-2.51.109-.076.329-.878.491-1.784.161-.905.376-1.704.477-1.774.101-.071.313-.795.471-1.61.158-.815.372-1.541.476-1.614.105-.073.314-.759.467-1.526.152-.767.462-1.95.689-2.627.227-.678.448-1.517.49-1.864.043-.347.191-.71.33-.807.138-.096.356-.716.484-1.378.127-.662.386-1.744.575-2.404.189-.66.391-1.414.45-1.675.058-.261.186-.531.282-.6.097-.068.297-.778.446-1.576.148-.798.344-1.51.435-1.583.091-.072.273-.638.404-1.257.132-.619.316-1.18.409-1.246.094-.066.263-.546.376-1.065.113-.519.287-1.001.386-1.07.174-.121.626-1.66 1.272-4.331.167-.689.38-1.306.474-1.372.206-.143.515-1.159.774-2.542.105-.557.318-1.102.473-1.211.156-.108.288-.488.293-.845.006-.356.135-.734.288-.841.153-.106.39-.668.526-1.248.137-.579.47-1.599.74-2.265.271-.666.569-1.559.662-1.984.094-.424.276-.845.404-.935.128-.089.307-.538.397-.997.302-1.54.543-2.181 1.517-4.033.533-1.013 1.01-2.29 1.06-2.838.049-.548.191-1.067.315-1.153.124-.086.428-1.163.676-2.392.248-1.229.537-2.295.643-2.37.107-.076.301-.861.433-1.746s.35-1.685.484-1.779c.134-.093.485-1.563.778-3.265.294-1.703.639-3.169.768-3.259.129-.09.492-1.495.806-3.123.958-4.961 1.382-7.244 1.566-8.423.096-.62.372-2.237.614-3.594.811-4.551.943-5.428.837-5.579-.132-.19.429-3.39.617-3.521.247-.173 1.616-7.368 1.606-8.439-.004-.377.145-.791.331-.921.187-.13.463-.791.614-1.469.151-.678.387-1.469.523-1.757.137-.288.233-1.003.213-1.59-.02-.586.021-1.355.09-1.708.154-.785 1.058-5.846 1.227-6.873a370.4 370.4 0 0 1 .64-3.576c.284-1.558.584-3.276.667-3.819.083-.542.259-1.061.391-1.153.35-.244.867-3.163.622-3.514-.114-.165-.117-.362-.007-.439.111-.077.127-.377.037-.667-.09-.289-.027-.621.14-.738.366-.255 1.062-3.281.831-3.612-.09-.13-.068-.51.05-.847.118-.336.094-.784-.053-.995-.147-.21-.161-.457-.03-.548.13-.091.302-.622.382-1.18.08-.559.329-1.369.554-1.801.225-.433.475-1.105.556-1.495.081-.389.365-1.067.631-1.506.267-.439.433-.872.371-.962-.063-.089.08-.298.317-.463.237-.166.364-.398.281-.516-.083-.119.044-.351.281-.516.237-.166.363-.398.281-.517-.083-.118.043-.35.28-.516.238-.165.364-.397.281-.516-.082-.118.044-.351.281-.516.237-.165.371-.387.298-.492-.074-.105.097-.429.378-.72.816-.845 1.742-2.211 1.618-2.389-.062-.089.129-.332.426-.538.296-.207.471-.473.388-.591-.083-.119.044-.351.281-.517.237-.165.363-.397.281-.516-.083-.118.043-.351.28-.516.238-.165.364-.398.281-.516-.082-.119.141-.419.496-.667.356-.248.579-.547.497-.666-.083-.119.043-.351.281-.516.237-.165.363-.398.28-.516-.082-.119.044-.351.281-.516.237-.166.363-.398.281-.517-.083-.118.092-.384.388-.591.297-.207.479-.461.406-.566-.073-.105.051-.393.275-.64.395-.436 1.078-1.372 1.965-2.695.237-.354.381-.717.318-.807-.062-.089.08-.298.318-.463.237-.166.363-.398.28-.516-.082-.119.141-.419.497-.667.355-.248.579-.548.496-.666-.083-.119.044-.351.281-.517.237-.165.363-.397.28-.516-.082-.118.093-.384.389-.591.296-.207.471-.473.388-.591-.082-.119.044-.351.281-.516.237-.166.364-.398.281-.517-.083-.118.044-.35.281-.516.237-.165.363-.397.281-.516-.083-.118.14-.418.496-.666.355-.248.586-.537.513-.643-.074-.105.161-.492.522-.859s.591-.76.512-.873c-.079-.113.051-.341.288-.507.237-.165.363-.397.28-.516-.082-.118.141-.418.497-.666.355-.248.579-.548.496-.667-.083-.118.044-.351.281-.516.237-.165.363-.397.281-.516-.083-.119-.005-.317.173-.441.177-.124.255-.322.173-.441-.083-.119.043-.351.28-.516.237-.166.364-.398.281-.516-.083-.119.044-.351.281-.516.237-.166.363-.398.281-.517-.083-.118.14-.418.496-.666.355-.248.579-.548.496-.667-.083-.118-.046-.288.081-.376.127-.089.275-.408.329-.71.053-.302.284-.679.513-.838.229-.16.348-.387.265-.506-.082-.119.009-.326.202-.461.194-.135.392-.525.44-.867.113-.801.582-1.768.997-2.057.18-.126.259-.325.176-.444-.082-.118-.004-.317.173-.441.178-.124.256-.322.173-.441-.082-.118.141-.418.497-.666.355-.248.579-.548.496-.666-.083-.119.044-.351.281-.517.237-.165.363-.397.281-.516-.083-.118.043-.351.28-.516.237-.165.364-.398.281-.516-.083-.119.068-.369.334-.555.266-.187.639-.638.83-1.002.189-.365.709-1.118 1.155-1.675.445-.556.769-1.069.719-1.14-.049-.07.157-.498.459-.95.301-.452.493-.901.425-.997-.067-.097.072-.311.309-.476.237-.165.364-.398.281-.516-.083-.119.044-.351.281-.516.237-.166.363-.398.281-.517-.083-.118.043-.35.28-.516.237-.165.364-.397.281-.516-.083-.118.044-.351.281-.516.237-.165.381-.374.319-.463-.061-.089.199-.645.579-1.236.38-.591.63-1.162.556-1.269-.075-.107.059-.329.296-.495.237-.165.363-.397.28-.516-.082-.118.044-.351.281-.516.237-.165.364-.398.281-.516-.083-.119-.005-.317.173-.441s.256-.323.173-.441c-.083-.119.044-.351.281-.516.237-.166.363-.398.28-.516-.082-.119.044-.351.281-.517.237-.165.364-.397.281-.516-.083-.118-.005-.317.172-.44.178-.124.446-.816.597-1.538.15-.721.36-1.372.465-1.446.106-.073.261-.614.346-1.201.084-.588.26-1.143.391-1.234.131-.091.72-2.881 1.308-6.199.589-3.318 1.168-6.1 1.287-6.183.119-.083.421-1.39.671-2.904.867-5.25 1.187-6.72 1.511-6.95.151-.107.301-.672.333-1.257.033-.584.168-1.578.301-2.208.654-3.121.773-3.6.914-3.698.083-.058.333-1.17.555-2.47.222-1.3.524-2.448.673-2.551.305-.213 1.031-3.845.827-4.138-.074-.105.015-.294.197-.421s.445-.779.586-1.449c.466-2.231.647-2.934.775-3.024.07-.049.293-1.069.495-2.267.202-1.199.493-2.269.646-2.379.154-.11.396-.927.539-1.817.142-.889.354-1.683.469-1.763.116-.081.376-1.127.578-2.325.202-1.199.47-2.25.595-2.337.125-.088.385-1.062.577-2.165.192-1.103.455-2.079.583-2.169.129-.09.392-1.066.584-2.169.192-1.103.453-2.077.579-2.165.126-.088.364-.975.528-1.97.164-.996.355-1.85.425-1.899.07-.049.269-.799.44-1.668.429-2.162.548-2.543.866-2.774.152-.109.336-.836.41-1.614.074-.778.225-1.957.336-2.619.111-.662.164-1.257.119-1.322-.046-.066.115-1.334.356-2.82.775-4.77.925-5.908.802-6.085-.066-.095-.024-.448.094-.784s.109-.763-.02-.947c-.129-.185-.138-.611-.02-.948.118-.336.094-.783-.053-.994-.147-.211-.192-.436-.101-.5.092-.064.113-.583.047-1.154s-.038-1.095.062-1.164c.1-.07.073-.282-.059-.471-.132-.19-.139-.82-.015-1.4.124-.58.132-1.189.018-1.352-.114-.163-.11-.572.008-.908.117-.337.136-.724.04-.861s-.111-.477-.034-.756c.077-.278.014-1.117-.14-1.864-.153-.747-.193-1.417-.09-1.49.104-.072.054-.325-.111-.562-.166-.238-.204-.499-.085-.582.118-.083.129-.274.023-.426-.106-.152-.096-.551.022-.887.118-.336.094-.784-.053-.995-.147-.211-.17-.451-.052-.534.119-.082.08-.344-.085-.581s-.204-.499-.085-.581c.119-.083.086-.336-.073-.564-.158-.227-.233-.499-.168-.604.163-.257-.392-3.414-.669-3.813-.122-.174-.125-.385-.006-.467.118-.083.08-.345-.085-.582s-.204-.499-.085-.581c.118-.083.08-.344-.085-.582-.166-.237-.204-.498-.085-.581.118-.083.046-.393-.161-.689-.206-.296-.278-.607-.16-.689.119-.083.08-.345-.085-.582s-.204-.498-.085-.581c.118-.083.08-.344-.085-.581-.165-.238-.204-.499-.085-.582.118-.083.086-.336-.073-.563-.158-.228-.234-.499-.168-.604.163-.258-.392-3.415-.669-3.813-.122-.175-.125-.385-.006-.468.118-.083.08-.344-.085-.581-.166-.237-.204-.499-.085-.582.118-.082.08-.344-.086-.581-.165-.237-.203-.499-.085-.581.119-.083.047-.393-.16-.69-.207-.296-.279-.606-.16-.689.118-.082.08-.344-.085-.581-.166-.237-.204-.499-.085-.582.118-.082.08-.344-.085-.581-.166-.237-.204-.499-.085-.581.118-.083.08-.345-.086-.582-.165-.237-.228-.482-.139-.544.089-.062.01-.944-.176-1.959-.186-1.016-.261-1.9-.168-1.965.093-.065.033-.312-.132-.549-.165-.237-.222-.486-.125-.553.096-.067.072-.555-.055-1.083-.127-.529-.151-1.016-.055-1.083.097-.067.04-.316-.125-.554-.166-.237-.204-.498-.085-.581.118-.083.08-.344-.085-.581-.166-.237-.204-.499-.085-.582.118-.082.08-.344-.086-.581-.165-.237-.203-.499-.085-.581.119-.083.081-.345-.085-.582-.165-.237-.223-.485-.129-.55.094-.066.047-.682-.105-1.369-.152-.687-.194-1.306-.093-1.376.1-.07.047-.322-.118-.559-.165-.237-.204-.499-.085-.581.118-.083.095-.323-.052-.534-.147-.211-.171-.659-.053-.995.139-.397.042-.859-.279-1.318-.271-.389-.395-.775-.277-.857.134-.094-.611-1.336-1.964-3.276-1.353-1.94-2.261-3.068-2.395-2.975zM581.521 364.179c-.073.11.7 1.395 1.719 2.856 1.778 2.55 1.832 2.663 1.343 2.844-.281.103-.57.102-.643-.003-.073-.104-.305-.07-.516.077-.211.147-.659.171-.995.053-.336-.118-.784-.094-.995.053-.21.147-.451.171-.533.052-.083-.118-.278-.127-.433-.018-.156.108-.794.279-1.418.379-.624.1-1.834.316-2.689.48-.855.163-1.884.218-2.287.121-.403-.096-.819-.115-.925-.042-.105.074-.603.061-1.106-.029-.503-.089-1.007-.098-1.121-.019-.113.078-.709-.579-1.324-1.461-.615-.882-1.257-1.596-1.427-1.587-.192.011-1.695-1.971-3.982-5.251-2.349-3.368-3.596-5.322-3.458-5.418.129-.09-.383-1.008-1.279-2.293-.834-1.196-1.44-2.268-1.371-2.426.067-.156-.435-1.083-1.116-2.06-.682-.977-1.216-1.929-1.188-2.116.027-.187-.168-.764-.434-1.284-.919-1.792-1.837-3.851-2.396-5.376a52.422 52.422 0 0 0-.858-2.205c-.163-.371-.211-.735-.106-.808.106-.073-.007-.418-.25-.767-.244-.349-.387-.761-.32-.917.068-.156-.042-.521-.244-.81-.202-.29-.27-.594-.152-.677.119-.082.013-.441-.235-.796-.248-.356-.354-.715-.235-.797.118-.083-.022-.49-.311-.905-.289-.415-.429-.822-.31-.905.118-.082.012-.441-.236-.797-.248-.355-.354-.714-.235-.797.118-.082.012-.441-.236-.797-.248-.355-.354-.714-.235-.797.119-.082.083-.339-.078-.571-.161-.231-.357-.708-.434-1.059-.077-.351-.391-1.364-.698-2.251-.307-.887-.482-1.666-.39-1.73.092-.065-.001-.36-.208-.656-.207-.297-.279-.607-.16-.689.118-.083.012-.442-.236-.797-.248-.356-.354-.715-.235-.797.119-.083.08-.345-.085-.582-.2-.287-.157-.531.13-.731.36-.251.532-.157 1.033.561.33.474.698.795.816.712.119-.083.588.383 1.043 1.035.454.652.923 1.118 1.042 1.035.118-.082.554.335.967.928.413.593.849 1.01.967.927.122-.084.641.461 1.193 1.251.551.79 1.071 1.336 1.192 1.251.127-.089.742.604 1.493 1.682.744 1.065 1.367 1.769 1.491 1.683.412-.287 23.993 33.592 23.694 34.041z" fill="#fff"/></svg>