<svg width="92" height="91" fill="none" xmlns="http://www.w3.org/2000/svg"><g clip-path="url(#a)" fill="#fff"><path fill-rule="evenodd" clip-rule="evenodd" d="M16.05 17.976h59.973v24.842c0 .404.003.84.007 1.306.04 5.141.106 13.799-4.02 20.53-5.6 9.306-15.883 16.434-25.892 17.291l-.08.007-.081-.007c-10.086-.857-20.37-7.986-25.972-17.295l-.002-.004c-4.046-6.787-3.979-15.369-3.94-20.504.005-.472.008-.915.008-1.324V17.976zm1.874 1.853v22.989c0 .414-.003.854-.006 1.316-.034 5.193-.086 13.255 3.678 19.57 5.334 8.864 15.083 15.56 24.44 16.389 9.282-.83 19.033-7.525 24.367-16.39l.004-.007c3.833-6.252 3.782-14.379 3.748-19.582-.002-.456-.005-.889-.005-1.296v-22.99H17.924z"/><path d="m38.737 27.024-5.247.076h-8.517v12.408L57.368 63.5c-.76.752-1.597 1.504-2.51 2.106L24.974 43.57v1.053c0 3.61-.304 10.453 2.814 15.642 3.422 5.866 9.353 10.454 15.437 11.883.304.075.608.15.912.15.609.15 1.217.226 1.825.301 2.966-.226 6.008-1.354 8.822-3.008.076 0 .076-.075.152-.075.304-.15.608-.377.912-.602.609-.376 1.217-.827 1.826-1.279 2.585-2.03 4.942-4.587 6.615-7.445a18.515 18.515 0 0 0 2.054-5.49c.228-1.053.38-2.03.456-3.083L38.053 30.484H43.3l23.65 17.523V27.024H38.737z"/></g><defs><clipPath id="a"><path fill="#fff" transform="translate(16 18)" d="M0 0h60v64H0z"/></clipPath></defs></svg>