<svg width="173" height="46" fill="none" xmlns="http://www.w3.org/2000/svg"><path d="M9.968 12.154h4.905v3.592c-1.234.89-2.84 1.408-4.331 1.408-3.671 0-6.769-3.16-6.769-6.954 0-3.764 3.098-6.924 6.769-6.924 1.921 0 4.044.862 5.277 2.298l2.553-2.385C16.479 1.207 13.41 0 10.542 0 4.892 0 .13 4.655.13 10.2c0 5.546 4.76 10.23 10.41 10.23 2.869 0 5.938-1.236 7.83-3.219V9.223H9.969v2.931z" fill="url(#a)"/><path d="m46.196 20.085-4.933-7.011c2.84-.891 4.76-3.19 4.76-6.178 0-3.85-3.154-6.551-7.37-6.551h-8.575v19.74h3.585v-6.638h3.814l4.646 6.638h4.073zM33.663 3.649h4.589c2.437 0 4.13 1.236 4.13 3.247s-1.693 3.247-4.13 3.247h-4.59V3.649z" fill="url(#b)"/><path d="m99.11.345-6.252 14.97L86.606.345h-3.958l8.231 19.74h3.987l8.231-19.74h-3.986z" fill="url(#c)"/><path d="M113.649 20.085h3.557V.345h-3.557v19.74z" fill="url(#d)"/><path d="M134.515 20.085h3.556V3.62h6.31V.345h-16.176V3.62h6.31v16.465z" fill="url(#e)"/><path d="M161.324 20.085h3.642V12.67L172.738.345h-4.072l-5.507 8.936-5.42-8.936h-4.216l7.801 12.326v7.414z" fill="url(#f)"/><path d="M72.15 20.085h3.958L67.877.345H63.89l-8.231 19.74h3.986l1.492-3.563 1.29-3.103 3.47-8.304 3.471 8.303 1.29 3.104 1.492 3.563z" fill="url(#g)"/><path d="M0 45.68h3.834c3.596 0 6.131-2.266 6.131-5.45 0-3.185-2.535-5.435-6.131-5.435H0v10.884zm1.98-1.791v-7.304h2.06c2.297 0 3.913 1.505 3.913 3.644 0 2.139-1.616 3.66-3.913 3.66H1.98z" fill="url(#h)"/><path d="M24.458 36.601v-1.806h-8.191v10.884h8.19v-1.806h-6.21v-2.836h5.625v-1.806h-5.625v-2.63h6.21z" fill="url(#i)"/><path d="M40.392 34.795h-2.314l-2.883 3.866-2.868-3.866h-2.36l4.04 5.45-4.04 5.434h2.329l2.883-3.866 2.868 3.866h2.345l-4.04-5.45 4.04-5.434z" fill="url(#j)"/><path d="M55.114 45.68h1.98v-3.66h2.757c2.329 0 4.072-1.49 4.072-3.613s-1.743-3.612-4.072-3.612h-4.737v10.884zm1.98-5.483v-3.58h2.535c1.347 0 2.281.681 2.281 1.79 0 1.11-.934 1.79-2.281 1.79h-2.535z" fill="url(#k)"/><path d="m78.74 45.68-2.724-3.867c1.568-.49 2.63-1.758 2.63-3.406 0-2.123-1.743-3.612-4.072-3.612h-4.737v10.884h1.98v-3.66h2.107l2.567 3.66h2.25zm-6.923-9.063h2.535c1.347 0 2.281.681 2.281 1.79 0 1.11-.934 1.79-2.281 1.79h-2.535v-3.58z" fill="url(#l)"/><path d="M90.1 45.87c3.089 0 5.703-2.583 5.703-5.64 0-3.059-2.614-5.625-5.704-5.625-3.105 0-5.72 2.566-5.72 5.624s2.615 5.64 5.72 5.64zm0-1.807c-2.013 0-3.708-1.743-3.708-3.834 0-2.075 1.695-3.818 3.707-3.818 1.996 0 3.676 1.743 3.676 3.818 0 2.091-1.68 3.834-3.676 3.834z" fill="url(#m)"/><path d="M104.906 45.68h1.964V36.6h3.486v-1.806h-8.936V36.6h3.486v9.078z" fill="url(#n)"/><path d="M121.123 45.87c3.09 0 5.704-2.583 5.704-5.64 0-3.059-2.614-5.625-5.704-5.625-3.105 0-5.719 2.566-5.719 5.624s2.614 5.64 5.719 5.64zm0-1.807c-2.012 0-3.707-1.743-3.707-3.834 0-2.075 1.695-3.818 3.707-3.818 1.997 0 3.676 1.743 3.676 3.818 0 2.091-1.679 3.834-3.676 3.834z" fill="url(#o)"/><path d="M138.307 45.87c1.6 0 3.057-.682 4.103-1.775l-1.394-1.3c-.682.777-1.648 1.268-2.709 1.268-2.013 0-3.708-1.743-3.708-3.834 0-2.075 1.695-3.818 3.708-3.818 1.045 0 2.027.491 2.693 1.267l1.41-1.315c-1.046-1.077-2.503-1.758-4.103-1.758-3.106 0-5.72 2.566-5.72 5.624s2.614 5.64 5.72 5.64z" fill="url(#p)"/><path d="M153.37 45.87c3.089 0 5.703-2.583 5.703-5.64 0-3.059-2.614-5.625-5.703-5.625-3.105 0-5.719 2.566-5.719 5.624s2.614 5.64 5.719 5.64zm0-1.807c-2.012 0-3.707-1.743-3.707-3.834 0-2.075 1.695-3.818 3.707-3.818 1.996 0 3.676 1.743 3.676 3.818 0 2.091-1.68 3.834-3.676 3.834z" fill="url(#q)"/><path d="M167.115 43.873v-9.078h-1.965v10.884h7.558v-1.806h-5.593z" fill="url(#r)"/><defs><linearGradient id="a" x1="173" y1="0" x2="-9" y2="56" gradientUnits="userSpaceOnUse"><stop offset=".16" stop-color="#fff"/><stop offset="1" stop-color="#fff" stop-opacity=".41"/></linearGradient><linearGradient id="b" x1="173" y1="0" x2="-9" y2="56" gradientUnits="userSpaceOnUse"><stop offset=".16" stop-color="#fff"/><stop offset="1" stop-color="#fff" stop-opacity=".41"/></linearGradient><linearGradient id="c" x1="173" y1="0" x2="-9" y2="56" gradientUnits="userSpaceOnUse"><stop offset=".16" stop-color="#fff"/><stop offset="1" stop-color="#fff" stop-opacity=".41"/></linearGradient><linearGradient id="d" x1="173" y1="0" x2="-9" y2="56" gradientUnits="userSpaceOnUse"><stop offset=".16" stop-color="#fff"/><stop offset="1" stop-color="#fff" stop-opacity=".41"/></linearGradient><linearGradient id="e" x1="173" y1="0" x2="-9" y2="56" gradientUnits="userSpaceOnUse"><stop offset=".16" stop-color="#fff"/><stop offset="1" stop-color="#fff" stop-opacity=".41"/></linearGradient><linearGradient id="f" x1="173" y1="0" x2="-9" y2="56" gradientUnits="userSpaceOnUse"><stop offset=".16" stop-color="#fff"/><stop offset="1" stop-color="#fff" stop-opacity=".41"/></linearGradient><linearGradient id="g" x1="173" y1="0" x2="-9" y2="56" gradientUnits="userSpaceOnUse"><stop offset=".16" stop-color="#fff"/><stop offset="1" stop-color="#fff" stop-opacity=".41"/></linearGradient><linearGradient id="h" x1="173" y1="0" x2="-9" y2="56" gradientUnits="userSpaceOnUse"><stop offset=".16" stop-color="#fff"/><stop offset="1" stop-color="#fff" stop-opacity=".41"/></linearGradient><linearGradient id="i" x1="173" y1="0" x2="-9" y2="56" gradientUnits="userSpaceOnUse"><stop offset=".16" stop-color="#fff"/><stop offset="1" stop-color="#fff" stop-opacity=".41"/></linearGradient><linearGradient id="j" x1="173" y1="0" x2="-9" y2="56" gradientUnits="userSpaceOnUse"><stop offset=".16" stop-color="#fff"/><stop offset="1" stop-color="#fff" stop-opacity=".41"/></linearGradient><linearGradient id="k" x1="173" y1="0" x2="-9" y2="56" gradientUnits="userSpaceOnUse"><stop offset=".16" stop-color="#fff"/><stop offset="1" stop-color="#fff" stop-opacity=".41"/></linearGradient><linearGradient id="l" x1="173" y1="0" x2="-9" y2="56" gradientUnits="userSpaceOnUse"><stop offset=".16" stop-color="#fff"/><stop offset="1" stop-color="#fff" stop-opacity=".41"/></linearGradient><linearGradient id="m" x1="173" y1="0" x2="-9" y2="56" gradientUnits="userSpaceOnUse"><stop offset=".16" stop-color="#fff"/><stop offset="1" stop-color="#fff" stop-opacity=".41"/></linearGradient><linearGradient id="n" x1="173" y1="0" x2="-9" y2="56" gradientUnits="userSpaceOnUse"><stop offset=".16" stop-color="#fff"/><stop offset="1" stop-color="#fff" stop-opacity=".41"/></linearGradient><linearGradient id="o" x1="173" y1="0" x2="-9" y2="56" gradientUnits="userSpaceOnUse"><stop offset=".16" stop-color="#fff"/><stop offset="1" stop-color="#fff" stop-opacity=".41"/></linearGradient><linearGradient id="p" x1="173" y1="0" x2="-9" y2="56" gradientUnits="userSpaceOnUse"><stop offset=".16" stop-color="#fff"/><stop offset="1" stop-color="#fff" stop-opacity=".41"/></linearGradient><linearGradient id="q" x1="173" y1="0" x2="-9" y2="56" gradientUnits="userSpaceOnUse"><stop offset=".16" stop-color="#fff"/><stop offset="1" stop-color="#fff" stop-opacity=".41"/></linearGradient><linearGradient id="r" x1="173" y1="0" x2="-9" y2="56" gradientUnits="userSpaceOnUse"><stop offset=".16" stop-color="#fff"/><stop offset="1" stop-color="#fff" stop-opacity=".41"/></linearGradient></defs></svg>