<svg width="256" height="554" fill="none" xmlns="http://www.w3.org/2000/svg"><path fill-rule="evenodd" clip-rule="evenodd" d="M124.524 50.45c-5.464.864-9.714 3.394-11.953 7.116-2.072 3.445-3.234 7.179-3.814 12.262-.168 1.471-.402 3.01-.521 3.42-.192.662-.299.748-.951.762-.404.008-.882.138-1.063.288-.583.485-1.349 2.415-1.823 4.598-.622 2.86-.622 4.56-.001 6.181.496 1.296 1.614 2.665 2.176 2.665.532 0 1.054.792 1.362 2.07.367 1.524.787 10.845.592 13.159-.238 2.832-1.587 5.706-3.836 8.174-1.754 1.926-2.744 2.515-8.797 5.243-2.853 1.286-5.785 2.774-6.903 3.504-4.238 2.766-9.473 5.929-10.884 6.575-4.621 2.114-5.89 2.729-7.338 3.559-1.005.576-2.112 1.016-2.978 1.183-.758.146-1.763.46-2.234.698-1.648.832-4.274 2.673-5.708 3.998-.795.736-1.47 1.301-1.5 1.257-.03-.044-.612-1.519-1.293-3.277-1.909-4.926-3-8.404-3.876-12.362-.655-2.961-.8-4.033-.794-5.865.01-2.427.104-2.729 1.307-4.207.989-1.215 2.126-2.022 5.788-4.107 6.452-3.674 8.868-5.536 11.189-8.626.617-.82 1.393-1.795 1.726-2.165.61-.68 4.684-3.795 6.805-5.204 1.5-.996 2.274-1.737 3.405-3.258.818-1.1.93-1.381.93-2.358 0-.935-.092-1.194-.586-1.654-.322-.3-.858-.61-1.19-.688-1.424-.337-5.352 1.434-7.695 3.47-3.291 2.859-3.833 3.216-5.56 3.658-2.326.596-3.501.558-4.326-.136-1.339-1.129-1.27-1.286.686-1.562 2.77-.391 3.988-.81 4.768-1.638.857-.91 1.104-2.005.62-2.745l-.347-.531-2.957.097c-1.626.053-3.22.163-3.542.244-.567.142-.549.094.555-1.505.627-.908 1.686-2.127 2.354-2.709.667-.581 1.796-1.845 2.508-2.807.711-.962 1.58-1.919 1.928-2.125.725-.429 1.916-1.833 2.452-2.89.2-.394.413-1.21.473-1.812.091-.918.026-1.215-.406-1.84-.793-1.15-1.377-.985-3.146.884l-1.464 1.547-.443-.564c-.81-1.03-1.18-.97-2.633.428-.726.698-1.748 1.488-2.273 1.756-.524.267-1.767 1.175-2.762 2.017a87.285 87.285 0 0 1-3.193 2.57c-1.546 1.16-1.622 1.255-2.262 2.792-.62 1.49-2.013 3.515-3.628 5.273-.74.806-1.346 1.584-1.346 1.73 0 .147-.42.385-.935.529l-.935.262-.373 1.778c-.3 1.436-.526 1.964-1.168 2.743-.588.712-.894 1.372-1.167 2.517-.204.853-.691 2.422-1.084 3.487a39.396 39.396 0 0 0-1.158 3.836 61.972 61.972 0 0 1-.964 3.57c-.286.917-.702 2.5-.924 3.517-.222 1.016-.656 2.516-.964 3.334-.391 1.036-.657 2.388-.882 4.475-.176 1.645-.468 3.805-.647 4.802-.357 1.985-2.848 12.544-3.998 16.944-1.21 4.626-1.779 11.597-1.417 17.336.378 5.985 1.517 9.521 3.9 12.11 2.19 2.379 5.074 3.028 10.314 2.321 1.263-.171 3.242-.418 4.399-.551 3.883-.444 9.516-2.248 13.622-4.361.95-.489 3.037-1.66 4.639-2.602l2.912-1.714.628.782c.74.924 1.811 2.995 2.516 4.87.594 1.579 1.306 5.044 2.32 11.291 1.078 6.631 1.57 8.703 3.573 15.08 3.638 11.58 4.692 15.564 5.438 20.568.757 5.077.942 7.951.804 12.468-.26 8.481-.701 13.782-1.527 18.33-1.591 8.758-1.805 10.356-2.023 15.132-.335 7.312-.594 9.581-2.849 24.937-1.897 12.923-2.545 21.692-2.535 34.314.008 11.13.49 21.629 1.253 27.34.177 1.322.692 4.444 1.145 6.938.453 2.495.942 5.682 1.087 7.082.37 3.595.148 7.866-.566 10.858-1.093 4.58-1.191 5.376-1.19 9.591.002 11.857 2.894 21.248 10.173 33.036 5.97 9.668 9.834 19.506 11.381 28.986.453 2.775.459 3.575.063 8.034-.082.923-.013 1.976.195 2.984.214 1.033.325 2.813.331 5.287.009 4.179.307 6.208 1.206 8.207.849 1.886 3.084 9.454 3.084 10.441.001 1.099.451 3.597 1.232 6.837.953 3.95 3.67 9.978 5.4 11.98.485.562.604.905.604 1.734 0 1.242.924 3.178 1.714 3.592.622.326 1.515.197 2.225-.321.626-.455.699-1.65.212-3.467-.372-1.388-.392-1.705-.107-1.705.117 0 .213.191.213.424 0 .233.192.929.425 1.545.235.617.426 1.464.426 1.882 0 .418.145 1.249.322 1.845.365 1.233 1.503 2.403 2.336 2.403 1.895 0 2.325-1.534 1.259-4.493-.672-1.867-.664-2.496.018-1.302.295.516.661 1.703.836 2.703.421 2.417 1.218 3.945 2.057 3.945.494 0 1.476 2.123 1.465 3.169-.008.878-.42 2.66-.943 4.077-1.171 3.179-.262 7.928 1.848 9.66 1.116.915 1.835 1.21 2.954 1.21 1.545 0 2.907-.871 3.469-2.218.456-1.092 1.045-5.545.905-6.84-.093-.853-.076-.939.081-.431.108.35.18 1.753.16 3.119-.033 2.256.012 2.576.484 3.496.662 1.287 1.646 1.872 2.927 1.74 1.287-.133 1.935-1.039 1.98-2.769l.023-.892.184.933c.371 1.894 1.425 2.555 2.875 1.802.912-.474 1.299-1.125 1.474-2.479l.132-1.023.415.529c.812 1.033 2.207.721 2.851-.636.298-.631.343-1.079.226-2.269-.08-.816-.204-1.634-.274-1.818-.084-.219.03-.176.329.123.251.251.701.519.999.594.738.185 1.804-.294 2.041-.919.247-.651.236-3.068-.019-4.322-.202-.989-.652-5.803-1.065-11.403-.271-3.666-.948-6.731-2.552-11.549l-1.046-3.144.124-3.416c.122-3.382.115-3.451-.648-6.721-.424-1.817-.771-3.564-.771-3.882 0-.318.193-1.565.43-2.771.442-2.246.597-3.96 1.163-12.833.523-8.188.953-10.482 3.344-17.812 1.787-5.479 3.578-10.119 5.8-15.026 4.153-9.171 6.462-16.209 7.864-23.978 1.095-6.058 1.445-10.271 1.825-21.952.274-8.403.438-10.457 1.398-17.477.522-3.817.927-8.641 1.155-13.747.793-17.779.811-20.345.221-32.758-.443-9.3-.489-9.86-1.509-18.288-1.135-9.375-2.509-16.253-5.301-26.535-.992-3.655-3.227-13.558-3.704-16.411-.176-1.055-.424-3.07-.552-4.476-.251-2.778-1.119-10.184-2.161-18.436-1.069-8.47-1.054-13.585.056-19.395.792-4.141 3.804-16.273 4.975-20.035 2.545-8.182 4.908-19.634 5.553-26.908.08-.909.213-1.652.294-1.652.082 0 .409.983.728 2.185.768 2.899 1.963 5.295 4.757 9.537 3.607 5.477 6.805 9.028 11.225 12.462 2.875 2.234 4.263 3.458 6.92 6.099 3.155 3.136 5.578 4.195 9.13 3.989 1.413-.082 1.969-.235 3.46-.955 2.27-1.095 3.607-2.168 5.451-4.374 4.825-5.77 7.106-11.131 7.914-18.606.967-8.935 1.824-15.721 2.247-17.797.783-3.84.919-5.272 1.055-11.083.134-5.74.14-5.681-.96-10.443-.559-2.423-.675-3.405-.737-6.219-.04-1.837-.176-3.534-.302-3.769-.126-.235-.228-.874-.228-1.42 0-.728-.193-1.34-.724-2.305-.398-.722-.794-1.645-.878-2.051-.085-.405-.337-.984-.56-1.286-.222-.302-.559-1.361-.748-2.353-.485-2.558-.628-2.862-1.982-4.217-.665-.666-1.336-1.451-1.491-1.744-.155-.292-.9-1.395-1.655-2.45-.755-1.055-1.614-2.398-1.909-2.984-.294-.586-1.074-1.669-1.732-2.406-.659-.738-1.581-2.031-2.049-2.875-.91-1.641-1.303-1.887-2.138-1.34-1.229.807-1.504 3.522-.546 5.402.35.688.389.9.163.9-.554 0-1.4.869-1.532 1.573-.081.432-.006 1.002.195 1.485.483 1.158 2.388 3.079 3.334 3.363 1.101.33 2.938 2.445 3.53 4.064.249.68.406 1.237.35 1.237-.056 0-.365-.222-.687-.493-.322-.271-1.389-.908-2.372-1.414-.983-.507-1.943-1.057-2.134-1.223-.449-.389-1.368-.167-1.786.431-.468.668-.396 2.197.145 3.072.252.409 1.408 1.452 2.569 2.317 2.255 1.68 2.249 1.915-.028 1.199-1.021-.32-1.546-.718-3.743-2.837-4.511-4.35-6.94-5.262-8.855-3.324-1.08 1.093-.881 1.512 2.11 4.439 1.485 1.452 3.417 3.177 4.295 3.833 2.502 1.869 4.759 4.59 5.012 6.042.247 1.42 1.56 6.31 2.057 7.667.257.699 1.043 2.186 1.746 3.303 1.385 2.198 2.567 4.921 2.936 6.763.198.985.177 1.275-.137 1.934-.472.991-3.128 4.832-4.889 7.07-1.319 1.678-4.587 5.232-4.679 5.09-.026-.039-.544-.916-1.151-1.95-1.563-2.657-3.044-4.557-5.854-7.507l-2.444-2.567-.896-2.549c-1.184-3.366-2.196-5.277-4.23-7.983-3.02-4.017-4.99-5.579-9.49-7.526-2.884-1.248-4.912-1.919-9.373-3.104-2.224-.59-4.619-1.275-5.321-1.521-2.785-.975-8.675-2.536-11.599-3.074-4.518-.83-4.904-.936-6-1.64-1.601-1.027-3.653-3.364-4.55-5.182-.734-1.487-.808-1.805-.891-3.801-.076-1.807 0-2.561.444-4.417.653-2.732 1.747-6.202 2.318-7.353.63-1.27 1.845-2.451 2.52-2.451 1.149 0 3.261-1.793 4.099-3.48.716-1.441 1.133-4.842.809-6.6-.366-1.98-.908-2.678-2.519-3.244-.024-.009.139-1.038.364-2.287.225-1.249.473-3.12.551-4.157.242-3.21-.51-8.075-1.672-10.807-2.018-4.746-6.797-8.55-12.608-10.036-2.394-.612-6.179-.848-8.281-.516zm1.7 236.904c.301.681.661 2.152.848 3.463.179 1.253 1.189 8.369 2.244 15.813 2.045 14.419 2.331 16.098 4.154 24.404 2.612 11.903 4.12 17.167 6.975 24.345 1.805 4.541 2.046 5.489 2.046 8.061 0 1.549-.132 2.16-1.083 5.033-2.243 6.776-4.412 16.267-5.617 24.583-1.028 7.091-1.236 14.013-.64 21.313.493 6.056.606 11.527.335 16.198-.659 11.319-1.945 22.119-3.014 25.307-.992 2.961-1.24 3.352-2.736 4.33-.77.502-1.462.849-1.539.771-.078-.079-.547-1.054-1.043-2.168-.496-1.113-1.214-2.515-1.594-3.115-1.339-2.108-2.397-4.468-2.76-6.156-.47-2.188-1.345-4.663-2.576-7.291-2.393-5.111-4.141-12.088-5.301-21.162-1.001-7.826-.935-13.843.224-20.554.782-4.523.979-7.192.727-9.852-.233-2.46-1.764-10.785-2.76-15.009-.348-1.475-.633-3.097-.633-3.604 0-.508.39-2.61.866-4.672 1.543-6.683 4.997-24.027 6.03-30.284.525-3.178 2.106-14.717 2.775-20.248.177-1.465.659-6.165 1.071-10.443 1.434-14.896 2.062-20.248 2.374-20.248.057 0 .339.533.627 1.185zm10.24 225.203c-.068.17-.118.12-.129-.129-.009-.224.041-.35.112-.279.071.07.078.254.017.408z" fill="#fff"/></svg>