<svg width="92" height="91" fill="none" xmlns="http://www.w3.org/2000/svg"><path fill-rule="evenodd" clip-rule="evenodd" d="M68.776 16.503c3.791 2.793 5.897 5.302 6.552 7.81.421 1.42.047 3.125-.889 4.403-.936 1.278-2.434 1.988-4.165 1.988-.655 0-1.31-.094-1.966-.284-.655 1.846-1.123 3.645-1.263 5.207l-.047.568c-3.37-5.917-8.752-10.461-15.21-12.639.187-.047 1.591-.473 4.071-1.988-.28-.426-.514-.9-.702-1.278-.514-1.23-.327-3.266.468-4.781.656-1.278 1.685-2.13 2.855-2.367A7.184 7.184 0 0 1 59.931 13c2.574 0 5.803 1.278 8.845 3.503zm5.238 8.19c.562 2.224-1.17 5.538-5.428 4.354a5.187 5.187 0 0 0-1.077-.284c-.421.994-.889 2.13-1.216 3.409a27.73 27.73 0 0 0-10.858-8.758l.53-.317c.58-.345 1.228-.73 1.903-1.198-.702-.852-1.216-1.609-1.45-2.13-.562-1.325.093-4.78 2.34-5.254 2.246-.474 5.756.568 9.22 3.124 3.462 2.556 5.428 4.829 6.036 7.053z" fill="#fff"/><path d="M61.66 19.201c.935.379 2.152 1.042 3.65 2.036 1.778 1.183 3.322 2.509 4.305 3.55-1.638 2.178-2.714 5.16-3.37 7.243.328.473.703.947 1.03 1.42a38.93 38.93 0 0 1 1.638-4.687c.188.048.422.048.656.048.561 0 1.216-.095 1.731-.52.374-.285.796-.806.749-1.752 0-.9-.702-2.036-2.153-3.409-1.03-.994-2.433-2.083-3.838-3.077-4.024-2.698-6.832-3.455-8.096-2.177-.842.852-.749 1.893-.468 2.65-1.497.995-2.761 1.705-3.603 2.178.561.19 1.076.426 1.638.663 1.497-.805 3.65-2.178 6.13-4.166zm8.845 6.77c.14.236.187.473.187.615 0 .426-.14.568-.234.663-.187.142-.562.236-.89.236.281-.568.609-1.041.937-1.514zm-11.56-7.054c.14-.142.515-.236 1.123-.142-.468.379-.936.71-1.404 1.042-.047-.332 0-.663.28-.9z" fill="#fff"/><path d="M44.206 20.952c-15.304 0-27.706 12.545-27.706 28.024C16.5 64.456 28.902 77 44.206 77 59.509 77 71.91 64.456 71.91 48.976S59.462 20.952 44.206 20.952zm0 54.486c-14.462 0-26.162-11.835-26.162-26.462 0-14.627 11.7-26.462 26.162-26.462 14.46 0 26.16 11.835 26.16 26.462 0 14.627-11.746 26.462-26.16 26.462z" fill="#fff"/><path d="M67.087 48.74c0 13.538-10.577 24.615-23.868 25.136h.983c13.712 0 24.85-11.266 24.85-25.136h-1.965zM52.353 37.047c2.326 0 4.212-1.907 4.212-4.26 0-2.353-1.886-4.26-4.212-4.26-2.327 0-4.212 1.907-4.212 4.26 0 2.353 1.886 4.26 4.212 4.26zm6.877 3.171a1.79 1.79 0 0 0 1.78-1.799 1.79 1.79 0 0 0-1.78-1.798c-.982 0-1.778.805-1.778 1.798 0 .994.796 1.8 1.779 1.8z" fill="#fff"/><path fill-rule="evenodd" clip-rule="evenodd" d="M19.3 48.907a4.004 4.004 0 0 0 .002.213c.202 13.695 11.261 24.756 24.848 24.756h.047c.543 0 1.082-.018 1.616-.053C58.774 72.98 69.048 62.06 69.048 48.74h-.058c-.265-2.742-5.132-4.324-11.549-4.876-4.773-.379-9.594.095-15.116 1.799-4.774 1.42-9.08 1.183-12.215.805-6.808-.786-10.627-.895-10.804 2.272h-.007v.167zm23.166 19.81c.724 0 1.31-.594 1.31-1.326 0-.732-.586-1.326-1.31-1.326-.724 0-1.31.594-1.31 1.326 0 .732.586 1.325 1.31 1.325zm8.144-1.989c0 .732-.586 1.326-1.31 1.326-.724 0-1.31-.594-1.31-1.326 0-.732.586-1.325 1.31-1.325.724 0 1.31.593 1.31 1.325zm-4.68 4.403a.988.988 0 0 0 .983-.994c0-.55-.44-.995-.983-.995a.988.988 0 0 0-.983.995c0 .549.44.994.983.994zm7.015-1.705c0 .549-.44.994-.983.994a.988.988 0 0 1-.983-.994c0-.55.44-.994.983-.994.543 0 .983.445.983.994zm-16.05-1.183c1.188 0 2.152-.975 2.152-2.178 0-1.203-.963-2.177-2.152-2.177-1.19 0-2.153.974-2.153 2.177s.964 2.178 2.153 2.178zm21.393-7.527c0 1.203-.964 2.178-2.153 2.178s-2.152-.975-2.152-2.178c0-1.202.963-2.177 2.152-2.177 1.19 0 2.153.975 2.153 2.177z" fill="#fff"/></svg>