<svg width="92" height="91" fill="none" xmlns="http://www.w3.org/2000/svg"><path d="m34.408 58.753-13.531 1.52 7.939-18.34-8.136-11.097 19.783-2.259 5.375-12.35 11.775 16.01 13.531-1.519-7.91 18.25 8.078 11.018-19.675 2.24-5.454 12.537-11.775-16.01zm5.621-1.213a9.432 9.432 0 0 1-1.647.621l-.513.148 7.634 10.377 2.712-6.234-.493-.059a9.767 9.767 0 0 1-6.657-3.936l-.76-1.046-.276.129zm-2.653-9.401 6.154 8.513a6.704 6.704 0 0 0 6.144 2.722L65.73 57.55l-6.39-8.74a6.44 6.44 0 0 0-1.095-1.163l-.375-.316-4.576 10.338-7.959-10.535-7.959 1.006zm.276-10.378a6.659 6.659 0 0 0-5.414 3.985l-6.45 14.886 10.71-1.203a6.81 6.81 0 0 0 1.549-.365l.454-.168-6.628-9.154 13.067-1.658 3.107-7.428-10.395 1.105zm10.11 7.517 4.841 6.422 2.96-6.678 1.3-2.94a6.747 6.747 0 0 0-.729-6.708l-9.606-13.06-4.32 9.923a7.009 7.009 0 0 0-.463 1.53l-.079.482 11.204-1.183-5.109 12.212zm11.765-10.17.187.454c1.035 2.485 1.016 5.316-.069 7.763l-.523 1.184.257.177c.483.326.937.7 1.36 1.115l.385.375 5.119-11.818-6.716.75zm-33.255-1.815 4.082 5.563.296-.385a9.802 9.802 0 0 1 6.677-3.758l1.282-.138.02-.316c.04-.64.148-1.282.325-1.913l.148-.533-12.83 1.48z" fill="#fff"/><path d="M43.133 75c-8.502-.82-16.125-5.238-21.125-12.242l3.422-.385c.562.69 1.164 1.361 1.785 1.983 3.708 3.729 8.353 6.244 13.442 7.28L43.133 75zm7.137-3.166c5.512-.888 10.512-3.472 14.497-7.468.355-.355.72-.74 1.075-1.144l4.151-.473C65.013 69.743 57.39 74.172 48.898 75l1.371-3.166zm20.566-16.88a26.731 26.731 0 0 0 1.706-9.46c0-2.88-.454-5.711-1.341-8.414l1.667-3.837a29.486 29.486 0 0 1 2.632 12.25c0 4.272-.878 8.385-2.624 12.232l-2.041-2.772zm-51.693 2.822A29.437 29.437 0 0 1 16.5 45.505c0-4.311.898-8.464 2.673-12.341l2.031 2.772a26.713 26.713 0 0 0-1.755 9.569c0 2.89.453 5.73 1.35 8.444l-1.656 3.827zm3.002-29.712C27.135 21.18 34.709 16.81 43.13 16l-1.38 3.166c-5.514.888-10.533 3.473-14.518 7.478-.296.306-.601.621-.907.957l-4.181.463zm44.417.563a28.941 28.941 0 0 0-1.795-1.993c-3.698-3.719-8.344-6.234-13.423-7.27L48.88 16c8.481.819 16.105 5.238 21.095 12.242l-3.412.385z" fill="#fff"/></svg>