<svg width="214" height="80" viewBox="0 0 214 80" fill="none" xmlns="http://www.w3.org/2000/svg">
<g clip-path="url(#clip0)">
<path d="M102.863 24.3279L102.863 51.3532L109.02 51.3532L109.02 44.5525L113.785 51.3532L121.202 51.3532L114.409 41.7032L120.993 32.4799L113.574 32.4799L109.02 38.8627L109.02 24.3279L102.863 24.3279Z" fill="white"/>
<path d="M183.739 38.1659L183.739 51.1989L177.67 51.1989L177.67 38.3088C177.67 36.9942 176.554 35.9228 175.187 35.9228C173.811 35.9228 172.695 36.9942 172.695 38.3088L172.695 51.1989L166.625 51.1989L166.625 24.1089L172.695 24.1089L172.695 32.8825C173.855 32.0495 175.294 31.5515 176.849 31.5515C180.656 31.5515 183.739 34.5107 183.739 38.1659Z" fill="white"/>
<path d="M92.1382 32.2839L92.1382 33.2192C90.4887 32.198 88.5294 31.5986 86.4185 31.5986C80.5849 31.5986 75.8555 36.1389 75.8555 41.7389C75.8555 47.3389 80.5849 51.8792 86.4185 51.8792C88.5294 51.8792 90.4887 51.2789 92.1382 50.2558L92.1382 51.2431L98.2044 51.2431L98.2044 32.2839L92.1382 32.2839ZM87.3065 46.6768C84.3327 46.6768 81.9246 44.3623 81.9246 41.5102C81.9246 38.6551 84.3327 36.3435 87.3065 36.3435C90.2773 36.3435 92.6884 38.6551 92.6884 41.5102C92.6884 44.3623 90.2773 46.6768 87.3065 46.6768Z" fill="white"/>
<path d="M135.971 32.2839L135.971 33.2192C134.322 32.198 132.362 31.5986 130.252 31.5986C124.418 31.5986 119.688 36.1389 119.688 41.7389C119.688 47.3389 124.418 51.8792 130.252 51.8792C132.362 51.8792 134.322 51.2789 135.971 50.2558L135.971 51.2431L142.037 51.2431L142.037 32.2839L135.971 32.2839ZM131.139 46.6768C128.166 46.6768 125.758 44.3623 125.758 41.5102C125.758 38.6551 128.166 36.3435 131.139 36.3435C134.11 36.3435 136.521 38.6551 136.521 41.5102C136.521 44.3623 134.11 46.6768 131.139 46.6768Z" fill="white"/>
<path d="M150.898 45.0816C150.925 45.4696 151.032 45.8006 151.216 46.0651C151.409 46.3431 151.661 46.5718 151.966 46.7455C152.295 46.9318 152.679 47.0698 153.113 47.1577C153.569 47.2503 154.045 47.2986 154.531 47.2986C155.625 47.2986 156.449 47.1384 156.982 46.8266C157.43 46.5622 157.632 46.2813 157.632 45.9107C157.632 45.7388 157.594 45.5979 157.52 45.4811C157.478 45.4126 157.356 45.2717 157.032 45.098C156.727 44.9339 156.305 44.7766 155.776 44.6337C155.221 44.4812 154.499 44.3248 153.631 44.1675C152.478 43.9484 151.407 43.6647 150.444 43.3317C149.462 42.989 148.604 42.5653 147.897 42.074C147.163 41.5625 146.58 40.965 146.163 40.2913C145.731 39.5935 145.511 38.7866 145.511 37.8909C145.511 37.0319 145.729 36.1979 146.156 35.4171C146.577 34.6459 147.188 33.9597 147.972 33.3864C148.738 32.8217 149.677 32.37 150.767 32.0409C151.843 31.7175 153.068 31.5525 154.407 31.5525C155.804 31.5525 157.078 31.7127 158.198 32.0293C159.333 32.3507 160.315 32.8034 161.114 33.3719C161.93 33.9548 162.565 34.6623 162.999 35.4721C163.438 36.2867 163.659 37.1795 163.659 38.1293L157.419 38.1293C157.419 37.5955 157.205 37.1767 156.746 36.8099C156.262 36.4248 155.476 36.2288 154.407 36.2288C153.403 36.2288 152.652 36.391 152.18 36.7124C151.766 36.9933 151.575 37.2954 151.575 37.6699C151.575 37.8455 151.612 38.0057 151.687 38.1554C151.751 38.2818 151.885 38.4102 152.086 38.5366C152.334 38.691 152.696 38.8387 153.159 38.9748C153.651 39.1196 154.289 39.2479 155.052 39.3532C156.243 39.5414 157.359 39.7817 158.378 40.0742C159.43 40.3743 160.353 40.7701 161.124 41.2478C161.925 41.7459 162.562 42.3645 163.022 43.0836C163.493 43.822 163.73 44.7051 163.73 45.7051C163.73 46.6297 163.495 47.4936 163.031 48.2744C162.575 49.0408 161.925 49.7106 161.094 50.2598C160.285 50.7984 159.301 51.2221 158.168 51.5174C157.051 51.8099 155.791 51.9576 154.425 51.9576C152.914 51.9576 151.555 51.7626 150.384 51.3794C149.209 50.9914 148.207 50.477 147.403 49.8457C146.587 49.2058 145.96 48.4645 145.535 47.6432C145.107 46.817 144.891 45.9695 144.891 45.124L150.898 45.0816Z" fill="white"/>
<path d="M43.9844 23.3628L63.5343 57.1444L70.0445 45.8826L57.0144 23.3628L43.9844 23.3628Z" fill="white"/>
<path d="M43.9844 46.5273L50.7455 57.1444L64.2534 57.1444L57.5019 46.5273L43.9844 46.5273Z" fill="white"/>
<path d="M38.1938 33.98L31.4375 45.5623L38.1987 57.1445L51.7065 33.98L38.1938 33.98Z" fill="white"/>
</g>
<defs>
<clipPath id="clip0">
<rect width="152.5" height="33.7816" fill="white" transform="translate(31.4375 23.3628)"/>
</clipPath>
</defs>
</svg>
