<svg width="126" height="127" viewBox="0 0 126 127" fill="none" xmlns="http://www.w3.org/2000/svg">
<g filter="url(#filter0_i-178687)">
<path d="M62.9994 126.269C97.5384 126.269 125.538 98.1666 125.538 63.5001C125.538 28.8336 97.5384 0.730898 62.9994 0.730896C28.4604 0.730894 0.460939 28.8336 0.460938 63.5001C0.460936 98.1666 28.4604 126.269 62.9994 126.269Z" fill="url(#paint0_radial-467638)"/>
<path d="M62.9994 126.269C97.5384 126.269 125.538 98.1666 125.538 63.5001C125.538 28.8336 97.5384 0.730898 62.9994 0.730896C28.4604 0.730894 0.460939 28.8336 0.460938 63.5001C0.460936 98.1666 28.4604 126.269 62.9994 126.269Z" fill="url(#paint1_radial-894937)" fill-opacity="0.3" style="mix-blend-mode:hard-light"/>
</g>
<g style="mix-blend-mode:overlay" opacity="0.9" filter="url(#filter1_d-429819)">
<path fill-rule="evenodd" clip-rule="evenodd" d="M67.6512 93.0813C69.0498 86.979 70.0223 78.4347 70.2571 68.7747L72.4 68.8267C72.1629 78.5799 71.1809 87.2758 69.7405 93.5602C69.0223 96.6937 68.1776 99.2851 67.223 101.118C66.7464 102.033 66.2155 102.813 65.616 103.376C65.0122 103.944 64.2704 104.353 63.4098 104.353C62.422 104.353 61.595 103.817 60.9423 103.113C60.2873 102.406 59.7053 101.424 59.1824 100.26C58.1332 97.9258 57.2189 94.6233 56.4766 90.6476L58.5836 90.2542C59.3128 94.159 60.1892 97.2715 61.1375 99.3818C61.6133 100.44 62.0817 101.189 62.5147 101.656C62.9499 102.126 63.2485 102.209 63.4098 102.209C63.5517 102.209 63.7944 102.147 64.1479 101.815C64.5057 101.478 64.9048 100.929 65.3218 100.128C66.1541 98.5299 66.9499 96.1412 67.6512 93.0813Z" fill="url(#paint2_linear-402992)"/>
<path fill-rule="evenodd" clip-rule="evenodd" d="M59.8297 32.7595C58.547 37.2453 57.5283 43.6331 56.9696 51.1338L54.832 50.9746C55.3967 43.3948 56.4311 36.8485 57.7688 32.1702C58.4354 29.8391 59.1941 27.9108 60.0443 26.5418C60.8528 25.2397 61.9539 24.1142 63.3999 24.1142C64.2604 24.1142 65.0023 24.5228 65.606 25.0903C66.2055 25.6539 66.7365 26.4334 67.213 27.3485C68.1676 29.1817 69.0123 31.7731 69.7305 34.9066C71.1708 41.191 72.1529 49.8869 72.3899 59.6401L70.2471 59.6922C70.0123 50.0321 69.0398 41.4878 67.6412 35.3855C66.9399 32.3256 66.1441 29.9369 65.3118 28.3385C64.8948 27.5377 64.4957 26.9885 64.138 26.6522C63.7844 26.3199 63.5417 26.2577 63.3999 26.2577C63.1494 26.2577 62.6053 26.4807 61.8652 27.6725C61.1667 28.7975 60.4733 30.5087 59.8297 32.7595Z" fill="url(#paint3_linear-262083)"/>
<path fill-rule="evenodd" clip-rule="evenodd" d="M56.9669 51.1339C56.6623 55.2236 56.4951 59.6341 56.4951 64.2334C56.4951 74.2745 57.2918 83.4033 58.5711 90.2542L56.464 90.6476C55.1552 83.6384 54.3516 74.3738 54.3516 64.2334C54.3516 59.583 54.5206 55.1193 54.8293 50.9747L56.9669 51.1339Z" fill="url(#paint4_linear-624854)"/>
<path fill-rule="evenodd" clip-rule="evenodd" d="M55.9777 67.8754C49.0244 63.6305 43.0172 59.3262 38.5556 55.5226L37.165 57.1537C41.7309 61.0464 47.8344 65.4154 54.8608 69.7049L55.9777 67.8754Z" fill="url(#paint5_linear-788900)"/>
<path fill-rule="evenodd" clip-rule="evenodd" d="M86.2274 82.3315C80.2438 80.4918 72.3587 77.0623 63.876 72.4361L62.8497 74.318C71.4142 78.9888 79.4354 82.4858 85.5974 84.3804C88.67 85.325 91.3363 85.889 93.4011 85.9789C94.4318 86.0237 95.3723 85.9537 96.16 85.7162C96.9533 85.4771 97.678 85.039 98.1083 84.2937C98.8342 83.0364 98.4041 81.513 97.674 80.1556C96.906 78.7278 95.6041 77.0976 93.9042 75.3447C90.4926 71.8269 85.2993 67.6343 78.9713 63.3352L77.7668 65.1083C84.029 69.3626 89.093 73.4627 92.3654 76.8369C94.0074 78.5301 95.1541 79.9957 95.7862 81.171C96.4563 82.4168 96.3779 83.0039 96.252 83.222C96.1811 83.3448 96.0059 83.5239 95.5414 83.6639C95.0713 83.8056 94.3961 83.8766 93.4943 83.8374C91.694 83.759 89.2276 83.254 86.2274 82.3315Z" fill="url(#paint6_linear-417365)"/>
<path fill-rule="evenodd" clip-rule="evenodd" d="M66.814 58.2564C70.7357 60.5206 74.4179 62.8337 77.7656 65.108L78.9701 63.3349C75.5777 61.0302 71.8511 58.6895 67.8858 56.4001C58.5033 50.9832 49.5253 46.8589 42.5926 44.5559C39.1346 43.4072 36.1322 42.6935 33.8192 42.5187C32.6656 42.4315 31.6214 42.473 30.7548 42.6991C29.8865 42.9256 29.0827 43.3707 28.6188 44.1743C28.121 45.0364 28.1757 46.0285 28.4655 46.9528C28.7565 47.8809 29.3253 48.8849 30.0841 49.9299C31.6064 52.0266 34.0465 54.4956 37.164 57.1533L38.5547 55.5222C35.492 52.9111 33.197 50.5691 31.8186 48.6706C31.127 47.718 30.7042 46.9284 30.5108 46.3115C30.3162 45.6908 30.3938 45.3867 30.4751 45.246C30.5511 45.1144 30.7498 44.9156 31.2958 44.7732C31.8434 44.6303 32.625 44.578 33.6576 44.6561C35.7169 44.8117 38.5285 45.4646 41.9169 46.5901C48.6767 48.8357 57.5204 52.8907 66.814 58.2564Z" fill="url(#paint7_linear-428570)"/>
<path fill-rule="evenodd" clip-rule="evenodd" d="M64.1573 55.9215C71.3574 52.0065 78.1225 48.9556 83.6503 47.0132L82.9398 44.9909C77.28 46.9796 70.4089 50.0823 63.1334 54.0383L64.1573 55.9215Z" fill="url(#paint8_linear-519152)"/>
<path fill-rule="evenodd" clip-rule="evenodd" d="M36.3024 75.0296C40.8544 70.789 47.7211 65.699 55.921 60.6823L54.8023 58.8539C46.5233 63.9189 39.5301 69.0931 34.8413 73.4613C32.5033 75.6393 30.695 77.6567 29.5935 79.3921C29.0436 80.2585 28.6375 81.1046 28.4514 81.9026C28.264 82.7065 28.2825 83.5499 28.7112 84.2925C29.436 85.548 30.9671 85.9378 32.5045 85.9852C34.1215 86.0351 36.1793 85.7246 38.5416 85.1316C43.2822 83.9415 49.4948 81.5489 56.3672 78.2291L55.4349 76.299C48.634 79.5843 42.5663 81.9112 38.0196 83.0526C35.7382 83.6253 33.9007 83.8837 32.5706 83.8427C31.1609 83.7992 30.6932 83.4384 30.5675 83.2207C30.4968 83.0983 30.4296 82.8584 30.5389 82.3893C30.6496 81.9144 30.9227 81.2979 31.4032 80.5408C32.3626 79.0292 34.0199 77.156 36.3024 75.0296Z" fill="url(#paint9_linear-271395)"/>
<path fill-rule="evenodd" clip-rule="evenodd" d="M66.9031 70.2111C62.959 72.4882 59.0934 74.5308 55.4315 76.2998L56.3639 78.2299C60.0748 76.4372 63.9869 74.3699 67.9748 72.0675C77.3573 66.6505 85.418 60.9374 90.8788 56.085C93.6026 53.6646 95.722 51.4213 97.0299 49.5056C97.6822 48.5501 98.1683 47.6251 98.4058 46.7615C98.6438 45.8964 98.6602 44.9776 98.1963 44.1741C97.7043 43.3218 96.8318 42.8735 95.8996 42.6595C94.9645 42.445 93.8295 42.4299 92.5676 42.5562C90.0361 42.8094 86.7391 43.6594 82.9474 44.9917L83.658 47.014C87.3815 45.7056 90.4948 44.9178 92.781 44.689C93.928 44.5743 94.8037 44.6073 95.4202 44.7487C96.0396 44.8909 96.2596 45.1067 96.34 45.2458C96.4159 45.3774 96.4887 45.649 96.3391 46.193C96.189 46.7387 95.8435 47.4417 95.2596 48.297C94.0951 50.0026 92.124 52.1111 89.455 54.4827C84.1304 59.2141 76.1968 64.8454 66.9031 70.2111Z" fill="url(#paint10_linear-919704)"/>
<ellipse cx="57.8664" cy="90.3568" rx="2.79996" ry="2.79996" fill="white"/>
<ellipse rx="2.80001" ry="2.79999" transform="matrix(0.499997 -0.866027 -0.866024 -0.500003 37.9673 55.9694)" fill="white"/>
<ellipse rx="2.79997" ry="2.79996" transform="matrix(0.499999 0.866026 0.866024 -0.500002 83.3092 46.3745)" fill="white"/>
<path fill-rule="evenodd" clip-rule="evenodd" d="M63.4157 59.3597C66.1079 59.3597 68.2904 61.5422 68.2904 64.2344C68.2904 66.9266 66.1079 69.1091 63.4157 69.1091C60.7235 69.1091 58.541 66.9266 58.541 64.2344C58.541 61.5422 60.7235 59.3597 63.4157 59.3597Z" fill="white"/>
</g>
<defs>
<filter id="filter0_i-178687" x="0.460938" y="0.730896" width="125.077" height="125.538" filterUnits="userSpaceOnUse" color-interpolation-filters="sRGB">
<feFlood flood-opacity="0" result="BackgroundImageFix"/>
<feBlend mode="normal" in="SourceGraphic" in2="BackgroundImageFix" result="shape"/>
<feColorMatrix in="SourceAlpha" type="matrix" values="0 0 0 0 0 0 0 0 0 0 0 0 0 0 0 0 0 0 127 0" result="hardAlpha"/>
<feOffset/>
<feGaussianBlur stdDeviation="24"/>
<feComposite in2="hardAlpha" operator="arithmetic" k2="-1" k3="1"/>
<feColorMatrix type="matrix" values="0 0 0 0 0.9375 0 0 0 0 1 0 0 0 0 0.953125 0 0 0 1 0"/>
<feBlend mode="hard-light" in2="shape" result="effect1_innerShadow"/>
</filter>
<filter id="filter1_d-429819" x="3.00726" y="3.82904" width="120.809" height="120.809" filterUnits="userSpaceOnUse" color-interpolation-filters="sRGB">
<feFlood flood-opacity="0" result="BackgroundImageFix"/>
<feColorMatrix in="SourceAlpha" type="matrix" values="0 0 0 0 0 0 0 0 0 0 0 0 0 0 0 0 0 0 127 0" result="hardAlpha"/>
<feOffset/>
<feGaussianBlur stdDeviation="7.33817"/>
<feColorMatrix type="matrix" values="0 0 0 0 1 0 0 0 0 1 0 0 0 0 1 0 0 0 0.69 0"/>
<feBlend mode="normal" in2="BackgroundImageFix" result="effect1_dropShadow"/>
<feBlend mode="normal" in="SourceGraphic" in2="effect1_dropShadow" result="shape"/>
</filter>
<radialGradient id="paint0_radial-467638" cx="0" cy="0" r="1" gradientUnits="userSpaceOnUse" gradientTransform="translate(74.1945 134.279) rotate(-89.4267) scale(179.265 178.606)">
<stop offset="0.061994" stop-color="#BC28D5"/>
<stop offset="0.321237" stop-color="#7B88FE"/>
<stop offset="0.605681" stop-color="#A8F8FF"/>
<stop offset="0.774324" stop-color="#E9FFDB"/>
</radialGradient>
<radialGradient id="paint1_radial-894937" cx="0" cy="0" r="1" gradientUnits="userSpaceOnUse" gradientTransform="translate(31.1131 55.2908) rotate(11.1873) scale(95.5053 95.8313)">
<stop offset="0.773071" stop-color="#D0FFBC" stop-opacity="0"/>
<stop offset="1" stop-color="#E3FFC9"/>
</radialGradient>
<linearGradient id="paint2_linear-402992" x1="64.4383" y1="104.353" x2="74.7944" y2="69.4859" gradientUnits="userSpaceOnUse">
<stop offset="0.377307" stop-color="white" stop-opacity="0.6"/>
<stop offset="0.992239" stop-color="white" stop-opacity="0"/>
</linearGradient>
<linearGradient id="paint3_linear-262083" x1="63.611" y1="24.1142" x2="76.969" y2="57.8921" gradientUnits="userSpaceOnUse">
<stop offset="0.634963" stop-color="white" stop-opacity="0.81"/>
<stop offset="1" stop-color="white" stop-opacity="0"/>
</linearGradient>
<linearGradient id="paint4_linear-624854" x1="58.5296" y1="50.9747" x2="58.5296" y2="90.6933" gradientUnits="userSpaceOnUse">
<stop stop-color="white" stop-opacity="0.81"/>
<stop offset="0.646422" stop-color="white"/>
</linearGradient>
<linearGradient id="paint5_linear-788900" x1="38.6137" y1="55.2453" x2="56.1295" y2="67.601" gradientUnits="userSpaceOnUse">
<stop stop-color="white" stop-opacity="0.6"/>
<stop offset="1" stop-color="white" stop-opacity="0"/>
</linearGradient>
<linearGradient id="paint6_linear-417365" x1="100.151" y1="84.1541" x2="61.3128" y2="77.6908" gradientUnits="userSpaceOnUse">
<stop offset="0.60731" stop-color="white" stop-opacity="0.81"/>
<stop offset="1" stop-color="white" stop-opacity="0"/>
</linearGradient>
<linearGradient id="paint7_linear-428570" x1="77.9314" y1="62.966" x2="27.5152" y2="44.2725" gradientUnits="userSpaceOnUse">
<stop stop-color="white" stop-opacity="0.81"/>
<stop offset="0.478389" stop-color="white"/>
</linearGradient>
<linearGradient id="paint8_linear-519152" x1="84.0511" y1="47.1633" x2="63.0469" y2="56.923" gradientUnits="userSpaceOnUse">
<stop stop-color="white" stop-opacity="0.6"/>
<stop offset="1" stop-color="white" stop-opacity="0"/>
</linearGradient>
<linearGradient id="paint9_linear-271395" x1="27.5449" y1="84.4349" x2="53.8383" y2="57.0149" gradientUnits="userSpaceOnUse">
<stop offset="0.54518" stop-color="white" stop-opacity="0.81"/>
<stop offset="1" stop-color="white" stop-opacity="0"/>
</linearGradient>
<linearGradient id="paint10_linear-919704" x1="99.2761" y1="43.181" x2="56.8219" y2="78.4921" gradientUnits="userSpaceOnUse">
<stop offset="0.518582" stop-color="white"/>
<stop offset="1" stop-color="white" stop-opacity="0.81"/>
</linearGradient>
</defs>
</svg>