<svg width="93" height="92" viewBox="0 0 93 92" fill="none" xmlns="http://www.w3.org/2000/svg">
<path fill-rule="evenodd" clip-rule="evenodd" d="M50.6512 75.0813C52.0498 68.979 53.0223 60.4347 53.2571 50.7747L55.4 50.8267C55.1629 60.5799 54.1809 69.2758 52.7405 75.5602C52.0223 78.6937 51.1776 81.2851 50.223 83.1183C49.7464 84.0334 49.2155 84.813 48.616 85.3765C48.0122 85.944 47.2704 86.3526 46.4098 86.3526C45.422 86.3526 44.595 85.8173 43.9423 85.1128C43.2873 84.4058 42.7053 83.4241 42.1824 82.2604C41.1332 79.9258 40.2189 76.6233 39.4766 72.6476L41.5836 72.2542C42.3128 76.159 43.1892 79.2715 44.1375 81.3818C44.6133 82.4405 45.0817 83.1886 45.5147 83.656C45.9499 84.1258 46.2485 84.2091 46.4098 84.2091C46.5517 84.2091 46.7944 84.1469 47.1479 83.8146C47.5057 83.4783 47.9048 82.9291 48.3218 82.1283C49.1541 80.5299 49.9499 78.1412 50.6512 75.0813Z" fill="url(#paint0_linear)"/>
<path fill-rule="evenodd" clip-rule="evenodd" d="M42.8297 14.7595C41.547 19.2453 40.5283 25.6331 39.9696 33.1338L37.832 32.9746C38.3967 25.3948 39.4311 18.8485 40.7688 14.1702C41.4354 11.8391 42.1941 9.91084 43.0443 8.54179C43.8528 7.23967 44.9539 6.1142 46.3999 6.1142C47.2604 6.1142 48.0023 6.52284 48.606 7.09034C49.2055 7.65386 49.7365 8.43338 50.213 9.34849C51.1676 11.1817 52.0123 13.7731 52.7305 16.9066C54.1708 23.191 55.1529 31.8869 55.3899 41.6401L53.2471 41.6922C53.0123 32.0321 52.0398 23.4878 50.6412 17.3855C49.9399 14.3256 49.1441 11.9369 48.3118 10.3385C47.8948 9.53773 47.4957 8.98848 47.138 8.6522C46.7844 8.3199 46.5417 8.2577 46.3999 8.2577C46.1494 8.2577 45.6053 8.48069 44.8652 9.67254C44.1667 10.7975 43.4733 12.5087 42.8297 14.7595Z" fill="url(#paint1_linear)"/>
<path fill-rule="evenodd" clip-rule="evenodd" d="M39.9669 33.1339C39.6623 37.2236 39.4951 41.6341 39.4951 46.2334C39.4951 56.2745 40.2918 65.4033 41.5711 72.2542L39.464 72.6476C38.1552 65.6384 37.3516 56.3738 37.3516 46.2334C37.3516 41.583 37.5206 37.1193 37.8293 32.9747L39.9669 33.1339Z" fill="url(#paint2_linear)"/>
<path fill-rule="evenodd" clip-rule="evenodd" d="M38.9777 49.8754C32.0244 45.6305 26.0172 41.3262 21.5556 37.5226L20.165 39.1537C24.7309 43.0464 30.8344 47.4154 37.8608 51.7049L38.9777 49.8754Z" fill="url(#paint3_linear)"/>
<path fill-rule="evenodd" clip-rule="evenodd" d="M69.2274 64.3315C63.2438 62.4918 55.3587 59.0623 46.876 54.4361L45.8497 56.318C54.4142 60.9888 62.4354 64.4858 68.5974 66.3804C71.67 67.325 74.3363 67.889 76.4011 67.9789C77.4318 68.0237 78.3723 67.9537 79.16 67.7162C79.9533 67.4771 80.678 67.039 81.1083 66.2937C81.8342 65.0364 81.4041 63.513 80.674 62.1556C79.906 60.7278 78.6041 59.0976 76.9042 57.3447C73.4926 53.8269 68.2993 49.6343 61.9713 45.3352L60.7668 47.1083C67.029 51.3626 72.093 55.4627 75.3654 58.8369C77.0074 60.5301 78.1541 61.9957 78.7862 63.171C79.4563 64.4168 79.3779 65.0039 79.252 65.222C79.1811 65.3448 79.0059 65.5239 78.5414 65.6639C78.0713 65.8056 77.3961 65.8766 76.4943 65.8374C74.694 65.759 72.2276 65.254 69.2274 64.3315Z" fill="url(#paint4_linear)"/>
<path fill-rule="evenodd" clip-rule="evenodd" d="M49.814 40.2564C53.7357 42.5206 57.4179 44.8337 60.7656 47.108L61.9701 45.3349C58.5777 43.0302 54.8511 40.6895 50.8858 38.4001C41.5033 32.9832 32.5253 28.8589 25.5926 26.5559C22.1346 25.4072 19.1322 24.6935 16.8192 24.5187C15.6656 24.4315 14.6214 24.473 13.7548 24.6991C12.8865 24.9256 12.0827 25.3707 11.6188 26.1743C11.121 27.0364 11.1757 28.0285 11.4655 28.9528C11.7565 29.8809 12.3253 30.8849 13.0841 31.9299C14.6064 34.0266 17.0465 36.4956 20.164 39.1533L21.5547 37.5222C18.492 34.9111 16.197 32.5691 14.8186 30.6706C14.127 29.718 13.7042 28.9284 13.5108 28.3115C13.3162 27.6908 13.3938 27.3867 13.4751 27.246C13.5511 27.1144 13.7498 26.9156 14.2958 26.7732C14.8434 26.6303 15.625 26.578 16.6576 26.6561C18.7169 26.8117 21.5285 27.4646 24.9169 28.5901C31.6767 30.8357 40.5204 34.8907 49.814 40.2564Z" fill="url(#paint5_linear)"/>
<path fill-rule="evenodd" clip-rule="evenodd" d="M47.1573 37.9215C54.3574 34.0065 61.1225 30.9556 66.6503 29.0133L65.9398 26.991C60.28 28.9797 53.4089 32.0823 46.1334 36.0384L47.1573 37.9215Z" fill="url(#paint6_linear)"/>
<path fill-rule="evenodd" clip-rule="evenodd" d="M19.3024 57.0296C23.8544 52.7889 30.7211 47.6989 38.921 42.6823L37.8023 40.8538C29.5233 45.9188 22.5301 51.0931 17.8413 55.4612C15.5033 57.6393 13.695 59.6566 12.5935 61.3921C12.0436 62.2584 11.6375 63.1045 11.4514 63.9026C11.264 64.7065 11.2825 65.5499 11.7112 66.2924C12.436 67.5479 13.9671 67.9377 15.5045 67.9851C17.1215 68.035 19.1793 67.7246 21.5416 67.1315C26.2822 65.9414 32.4948 63.5489 39.3672 60.229L38.4349 58.2989C31.634 61.5842 25.5663 63.9111 21.0196 65.0525C18.7382 65.6253 16.9007 65.8837 15.5706 65.8426C14.1609 65.7992 13.6932 65.4383 13.5675 65.2207C13.4968 65.0982 13.4296 64.8583 13.5389 64.3892C13.6496 63.9143 13.9227 63.2979 14.4032 62.5407C15.3626 61.0292 17.0199 59.156 19.3024 57.0296Z" fill="url(#paint7_linear)"/>
<path fill-rule="evenodd" clip-rule="evenodd" d="M49.9031 52.211C45.959 54.4881 42.0934 56.5306 38.4315 58.2996L39.3639 60.2297C43.0748 58.437 46.9869 56.3697 50.9748 54.0673C60.3573 48.6503 68.418 42.9373 73.8788 38.0848C76.6026 35.6645 78.722 33.4212 80.0299 31.5054C80.6822 30.5499 81.1683 29.6249 81.4058 28.7613C81.6438 27.8962 81.6602 26.9774 81.1963 26.1739C80.7043 25.3217 79.8318 24.8733 78.8996 24.6594C77.9645 24.4448 76.8295 24.4298 75.5676 24.556C73.0361 24.8093 69.7391 25.6592 65.9474 26.9915L66.658 29.0138C70.3815 27.7055 73.4948 26.9176 75.781 26.6889C76.928 26.5741 77.8037 26.6071 78.4202 26.7486C79.0396 26.8907 79.2596 27.1065 79.34 27.2456C79.4159 27.3772 79.4887 27.6488 79.3391 28.1928C79.189 28.7385 78.8435 29.4415 78.2596 30.2968C77.0951 32.0024 75.124 34.1109 72.455 36.4825C67.1304 41.2139 59.1968 46.8453 49.9031 52.211Z" fill="url(#paint8_linear)"/>
<ellipse cx="40.8664" cy="72.3568" rx="2.79996" ry="2.79996" fill="white"/>
<ellipse rx="2.80001" ry="2.79999" transform="matrix(0.499997 -0.866027 -0.866024 -0.500003 20.9673 37.9695)" fill="white"/>
<ellipse rx="2.79997" ry="2.79996" transform="matrix(0.499999 0.866026 0.866024 -0.500002 66.3092 28.3745)" fill="white"/>
<path fill-rule="evenodd" clip-rule="evenodd" d="M46.4157 41.3595C49.1079 41.3595 51.2904 43.542 51.2904 46.2342C51.2904 48.9264 49.1079 51.1089 46.4157 51.1089C43.7235 51.1089 41.541 48.9264 41.541 46.2342C41.541 43.542 43.7235 41.3595 46.4157 41.3595Z" fill="white"/>
<defs>
<linearGradient id="paint0_linear" x1="47.4383" y1="86.3526" x2="57.7944" y2="51.4859" gradientUnits="userSpaceOnUse">
<stop offset="0.377307" stop-color="white" stop-opacity="0.6"/>
<stop offset="0.992239" stop-color="white" stop-opacity="0"/>
</linearGradient>
<linearGradient id="paint1_linear" x1="46.611" y1="6.1142" x2="59.969" y2="39.8921" gradientUnits="userSpaceOnUse">
<stop offset="0.634963" stop-color="white" stop-opacity="0.81"/>
<stop offset="1" stop-color="white" stop-opacity="0"/>
</linearGradient>
<linearGradient id="paint2_linear" x1="41.5296" y1="32.9747" x2="41.5296" y2="72.6933" gradientUnits="userSpaceOnUse">
<stop stop-color="white" stop-opacity="0.81"/>
<stop offset="0.646422" stop-color="white"/>
</linearGradient>
<linearGradient id="paint3_linear" x1="21.6137" y1="37.2453" x2="39.1295" y2="49.601" gradientUnits="userSpaceOnUse">
<stop stop-color="white" stop-opacity="0.6"/>
<stop offset="1" stop-color="white" stop-opacity="0"/>
</linearGradient>
<linearGradient id="paint4_linear" x1="83.151" y1="66.1541" x2="44.3128" y2="59.6908" gradientUnits="userSpaceOnUse">
<stop offset="0.60731" stop-color="white" stop-opacity="0.81"/>
<stop offset="1" stop-color="white" stop-opacity="0"/>
</linearGradient>
<linearGradient id="paint5_linear" x1="60.9314" y1="44.966" x2="10.5152" y2="26.2725" gradientUnits="userSpaceOnUse">
<stop stop-color="white" stop-opacity="0.81"/>
<stop offset="0.478389" stop-color="white"/>
</linearGradient>
<linearGradient id="paint6_linear" x1="67.0511" y1="29.1633" x2="46.0469" y2="38.923" gradientUnits="userSpaceOnUse">
<stop stop-color="white" stop-opacity="0.6"/>
<stop offset="1" stop-color="white" stop-opacity="0"/>
</linearGradient>
<linearGradient id="paint7_linear" x1="10.5449" y1="66.4348" x2="36.8383" y2="39.0148" gradientUnits="userSpaceOnUse">
<stop offset="0.54518" stop-color="white" stop-opacity="0.81"/>
<stop offset="1" stop-color="white" stop-opacity="0"/>
</linearGradient>
<linearGradient id="paint8_linear" x1="82.2761" y1="25.1808" x2="39.8219" y2="60.4919" gradientUnits="userSpaceOnUse">
<stop offset="0.518582" stop-color="white"/>
<stop offset="1" stop-color="white" stop-opacity="0.81"/>
</linearGradient>
</defs>
</svg>
