<svg width="272" height="271" viewBox="0 0 272 271" fill="none" xmlns="http://www.w3.org/2000/svg">
<g filter="url(#filter0_i-200168)">
<path d="M135.997 198.269C170.536 198.269 198.536 170.167 198.536 135.5C198.536 100.834 170.536 72.7309 135.997 72.7309C101.458 72.7309 73.459 100.834 73.459 135.5C73.459 170.167 101.458 198.269 135.997 198.269Z" fill="url(#paint0_radial-227617)"/>
<path d="M135.997 198.269C170.536 198.269 198.536 170.167 198.536 135.5C198.536 100.834 170.536 72.7309 135.997 72.7309C101.458 72.7309 73.459 100.834 73.459 135.5C73.459 170.167 101.458 198.269 135.997 198.269Z" fill="url(#paint1_radial-946913)" fill-opacity="0.3" style="mix-blend-mode:hard-light"/>
</g>
<g style="mix-blend-mode:overlay" opacity="0.9" filter="url(#filter1_d-712493)">
<path fill-rule="evenodd" clip-rule="evenodd" d="M140.655 165.081C142.054 158.979 143.026 150.435 143.261 140.775L145.404 140.827C145.167 150.58 144.185 159.276 142.744 165.56C142.026 168.694 141.181 171.285 140.227 173.118C139.75 174.033 139.219 174.813 138.62 175.376C138.016 175.944 137.274 176.353 136.414 176.353C135.426 176.353 134.599 175.817 133.946 175.113C133.291 174.406 132.709 173.424 132.186 172.26C131.137 169.926 130.223 166.623 129.48 162.648L131.588 162.254C132.317 166.159 133.193 169.272 134.141 171.382C134.617 172.44 135.086 173.189 135.519 173.656C135.954 174.126 136.252 174.209 136.414 174.209C136.556 174.209 136.798 174.147 137.152 173.815C137.51 173.478 137.909 172.929 138.326 172.128C139.158 170.53 139.954 168.141 140.655 165.081Z" fill="url(#paint2_linear-137556)"/>
<path fill-rule="evenodd" clip-rule="evenodd" d="M132.843 104.76C131.561 109.245 130.542 115.633 129.983 123.134L127.846 122.975C128.41 115.395 129.445 108.848 130.783 104.17C131.449 101.839 132.208 99.9108 133.058 98.5418C133.866 97.2397 134.968 96.1142 136.414 96.1142C137.274 96.1142 138.016 96.5228 138.62 97.0903C139.219 97.6539 139.75 98.4334 140.227 99.3485C141.181 101.182 142.026 103.773 142.744 106.907C144.185 113.191 145.167 121.887 145.404 131.64L143.261 131.692C143.026 122.032 142.053 113.488 140.655 107.385C139.954 104.326 139.158 101.937 138.325 100.338C137.909 99.5377 137.509 98.9885 137.152 98.6522C136.798 98.3199 136.555 98.2577 136.414 98.2577C136.163 98.2577 135.619 98.4807 134.879 99.6725C134.18 100.797 133.487 102.509 132.843 104.76Z" fill="url(#paint3_linear-134806)"/>
<path fill-rule="evenodd" clip-rule="evenodd" d="M129.988 123.134C129.684 127.224 129.517 131.634 129.517 136.233C129.517 146.274 130.313 155.403 131.593 162.254L129.485 162.648C128.177 155.638 127.373 146.374 127.373 136.233C127.373 131.583 127.542 127.119 127.851 122.975L129.988 123.134Z" fill="url(#paint4_linear-743256)"/>
<path fill-rule="evenodd" clip-rule="evenodd" d="M128.98 139.875C122.026 135.63 116.019 131.326 111.558 127.523L110.167 129.154C114.733 133.046 120.836 137.415 127.863 141.705L128.98 139.875Z" fill="url(#paint5_linear-335842)"/>
<path fill-rule="evenodd" clip-rule="evenodd" d="M159.231 154.332C153.248 152.492 145.363 149.062 136.88 144.436L135.854 146.318C144.418 150.989 152.439 154.486 158.601 156.38C161.674 157.325 164.34 157.889 166.405 157.979C167.436 158.024 168.376 157.954 169.164 157.716C169.957 157.477 170.682 157.039 171.112 156.294C171.838 155.036 171.408 153.513 170.678 152.156C169.91 150.728 168.608 149.098 166.908 147.345C163.497 143.827 158.303 139.634 151.975 135.335L150.771 137.108C157.033 141.363 162.097 145.463 165.369 148.837C167.011 150.53 168.158 151.996 168.79 153.171C169.46 154.417 169.382 155.004 169.256 155.222C169.185 155.345 169.01 155.524 168.545 155.664C168.075 155.806 167.4 155.877 166.498 155.837C164.698 155.759 162.232 155.254 159.231 154.332Z" fill="url(#paint6_linear-258408)"/>
<path fill-rule="evenodd" clip-rule="evenodd" d="M139.818 130.256C143.74 132.521 147.422 134.834 150.77 137.108L151.974 135.335C148.582 133.03 144.855 130.689 140.89 128.4C131.507 122.983 122.529 118.859 115.596 116.556C112.139 115.407 109.136 114.693 106.823 114.519C105.669 114.431 104.625 114.473 103.759 114.699C102.89 114.926 102.087 115.371 101.623 116.174C101.125 117.036 101.18 118.029 101.469 118.953C101.76 119.881 102.329 120.885 103.088 121.93C104.61 124.027 107.05 126.496 110.168 129.153L111.559 127.522C108.496 124.911 106.201 122.569 104.823 120.671C104.131 119.718 103.708 118.928 103.515 118.312C103.32 117.691 103.398 117.387 103.479 117.246C103.555 117.114 103.754 116.916 104.3 116.773C104.847 116.63 105.629 116.578 106.662 116.656C108.721 116.812 111.532 117.465 114.921 118.59C121.681 120.836 130.524 124.891 139.818 130.256Z" fill="url(#paint7_linear-748342)"/>
<path fill-rule="evenodd" clip-rule="evenodd" d="M137.171 127.921C144.371 124.006 151.136 120.956 156.664 119.013L155.953 116.991C150.294 118.98 143.423 122.082 136.147 126.038L137.171 127.921Z" fill="url(#paint8_linear-597767)"/>
<path fill-rule="evenodd" clip-rule="evenodd" d="M109.306 147.03C113.858 142.789 120.725 137.699 128.925 132.682L127.806 130.854C119.527 135.919 112.534 141.093 107.845 145.461C105.507 147.639 103.699 149.657 102.597 151.392C102.048 152.258 101.641 153.105 101.455 153.903C101.268 154.707 101.286 155.55 101.715 156.292C102.44 157.548 103.971 157.938 105.508 157.985C107.125 158.035 109.183 157.725 111.545 157.132C116.286 155.941 122.499 153.549 129.371 150.229L128.439 148.299C121.638 151.584 115.57 153.911 111.024 155.053C108.742 155.625 106.905 155.884 105.574 155.843C104.165 155.799 103.697 155.438 103.571 155.221C103.501 155.098 103.433 154.858 103.543 154.389C103.654 153.914 103.927 153.298 104.407 152.541C105.366 151.029 107.024 149.156 109.306 147.03Z" fill="url(#paint9_linear-018126)"/>
<path fill-rule="evenodd" clip-rule="evenodd" d="M139.917 142.211C135.973 144.488 132.107 146.531 128.445 148.3L129.378 150.23C133.088 148.437 137.001 146.37 140.988 144.067C150.371 138.651 158.432 132.937 163.893 128.085C166.616 125.665 168.736 123.421 170.044 121.506C170.696 120.55 171.182 119.625 171.419 118.762C171.657 117.896 171.674 116.978 171.21 116.174C170.718 115.322 169.845 114.873 168.913 114.66C167.978 114.445 166.843 114.43 165.581 114.556C163.05 114.809 159.753 115.659 155.961 116.992L156.672 119.014C160.395 117.706 163.508 116.918 165.795 116.689C166.942 116.574 167.817 116.607 168.434 116.749C169.053 116.891 169.273 117.107 169.354 117.246C169.43 117.377 169.502 117.649 169.353 118.193C169.203 118.739 168.857 119.442 168.273 120.297C167.109 122.003 165.138 124.111 162.469 126.483C157.144 131.214 149.21 136.845 139.917 142.211Z" fill="url(#paint10_linear-763668)"/>
<ellipse cx="130.87" cy="162.357" rx="2.79996" ry="2.79996" fill="white"/>
<ellipse rx="2.80001" ry="2.79999" transform="matrix(0.499997 -0.866027 -0.866024 -0.500003 110.979 127.969)" fill="white"/>
<ellipse rx="2.79997" ry="2.79996" transform="matrix(0.499999 0.866026 0.866024 -0.500002 156.313 118.375)" fill="white"/>
<path fill-rule="evenodd" clip-rule="evenodd" d="M136.412 131.36C139.104 131.36 141.286 133.542 141.286 136.234C141.286 138.927 139.104 141.109 136.412 141.109C133.72 141.109 131.537 138.927 131.537 136.234C131.537 133.542 133.72 131.36 136.412 131.36Z" fill="white"/>
</g>
<defs>
<filter id="filter0_i-200168" x="73.459" y="72.7309" width="125.077" height="125.538" filterUnits="userSpaceOnUse" color-interpolation-filters="sRGB">
<feFlood flood-opacity="0" result="BackgroundImageFix"/>
<feBlend mode="normal" in="SourceGraphic" in2="BackgroundImageFix" result="shape"/>
<feColorMatrix in="SourceAlpha" type="matrix" values="0 0 0 0 0 0 0 0 0 0 0 0 0 0 0 0 0 0 127 0" result="hardAlpha"/>
<feOffset/>
<feGaussianBlur stdDeviation="24"/>
<feComposite in2="hardAlpha" operator="arithmetic" k2="-1" k3="1"/>
<feColorMatrix type="matrix" values="0 0 0 0 0.9375 0 0 0 0 1 0 0 0 0 0.953125 0 0 0 1 0"/>
<feBlend mode="hard-light" in2="shape" result="effect1_innerShadow"/>
</filter>
<filter id="filter1_d-712493" x="76.0073" y="75.829" width="120.809" height="120.809" filterUnits="userSpaceOnUse" color-interpolation-filters="sRGB">
<feFlood flood-opacity="0" result="BackgroundImageFix"/>
<feColorMatrix in="SourceAlpha" type="matrix" values="0 0 0 0 0 0 0 0 0 0 0 0 0 0 0 0 0 0 127 0"/>
<feOffset/>
<feGaussianBlur stdDeviation="7.33817"/>
<feColorMatrix type="matrix" values="0 0 0 0 1 0 0 0 0 1 0 0 0 0 1 0 0 0 0.69 0"/>
<feBlend mode="normal" in2="BackgroundImageFix" result="effect1_dropShadow"/>
<feBlend mode="normal" in="SourceGraphic" in2="effect1_dropShadow" result="shape"/>
</filter>
<radialGradient id="paint0_radial-227617" cx="0" cy="0" r="1" gradientUnits="userSpaceOnUse" gradientTransform="translate(147.193 206.279) rotate(-89.4267) scale(179.265 178.606)">
<stop offset="0.061994" stop-color="#BC28D5"/>
<stop offset="0.321237" stop-color="#7B88FE"/>
<stop offset="0.605681" stop-color="#A8F8FF"/>
<stop offset="0.774324" stop-color="#E9FFDB"/>
</radialGradient>
<radialGradient id="paint1_radial-946913" cx="0" cy="0" r="1" gradientUnits="userSpaceOnUse" gradientTransform="translate(104.111 127.291) rotate(11.1873) scale(95.5053 95.8313)">
<stop offset="0.773071" stop-color="#D0FFBC" stop-opacity="0"/>
<stop offset="1" stop-color="#E3FFC9"/>
</radialGradient>
<linearGradient id="paint2_linear-137556" x1="137.442" y1="176.353" x2="147.798" y2="141.486" gradientUnits="userSpaceOnUse">
<stop offset="0.377307" stop-color="white" stop-opacity="0.6"/>
<stop offset="0.992239" stop-color="white" stop-opacity="0"/>
</linearGradient>
<linearGradient id="paint3_linear-134806" x1="136.625" y1="96.1142" x2="149.983" y2="129.892" gradientUnits="userSpaceOnUse">
<stop offset="0.634963" stop-color="white" stop-opacity="0.81"/>
<stop offset="1" stop-color="white" stop-opacity="0"/>
</linearGradient>
<linearGradient id="paint4_linear-743256" x1="131.551" y1="122.975" x2="131.551" y2="162.693" gradientUnits="userSpaceOnUse">
<stop stop-color="white" stop-opacity="0.81"/>
<stop offset="0.646422" stop-color="white"/>
</linearGradient>
<linearGradient id="paint5_linear-335842" x1="111.616" y1="127.245" x2="129.131" y2="139.601" gradientUnits="userSpaceOnUse">
<stop stop-color="white" stop-opacity="0.6"/>
<stop offset="1" stop-color="white" stop-opacity="0"/>
</linearGradient>
<linearGradient id="paint6_linear-258408" x1="173.155" y1="156.154" x2="134.317" y2="149.691" gradientUnits="userSpaceOnUse">
<stop offset="0.60731" stop-color="white" stop-opacity="0.81"/>
<stop offset="1" stop-color="white" stop-opacity="0"/>
</linearGradient>
<linearGradient id="paint7_linear-748342" x1="150.935" y1="134.966" x2="100.519" y2="116.272" gradientUnits="userSpaceOnUse">
<stop stop-color="white" stop-opacity="0.81"/>
<stop offset="0.478389" stop-color="white"/>
</linearGradient>
<linearGradient id="paint8_linear-597767" x1="157.065" y1="119.163" x2="136.061" y2="128.923" gradientUnits="userSpaceOnUse">
<stop stop-color="white" stop-opacity="0.6"/>
<stop offset="1" stop-color="white" stop-opacity="0"/>
</linearGradient>
<linearGradient id="paint9_linear-018126" x1="100.549" y1="156.435" x2="126.842" y2="129.015" gradientUnits="userSpaceOnUse">
<stop offset="0.54518" stop-color="white" stop-opacity="0.81"/>
<stop offset="1" stop-color="white" stop-opacity="0"/>
</linearGradient>
<linearGradient id="paint10_linear-763668" x1="172.29" y1="115.181" x2="129.836" y2="150.492" gradientUnits="userSpaceOnUse">
<stop offset="0.518582" stop-color="white"/>
<stop offset="1" stop-color="white" stop-opacity="0.81"/>
</linearGradient>
</defs>
</svg>