<svg width="306" height="307" viewBox="0 0 306 307" fill="none" xmlns="http://www.w3.org/2000/svg">
<g filter="url(#filter0_di-808889)">
<path d="M152.997 216.269C187.536 216.269 215.536 188.167 215.536 153.5C215.536 118.834 187.536 90.7309 152.997 90.7309C118.458 90.7309 90.459 118.834 90.459 153.5C90.459 188.167 118.458 216.269 152.997 216.269Z" fill="url(#paint0_radial-284128)"/>
<path d="M152.997 216.269C187.536 216.269 215.536 188.167 215.536 153.5C215.536 118.834 187.536 90.7309 152.997 90.7309C118.458 90.7309 90.459 118.834 90.459 153.5C90.459 188.167 118.458 216.269 152.997 216.269Z" fill="url(#paint1_radial-549279)" fill-opacity="0.3" style="mix-blend-mode:hard-light"/>
</g>
<g style="mix-blend-mode:overlay" opacity="0.9" filter="url(#filter1_d-419478)">
<path fill-rule="evenodd" clip-rule="evenodd" d="M157.655 183.081C159.054 176.979 160.026 168.435 160.261 158.775L162.404 158.827C162.167 168.58 161.185 177.276 159.744 183.56C159.026 186.694 158.181 189.285 157.227 191.118C156.75 192.033 156.219 192.813 155.62 193.376C155.016 193.944 154.274 194.353 153.414 194.353C152.426 194.353 151.599 193.817 150.946 193.113C150.291 192.406 149.709 191.424 149.186 190.26C148.137 187.926 147.223 184.623 146.48 180.648L148.588 180.254C149.317 184.159 150.193 187.272 151.141 189.382C151.617 190.44 152.086 191.189 152.519 191.656C152.954 192.126 153.252 192.209 153.414 192.209C153.556 192.209 153.798 192.147 154.152 191.815C154.51 191.478 154.909 190.929 155.326 190.128C156.158 188.53 156.954 186.141 157.655 183.081Z" fill="url(#paint2_linear-332570)"/>
<path fill-rule="evenodd" clip-rule="evenodd" d="M149.843 122.76C148.561 127.245 147.542 133.633 146.983 141.134L144.846 140.975C145.41 133.395 146.445 126.848 147.783 122.17C148.449 119.839 149.208 117.911 150.058 116.542C150.866 115.24 151.968 114.114 153.414 114.114C154.274 114.114 155.016 114.523 155.62 115.09C156.219 115.654 156.75 116.433 157.227 117.348C158.181 119.182 159.026 121.773 159.744 124.907C161.185 131.191 162.167 139.887 162.404 149.64L160.261 149.692C160.026 140.032 159.053 131.488 157.655 125.385C156.954 122.326 156.158 119.937 155.325 118.338C154.909 117.538 154.509 116.988 154.152 116.652C153.798 116.32 153.555 116.258 153.414 116.258C153.163 116.258 152.619 116.481 151.879 117.673C151.18 118.797 150.487 120.509 149.843 122.76Z" fill="url(#paint3_linear-222708)"/>
<path fill-rule="evenodd" clip-rule="evenodd" d="M146.988 141.134C146.684 145.224 146.517 149.634 146.517 154.233C146.517 164.274 147.313 173.403 148.593 180.254L146.485 180.648C145.177 173.638 144.373 164.374 144.373 154.233C144.373 149.583 144.542 145.119 144.851 140.975L146.988 141.134Z" fill="url(#paint4_linear-478471)"/>
<path fill-rule="evenodd" clip-rule="evenodd" d="M145.98 157.875C139.026 153.63 133.019 149.326 128.558 145.523L127.167 147.154C131.733 151.046 137.836 155.415 144.863 159.705L145.98 157.875Z" fill="url(#paint5_linear-874206)"/>
<path fill-rule="evenodd" clip-rule="evenodd" d="M176.231 172.332C170.248 170.492 162.363 167.062 153.88 162.436L152.854 164.318C161.418 168.989 169.439 172.486 175.601 174.38C178.674 175.325 181.34 175.889 183.405 175.979C184.436 176.024 185.376 175.954 186.164 175.716C186.957 175.477 187.682 175.039 188.112 174.294C188.838 173.036 188.408 171.513 187.678 170.156C186.91 168.728 185.608 167.098 183.908 165.345C180.497 161.827 175.303 157.634 168.975 153.335L167.771 155.108C174.033 159.363 179.097 163.463 182.369 166.837C184.011 168.53 185.158 169.996 185.79 171.171C186.46 172.417 186.382 173.004 186.256 173.222C186.185 173.345 186.01 173.524 185.545 173.664C185.075 173.806 184.4 173.877 183.498 173.837C181.698 173.759 179.232 173.254 176.231 172.332Z" fill="url(#paint6_linear-771820)"/>
<path fill-rule="evenodd" clip-rule="evenodd" d="M156.818 148.256C160.74 150.521 164.422 152.834 167.77 155.108L168.974 153.335C165.582 151.03 161.855 148.689 157.89 146.4C148.507 140.983 139.529 136.859 132.596 134.556C129.139 133.407 126.136 132.693 123.823 132.519C122.669 132.431 121.625 132.473 120.759 132.699C119.89 132.926 119.087 133.371 118.623 134.174C118.125 135.036 118.18 136.029 118.469 136.953C118.76 137.881 119.329 138.885 120.088 139.93C121.61 142.027 124.05 144.496 127.168 147.153L128.559 145.522C125.496 142.911 123.201 140.569 121.823 138.671C121.131 137.718 120.708 136.928 120.515 136.312C120.32 135.691 120.398 135.387 120.479 135.246C120.555 135.114 120.754 134.916 121.3 134.773C121.847 134.63 122.629 134.578 123.662 134.656C125.721 134.812 128.532 135.465 131.921 136.59C138.681 138.836 147.524 142.891 156.818 148.256Z" fill="url(#paint7_linear-054681)"/>
<path fill-rule="evenodd" clip-rule="evenodd" d="M154.171 145.921C161.371 142.006 168.136 138.956 173.664 137.013L172.953 134.991C167.294 136.98 160.423 140.082 153.147 144.038L154.171 145.921Z" fill="url(#paint8_linear-370546)"/>
<path fill-rule="evenodd" clip-rule="evenodd" d="M126.306 165.03C130.858 160.789 137.725 155.699 145.925 150.682L144.806 148.854C136.527 153.919 129.534 159.093 124.845 163.461C122.507 165.639 120.699 167.657 119.597 169.392C119.048 170.258 118.641 171.105 118.455 171.903C118.268 172.707 118.286 173.55 118.715 174.292C119.44 175.548 120.971 175.938 122.508 175.985C124.125 176.035 126.183 175.725 128.545 175.132C133.286 173.941 139.499 171.549 146.371 168.229L145.439 166.299C138.638 169.584 132.57 171.911 128.024 173.053C125.742 173.625 123.905 173.884 122.574 173.843C121.165 173.799 120.697 173.438 120.571 173.221C120.501 173.098 120.433 172.858 120.543 172.389C120.654 171.914 120.927 171.298 121.407 170.541C122.366 169.029 124.024 167.156 126.306 165.03Z" fill="url(#paint9_linear-019826)"/>
<path fill-rule="evenodd" clip-rule="evenodd" d="M156.917 160.211C152.973 162.488 149.107 164.531 145.445 166.3L146.378 168.23C150.088 166.437 154.001 164.37 157.988 162.067C167.371 156.651 175.432 150.937 180.893 146.085C183.616 143.665 185.736 141.421 187.044 139.506C187.696 138.55 188.182 137.625 188.419 136.762C188.657 135.896 188.674 134.978 188.21 134.174C187.718 133.322 186.845 132.873 185.913 132.66C184.978 132.445 183.843 132.43 182.581 132.556C180.05 132.809 176.753 133.659 172.961 134.992L173.672 137.014C177.395 135.706 180.508 134.918 182.795 134.689C183.942 134.574 184.817 134.607 185.434 134.749C186.053 134.891 186.273 135.107 186.354 135.246C186.43 135.377 186.502 135.649 186.353 136.193C186.203 136.739 185.857 137.442 185.273 138.297C184.109 140.003 182.138 142.111 179.469 144.483C174.144 149.214 166.21 154.845 156.917 160.211Z" fill="url(#paint10_linear-002050)"/>
<ellipse cx="147.87" cy="180.357" rx="2.79996" ry="2.79996" fill="white"/>
<ellipse rx="2.80001" ry="2.79999" transform="matrix(0.499997 -0.866027 -0.866024 -0.500003 127.979 145.969)" fill="white"/>
<ellipse rx="2.79997" ry="2.79996" transform="matrix(0.499999 0.866026 0.866024 -0.500002 173.313 136.375)" fill="white"/>
<path fill-rule="evenodd" clip-rule="evenodd" d="M153.412 149.36C156.104 149.36 158.286 151.542 158.286 154.234C158.286 156.927 156.104 159.109 153.412 159.109C150.72 159.109 148.537 156.927 148.537 154.234C148.537 151.542 150.72 149.36 153.412 149.36Z" fill="white"/>
</g>
<defs>
<filter id="filter0_di-808889" x="0.458981" y="0.730892" width="305.077" height="305.538" filterUnits="userSpaceOnUse" color-interpolation-filters="sRGB">
<feFlood flood-opacity="0" result="BackgroundImageFix"/>
<feColorMatrix in="SourceAlpha" type="matrix" values="0 0 0 0 0 0 0 0 0 0 0 0 0 0 0 0 0 0 127 0"/>
<feMorphology radius="40" operator="dilate" in="SourceAlpha" result="effect1_dropShadow"/>
<feOffset/>
<feGaussianBlur stdDeviation="25"/>
<feColorMatrix type="matrix" values="0 0 0 0 0.486275 0 0 0 0 0.541176 0 0 0 0 1 0 0 0 0.3 0"/>
<feBlend mode="normal" in2="BackgroundImageFix" result="effect1_dropShadow"/>
<feBlend mode="normal" in="SourceGraphic" in2="effect1_dropShadow" result="shape"/>
<feColorMatrix in="SourceAlpha" type="matrix" values="0 0 0 0 0 0 0 0 0 0 0 0 0 0 0 0 0 0 127 0" result="hardAlpha"/>
<feOffset/>
<feGaussianBlur stdDeviation="24"/>
<feComposite in2="hardAlpha" operator="arithmetic" k2="-1" k3="1"/>
<feColorMatrix type="matrix" values="0 0 0 0 0.9375 0 0 0 0 1 0 0 0 0 0.953125 0 0 0 1 0"/>
<feBlend mode="hard-light" in2="shape" result="effect2_innerShadow"/>
</filter>
<filter id="filter1_d-419478" x="93.0073" y="93.829" width="120.809" height="120.809" filterUnits="userSpaceOnUse" color-interpolation-filters="sRGB">
<feFlood flood-opacity="0" result="BackgroundImageFix"/>
<feColorMatrix in="SourceAlpha" type="matrix" values="0 0 0 0 0 0 0 0 0 0 0 0 0 0 0 0 0 0 127 0"/>
<feOffset/>
<feGaussianBlur stdDeviation="7.33817"/>
<feColorMatrix type="matrix" values="0 0 0 0 1 0 0 0 0 1 0 0 0 0 1 0 0 0 0.69 0"/>
<feBlend mode="normal" in2="BackgroundImageFix" result="effect1_dropShadow"/>
<feBlend mode="normal" in="SourceGraphic" in2="effect1_dropShadow" result="shape"/>
</filter>
<radialGradient id="paint0_radial-284128" cx="0" cy="0" r="1" gradientUnits="userSpaceOnUse" gradientTransform="translate(164.193 224.279) rotate(-89.4267) scale(179.265 178.606)">
<stop offset="0.061994" stop-color="#BC28D5"/>
<stop offset="0.321237" stop-color="#7B88FE"/>
<stop offset="0.605681" stop-color="#A8F8FF"/>
<stop offset="0.774324" stop-color="#E9FFDB"/>
</radialGradient>
<radialGradient id="paint1_radial-549279" cx="0" cy="0" r="1" gradientUnits="userSpaceOnUse" gradientTransform="translate(121.111 145.291) rotate(11.1873) scale(95.5053 95.8313)">
<stop offset="0.773071" stop-color="#D0FFBC" stop-opacity="0"/>
<stop offset="1" stop-color="#E3FFC9"/>
</radialGradient>
<linearGradient id="paint2_linear-332570" x1="154.442" y1="194.353" x2="164.798" y2="159.486" gradientUnits="userSpaceOnUse">
<stop offset="0.377307" stop-color="white" stop-opacity="0.6"/>
<stop offset="0.992239" stop-color="white" stop-opacity="0"/>
</linearGradient>
<linearGradient id="paint3_linear-222708" x1="153.625" y1="114.114" x2="166.983" y2="147.892" gradientUnits="userSpaceOnUse">
<stop offset="0.634963" stop-color="white" stop-opacity="0.81"/>
<stop offset="1" stop-color="white" stop-opacity="0"/>
</linearGradient>
<linearGradient id="paint4_linear-478471" x1="148.551" y1="140.975" x2="148.551" y2="180.693" gradientUnits="userSpaceOnUse">
<stop stop-color="white" stop-opacity="0.81"/>
<stop offset="0.646422" stop-color="white"/>
</linearGradient>
<linearGradient id="paint5_linear-874206" x1="128.616" y1="145.245" x2="146.131" y2="157.601" gradientUnits="userSpaceOnUse">
<stop stop-color="white" stop-opacity="0.6"/>
<stop offset="1" stop-color="white" stop-opacity="0"/>
</linearGradient>
<linearGradient id="paint6_linear-771820" x1="190.155" y1="174.154" x2="151.317" y2="167.691" gradientUnits="userSpaceOnUse">
<stop offset="0.60731" stop-color="white" stop-opacity="0.81"/>
<stop offset="1" stop-color="white" stop-opacity="0"/>
</linearGradient>
<linearGradient id="paint7_linear-054681" x1="167.935" y1="152.966" x2="117.519" y2="134.272" gradientUnits="userSpaceOnUse">
<stop stop-color="white" stop-opacity="0.81"/>
<stop offset="0.478389" stop-color="white"/>
</linearGradient>
<linearGradient id="paint8_linear-370546" x1="174.065" y1="137.163" x2="153.061" y2="146.923" gradientUnits="userSpaceOnUse">
<stop stop-color="white" stop-opacity="0.6"/>
<stop offset="1" stop-color="white" stop-opacity="0"/>
</linearGradient>
<linearGradient id="paint9_linear-019826" x1="117.549" y1="174.435" x2="143.842" y2="147.015" gradientUnits="userSpaceOnUse">
<stop offset="0.54518" stop-color="white" stop-opacity="0.81"/>
<stop offset="1" stop-color="white" stop-opacity="0"/>
</linearGradient>
<linearGradient id="paint10_linear-002050" x1="189.29" y1="133.181" x2="146.836" y2="168.492" gradientUnits="userSpaceOnUse">
<stop offset="0.518582" stop-color="white"/>
<stop offset="1" stop-color="white" stop-opacity="0.81"/>
</linearGradient>
</defs>
</svg>