<svg width="306" height="307" viewBox="0 0 306 307" fill="none" xmlns="http://www.w3.org/2000/svg">
<g filter="url(#filter0_di-039173)">
<ellipse rx="62.7692" ry="62.5385" transform="matrix(-4.39459e-08 1 1 4.35501e-08 152.999 145.5)" fill="url(#paint0_radial-546402)"/>
<ellipse rx="62.7692" ry="62.5385" transform="matrix(-4.39459e-08 1 1 4.35501e-08 152.999 145.5)" fill="url(#paint1_radial-966840)"/>
</g>
<g style="mix-blend-mode:overlay" opacity="0.9">
<path fill-rule="evenodd" clip-rule="evenodd" d="M129.254 131.765V159.235L153 172.971L176.746 159.235V131.765L153 118.029L129.254 131.765ZM153 116L127.5 130.75V160.25L153 175L178.5 160.25V130.75L153 116Z" fill="#E6E6E6"/>
<path d="M163.067 163.476H159.439L155.095 159.481V157.433L159.592 153.131V146.319L165.469 142.478L172.163 147.548L163.067 163.476ZM148.043 152.721L148.707 146.319L146.51 140.583H159.49L157.343 146.319L157.957 152.721H148.043ZM151.007 159.481L146.663 163.527H142.984L133.836 147.548L140.582 142.529L146.51 146.319V153.131L151.007 157.433V159.481ZM142.932 128.752H163.016L165.417 138.995H140.582L142.932 128.752Z" fill="#E6E6E6"/>
</g>
<defs>
<filter id="filter0_di-039173" x="0.460934" y="0.601361" width="305.077" height="305.538" filterUnits="userSpaceOnUse" color-interpolation-filters="sRGB">
<feFlood flood-opacity="0" result="BackgroundImageFix"/>
<feColorMatrix in="SourceAlpha" type="matrix" values="0 0 0 0 0 0 0 0 0 0 0 0 0 0 0 0 0 0 127 0"/>
<feMorphology radius="40" operator="dilate" in="SourceAlpha" result="effect1_dropShadow"/>
<feOffset dy="7.87059"/>
<feGaussianBlur stdDeviation="25"/>
<feColorMatrix type="matrix" values="0 0 0 0 0.270588 0 0 0 0 0.392157 0 0 0 0 0.898039 0 0 0 0.3 0"/>
<feBlend mode="normal" in2="BackgroundImageFix" result="effect1_dropShadow"/>
<feBlend mode="normal" in="SourceGraphic" in2="effect1_dropShadow" result="shape"/>
<feColorMatrix in="SourceAlpha" type="matrix" values="0 0 0 0 0 0 0 0 0 0 0 0 0 0 0 0 0 0 127 0" result="hardAlpha"/>
<feOffset/>
<feGaussianBlur stdDeviation="13.3207"/>
<feComposite in2="hardAlpha" operator="arithmetic" k2="-1" k3="1"/>
<feColorMatrix type="matrix" values="0 0 0 0 1 0 0 0 0 1 0 0 0 0 1 0 0 0 1 0"/>
<feBlend mode="hard-light" in2="shape" result="effect2_innerShadow"/>
</filter>
<radialGradient id="paint0_radial-546402" cx="0" cy="0" r="1" gradientUnits="userSpaceOnUse" gradientTransform="translate(98.1328 82.2906) rotate(-161.354) scale(117.774 117.429)">
<stop offset="0.377782" stop-color="#4584FF"/>
<stop offset="0.766535" stop-color="#ACFAFF"/>
<stop offset="1" stop-color="#FFE9BF"/>
</radialGradient>
<radialGradient id="paint1_radial-966840" cx="0" cy="0" r="1" gradientUnits="userSpaceOnUse" gradientTransform="translate(18.2683 57.4079) rotate(3.54176) scale(102.462 102.088)">
<stop offset="0.244792" stop-color="#A431FF" stop-opacity="0"/>
<stop offset="0.904105" stop-color="#1F4ABA" stop-opacity="0.7"/>
</radialGradient>
</defs>
</svg>