<svg width="126" height="127" viewBox="0 0 126 127" fill="none" xmlns="http://www.w3.org/2000/svg">
<g filter="url(#filter0_i-195031)">
<ellipse rx="62.7692" ry="62.5385" transform="matrix(-4.39459e-08 1 1 4.35501e-08 62.9994 63.5)" fill="url(#paint0_radial-855201)"/>
<ellipse rx="62.7692" ry="62.5385" transform="matrix(-4.39459e-08 1 1 4.35501e-08 62.9994 63.5)" fill="url(#paint1_radial-700717)"/>
</g>
<g style="mix-blend-mode:overlay" opacity="0.9">
<path fill-rule="evenodd" clip-rule="evenodd" d="M39.2536 49.7649V77.2352L63 90.9708L86.7464 77.2352V49.7649L63 36.0292L39.2536 49.7649ZM63 34L37.5 48.75V78.25L63 93L88.5 78.25V48.75L63 34Z" fill="#E6E6E6"/>
<path d="M73.0668 81.4761H69.4385L65.0948 77.4813V75.4328L69.5918 71.1306V64.3189L75.4687 60.4778L82.1629 65.5481L73.0668 81.4761ZM58.0427 70.721L58.7071 64.3189L56.5097 58.5828H69.4896L67.3433 64.3189L67.9565 70.721H58.0427ZM61.0066 77.4813L56.6629 81.5273H52.9837L43.8363 65.5481L50.5817 60.5291L56.5097 64.3189V71.1306L61.0066 75.4328V77.4813ZM52.9325 46.7521H73.0157L75.4175 56.9953H50.5817L52.9325 46.7521Z" fill="#E6E6E6"/>
</g>
<defs>
<filter id="filter0_i-195031" x="0.460938" y="0.730774" width="125.077" height="125.538" filterUnits="userSpaceOnUse" color-interpolation-filters="sRGB">
<feFlood flood-opacity="0" result="BackgroundImageFix"/>
<feBlend mode="normal" in="SourceGraphic" in2="BackgroundImageFix" result="shape"/>
<feColorMatrix in="SourceAlpha" type="matrix" values="0 0 0 0 0 0 0 0 0 0 0 0 0 0 0 0 0 0 127 0" result="hardAlpha"/>
<feOffset/>
<feGaussianBlur stdDeviation="13.3207"/>
<feComposite in2="hardAlpha" operator="arithmetic" k2="-1" k3="1"/>
<feColorMatrix type="matrix" values="0 0 0 0 1 0 0 0 0 1 0 0 0 0 1 0 0 0 1 0"/>
<feBlend mode="hard-light" in2="shape" result="effect1_innerShadow"/>
</filter>
<radialGradient id="paint0_radial-855201" cx="0" cy="0" r="1" gradientUnits="userSpaceOnUse" gradientTransform="translate(98.1328 82.2906) rotate(-161.354) scale(117.774 117.429)">
<stop offset="0.377782" stop-color="#4584FF"/>
<stop offset="0.766535" stop-color="#ACFAFF"/>
<stop offset="1" stop-color="#FFE9BF"/>
</radialGradient>
<radialGradient id="paint1_radial-700717" cx="0" cy="0" r="1" gradientUnits="userSpaceOnUse" gradientTransform="translate(18.2683 57.4079) rotate(3.54176) scale(102.462 102.088)">
<stop offset="0.244792" stop-color="#A431FF" stop-opacity="0"/>
<stop offset="0.904105" stop-color="#1F4ABA" stop-opacity="0.7"/>
</radialGradient>
</defs>
</svg>