<svg width="92" height="91" viewBox="0 0 92 91" fill="none" xmlns="http://www.w3.org/2000/svg">
<path fill-rule="evenodd" clip-rule="evenodd" d="M22.2536 31.7649V59.2352L46 72.9708L69.7464 59.2352V31.7649L46 18.0292L22.2536 31.7649ZM46 16L20.5 30.75V60.25L46 75L71.5 60.25V30.75L46 16Z" fill="#E6E6E6"/>
<path d="M56.0668 63.4761H52.4385L48.0948 59.4813V57.4328L52.5918 53.1306V46.3189L58.4687 42.4778L65.1629 47.5481L56.0668 63.4761ZM41.0427 52.721L41.7071 46.3189L39.5097 40.5828H52.4896L50.3433 46.3189L50.9565 52.721H41.0427ZM44.0066 59.4813L39.6629 63.5273H35.9837L26.8363 47.5481L33.5817 42.5291L39.5097 46.3189V53.1306L44.0066 57.4328V59.4813ZM35.9325 28.7521H56.0157L58.4175 38.9953H33.5817L35.9325 28.7521Z" fill="#E6E6E6"/>
</svg>
