<svg width="215" height="80" viewBox="0 0 215 80" fill="none" xmlns="http://www.w3.org/2000/svg">
<g style="mix-blend-mode:luminosity">
<path fill-rule="evenodd" clip-rule="evenodd" d="M21 32.058L21 47.6884L34.5414 55.5038L48.0828 47.6884L48.0828 32.058L34.5414 24.2425L21 32.058ZM34.5414 23.0879L20 31.4805L20 48.2658L34.5414 56.6584L49.0828 48.2658L49.0828 31.4805L34.5414 23.0879Z" fill="white"/>
<path d="M40.282 50.1017L38.213 50.1017L35.736 47.8287V46.6631L38.3004 44.2152V40.3394L41.6517 38.1538L45.4691 41.0388L40.282 50.1017ZM31.7145 43.9821L32.0934 40.3394L30.8403 37.0756L38.2421 37.0756L37.0182 40.3394L37.3679 43.9821H34.5121L31.7145 43.9821ZM33.4047 47.8287L30.9277 50.1308H28.8296L23.6133 41.0388L27.4599 38.183L30.8403 40.3394V44.2152L33.4047 46.6631V47.8287ZM28.8004 30.344L40.2529 30.344L41.6225 36.1723L27.4599 36.1723L28.8004 30.344Z" fill="#E6E6E6"/>
<path d="M65.4038 47.6544C61.5572 47.6544 58.7305 44.6529 58.7305 40.952C58.7305 37.2511 61.5863 34.1621 65.4329 34.1621C67.8808 34.1621 69.3961 35.0655 70.5909 36.3768L68.755 38.3584C67.8516 37.3968 66.89 36.7557 65.4038 36.7557C63.2474 36.7557 61.6737 38.6207 61.6737 40.8937C61.6737 43.225 63.2765 45.09 65.5495 45.09C66.9483 45.09 67.9682 44.4198 68.9007 43.4873L70.6783 45.2649C69.3961 46.6345 67.9099 47.6544 65.4038 47.6544Z" fill="#E6E6E6"/>
<path d="M76.3005 47.6538H73.3281L73.3281 34.1906H76.3005V37.3379C77.1165 35.4146 78.6027 34.0741 80.8757 34.1906V37.3379H80.7008C78.1073 37.3379 76.3005 39.0281 76.3005 42.4667L76.3005 47.6538Z" fill="#E6E6E6"/>
<path d="M96.4069 34.1309L89.8501 51.2658H86.8486L88.2765 47.6523L82.6523 34.1309H85.8286L89.6461 44.1263L93.3179 34.1309H96.4069Z" fill="#E6E6E6"/>
<path d="M105.15 36.7244C103.139 36.7244 101.391 38.3563 101.391 40.8916C101.391 43.4269 103.168 45.0588 105.15 45.0588C107.19 45.0588 108.851 43.456 108.851 40.8916C108.851 38.3272 107.161 36.7244 105.15 36.7244ZM105.82 47.6232C103.693 47.6232 102.352 46.545 101.449 45.3502L101.449 51.2658H98.4766L98.4766 34.1309H101.449V36.5496C102.411 35.2091 103.751 34.1309 105.82 34.1309C108.88 34.1309 111.852 36.5496 111.852 40.8624C111.852 45.1753 108.909 47.6232 105.82 47.6232Z" fill="#E6E6E6"/>
<path d="M118.35 36.9577V43.3104C118.35 44.4469 118.933 44.9132 119.953 44.9132H121.119V47.565H119.079C116.922 47.565 115.378 46.6034 115.378 43.7767V36.9577H113.746V34.4224H115.378V30.8672L118.35 30.8672V34.4224L121.119 34.4224V36.9577L118.35 36.9577Z" fill="#E6E6E6"/>
<path d="M130.473 36.7265C128.083 36.7265 126.568 38.5916 126.568 40.8646C126.568 43.1667 128.2 45.0609 130.502 45.0609C132.892 45.0609 134.407 43.1959 134.407 40.9228C134.465 38.6207 132.804 36.7265 130.473 36.7265ZM130.473 47.6544C126.539 47.6544 123.625 44.6529 123.625 40.952C123.625 37.2219 126.568 34.1621 130.531 34.1621C134.494 34.1621 137.409 37.1636 137.409 40.8937C137.409 44.5655 134.494 47.6544 130.473 47.6544Z" fill="#E6E6E6"/>
<path d="M165.762 36.7265C163.372 36.7265 161.857 38.5916 161.857 40.8646C161.857 43.1667 163.489 45.0609 165.791 45.0609C168.181 45.0609 169.696 43.1959 169.696 40.9228C169.725 38.6207 168.093 36.7265 165.762 36.7265ZM165.762 47.6544C161.828 47.6544 158.914 44.6529 158.914 40.952C158.914 37.2219 161.857 34.1621 165.82 34.1621C169.784 34.1621 172.698 37.1636 172.698 40.8937C172.698 44.5655 169.754 47.6544 165.762 47.6544Z" fill="#E6E6E6"/>
<path d="M190.302 34.1309C193.128 34.1309 194.848 35.9085 194.848 39.0848V47.6232L191.875 47.6232V39.9882C191.875 37.9192 190.914 36.841 189.253 36.841C187.65 36.841 186.484 37.9775 186.484 40.0465V47.6523H183.512V39.9882C183.512 37.9775 182.521 36.841 180.889 36.841C179.257 36.841 178.121 38.0649 178.121 40.0756V47.6523H175.148V34.16H178.121V36.3747C178.966 35.2382 180.073 34.16 182.055 34.16C183.92 34.16 185.202 35.0634 185.901 36.433C186.98 35.0342 188.349 34.1309 190.302 34.1309Z" fill="#E6E6E6"/>
<path d="M142.857 44.9133V46.4286L142.77 46.5743L141.458 47.3029H141.284L140.001 46.5743L139.914 46.4286V44.9133L140.001 44.7676L141.284 44.0391H141.458L142.77 44.7676L142.857 44.9133Z" fill="#E6E6E6"/>
<path d="M151.863 47.625C148.017 47.5376 145.248 44.4778 145.306 40.7769C145.365 37.076 148.279 34.0453 152.155 34.1327C154.602 34.191 156.118 35.1235 157.283 36.464L155.418 38.4164C154.544 37.4548 153.582 36.7554 152.096 36.7263C149.94 36.6971 148.337 38.5039 148.308 40.806C148.25 43.1373 149.823 45.0315 152.096 45.0606C153.495 45.0898 154.544 44.4487 155.477 43.5161L157.225 45.3229C155.914 46.6925 154.398 47.6833 151.863 47.625Z" fill="#E6E6E6"/>
</g>
</svg>
