<svg width="91" height="91" viewBox="0 0 91 91" fill="none" xmlns="http://www.w3.org/2000/svg">
<path d="M57.9101 41.7744C57.0407 36.1252 52.2514 31.952 46.2758 31.952C40.1729 31.952 35.1941 36.0679 33.9505 41.7744H28.6326V46.0287H33.7276C34.4202 52.6157 39.7892 57.4528 46.3777 57.4528C51.4378 57.4528 55.5472 55.4482 57.3512 52.1412L52.893 49.2864C51.7403 51.1891 49.231 52.3912 46.478 52.3912C42.5198 52.3912 39.8146 49.987 39.2128 46.0224H61.8619L63.2695 41.7744H57.9101ZM45.9685 36.5631C49.3265 36.5631 51.8804 38.7173 52.1781 41.7744H39.4102C40.2621 38.5661 42.6169 36.5631 45.9749 36.5631H45.9685Z" fill="white"/>
<path d="M46 79C27.2518 79 12 63.7482 12 45H17.8577C17.8577 60.5192 30.4823 73.1438 46 73.1438V79Z" fill="white"/>
<path d="M80 45H74.1438C74.1438 29.4823 61.5192 16.8561 46 16.8561V11C64.7482 11 80 26.2518 80 45Z" fill="white"/>
</svg>
