<svg width="173" height="46" viewBox="0 0 173 46" fill="none" xmlns="http://www.w3.org/2000/svg">
<path d="M9.96817 12.1542H14.8725V15.7459C13.6392 16.6366 12.0331 17.1538 10.5418 17.1538C6.8707 17.1538 3.77324 13.9931 3.77324 10.2003C3.77324 6.43626 6.8707 3.2756 10.5418 3.2756C12.4633 3.2756 14.5857 4.1376 15.8189 5.57426L18.3715 3.1894C16.4786 1.2068 13.4098 0 10.5418 0C4.89177 0 0.130859 4.6548 0.130859 10.2003C0.130859 15.7459 4.89177 20.4294 10.5418 20.4294C13.4098 20.4294 16.4786 19.1939 18.3715 17.2113V9.22339H9.96817V12.1542Z" fill="url(#paint0_linear)"/>
<path d="M46.196 20.0846L41.263 13.0737C44.1023 12.1829 46.0239 9.88426 46.0239 6.896C46.0239 3.04573 42.8691 0.344801 38.6531 0.344801H30.0777V20.0846H33.6627V13.4472H37.4772L42.1234 20.0846H46.196ZM33.6627 3.64913H38.2515C40.6894 3.64913 42.3815 4.88466 42.3815 6.896C42.3815 8.90733 40.6894 10.1429 38.2515 10.1429H33.6627V3.64913Z" fill="url(#paint1_linear)"/>
<path d="M99.1105 0.344801L92.8582 15.3149L86.6059 0.344801H82.648L90.8792 20.0846H94.8658L103.097 0.344801H99.1105Z" fill="url(#paint2_linear)"/>
<path d="M113.649 20.0846H117.206V0.344801H113.649V20.0846Z" fill="url(#paint3_linear)"/>
<path d="M134.515 20.0846H138.071V3.6204H144.381V0.344801H128.205V3.6204H134.515V20.0846Z" fill="url(#paint4_linear)"/>
<path d="M161.324 20.0846H164.966V12.6714L172.738 0.344801H168.666L163.159 9.28086L157.739 0.344801H153.523L161.324 12.6714V20.0846Z" fill="url(#paint5_linear)"/>
<path d="M72.15 20.0846H76.1078L67.8766 0.344801H63.8901L55.6589 20.0846H59.6454L61.1368 16.5217L62.4274 13.4185L65.8977 5.11453L69.368 13.4185L70.6586 16.5217L72.15 20.0846Z" fill="url(#paint6_linear)"/>
<path d="M0 45.6791H3.83405C7.43045 45.6791 9.96537 43.4136 9.96537 40.2291C9.96537 37.0446 7.43045 34.7949 3.83405 34.7949H0V45.6791ZM1.9804 43.8889V36.5851H4.04002C6.33728 36.5851 7.95328 38.0902 7.95328 40.2291C7.95328 42.3679 6.33728 43.8889 4.04002 43.8889H1.9804Z" fill="url(#paint7_linear)"/>
<path d="M24.4578 36.601V34.7949H16.2669V45.6791H24.4578V43.873H18.2473V41.0371H23.8716V39.231H18.2473V36.601H24.4578Z" fill="url(#paint8_linear)"/>
<path d="M40.3916 34.7949H38.0785L35.195 38.6606L32.3274 34.7949H29.9668L34.0068 40.2449L29.9668 45.6791H32.2957L35.1792 41.8134L38.0468 45.6791H40.3916L36.3516 40.2291L40.3916 34.7949Z" fill="url(#paint9_linear)"/>
<path d="M55.1136 45.6791H57.094V42.0194H59.8508C62.1797 42.0194 63.9225 40.5301 63.9225 38.4071C63.9225 36.2841 62.1797 34.7949 59.8508 34.7949H55.1136V45.6791ZM57.094 40.1974V36.6168H59.629C60.9756 36.6168 61.9104 37.2981 61.9104 38.4071C61.9104 39.5161 60.9756 40.1974 59.629 40.1974H57.094Z" fill="url(#paint10_linear)"/>
<path d="M78.7406 45.6791L76.0155 41.8134C77.584 41.3223 78.6455 40.0548 78.6455 38.4071C78.6455 36.2841 76.9028 34.7949 74.5738 34.7949H69.8367V45.6791H71.8171V42.0194H73.9242L76.4908 45.6791H78.7406ZM71.8171 36.6168H74.352C75.6987 36.6168 76.6334 37.2981 76.6334 38.4071C76.6334 39.5161 75.6987 40.1974 74.352 40.1974H71.8171V36.6168Z" fill="url(#paint11_linear)"/>
<path d="M90.0993 45.8693C93.1887 45.8693 95.8028 43.2868 95.8028 40.2291C95.8028 37.1713 93.1887 34.6047 90.0993 34.6047C86.994 34.6047 84.3799 37.1713 84.3799 40.2291C84.3799 43.2868 86.994 45.8693 90.0993 45.8693ZM90.0993 44.0631C88.0872 44.0631 86.392 42.3204 86.392 40.2291C86.392 38.1536 88.0872 36.4109 90.0993 36.4109C92.0955 36.4109 93.7749 38.1536 93.7749 40.2291C93.7749 42.3204 92.0955 44.0631 90.0993 44.0631Z" fill="url(#paint12_linear)"/>
<path d="M104.906 45.6791H106.87V36.601H110.356V34.7949H101.42V36.601H104.906V45.6791Z" fill="url(#paint13_linear)"/>
<path d="M121.123 45.8693C124.213 45.8693 126.827 43.2868 126.827 40.2291C126.827 37.1713 124.213 34.6047 121.123 34.6047C118.018 34.6047 115.404 37.1713 115.404 40.2291C115.404 43.2868 118.018 45.8693 121.123 45.8693ZM121.123 44.0631C119.111 44.0631 117.416 42.3204 117.416 40.2291C117.416 38.1536 119.111 36.4109 121.123 36.4109C123.12 36.4109 124.799 38.1536 124.799 40.2291C124.799 42.3204 123.12 44.0631 121.123 44.0631Z" fill="url(#paint14_linear)"/>
<path d="M138.307 45.8693C139.907 45.8693 141.364 45.188 142.41 44.0948L141.016 42.7957C140.334 43.572 139.368 44.0631 138.307 44.0631C136.294 44.0631 134.599 42.3204 134.599 40.2291C134.599 38.1536 136.294 36.4109 138.307 36.4109C139.352 36.4109 140.334 36.902 141 37.6783L142.41 36.3633C141.364 35.286 139.907 34.6047 138.307 34.6047C135.201 34.6047 132.587 37.1713 132.587 40.2291C132.587 43.2868 135.201 45.8693 138.307 45.8693Z" fill="url(#paint15_linear)"/>
<path d="M153.37 45.8693C156.459 45.8693 159.073 43.2868 159.073 40.2291C159.073 37.1713 156.459 34.6047 153.37 34.6047C150.265 34.6047 147.651 37.1713 147.651 40.2291C147.651 43.2868 150.265 45.8693 153.37 45.8693ZM153.37 44.0631C151.358 44.0631 149.663 42.3204 149.663 40.2291C149.663 38.1536 151.358 36.4109 153.37 36.4109C155.366 36.4109 157.046 38.1536 157.046 40.2291C157.046 42.3204 155.366 44.0631 153.37 44.0631Z" fill="url(#paint16_linear)"/>
<path d="M167.115 43.873V34.7949H165.15V45.6791H172.708V43.873H167.115Z" fill="url(#paint17_linear)"/>
<defs>
<linearGradient id="paint0_linear" x1="173" y1="3.34671e-06" x2="-9" y2="56" gradientUnits="userSpaceOnUse">
<stop offset="0.160232" stop-color="white"/>
<stop offset="1" stop-color="white" stop-opacity="0.41"/>
</linearGradient>
<linearGradient id="paint1_linear" x1="173" y1="3.34671e-06" x2="-9" y2="56" gradientUnits="userSpaceOnUse">
<stop offset="0.160232" stop-color="white"/>
<stop offset="1" stop-color="white" stop-opacity="0.41"/>
</linearGradient>
<linearGradient id="paint2_linear" x1="173" y1="3.34671e-06" x2="-9" y2="56" gradientUnits="userSpaceOnUse">
<stop offset="0.160232" stop-color="white"/>
<stop offset="1" stop-color="white" stop-opacity="0.41"/>
</linearGradient>
<linearGradient id="paint3_linear" x1="173" y1="3.34671e-06" x2="-9" y2="56" gradientUnits="userSpaceOnUse">
<stop offset="0.160232" stop-color="white"/>
<stop offset="1" stop-color="white" stop-opacity="0.41"/>
</linearGradient>
<linearGradient id="paint4_linear" x1="173" y1="3.34671e-06" x2="-9" y2="56" gradientUnits="userSpaceOnUse">
<stop offset="0.160232" stop-color="white"/>
<stop offset="1" stop-color="white" stop-opacity="0.41"/>
</linearGradient>
<linearGradient id="paint5_linear" x1="173" y1="3.34671e-06" x2="-9" y2="56" gradientUnits="userSpaceOnUse">
<stop offset="0.160232" stop-color="white"/>
<stop offset="1" stop-color="white" stop-opacity="0.41"/>
</linearGradient>
<linearGradient id="paint6_linear" x1="173" y1="3.34671e-06" x2="-9" y2="56" gradientUnits="userSpaceOnUse">
<stop offset="0.160232" stop-color="white"/>
<stop offset="1" stop-color="white" stop-opacity="0.41"/>
</linearGradient>
<linearGradient id="paint7_linear" x1="173" y1="3.34671e-06" x2="-9" y2="56" gradientUnits="userSpaceOnUse">
<stop offset="0.160232" stop-color="white"/>
<stop offset="1" stop-color="white" stop-opacity="0.41"/>
</linearGradient>
<linearGradient id="paint8_linear" x1="173" y1="3.34671e-06" x2="-9" y2="56" gradientUnits="userSpaceOnUse">
<stop offset="0.160232" stop-color="white"/>
<stop offset="1" stop-color="white" stop-opacity="0.41"/>
</linearGradient>
<linearGradient id="paint9_linear" x1="173" y1="3.34671e-06" x2="-9" y2="56" gradientUnits="userSpaceOnUse">
<stop offset="0.160232" stop-color="white"/>
<stop offset="1" stop-color="white" stop-opacity="0.41"/>
</linearGradient>
<linearGradient id="paint10_linear" x1="173" y1="3.34671e-06" x2="-9" y2="56" gradientUnits="userSpaceOnUse">
<stop offset="0.160232" stop-color="white"/>
<stop offset="1" stop-color="white" stop-opacity="0.41"/>
</linearGradient>
<linearGradient id="paint11_linear" x1="173" y1="3.34671e-06" x2="-9" y2="56" gradientUnits="userSpaceOnUse">
<stop offset="0.160232" stop-color="white"/>
<stop offset="1" stop-color="white" stop-opacity="0.41"/>
</linearGradient>
<linearGradient id="paint12_linear" x1="173" y1="3.34671e-06" x2="-9" y2="56" gradientUnits="userSpaceOnUse">
<stop offset="0.160232" stop-color="white"/>
<stop offset="1" stop-color="white" stop-opacity="0.41"/>
</linearGradient>
<linearGradient id="paint13_linear" x1="173" y1="3.34671e-06" x2="-9" y2="56" gradientUnits="userSpaceOnUse">
<stop offset="0.160232" stop-color="white"/>
<stop offset="1" stop-color="white" stop-opacity="0.41"/>
</linearGradient>
<linearGradient id="paint14_linear" x1="173" y1="3.34671e-06" x2="-9" y2="56" gradientUnits="userSpaceOnUse">
<stop offset="0.160232" stop-color="white"/>
<stop offset="1" stop-color="white" stop-opacity="0.41"/>
</linearGradient>
<linearGradient id="paint15_linear" x1="173" y1="3.34671e-06" x2="-9" y2="56" gradientUnits="userSpaceOnUse">
<stop offset="0.160232" stop-color="white"/>
<stop offset="1" stop-color="white" stop-opacity="0.41"/>
</linearGradient>
<linearGradient id="paint16_linear" x1="173" y1="3.34671e-06" x2="-9" y2="56" gradientUnits="userSpaceOnUse">
<stop offset="0.160232" stop-color="white"/>
<stop offset="1" stop-color="white" stop-opacity="0.41"/>
</linearGradient>
<linearGradient id="paint17_linear" x1="173" y1="3.34671e-06" x2="-9" y2="56" gradientUnits="userSpaceOnUse">
<stop offset="0.160232" stop-color="white"/>
<stop offset="1" stop-color="white" stop-opacity="0.41"/>
</linearGradient>
</defs>
</svg>
