<svg width="91" height="91" viewBox="0 0 91 91" fill="none" xmlns="http://www.w3.org/2000/svg">
<path d="M45.486 81C64.9025 81 80.6423 65.2598 80.6423 45.8433C80.6423 26.4268 64.9025 10.6865 45.486 10.6865C26.0695 10.6865 10.3293 26.4268 10.3293 45.8433C10.3293 65.2598 26.0695 81 45.486 81Z" fill="url(#paint0_radial_2700_11730)"/>
<path d="M10.3293 45.843C10.3293 65.2594 26.0698 81 45.486 81C64.9022 81 80.6423 65.2594 80.6423 45.843H10.3293Z" fill="url(#paint1_radial_2700_11730)"/>
<path d="M82.1594 43.6239H8.81739C7.49624 43.6239 5.88916 45.1194 5.88916 46.4407V47.0048C5.88916 48.326 6.96021 49.3969 8.28136 49.3969H82.6914C84.0127 49.3969 85.0836 48.326 85.0836 47.0048V46.4582C85.0836 45.1371 83.4807 43.6239 82.1594 43.6239Z" fill="#455399"/>
<path d="M5.89429 46.4362H85.0791C85.0791 44.7191 84.1794 43.6239 82.1962 43.6239H8.77547C6.97259 43.6239 5.89429 44.4556 5.89429 46.4362Z" fill="white"/>
<path opacity="0.4" d="M45.4865 68.4487C56.4408 68.4487 65.3211 59.5684 65.3211 48.614C65.3211 37.6597 56.4408 28.7794 45.4865 28.7794C34.5321 28.7794 25.6519 37.6597 25.6519 48.614C25.6519 59.5684 34.5321 68.4487 45.4865 68.4487Z" fill="#3C40D1"/>
<path d="M45.4858 65.0356C56.0857 65.0356 64.6785 56.4427 64.6785 45.8429C64.6785 35.2429 56.0857 26.65 45.4858 26.65C34.8858 26.65 26.293 35.2429 26.293 45.8429C26.293 56.4427 34.8858 65.0356 45.4858 65.0356Z" fill="#50CCC9"/>
<path d="M26.293 45.843C26.293 56.4425 34.8863 65.0358 45.4858 65.0358C56.0852 65.0358 64.6785 56.4425 64.6785 45.843C64.6785 45.6956 64.6785 45.549 64.6732 45.4023H26.2983C26.2957 45.549 26.293 45.6956 26.293 45.843Z" fill="#47B3B7"/>
<path d="M45.4859 62.0438C54.4334 62.0438 61.6867 54.7904 61.6867 45.843C61.6867 36.8955 54.4334 29.6422 45.4859 29.6422C36.5385 29.6422 29.2852 36.8955 29.2852 45.843C29.2852 54.7904 36.5385 62.0438 45.4859 62.0438Z" fill="#4A6899"/>
<path d="M45.4859 57.9341C52.1637 57.9341 57.5773 52.5205 57.5773 45.8427C57.5773 39.1649 52.1637 33.7513 45.4859 33.7513C38.8081 33.7513 33.3945 39.1649 33.3945 45.8427C33.3945 52.5205 38.8081 57.9341 45.4859 57.9341Z" fill="url(#paint2_linear_2700_11730)"/>
<g opacity="0.4">
<path opacity="0.4" d="M45.4865 53.6393C49.7921 53.6393 53.2825 50.1489 53.2825 45.8433C53.2825 41.5378 49.7921 38.0474 45.4865 38.0474C41.1807 38.0474 37.6904 41.5378 37.6904 45.8433C37.6904 50.1489 41.1807 53.6393 45.4865 53.6393Z" fill="url(#paint3_linear_2700_11730)"/>
</g>
<g style="mix-blend-mode:screen">
<path style="mix-blend-mode:screen" d="M50.4386 43.0826C52.0486 43.0826 53.3537 41.7774 53.3537 40.1675C53.3537 38.5575 52.0486 37.2523 50.4386 37.2523C48.8286 37.2523 47.5234 38.5575 47.5234 40.1675C47.5234 41.7774 48.8286 43.0826 50.4386 43.0826Z" fill="url(#paint4_linear_2700_11730)"/>
</g>
<g style="mix-blend-mode:screen" opacity="0.6">
<path style="mix-blend-mode:screen" opacity="0.6" d="M39.358 53.9298C40.2076 53.9298 40.8965 53.2409 40.8965 52.3913C40.8965 51.5415 40.2076 50.8528 39.358 50.8528C38.5084 50.8528 37.8196 51.5415 37.8196 52.3913C37.8196 53.2409 38.5084 53.9298 39.358 53.9298Z" fill="url(#paint5_linear_2700_11730)"/>
</g>
<path d="M17.9526 52.7138C21.3791 52.7138 24.1566 49.9363 24.1566 46.5099C24.1566 43.0836 21.3791 40.306 17.9526 40.306C14.5264 40.306 11.7488 43.0836 11.7488 46.5099C11.7488 49.9363 14.5264 52.7138 17.9526 52.7138Z" fill="white"/>
<path d="M17.9529 51.0402C16.453 51.0401 15.0042 50.4968 13.8742 49.5107C12.7443 48.5246 12.01 47.1624 11.807 45.6765C11.7694 45.9539 11.7503 46.2334 11.7498 46.5132C11.7694 48.1456 12.4316 49.7045 13.5929 50.8519C14.7541 51.9993 16.3208 52.6426 17.9533 52.6426C19.5857 52.6426 21.1524 51.9993 22.3136 50.8519C23.475 49.7045 24.1371 48.1456 24.1567 46.5132C24.156 46.2334 24.1365 45.9539 24.0985 45.6765C23.8957 47.1624 23.1613 48.5246 22.0313 49.5107C20.9014 50.4968 19.4525 51.0401 17.9529 51.0402Z" fill="#E3E0E9"/>
<path d="M73.1671 52.7138C76.5936 52.7138 79.3711 49.9363 79.3711 46.5099C79.3711 43.0836 76.5936 40.306 73.1671 40.306C69.7408 40.306 66.9631 43.0836 66.9631 46.5099C66.9631 49.9363 69.7408 52.7138 73.1671 52.7138Z" fill="white"/>
<path d="M73.1669 51.0402C71.6673 51.0399 70.2184 50.4965 69.0886 49.5104C67.9587 48.5243 67.2243 47.1623 67.0211 45.6765C66.9835 45.9539 66.9644 46.2334 66.9639 46.5132C66.9616 47.3647 67.1346 48.2075 67.4722 48.9892C67.8096 49.7709 68.3044 50.4747 68.9258 51.0569C69.5471 51.6391 70.2816 52.0871 71.0835 52.3732C71.8855 52.6593 72.7377 52.7772 73.5873 52.7197C74.4367 52.6621 75.2653 52.4303 76.0209 52.0387C76.7772 51.647 77.4451 51.104 77.9813 50.4433C78.5185 49.7826 78.9139 49.0185 79.1433 48.1984C79.3718 47.3783 79.43 46.5199 79.3128 45.6765C79.1096 47.1624 78.3751 48.5246 77.2452 49.5107C76.1153 50.4968 74.6667 51.0401 73.1669 51.0402Z" fill="#E3E0E9"/>
<path d="M25.2713 36.4804C24.4122 36.365 22.805 35.809 21.6956 33.3758C21.363 32.6489 20.9464 32.5139 20.6621 32.4764C19.9586 32.3826 18.986 32.792 18.0456 33.1916C16.9729 33.643 15.9654 34.0685 15.0465 33.946C14.7927 33.9163 14.5476 33.8357 14.3258 33.7089C14.104 33.5823 13.9101 33.412 13.7556 33.2086C13.205 32.5006 13.2192 31.6532 13.8003 30.8235C14.426 29.9296 15.6678 29.1 17.2107 28.5449C18.8493 27.9549 20.622 27.7465 22.2033 27.9584C25.5108 28.401 27.6626 30.5634 28.257 34.048C28.3128 34.3821 28.2799 34.7248 28.1617 35.0423C28.0434 35.3596 27.8438 35.6404 27.583 35.8564C26.9931 36.3722 26.1527 36.6001 25.2749 36.4822L25.2713 36.4804Z" fill="#3781E7"/>
<path d="M22.1733 32.4027C20.5838 28.9262 15.9425 34.4131 14.1842 32.1497C13.1909 30.8715 14.6516 29.2552 16.9464 28.2934C20.716 26.7138 26.735 26.9015 27.8202 33.2627C27.8318 33.3319 27.8388 33.4017 27.8408 33.4719C27.9149 35.4662 24.0961 36.6059 22.1733 32.4027Z" fill="#7C9BD1"/>
<path d="M65.6987 36.4804C66.5578 36.365 68.1651 35.809 69.2745 33.3758C69.607 32.6489 70.0236 32.5139 70.3078 32.4764C71.0114 32.3826 71.984 32.792 72.9244 33.1916C73.9972 33.643 75.0046 34.0685 75.9236 33.946C76.1775 33.9163 76.422 33.8355 76.6438 33.7088C76.8655 33.5822 77.0603 33.4119 77.2146 33.2086C77.7652 32.5006 77.7509 31.6532 77.1699 30.8235C76.5442 29.9296 75.3023 29.1 73.7594 28.5449C72.1208 27.9549 70.3481 27.7465 68.7667 27.9584C65.4591 28.401 63.3066 30.5634 62.7129 34.048C62.6572 34.3821 62.6901 34.7248 62.8084 35.0423C62.9267 35.3596 63.1262 35.6404 63.3871 35.8564C63.9771 36.3722 64.8173 36.6001 65.6952 36.4822L65.6987 36.4804Z" fill="#3781E7"/>
<path d="M68.7978 32.4025C70.3882 28.9259 75.0295 34.4129 76.7878 32.1495C77.7811 30.8711 76.3207 29.2548 74.0255 28.293C70.2576 26.7125 64.237 26.9012 63.1518 33.2625C63.1402 33.3315 63.1332 33.4014 63.1312 33.4716C63.0562 35.4659 66.8759 36.6057 68.7978 32.4025Z" fill="#7C9BD1"/>
<g style="mix-blend-mode:screen">
<path style="mix-blend-mode:screen" d="M53.0139 16.4039C54.0265 16.4039 54.8474 15.6896 54.8474 14.8082C54.8474 13.927 54.0265 13.2125 53.0139 13.2125C52.0014 13.2125 51.1804 13.927 51.1804 14.8082C51.1804 15.6896 52.0014 16.4039 53.0139 16.4039Z" fill="url(#paint6_linear_2700_11730)"/>
</g>
<path d="M66.8976 23.9795C66.1495 24.1583 65.3441 23.8374 65.0312 23.1991C62.8383 18.7214 57.0277 17.3384 56.9714 17.3268C56.1338 17.1338 55.6305 16.3863 55.8504 15.657C56.0704 14.9275 56.9232 14.4895 57.7625 14.6781C58.0611 14.7451 65.108 16.3901 67.9222 22.1264C68.2628 22.821 67.8917 23.6246 67.0934 23.9214C67.0294 23.9447 66.9641 23.9641 66.8976 23.9795Z" fill="url(#paint7_linear_2700_11730)"/>
<defs>
<radialGradient id="paint0_radial_2700_11730" cx="0" cy="0" r="1" gradientUnits="userSpaceOnUse" gradientTransform="translate(45.486 45.8433) scale(35.1567)">
<stop stop-color="#56C1FC"/>
<stop offset="1" stop-color="#3A8CFC"/>
</radialGradient>
<radialGradient id="paint1_radial_2700_11730" cx="0" cy="0" r="1" gradientUnits="userSpaceOnUse" gradientTransform="translate(45.486 63.4214) scale(27.7933)">
<stop stop-color="#5577E5"/>
<stop offset="1" stop-color="#3F3EE5"/>
</radialGradient>
<linearGradient id="paint2_linear_2700_11730" x1="52.2655" y1="35.9727" x2="38.5713" y2="55.9085" gradientUnits="userSpaceOnUse">
<stop stop-color="#30A4E4"/>
<stop offset="1" stop-color="#9DD0E4"/>
</linearGradient>
<linearGradient id="paint3_linear_2700_11730" x1="41.1151" y1="52.2064" x2="49.9444" y2="39.3533" gradientUnits="userSpaceOnUse">
<stop stop-color="#87D0E5"/>
<stop offset="0.3" stop-color="#6ECAE1"/>
<stop offset="0.95" stop-color="#2DBBD6"/>
<stop offset="1" stop-color="#28BAD5"/>
</linearGradient>
<linearGradient id="paint4_linear_2700_11730" x1="47.2662" y1="39.8204" x2="52.3449" y2="36.5917" gradientUnits="userSpaceOnUse">
<stop stop-color="white" stop-opacity="0"/>
<stop offset="0.22" stop-color="white" stop-opacity="0.24"/>
<stop offset="0.6" stop-color="white" stop-opacity="0.64"/>
<stop offset="0.87" stop-color="white" stop-opacity="0.9"/>
<stop offset="1" stop-color="white"/>
</linearGradient>
<linearGradient id="paint5_linear_2700_11730" x1="1068.65" y1="4124.1" x2="1044.62" y2="4230.94" gradientUnits="userSpaceOnUse">
<stop stop-color="white" stop-opacity="0"/>
<stop offset="0.22" stop-color="white" stop-opacity="0.24"/>
<stop offset="0.6" stop-color="white" stop-opacity="0.64"/>
<stop offset="0.87" stop-color="white" stop-opacity="0.9"/>
<stop offset="1" stop-color="white"/>
</linearGradient>
<linearGradient id="paint6_linear_2700_11730" x1="2716.78" y1="441.618" x2="2042.54" y2="146.106" gradientUnits="userSpaceOnUse">
<stop stop-color="white" stop-opacity="0"/>
<stop offset="0.22" stop-color="white" stop-opacity="0.24"/>
<stop offset="0.6" stop-color="white" stop-opacity="0.64"/>
<stop offset="0.87" stop-color="white" stop-opacity="0.9"/>
<stop offset="1" stop-color="white"/>
</linearGradient>
<linearGradient id="paint7_linear_2700_11730" x1="8915.44" y1="1374.83" x2="6763.07" y2="304.189" gradientUnits="userSpaceOnUse">
<stop stop-color="white" stop-opacity="0"/>
<stop offset="0.22" stop-color="white" stop-opacity="0.24"/>
<stop offset="0.6" stop-color="white" stop-opacity="0.64"/>
<stop offset="0.87" stop-color="white" stop-opacity="0.9"/>
<stop offset="1" stop-color="white"/>
</linearGradient>
</defs>
</svg>
