<svg width="272" height="271" viewBox="0 0 272 271" fill="none" xmlns="http://www.w3.org/2000/svg">
<g filter="url(#filter0_i-618071)">
<path d="M135.997 198.269C170.536 198.269 198.536 170.167 198.536 135.5C198.536 100.834 170.536 72.7308 135.997 72.7308C101.458 72.7308 73.459 100.834 73.459 135.5C73.459 170.167 101.458 198.269 135.997 198.269Z" fill="url(#paint0_radial-671473)"/>
<path d="M135.997 198.269C170.536 198.269 198.536 170.167 198.536 135.5C198.536 100.834 170.536 72.7308 135.997 72.7308C101.458 72.7308 73.459 100.834 73.459 135.5C73.459 170.167 101.458 198.269 135.997 198.269Z" fill="url(#paint1_radial-416261)"/>
</g>
<g style="mix-blend-mode:overlay" opacity="0.9">
<path d="M124.406 148.753L110.875 150.272L118.814 131.934L110.678 120.836L130.461 118.577L135.836 106.227L147.611 122.237L161.142 120.718L153.233 138.967L161.31 149.986L141.635 152.225L136.181 164.763L124.406 148.753ZM130.027 147.54C129.505 147.796 128.952 148.003 128.38 148.161L127.867 148.309L135.501 158.687L138.213 152.452L137.72 152.393C135.057 152.058 132.631 150.617 131.063 148.457L130.303 147.411L130.027 147.54ZM127.374 138.139L133.528 146.652C134.781 148.378 136.803 149.414 138.933 149.414C139.179 149.414 139.426 149.404 139.672 149.374L155.728 147.549L149.337 138.81C149.022 138.375 148.657 137.991 148.243 137.646L147.868 137.33L143.292 147.668L135.333 137.133L127.374 138.139ZM127.65 127.761C125.264 128.008 123.193 129.537 122.236 131.747L115.786 146.632L126.497 145.429C127.029 145.369 127.552 145.241 128.045 145.064L128.499 144.896L121.871 135.742L134.939 134.084L138.045 126.656L127.65 127.761ZM137.759 135.278L142.601 141.7L145.56 135.022L146.862 132.082C147.838 129.882 147.552 127.317 146.132 125.374L136.526 112.313L132.207 122.237C131.99 122.73 131.842 123.243 131.743 123.766L131.664 124.249L142.868 123.066L137.759 135.278ZM149.525 125.108L149.712 125.561C150.748 128.047 150.728 130.878 149.643 133.325L149.12 134.509L149.377 134.686C149.86 135.012 150.314 135.387 150.738 135.801L151.122 136.176L156.241 124.358L149.525 125.108ZM116.27 123.293L120.352 128.856L120.648 128.471C122.276 126.36 124.702 124.999 127.325 124.713L128.607 124.575L128.627 124.259C128.666 123.618 128.775 122.977 128.952 122.346L129.1 121.813L116.27 123.293Z" fill="white"/>
<path d="M133.134 165C124.633 164.181 117.01 159.762 112.01 152.758L115.432 152.373C115.994 153.064 116.596 153.734 117.217 154.356C120.925 158.085 125.57 160.6 130.659 161.636L133.134 165Z" fill="white"/>
<path d="M140.269 161.834C145.782 160.946 150.782 158.361 154.767 154.366C155.122 154.011 155.487 153.627 155.842 153.222L159.994 152.749C155.013 159.743 147.39 164.172 138.898 165L140.269 161.834Z" fill="white"/>
<path d="M160.836 144.954C161.97 141.946 162.542 138.759 162.542 135.494C162.542 132.614 162.088 129.783 161.201 127.08L162.868 123.242C164.613 127.1 165.501 131.213 165.501 135.494C165.501 139.766 164.623 143.879 162.877 147.726L160.836 144.954Z" fill="white"/>
<path d="M109.143 147.776C107.388 143.919 106.5 139.786 106.5 135.505C106.5 131.194 107.397 127.041 109.173 123.164L111.204 125.936C110.041 128.984 109.449 132.2 109.449 135.505C109.449 138.395 109.902 141.236 110.8 143.949L109.143 147.776Z" fill="white"/>
<path d="M112.145 118.064C117.135 111.179 124.709 106.809 133.131 106L131.75 109.167C126.238 110.054 121.218 112.639 117.233 116.644C116.938 116.95 116.632 117.265 116.326 117.601L112.145 118.064Z" fill="white"/>
<path d="M156.562 118.627C155.99 117.926 155.388 117.265 154.767 116.634C151.068 112.915 146.423 110.4 141.344 109.364L138.879 106C147.36 106.819 154.984 111.238 159.974 118.242L156.562 118.627Z" fill="white"/>
</g>
<defs>
<filter id="filter0_i-618071" x="73.459" y="72.7308" width="125.077" height="125.538" filterUnits="userSpaceOnUse" color-interpolation-filters="sRGB">
<feFlood flood-opacity="0" result="BackgroundImageFix"/>
<feBlend mode="normal" in="SourceGraphic" in2="BackgroundImageFix" result="shape"/>
<feColorMatrix in="SourceAlpha" type="matrix" values="0 0 0 0 0 0 0 0 0 0 0 0 0 0 0 0 0 0 127 0" result="hardAlpha"/>
<feOffset/>
<feGaussianBlur stdDeviation="13.3207"/>
<feComposite in2="hardAlpha" operator="arithmetic" k2="-1" k3="1"/>
<feColorMatrix type="matrix" values="0 0 0 0 1 0 0 0 0 1 0 0 0 0 1 0 0 0 1 0"/>
<feBlend mode="hard-light" in2="shape" result="effect1_innerShadow"/>
</filter>
<radialGradient id="paint0_radial-671473" cx="0" cy="0" r="1" gradientUnits="userSpaceOnUse" gradientTransform="translate(155.752 170.864) rotate(-108.646) scale(117.774 117.429)">
<stop offset="0.377782" stop-color="#4584FF"/>
<stop offset="0.766535" stop-color="#ACFAFF"/>
<stop offset="1" stop-color="#FFE9BF"/>
</radialGradient>
<radialGradient id="paint1_radial-416261" cx="0" cy="0" r="1" gradientUnits="userSpaceOnUse" gradientTransform="translate(130.869 90.9991) rotate(86.4582) scale(102.462 102.088)">
<stop offset="0.244792" stop-color="#A431FF" stop-opacity="0"/>
<stop offset="0.904105" stop-color="#FF6939" stop-opacity="0.7"/>
</radialGradient>
</defs>
</svg>