<svg width="215" height="80" viewBox="0 0 215 80" fill="none" xmlns="http://www.w3.org/2000/svg">
<g style="mix-blend-mode:luminosity">
<path d="M54.8802 49.1958L45.2421 50.2776L50.8971 37.2184L45.1016 29.3154L59.1934 27.7067L63.022 18.9116L71.4096 30.313L81.0478 29.2311L75.4138 42.2271L81.1672 50.0739L67.1526 51.6685L63.2678 60.5971L54.8802 49.1958ZM58.8843 48.3317C58.512 48.5144 58.1186 48.6619 57.7112 48.7743L57.3459 48.8797L62.7831 56.2698L64.715 51.8301L64.3637 51.7879C62.467 51.5491 60.7389 50.5235 59.6219 48.985L59.081 48.2404L58.8843 48.3317ZM56.9946 41.637L61.3782 47.6995C62.2703 48.9288 63.7104 49.6664 65.2278 49.6664C65.4034 49.6664 65.579 49.6594 65.7546 49.6383L77.1911 48.3387L72.639 42.1147C72.4142 41.8056 72.1543 41.5317 71.8592 41.2858L71.5923 41.061L68.3328 48.423L62.6637 40.9205L56.9946 41.637ZM57.1913 34.2469C55.4913 34.4225 54.0161 35.5114 53.3347 37.0849L48.7404 47.6854L56.3694 46.8284C56.7488 46.7862 57.1211 46.6949 57.4723 46.5685L57.7955 46.4491L53.0748 39.93L62.3827 38.7498L64.5955 33.4601L57.1913 34.2469ZM64.3918 39.5998L67.841 44.173L69.9485 39.4172L70.8758 37.3238C71.5712 35.7572 71.3675 33.9308 70.3559 32.5469L63.5137 23.246L60.4368 30.313C60.2823 30.6642 60.1769 31.0295 60.1067 31.4018L60.0505 31.746L68.0307 30.9031L64.3918 39.5998ZM72.7725 32.3572L72.9059 32.6803C73.6435 34.4506 73.6295 36.4667 72.8568 38.2089L72.4844 39.0519L72.6671 39.1783C73.0113 39.4102 73.3345 39.6771 73.6365 39.9721L73.9105 40.2391L77.5564 31.8233L72.7725 32.3572ZM49.0847 31.0646L51.9929 35.0266L52.2037 34.7527C53.3628 33.2494 55.0909 32.2799 56.9595 32.0762L57.8727 31.9779L57.8868 31.7531C57.9149 31.2964 57.9922 30.8398 58.1186 30.3902L58.224 30.0109L49.0847 31.0646Z" fill="white"/>
<path d="M61.098 60.766C55.0426 60.1829 49.6124 57.0358 46.0508 52.0481L48.4884 51.7742C48.8888 52.2659 49.3173 52.7436 49.7599 53.1862C52.4013 55.8416 55.71 57.6329 59.3348 58.3705L61.098 60.766Z" fill="white"/>
<path d="M66.1796 58.5109C70.1065 57.8787 73.6681 56.0381 76.5061 53.1931C76.759 52.9402 77.0189 52.6662 77.2718 52.3782L80.2293 52.041C76.6817 57.0216 71.2515 60.1758 65.2031 60.7659L66.1796 58.5109Z" fill="white"/>
<path d="M80.8281 46.491C81.636 44.3484 82.0434 42.0794 82.0434 39.7542C82.0434 37.7029 81.7203 35.6868 81.088 33.762L82.2752 31.0293C83.5186 33.776 84.1509 36.7054 84.1509 39.7542C84.1509 42.7959 83.5257 45.7253 82.2823 48.465L80.8281 46.491Z" fill="white"/>
<path d="M44.0077 48.5004C42.7572 45.7537 42.125 42.8103 42.125 39.7615C42.125 36.6916 42.7643 33.7342 44.0287 30.9734L45.4759 32.9474C44.6469 35.1181 44.2254 37.4082 44.2254 39.7615C44.2254 41.8198 44.5486 43.8429 45.1878 45.7748L44.0077 48.5004Z" fill="white"/>
<path d="M46.1445 27.3414C49.6991 22.438 55.0942 19.326 61.0934 18.75L60.1099 21.005C56.183 21.6372 52.6074 23.4777 49.7694 26.3298C49.5586 26.5476 49.3408 26.7724 49.1231 27.0112L46.1445 27.3414Z" fill="white"/>
<path d="M77.7831 27.7418C77.3756 27.2431 76.9471 26.7724 76.5045 26.3228C73.8702 23.6744 70.5615 21.8831 66.9437 21.1455L65.1875 18.75C71.2289 19.3331 76.6591 22.4802 80.2137 27.4679L77.7831 27.7418Z" fill="white"/>
<path d="M168.473 46.6295C166.459 46.6295 164.828 44.9911 164.828 42.9851L164.828 37.3906L162.566 37.3906L162.566 35.3765L164.828 35.3765L164.828 33.2986L166.842 33.2986L166.842 35.3765L170.614 35.3765L170.614 37.3906L166.842 37.3906L166.842 42.9851C166.842 43.8882 167.577 44.6235 168.481 44.6235L170.239 44.6235C171.278 44.6235 172.125 45.4706 172.125 46.5096L172.125 46.6375L168.473 46.6375L168.473 46.6295Z" fill="white"/>
<path d="M96.1507 33.2986L94.1367 33.2986L94.1367 46.6295L96.1507 46.6295L96.1507 33.2986Z" fill="white"/>
<path d="M115.772 33.2986L113.758 33.2986L113.758 46.6295L115.772 46.6295L115.772 33.2986Z" fill="white"/>
<path d="M118.29 46.6295L118.29 46.5096C118.29 45.4706 119.137 44.6235 120.176 44.6235L127.034 44.6235C127.537 44.6235 128.009 44.4236 128.352 44.056C128.704 43.6884 128.88 43.2088 128.856 42.7053C128.808 41.7303 127.985 40.971 126.986 40.971L122.126 40.971C121.079 40.971 120.104 40.5554 119.377 39.8122C118.65 39.0609 118.266 38.0779 118.29 37.0309C118.346 34.9769 120.104 33.2986 122.206 33.2986L129.919 33.2986L129.919 33.4265C129.919 34.4654 129.072 35.3126 128.033 35.3126L122.118 35.3126C121.615 35.3126 121.143 35.5124 120.8 35.88C120.448 36.2477 120.272 36.7272 120.296 37.2307C120.344 38.2058 121.167 38.965 122.166 38.965L127.026 38.965C128.072 38.965 129.048 39.3806 129.775 40.1239C130.502 40.8751 130.886 41.8582 130.862 42.9051C130.806 44.9591 129.048 46.6375 126.946 46.6375L118.29 46.6375L118.29 46.6295Z" fill="white"/>
<path d="M109.817 46.6295C109.162 46.6295 108.554 46.3338 108.147 45.8303L104.566 41.3467L102.057 41.3467L102.057 41.2188C102.057 40.1798 102.904 39.3327 103.943 39.3327L107.212 39.3327C108.322 39.3327 109.226 38.4295 109.226 37.3186L109.226 35.8081C109.226 35.5284 109.002 35.3046 108.722 35.3046L101.178 35.3046C100.898 35.3046 100.674 35.5284 100.674 35.8081L100.674 46.6295L98.668 46.6295L98.668 34.6812C98.668 33.922 99.2914 33.2986 100.051 33.2986L109.865 33.2986C110.624 33.2986 111.248 33.922 111.248 34.6812L111.248 37.3266C111.248 39.2927 109.785 41.003 107.843 41.3067L107.627 41.3387L111.863 46.6375L109.817 46.6375L109.817 46.6295Z" fill="white"/>
<path d="M151.617 46.6294C149.603 46.6294 147.973 44.991 147.973 42.985L147.973 39.0209C147.973 37.0069 149.611 35.3765 151.617 35.3765L156.9 35.3765C157.891 35.3765 158.818 35.7681 159.513 36.4794C160.209 37.1907 160.568 38.1338 160.544 39.1248C160.488 41.0829 158.818 42.6733 156.82 42.6733L150.738 42.6733L150.738 42.5454C150.738 41.5064 151.585 40.6593 152.624 40.6593L156.86 40.6593C157.723 40.6593 158.45 40.0119 158.53 39.1807C158.57 38.7172 158.426 38.2696 158.115 37.926C157.803 37.5823 157.363 37.3905 156.908 37.3905L151.625 37.3905C150.722 37.3905 149.987 38.1258 149.987 39.0289L149.987 42.993C149.987 43.8961 150.722 44.6314 151.625 44.6314L158.666 44.6314C159.705 44.6314 160.552 45.4785 160.552 46.5175L160.552 46.6454L151.617 46.6454L151.617 46.6294Z" fill="white"/>
<path d="M145.835 46.6297C144.796 46.6297 143.948 45.7825 143.948 44.7435L143.948 39.3968C143.948 38.3898 143.133 37.5746 142.126 37.5746L135.9 37.5746C135.621 37.5746 135.397 37.7983 135.397 38.0781L135.397 46.6297L133.383 46.6297L133.383 36.9432C133.383 36.1839 134.006 35.5605 134.765 35.5605L142.126 35.5605C144.244 35.5605 145.962 37.2789 145.962 39.3968L145.962 46.6297L145.835 46.6297Z" fill="white"/>
</g>
</svg>
