<svg width="306" height="307" viewBox="0 0 306 307" fill="none" xmlns="http://www.w3.org/2000/svg">
<g filter="url(#filter0_ddi-199223)">
<path d="M152.997 208.269C187.536 208.269 215.536 180.167 215.536 145.5C215.536 110.834 187.536 82.7308 152.997 82.7308C118.458 82.7308 90.459 110.834 90.459 145.5C90.459 180.167 118.458 208.269 152.997 208.269Z" fill="url(#paint0_radial-373467)"/>
<path d="M152.997 208.269C187.536 208.269 215.536 180.167 215.536 145.5C215.536 110.834 187.536 82.7308 152.997 82.7308C118.458 82.7308 90.459 110.834 90.459 145.5C90.459 180.167 118.458 208.269 152.997 208.269Z" fill="url(#paint1_radial-991147)"/>
</g>
<g style="mix-blend-mode:overlay" opacity="0.9">
<path d="M141.406 158.753L127.875 160.272L135.814 141.934L127.678 130.836L147.461 128.577L152.836 116.227L164.611 132.237L178.142 130.718L170.233 148.967L178.31 159.986L158.635 162.225L153.181 174.763L141.406 158.753ZM147.027 157.54C146.505 157.796 145.952 158.003 145.38 158.161L144.867 158.309L152.501 168.687L155.213 162.452L154.72 162.393C152.057 162.058 149.631 160.617 148.063 158.457L147.303 157.411L147.027 157.54ZM144.374 148.139L150.528 156.652C151.781 158.378 153.803 159.414 155.933 159.414C156.179 159.414 156.426 159.404 156.672 159.374L172.728 157.549L166.337 148.81C166.022 148.375 165.657 147.991 165.243 147.646L164.868 147.33L160.292 157.668L152.333 147.133L144.374 148.139ZM144.65 137.761C142.264 138.008 140.193 139.537 139.236 141.747L132.786 156.632L143.497 155.429C144.029 155.369 144.552 155.241 145.045 155.064L145.499 154.896L138.871 145.742L151.939 144.084L155.045 136.656L144.65 137.761ZM154.759 145.278L159.601 151.7L162.56 145.022L163.862 142.082C164.838 139.882 164.552 137.317 163.132 135.374L153.526 122.313L149.207 132.237C148.99 132.73 148.842 133.243 148.743 133.766L148.664 134.249L159.868 133.066L154.759 145.278ZM166.525 135.108L166.712 135.561C167.748 138.047 167.728 140.878 166.643 143.325L166.12 144.509L166.377 144.686C166.86 145.012 167.314 145.387 167.738 145.801L168.122 146.176L173.241 134.358L166.525 135.108ZM133.27 133.293L137.352 138.856L137.648 138.471C139.276 136.36 141.702 134.999 144.325 134.713L145.607 134.575L145.627 134.259C145.666 133.618 145.775 132.977 145.952 132.346L146.1 131.813L133.27 133.293Z" fill="white"/>
<path d="M150.134 175C141.633 174.181 134.01 169.762 129.01 162.758L132.432 162.373C132.994 163.064 133.596 163.734 134.217 164.356C137.925 168.085 142.57 170.6 147.659 171.636L150.134 175Z" fill="white"/>
<path d="M157.269 171.834C162.782 170.946 167.782 168.361 171.767 164.366C172.122 164.011 172.487 163.627 172.842 163.222L176.994 162.749C172.013 169.743 164.39 174.172 155.898 175L157.269 171.834Z" fill="white"/>
<path d="M177.836 154.954C178.97 151.946 179.542 148.759 179.542 145.494C179.542 142.614 179.088 139.783 178.201 137.08L179.868 133.242C181.613 137.1 182.501 141.213 182.501 145.494C182.501 149.766 181.623 153.879 179.877 157.726L177.836 154.954Z" fill="white"/>
<path d="M126.143 157.776C124.388 153.919 123.5 149.786 123.5 145.505C123.5 141.194 124.397 137.041 126.173 133.164L128.204 135.936C127.041 138.984 126.449 142.2 126.449 145.505C126.449 148.395 126.902 151.236 127.8 153.949L126.143 157.776Z" fill="white"/>
<path d="M129.145 128.064C134.135 121.179 141.709 116.809 150.131 116L148.75 119.167C143.238 120.054 138.218 122.639 134.233 126.644C133.938 126.95 133.632 127.265 133.326 127.601L129.145 128.064Z" fill="white"/>
<path d="M173.562 128.627C172.99 127.926 172.388 127.265 171.767 126.634C168.068 122.915 163.423 120.4 158.344 119.364L155.879 116C164.36 116.819 171.984 121.238 176.974 128.242L173.562 128.627Z" fill="white"/>
</g>
<defs>
<filter id="filter0_ddi-199223" x="0.458981" y="0.601422" width="305.077" height="305.538" filterUnits="userSpaceOnUse" color-interpolation-filters="sRGB">
<feFlood flood-opacity="0" result="BackgroundImageFix"/>
<feColorMatrix in="SourceAlpha" type="matrix" values="0 0 0 0 0 0 0 0 0 0 0 0 0 0 0 0 0 0 127 0"/>
<feMorphology radius="40" operator="dilate" in="SourceAlpha" result="effect1_dropShadow"/>
<feOffset dy="7.87059"/>
<feGaussianBlur stdDeviation="25"/>
<feColorMatrix type="matrix" values="0 0 0 0 0.745098 0 0 0 0 0.486275 0 0 0 0 0.580392 0 0 0 0.4 0"/>
<feBlend mode="normal" in2="BackgroundImageFix" result="effect1_dropShadow"/>
<feColorMatrix in="SourceAlpha" type="matrix" values="0 0 0 0 0 0 0 0 0 0 0 0 0 0 0 0 0 0 127 0"/>
<feMorphology radius="20" operator="dilate" in="SourceAlpha" result="effect2_dropShadow"/>
<feOffset dy="4"/>
<feGaussianBlur stdDeviation="11"/>
<feColorMatrix type="matrix" values="0 0 0 0 0.423529 0 0 0 0 0.458824 0 0 0 0 0.913725 0 0 0 0.1 0"/>
<feBlend mode="normal" in2="effect1_dropShadow" result="effect2_dropShadow"/>
<feBlend mode="normal" in="SourceGraphic" in2="effect2_dropShadow" result="shape"/>
<feColorMatrix in="SourceAlpha" type="matrix" values="0 0 0 0 0 0 0 0 0 0 0 0 0 0 0 0 0 0 127 0" result="hardAlpha"/>
<feOffset/>
<feGaussianBlur stdDeviation="13.3207"/>
<feComposite in2="hardAlpha" operator="arithmetic" k2="-1" k3="1"/>
<feColorMatrix type="matrix" values="0 0 0 0 1 0 0 0 0 1 0 0 0 0 1 0 0 0 1 0"/>
<feBlend mode="hard-light" in2="shape" result="effect3_innerShadow"/>
</filter>
<radialGradient id="paint0_radial-373467" cx="0" cy="0" r="1" gradientUnits="userSpaceOnUse" gradientTransform="translate(172.752 180.864) rotate(-108.646) scale(117.774 117.429)">
<stop offset="0.377782" stop-color="#4584FF"/>
<stop offset="0.766535" stop-color="#ACFAFF"/>
<stop offset="1" stop-color="#FFE9BF"/>
</radialGradient>
<radialGradient id="paint1_radial-991147" cx="0" cy="0" r="1" gradientUnits="userSpaceOnUse" gradientTransform="translate(147.869 100.999) rotate(86.4582) scale(102.462 102.088)">
<stop offset="0.244792" stop-color="#A431FF" stop-opacity="0"/>
<stop offset="0.904105" stop-color="#FF6939" stop-opacity="0.7"/>
</radialGradient>
</defs>
</svg>