<svg width="126" height="127" viewBox="0 0 126 127" fill="none" xmlns="http://www.w3.org/2000/svg">
<g filter="url(#filter0_i-695264)">
<path d="M62.9994 126.269C97.5384 126.269 125.538 98.1666 125.538 63.5001C125.538 28.8336 97.5384 0.730836 62.9994 0.730835C28.4604 0.730833 0.460939 28.8336 0.460938 63.5001C0.460936 98.1666 28.4604 126.269 62.9994 126.269Z" fill="url(#paint0_radial-491732)"/>
<path d="M62.9994 126.269C97.5384 126.269 125.538 98.1666 125.538 63.5001C125.538 28.8336 97.5384 0.730836 62.9994 0.730835C28.4604 0.730833 0.460939 28.8336 0.460938 63.5001C0.460936 98.1666 28.4604 126.269 62.9994 126.269Z" fill="url(#paint1_radial-045921)"/>
</g>
<g style="mix-blend-mode:overlay" opacity="0.9">
<path d="M51.4078 76.753L37.8769 78.2721L45.8159 59.9339L37.6797 48.8364L57.4631 46.5774L62.838 34.227L74.6134 50.2371L88.1442 48.718L80.2348 66.9673L88.3119 77.986L68.6369 80.2253L63.1832 92.7631L51.4078 76.753ZM57.0292 75.5396C56.5065 75.7961 55.9542 76.0033 55.3822 76.1611L54.8694 76.309L62.5027 86.6865L65.2148 80.4521L64.7217 80.393C62.0589 80.0576 59.6328 78.6173 58.0647 76.457L57.3053 75.4114L57.0292 75.5396ZM54.3763 66.1387L60.5302 74.6518C61.7827 76.3781 63.8045 77.4139 65.9347 77.4139C66.1813 77.4139 66.4278 77.404 66.6744 77.3744L82.7299 75.5495L76.3392 66.8095C76.0237 66.3755 75.6588 65.9908 75.2446 65.6455L74.8698 65.3298L70.2938 75.6679L62.335 65.1325L54.3763 66.1387ZM54.6524 55.7612C52.2658 56.0079 50.1947 57.5369 49.2381 59.7465L42.7883 74.6321L53.4985 73.4286C54.0311 73.3694 54.5538 73.2412 55.0469 73.0636L55.5006 72.8959L48.8732 63.7416L61.9405 62.0844L65.0471 54.6564L54.6524 55.7612ZM64.7611 63.278L69.6034 69.6998L72.5621 63.0215L73.8639 60.0819C74.8402 57.8821 74.5542 55.3173 73.1341 53.374L63.5283 40.3134L59.2087 50.2371C58.9918 50.7303 58.8438 51.2433 58.7452 51.7661L58.6663 52.2495L69.8697 51.0657L64.7611 63.278ZM76.5266 53.1077L76.714 53.5615C77.7495 56.0473 77.7298 58.8784 76.645 61.3248L76.1223 62.5086L76.3787 62.6861C76.8619 63.0117 77.3156 63.3865 77.7397 63.8008L78.1243 64.1757L83.2427 52.358L76.5266 53.1077ZM43.2715 51.2926L47.3544 56.8562L47.6503 56.4715C49.2776 54.3605 51.7036 52.9992 54.327 52.7131L55.609 52.575L55.6288 52.2593C55.6682 51.6181 55.7767 50.977 55.9542 50.3456L56.1022 49.8129L43.2715 51.2926Z" fill="white"/>
<path d="M60.1325 92.9996C51.6313 92.1809 44.0079 87.7616 39.0078 80.7578L42.43 80.373C42.9921 81.0636 43.5937 81.7343 44.215 82.3558C47.9232 86.0846 52.5682 88.6001 57.6571 89.6358L60.1325 92.9996Z" fill="white"/>
<path d="M67.2693 89.8338C72.7822 88.946 77.7823 86.3615 81.7666 82.3664C82.1216 82.0113 82.4865 81.6265 82.8416 81.2221L86.9935 80.7486C82.0132 87.7425 74.3897 92.1717 65.8984 93.0003L67.2693 89.8338Z" fill="white"/>
<path d="M87.8359 72.9543C88.9701 69.9456 89.5421 66.7594 89.5421 63.4942C89.5421 60.6138 89.0884 57.7827 88.2008 55.0798L89.8675 51.2425C91.6131 55.0995 92.5007 59.213 92.5007 63.4942C92.5007 67.7656 91.623 71.8791 89.8774 75.7263L87.8359 72.9543Z" fill="white"/>
<path d="M36.1431 75.776C34.3876 71.919 33.5 67.7857 33.5 63.5045C33.5 59.1937 34.3975 55.0408 36.1726 51.164L38.2042 53.9359C37.0405 56.9841 36.4488 60.1999 36.4488 63.5045C36.4488 66.3948 36.9024 69.2358 37.7999 71.9486L36.1431 75.776Z" fill="white"/>
<path d="M39.1445 46.0643C44.1348 39.1789 51.7089 34.8089 60.1311 34L58.7504 37.1665C53.2375 38.0543 48.2177 40.6388 44.2334 44.6438C43.9375 44.9496 43.6318 45.2653 43.3261 45.6007L39.1445 46.0643Z" fill="white"/>
<path d="M83.5617 46.6266C82.9897 45.9262 82.3881 45.2653 81.7668 44.634C78.0685 40.915 73.4234 38.3996 68.3444 37.3638L65.8789 34C74.3603 34.8188 81.9838 39.2381 86.974 46.2419L83.5617 46.6266Z" fill="white"/>
</g>
<defs>
<filter id="filter0_i-695264" x="0.460938" y="0.730835" width="125.077" height="125.538" filterUnits="userSpaceOnUse" color-interpolation-filters="sRGB">
<feFlood flood-opacity="0" result="BackgroundImageFix"/>
<feBlend mode="normal" in="SourceGraphic" in2="BackgroundImageFix" result="shape"/>
<feColorMatrix in="SourceAlpha" type="matrix" values="0 0 0 0 0 0 0 0 0 0 0 0 0 0 0 0 0 0 127 0" result="hardAlpha"/>
<feOffset/>
<feGaussianBlur stdDeviation="13.3207"/>
<feComposite in2="hardAlpha" operator="arithmetic" k2="-1" k3="1"/>
<feColorMatrix type="matrix" values="0 0 0 0 1 0 0 0 0 1 0 0 0 0 1 0 0 0 1 0"/>
<feBlend mode="hard-light" in2="shape" result="effect1_innerShadow"/>
</filter>
<radialGradient id="paint0_radial-491732" cx="0" cy="0" r="1" gradientUnits="userSpaceOnUse" gradientTransform="translate(82.7535 98.8636) rotate(-108.646) scale(117.774 117.429)">
<stop offset="0.377782" stop-color="#4584FF"/>
<stop offset="0.766535" stop-color="#ACFAFF"/>
<stop offset="1" stop-color="#FFE9BF"/>
</radialGradient>
<radialGradient id="paint1_radial-045921" cx="0" cy="0" r="1" gradientUnits="userSpaceOnUse" gradientTransform="translate(57.8708 18.9991) rotate(86.4582) scale(102.462 102.088)">
<stop offset="0.244792" stop-color="#A431FF" stop-opacity="0"/>
<stop offset="0.904105" stop-color="#FF6939" stop-opacity="0.7"/>
</radialGradient>
</defs>
</svg>