<svg width="92" height="91" viewBox="0 0 92 91" fill="none" xmlns="http://www.w3.org/2000/svg">
<path d="M34.4078 58.753L20.8769 60.2721L28.8159 41.9339L20.6797 30.8364L40.4631 28.5774L45.838 16.227L57.6134 32.2371L71.1442 30.718L63.2348 48.9673L71.3119 59.986L51.6369 62.2253L46.1832 74.7631L34.4078 58.753ZM40.0292 57.5396C39.5065 57.7961 38.9542 58.0033 38.3822 58.1611L37.8694 58.309L45.5027 68.6865L48.2148 62.4521L47.7217 62.393C45.0589 62.0576 42.6328 60.6173 41.0647 58.457L40.3053 57.4114L40.0292 57.5396ZM37.3763 48.1387L43.5302 56.6518C44.7827 58.3781 46.8045 59.4139 48.9347 59.4139C49.1813 59.4139 49.4278 59.404 49.6744 59.3744L65.7299 57.5495L59.3392 48.8095C59.0237 48.3755 58.6588 47.9908 58.2446 47.6455L57.8698 47.3298L53.2938 57.6679L45.335 47.1325L37.3763 48.1387ZM37.6524 37.7612C35.2658 38.0079 33.1947 39.5369 32.2381 41.7465L25.7883 56.6321L36.4985 55.4286C37.0311 55.3694 37.5538 55.2412 38.0469 55.0636L38.5006 54.8959L31.8732 45.7416L44.9405 44.0844L48.0471 36.6564L37.6524 37.7612ZM47.7611 45.278L52.6034 51.6998L55.5621 45.0215L56.8639 42.0819C57.8402 39.8821 57.5542 37.3173 56.1341 35.374L46.5283 22.3134L42.2087 32.2371C41.9918 32.7303 41.8438 33.2433 41.7452 33.7661L41.6663 34.2495L52.8697 33.0657L47.7611 45.278ZM59.5266 35.1077L59.714 35.5615C60.7495 38.0473 60.7298 40.8784 59.645 43.3248L59.1223 44.5086L59.3787 44.6861C59.8619 45.0117 60.3156 45.3865 60.7397 45.8008L61.1243 46.1757L66.2427 34.358L59.5266 35.1077ZM26.2715 33.2926L30.3544 38.8562L30.6503 38.4715C32.2776 36.3605 34.7036 34.9992 37.327 34.7131L38.609 34.575L38.6288 34.2593C38.6682 33.6181 38.7767 32.977 38.9542 32.3456L39.1022 31.8129L26.2715 33.2926Z" fill="white"/>
<path d="M43.1325 74.9996C34.6313 74.1809 27.0079 69.7616 22.0078 62.7578L25.43 62.373C25.9921 63.0636 26.5937 63.7343 27.215 64.3558C30.9232 68.0846 35.5682 70.6001 40.6571 71.6358L43.1325 74.9996Z" fill="white"/>
<path d="M50.2693 71.8338C55.7822 70.946 60.7823 68.3615 64.7666 64.3664C65.1216 64.0113 65.4865 63.6265 65.8416 63.2221L69.9935 62.7486C65.0132 69.7425 57.3897 74.1717 48.8984 75.0003L50.2693 71.8338Z" fill="white"/>
<path d="M70.8359 54.9543C71.9701 51.9456 72.5421 48.7594 72.5421 45.4942C72.5421 42.6138 72.0884 39.7827 71.2008 37.0798L72.8675 33.2425C74.6131 37.0995 75.5007 41.213 75.5007 45.4942C75.5007 49.7656 74.623 53.8791 72.8774 57.7263L70.8359 54.9543Z" fill="white"/>
<path d="M19.1431 57.776C17.3876 53.919 16.5 49.7858 16.5 45.5046C16.5 41.1938 17.3975 37.0408 19.1726 33.164L21.2042 35.936C20.0405 38.9841 19.4488 42.1999 19.4488 45.5046C19.4488 48.3949 19.9024 51.2358 20.7999 53.9486L19.1431 57.776Z" fill="white"/>
<path d="M22.1445 28.0643C27.1348 21.1789 34.7089 16.8089 43.1311 16L41.7504 19.1665C36.2375 20.0543 31.2177 22.6388 27.2334 26.6438C26.9375 26.9496 26.6318 27.2653 26.3261 27.6007L22.1445 28.0643Z" fill="white"/>
<path d="M66.5617 28.6266C65.9897 27.9262 65.3881 27.2653 64.7668 26.634C61.0685 22.915 56.4234 20.3996 51.3444 19.3638L48.8789 16C57.3603 16.8188 64.9838 21.2381 69.974 28.2419L66.5617 28.6266Z" fill="white"/>
</svg>
