<svg width="91" height="91" viewBox="0 0 91 91" fill="none" xmlns="http://www.w3.org/2000/svg">
<path fill-rule="evenodd" clip-rule="evenodd" d="M45.8023 28.4405C45.8023 27.6449 45.2283 27 44.5201 27C44.5201 27 44.5193 27 44.5186 27C43.8111 27 43.2371 27.6449 43.2371 28.4405C43.2371 34.2449 43.2371 55.8925 43.2371 61.6979C43.2371 62.4935 43.8111 63.1384 44.5186 63.1384C44.5193 63.1384 44.5201 63.1384 44.5201 63.1384C45.2283 63.1384 45.8023 62.4935 45.8023 61.6979C45.8023 55.8925 45.8023 34.2449 45.8023 28.4405Z" fill="white"/>
<path fill-rule="evenodd" clip-rule="evenodd" d="M40.6217 55.8499C39.9138 55.8492 39.3393 56.4936 39.3387 57.2891C39.3387 57.2891 39.3387 57.29 39.3387 57.2908C39.3381 58.0856 39.9117 58.731 40.6195 58.7317C42.5889 58.7335 46.3368 58.737 48.3061 58.7388C49.0142 58.7395 49.5887 58.0951 49.5893 57.3004C49.5893 57.2996 49.5893 57.2987 49.5893 57.2987C49.5899 56.5031 49.0163 55.8577 48.3082 55.857C46.3389 55.8552 42.591 55.8517 40.6217 55.8499Z" fill="white"/>
<path fill-rule="evenodd" clip-rule="evenodd" d="M34.2841 37.011C33.5757 37.0103 33.0017 37.6547 33.0011 38.4503C33.0011 38.4503 33.0011 38.4511 33.0011 38.452C33.0005 39.2467 33.5736 39.8921 34.282 39.8928C38.3067 39.8966 50.6603 39.9081 54.685 39.9118C55.3928 39.9125 55.9675 39.2681 55.9681 38.4734C55.9681 38.4725 55.9681 38.4717 55.9681 38.4717C55.9687 37.6761 55.395 37.0307 54.6871 37.03C50.6624 37.0263 38.3089 37.0147 34.2841 37.011Z" fill="white"/>
<path fill-rule="evenodd" clip-rule="evenodd" d="M38.513 29.7256C38.0117 29.1637 37.1999 29.1647 36.6997 29.7279C36.6997 29.7279 36.6992 29.7285 36.6986 29.7291C36.1989 30.2917 36.1998 31.2036 36.701 31.7655C39.4618 34.8603 47.7391 44.1389 50.4999 47.2337C51.0011 47.7955 51.8129 47.7945 52.3126 47.2319C52.3131 47.2313 52.3137 47.2307 52.3137 47.2307C52.8139 46.6676 52.8131 45.7556 52.3118 45.1937C49.5511 42.099 41.2737 32.8203 38.513 29.7256Z" fill="white"/>
<path fill-rule="evenodd" clip-rule="evenodd" d="M36.7166 45.2169C36.2168 45.7804 36.2182 46.6924 36.7199 47.254C36.7199 47.254 36.7204 47.2546 36.7209 47.2552C37.222 47.8161 38.0338 47.8146 38.5337 47.2511C41.2866 44.1477 49.5406 34.8428 52.2936 31.7393C52.7934 31.1758 52.792 30.2639 52.2908 29.7029C52.2903 29.7023 52.2898 29.7017 52.2898 29.7017C51.7881 29.1401 50.9763 29.1416 50.4765 29.7051C47.7235 32.8086 39.4696 42.1135 36.7166 45.2169Z" fill="white"/>
<path fill-rule="evenodd" clip-rule="evenodd" d="M45 78.8071C63.6711 78.8071 78.8071 63.6711 78.8071 45C78.8071 26.3288 63.6711 11.1929 45 11.1929C26.3288 11.1929 11.1929 26.3288 11.1929 45C11.1929 63.6711 26.3288 78.8071 45 78.8071ZM45 81C64.8822 81 81 64.8822 81 45C81 25.1177 64.8822 9 45 9C25.1177 9 9 25.1177 9 45C9 64.8822 25.1177 81 45 81Z" fill="white"/>
</svg>
