<svg width="91" height="91" viewBox="0 0 91 91" fill="none" xmlns="http://www.w3.org/2000/svg">
<path d="M45.7749 44.7477H37.0051V68.595H45.7749V44.7477Z" fill="white"/>
<path d="M61.736 49.5071H52.3467V68.5956H61.736V49.5071Z" fill="white"/>
<path d="M78.0757 23H68.3687V56.9745H78.0757V23Z" fill="white"/>
<path d="M44.9448 48.3332C49.4038 43.238 57.8814 42.5071 60.8403 48.1697C60.8403 48.1697 63.9444 43.5386 68.4718 44.8097L68.5639 54.2599C67.2303 50.5356 61.8142 51.6106 61.657 55.2573L52.4656 54.187C52.5352 52.1633 46.9191 50.1998 45.4435 54.8066L44.9448 48.3332Z" fill="white"/>
<path d="M21.4926 58.5181H12V68.5948H21.4926V58.5181Z" fill="white"/>
<path d="M34.1376 51.3625H24.0608V68.5953H34.1376V51.3625Z" fill="white"/>
<path d="M73.1516 68.5958C75.8299 68.5958 78.0011 66.4708 78.0011 63.8495C78.0011 61.2281 75.8299 59.1031 73.1516 59.1031C70.4732 59.1031 68.302 61.2281 68.302 63.8495C68.302 66.4708 70.4732 68.5958 73.1516 68.5958Z" fill="white"/>
</svg>
