<svg width="306" height="307" viewBox="0 0 306 307" fill="none" xmlns="http://www.w3.org/2000/svg">
<g filter="url(#filter0_di-063021)">
<path d="M152.997 208.269C187.536 208.269 215.536 180.167 215.536 145.5C215.536 110.834 187.536 82.7309 152.997 82.7309C118.458 82.7309 90.459 110.834 90.459 145.5C90.459 180.167 118.458 208.269 152.997 208.269Z" fill="url(#paint0_radial-676815)"/>
<path d="M152.997 208.269C187.536 208.269 215.536 180.167 215.536 145.5C215.536 110.834 187.536 82.7309 152.997 82.7309C118.458 82.7309 90.459 110.834 90.459 145.5C90.459 180.167 118.458 208.269 152.997 208.269Z" fill="url(#paint1_radial-146997)"/>
</g>
<g style="mix-blend-mode:overlay" opacity="0.9">
<path fill-rule="evenodd" clip-rule="evenodd" d="M175.776 116.503C179.567 119.296 181.673 121.805 182.328 124.314C182.749 125.734 182.375 127.438 181.439 128.716C180.503 129.994 179.005 130.704 177.274 130.704C176.619 130.704 175.963 130.61 175.308 130.42C174.653 132.266 174.185 134.065 174.045 135.627L173.998 136.195C170.628 130.278 165.246 125.734 158.788 123.556C158.975 123.509 160.379 123.083 162.859 121.568C162.579 121.142 162.345 120.669 162.157 120.29C161.643 119.059 161.83 117.024 162.625 115.509C163.281 114.231 164.31 113.379 165.48 113.142C165.948 113.047 166.416 113 166.931 113C169.505 113 172.734 114.278 175.776 116.503ZM181.014 124.692C181.576 126.917 179.844 130.231 175.586 129.048C175.211 128.905 174.837 128.811 174.509 128.763C174.088 129.758 173.62 130.894 173.292 132.172C170.484 128.385 166.74 125.355 162.435 123.414C162.604 123.312 162.781 123.206 162.965 123.097C163.545 122.752 164.193 122.367 164.868 121.899C164.166 121.047 163.652 120.29 163.418 119.769C162.856 118.444 163.511 114.988 165.758 114.515C168.004 114.041 171.514 115.083 174.977 117.639C178.44 120.195 180.406 122.468 181.014 124.692Z" fill="white"/>
<path d="M168.659 119.201C169.595 119.58 170.812 120.243 172.31 121.237C174.088 122.42 175.633 123.746 176.615 124.787C174.977 126.965 173.901 129.947 173.246 132.03C173.573 132.503 173.948 132.977 174.275 133.45C174.603 132.266 175.165 130.515 175.913 128.763C176.101 128.811 176.334 128.811 176.569 128.811C177.13 128.811 177.785 128.716 178.3 128.29C178.674 128.006 179.096 127.485 179.049 126.539C179.049 125.639 178.347 124.503 176.896 123.13C175.867 122.136 174.463 121.047 173.059 120.053C169.034 117.355 166.226 116.598 164.962 117.876C164.12 118.728 164.213 119.769 164.494 120.527C162.997 121.521 161.733 122.231 160.891 122.704C161.452 122.894 161.967 123.13 162.529 123.367C164.026 122.562 166.179 121.189 168.659 119.201ZM177.505 125.971C177.645 126.207 177.692 126.444 177.692 126.586C177.692 127.012 177.551 127.154 177.458 127.249C177.271 127.391 176.896 127.485 176.569 127.485C176.849 126.917 177.177 126.444 177.505 125.971ZM165.945 118.917C166.085 118.775 166.46 118.681 167.068 118.775C166.6 119.154 166.132 119.485 165.664 119.817C165.617 119.485 165.664 119.154 165.945 118.917Z" fill="white"/>
<path d="M151.206 120.952C135.902 120.952 123.5 133.497 123.5 148.976C123.5 164.455 135.902 177 151.206 177C166.509 177 178.911 164.455 178.911 148.976C178.911 133.497 166.462 120.952 151.206 120.952ZM151.206 175.438C136.744 175.438 125.044 163.603 125.044 148.976C125.044 134.349 136.744 122.514 151.206 122.514C165.667 122.514 177.367 134.349 177.367 148.976C177.367 163.603 165.62 175.438 151.206 175.438Z" fill="white"/>
<path d="M174.087 148.74C174.087 162.278 163.51 173.355 150.219 173.876C150.546 173.876 150.874 173.876 151.202 173.876C164.914 173.876 176.052 162.61 176.052 148.74H174.087Z" fill="white"/>
<path d="M159.353 137.047C161.679 137.047 163.565 135.14 163.565 132.787C163.565 130.434 161.679 128.526 159.353 128.526C157.027 128.526 155.141 130.434 155.141 132.787C155.141 135.14 157.027 137.047 159.353 137.047Z" fill="white"/>
<path d="M166.231 140.218C167.213 140.218 168.009 139.413 168.009 138.419C168.009 137.426 167.213 136.621 166.231 136.621C165.248 136.621 164.452 137.426 164.452 138.419C164.452 139.413 165.248 140.218 166.231 140.218Z" fill="white"/>
<path fill-rule="evenodd" clip-rule="evenodd" d="M126.3 148.907C126.3 148.93 126.299 148.953 126.299 148.976C126.299 149.024 126.3 149.072 126.302 149.12C126.504 162.815 137.563 173.876 151.15 173.876H151.197C151.74 173.876 152.279 173.858 152.813 173.824C165.774 172.98 176.048 162.06 176.048 148.74H175.99C175.725 145.998 170.858 144.416 164.441 143.864C159.668 143.485 154.847 143.959 149.325 145.663C144.551 147.083 140.246 146.846 137.11 146.468C130.302 145.682 126.483 145.573 126.306 148.74H126.299C126.299 148.795 126.3 148.851 126.3 148.907ZM149.466 168.716C150.19 168.716 150.776 168.123 150.776 167.391C150.776 166.659 150.19 166.066 149.466 166.066C148.742 166.066 148.155 166.659 148.155 167.391C148.155 168.123 148.742 168.716 149.466 168.716ZM157.61 166.728C157.61 167.46 157.024 168.054 156.3 168.054C155.576 168.054 154.99 167.46 154.99 166.728C154.99 165.996 155.576 165.403 156.3 165.403C157.024 165.403 157.61 165.996 157.61 166.728ZM152.93 171.131C153.473 171.131 153.913 170.686 153.913 170.137C153.913 169.588 153.473 169.143 152.93 169.143C152.387 169.143 151.947 169.588 151.947 170.137C151.947 170.686 152.387 171.131 152.93 171.131ZM159.945 169.426C159.945 169.975 159.505 170.42 158.962 170.42C158.419 170.42 157.979 169.975 157.979 169.426C157.979 168.877 158.419 168.432 158.962 168.432C159.505 168.432 159.945 168.877 159.945 169.426ZM143.895 168.243C145.084 168.243 146.047 167.268 146.047 166.065C146.047 164.862 145.084 163.888 143.895 163.888C142.706 163.888 141.742 164.862 141.742 166.065C141.742 167.268 142.706 168.243 143.895 168.243ZM165.288 160.716C165.288 161.919 164.324 162.894 163.135 162.894C161.946 162.894 160.983 161.919 160.983 160.716C160.983 159.514 161.946 158.539 163.135 158.539C164.324 158.539 165.288 159.514 165.288 160.716Z" fill="white"/>
</g>
<defs>
<filter id="filter0_di-063021" x="0.458981" y="0.601483" width="305.077" height="305.538" filterUnits="userSpaceOnUse" color-interpolation-filters="sRGB">
<feFlood flood-opacity="0" result="BackgroundImageFix"/>
<feColorMatrix in="SourceAlpha" type="matrix" values="0 0 0 0 0 0 0 0 0 0 0 0 0 0 0 0 0 0 127 0"/>
<feMorphology radius="40" operator="dilate" in="SourceAlpha" result="effect1_dropShadow"/>
<feOffset dy="7.87059"/>
<feGaussianBlur stdDeviation="25"/>
<feColorMatrix type="matrix" values="0 0 0 0 0.486275 0 0 0 0 0.541176 0 0 0 0 1 0 0 0 0.3 0"/>
<feBlend mode="normal" in2="BackgroundImageFix" result="effect1_dropShadow"/>
<feBlend mode="normal" in="SourceGraphic" in2="effect1_dropShadow" result="shape"/>
<feColorMatrix in="SourceAlpha" type="matrix" values="0 0 0 0 0 0 0 0 0 0 0 0 0 0 0 0 0 0 127 0" result="hardAlpha"/>
<feOffset/>
<feGaussianBlur stdDeviation="13.3207"/>
<feComposite in2="hardAlpha" operator="arithmetic" k2="-1" k3="1"/>
<feColorMatrix type="matrix" values="0 0 0 0 1 0 0 0 0 1 0 0 0 0 1 0 0 0 1 0"/>
<feBlend mode="hard-light" in2="shape" result="effect2_innerShadow"/>
</filter>
<radialGradient id="paint0_radial-676815" cx="0" cy="0" r="1" gradientUnits="userSpaceOnUse" gradientTransform="translate(172.752 180.864) rotate(-108.646) scale(117.774 117.429)">
<stop offset="0.377782" stop-color="#4584FF"/>
<stop offset="0.766535" stop-color="#ACFAFF"/>
<stop offset="1" stop-color="#FFE9BF"/>
</radialGradient>
<radialGradient id="paint1_radial-146997" cx="0" cy="0" r="1" gradientUnits="userSpaceOnUse" gradientTransform="translate(147.869 100.999) rotate(86.4582) scale(102.462 102.088)">
<stop stop-color="#A431FF" stop-opacity="0"/>
<stop offset="0.904105" stop-color="#A431FF"/>
</radialGradient>
</defs>
</svg>