<svg width="126" height="127" viewBox="0 0 126 127" fill="none" xmlns="http://www.w3.org/2000/svg">
<g filter="url(#filter0_i-249970)">
<path d="M62.9994 126.269C97.5384 126.269 125.538 98.1666 125.538 63.5001C125.538 28.8336 97.5384 0.730898 62.9994 0.730896C28.4604 0.730894 0.460939 28.8336 0.460938 63.5001C0.460936 98.1666 28.4604 126.269 62.9994 126.269Z" fill="url(#paint0_radial-402036)"/>
<path d="M62.9994 126.269C97.5384 126.269 125.538 98.1666 125.538 63.5001C125.538 28.8336 97.5384 0.730898 62.9994 0.730896C28.4604 0.730894 0.460939 28.8336 0.460938 63.5001C0.460936 98.1666 28.4604 126.269 62.9994 126.269Z" fill="url(#paint1_radial-963801)"/>
</g>
<g style="mix-blend-mode:overlay" opacity="0.9">
<path fill-rule="evenodd" clip-rule="evenodd" d="M85.7761 34.503C89.567 37.2959 91.673 39.8048 92.3282 42.3137C92.7493 43.7338 92.375 45.438 91.439 46.7161C90.5029 47.9943 89.0054 48.7043 87.2738 48.7043C86.6186 48.7043 85.9633 48.6096 85.3082 48.4203C84.653 50.2664 84.185 52.0652 84.0446 53.6274L83.9978 54.1954C80.6282 48.2783 75.2462 43.7338 68.7878 41.5563C68.9749 41.509 70.379 41.0829 72.8594 39.5681C72.5786 39.1421 72.3446 38.6687 72.1575 38.2901C71.6426 37.0593 71.8297 35.0237 72.6254 33.5089C73.2806 32.2308 74.3101 31.3787 75.4802 31.142C75.9482 31.0473 76.4161 31 76.931 31C79.505 31 82.7342 32.2781 85.7761 34.503ZM91.0144 42.6924C91.576 44.9172 89.8445 48.2309 85.5857 47.0475C85.2113 46.9054 84.8368 46.8107 84.5092 46.7634C84.088 47.7575 83.62 48.8937 83.2925 50.1717C80.4845 46.3847 76.7404 43.3551 72.4348 41.4143C72.6037 41.3118 72.7808 41.2065 72.9647 41.0972C73.5449 40.7522 74.1932 40.3668 74.8684 39.8995C74.1664 39.0474 73.6517 38.29 73.4177 37.7693C72.856 36.4438 73.5113 32.9882 75.7577 32.5148C78.0041 32.0414 81.514 33.0828 84.9773 35.6391C88.4404 38.1953 90.4061 40.4675 91.0144 42.6924Z" fill="white"/>
<path d="M78.6593 37.2013C79.5954 37.58 80.8121 38.2427 82.3098 39.2368C84.0882 40.4202 85.6325 41.7457 86.6154 42.7871C84.9774 44.9646 83.9009 47.9469 83.2457 50.0298C83.5733 50.5032 83.9477 50.9765 84.2754 51.4498C84.603 50.2665 85.1646 48.515 85.9133 46.7634C86.1005 46.8109 86.3345 46.8109 86.5686 46.8109C87.1302 46.8109 87.7853 46.7161 88.3001 46.2901C88.6745 46.0061 89.0958 45.4854 89.049 44.5386C89.049 43.6392 88.3469 42.5031 86.8962 41.1303C85.8665 40.1362 84.4626 39.0474 83.0585 38.0534C79.0337 35.3551 76.2257 34.5977 74.9622 35.8758C74.1197 36.7279 74.2133 37.7693 74.4941 38.5267C72.9966 39.5208 71.7329 40.2309 70.8906 40.7043C71.4521 40.8936 71.9669 41.1303 72.5286 41.367C74.0261 40.5623 76.1789 39.1895 78.6593 37.2013ZM87.5046 43.9706C87.6449 44.2072 87.6917 44.4439 87.6917 44.5859C87.6917 45.0119 87.5514 45.1541 87.4578 45.2487C87.2706 45.3907 86.8962 45.4854 86.5686 45.4854C86.8494 44.9173 87.177 44.4439 87.5046 43.9706ZM75.9449 36.9173C76.0853 36.7752 76.4597 36.6806 77.0682 36.7752C76.6001 37.1539 76.1321 37.4853 75.6642 37.8167C75.6174 37.4853 75.6642 37.1539 75.9449 36.9173Z" fill="white"/>
<path d="M61.2056 38.9522C45.902 38.9522 33.5 51.4966 33.5 66.976C33.5 82.4555 45.902 95 61.2056 95C76.5093 95 88.9113 82.4555 88.9113 66.976C88.9113 51.4966 76.4625 38.9522 61.2056 38.9522ZM61.2056 93.4379C46.7444 93.4379 35.0444 81.6034 35.0444 66.976C35.0444 52.3487 46.7444 40.5143 61.2056 40.5143C75.6668 40.5143 87.3668 52.3487 87.3668 66.976C87.3668 81.6034 75.62 93.4379 61.2056 93.4379Z" fill="white"/>
<path d="M84.0868 66.7399C84.0868 80.2784 73.5101 91.3554 60.2188 91.8762C60.5464 91.8762 60.874 91.8762 61.2016 91.8762C74.914 91.8762 86.0524 80.6099 86.0524 66.7399H84.0868Z" fill="white"/>
<path d="M69.3527 55.0471C71.6789 55.0471 73.5648 53.1396 73.5648 50.7866C73.5648 48.4337 71.6789 46.5262 69.3527 46.5262C67.0265 46.5262 65.1407 48.4337 65.1407 50.7866C65.1407 53.1396 67.0265 55.0471 69.3527 55.0471Z" fill="white"/>
<path d="M76.2306 58.2181C77.2128 58.2181 78.0091 57.4128 78.0091 56.4193C78.0091 55.4259 77.2128 54.6205 76.2306 54.6205C75.2484 54.6205 74.4522 55.4259 74.4522 56.4193C74.4522 57.4128 75.2484 58.2181 76.2306 58.2181Z" fill="white"/>
<path fill-rule="evenodd" clip-rule="evenodd" d="M36.2999 66.9069C36.2995 66.9299 36.2994 66.9531 36.2994 66.9764C36.2994 67.0242 36.3003 67.072 36.3022 67.12C36.5036 80.815 47.5633 91.876 61.1502 91.876H61.197C61.74 91.876 62.279 91.8583 62.8134 91.8235C75.7741 90.9796 86.0478 80.0604 86.0478 66.7397H85.9897C85.7254 63.9981 80.8576 62.4164 74.4414 61.864C69.6678 61.4853 64.8473 61.9586 59.325 63.6628C54.5514 65.0829 50.2457 64.8463 47.1102 64.4676C40.3024 63.6819 36.4833 63.573 36.3058 66.7397H36.2994C36.2994 66.7954 36.2995 66.8512 36.2999 66.9069ZM59.4659 86.7164C60.1896 86.7164 60.7762 86.123 60.7762 85.391C60.7762 84.659 60.1896 84.0655 59.4659 84.0655C58.7422 84.0655 58.1554 84.659 58.1554 85.391C58.1554 86.123 58.7422 86.7164 59.4659 86.7164ZM67.6103 84.728C67.6103 85.4602 67.0237 86.0535 66.3 86.0535C65.5763 86.0535 64.9896 85.4602 64.9896 84.728C64.9896 83.996 65.5763 83.4027 66.3 83.4027C67.0237 83.4027 67.6103 83.996 67.6103 84.728ZM62.9298 89.1308C63.4726 89.1308 63.9125 88.6857 63.9125 88.1367C63.9125 87.5876 63.4726 87.1425 62.9298 87.1425C62.387 87.1425 61.9471 87.5876 61.9471 88.1367C61.9471 88.6857 62.387 89.1308 62.9298 89.1308ZM69.9451 87.4259C69.9451 87.9749 69.505 88.42 68.9622 88.42C68.4194 88.42 67.9795 87.9749 67.9795 87.4259C67.9795 86.8768 68.4194 86.4317 68.9622 86.4317C69.505 86.4317 69.9451 86.8768 69.9451 87.4259ZM53.8947 86.2427C55.0835 86.2427 56.0474 85.2677 56.0474 84.0652C56.0474 82.8625 55.0835 81.8876 53.8947 81.8876C52.7057 81.8876 51.7419 82.8625 51.7419 84.0652C51.7419 85.2677 52.7057 86.2427 53.8947 86.2427ZM75.2881 78.7161C75.2881 79.9188 74.3242 80.8938 73.1352 80.8938C71.9464 80.8938 70.9826 79.9188 70.9826 78.7161C70.9826 77.5136 71.9464 76.5387 73.1352 76.5387C74.3242 76.5387 75.2881 77.5136 75.2881 78.7161Z" fill="white"/>
</g>
<defs>
<filter id="filter0_i-249970" x="0.460938" y="0.730896" width="125.077" height="125.538" filterUnits="userSpaceOnUse" color-interpolation-filters="sRGB">
<feFlood flood-opacity="0" result="BackgroundImageFix"/>
<feBlend mode="normal" in="SourceGraphic" in2="BackgroundImageFix" result="shape"/>
<feColorMatrix in="SourceAlpha" type="matrix" values="0 0 0 0 0 0 0 0 0 0 0 0 0 0 0 0 0 0 127 0" result="hardAlpha"/>
<feOffset/>
<feGaussianBlur stdDeviation="13.3207"/>
<feComposite in2="hardAlpha" operator="arithmetic" k2="-1" k3="1"/>
<feColorMatrix type="matrix" values="0 0 0 0 1 0 0 0 0 1 0 0 0 0 1 0 0 0 1 0"/>
<feBlend mode="hard-light" in2="shape" result="effect1_innerShadow"/>
</filter>
<radialGradient id="paint0_radial-402036" cx="0" cy="0" r="1" gradientUnits="userSpaceOnUse" gradientTransform="translate(82.7535 98.8636) rotate(-108.646) scale(117.774 117.429)">
<stop offset="0.377782" stop-color="#4584FF"/>
<stop offset="0.766535" stop-color="#ACFAFF"/>
<stop offset="1" stop-color="#FFE9BF"/>
</radialGradient>
<radialGradient id="paint1_radial-963801" cx="0" cy="0" r="1" gradientUnits="userSpaceOnUse" gradientTransform="translate(57.8708 18.9991) rotate(86.4582) scale(102.462 102.088)">
<stop stop-color="#A431FF" stop-opacity="0"/>
<stop offset="0.904105" stop-color="#A431FF"/>
</radialGradient>
</defs>
</svg>