<svg width="92" height="91" viewBox="0 0 92 91" fill="none" xmlns="http://www.w3.org/2000/svg">
<path fill-rule="evenodd" clip-rule="evenodd" d="M68.7761 16.503C72.567 19.2959 74.673 21.8048 75.3282 24.3137C75.7493 25.7338 75.375 27.438 74.439 28.7161C73.5029 29.9943 72.0054 30.7043 70.2738 30.7043C69.6186 30.7043 68.9633 30.6096 68.3082 30.4203C67.653 32.2664 67.185 34.0652 67.0446 35.6274L66.9978 36.1954C63.6282 30.2783 58.2462 25.7338 51.7878 23.5563C51.9749 23.509 53.379 23.0829 55.8594 21.5681C55.5786 21.1421 55.3446 20.6687 55.1575 20.2901C54.6426 19.0593 54.8297 17.0237 55.6254 15.5089C56.2806 14.2308 57.3101 13.3787 58.4802 13.142C58.9482 13.0473 59.4161 13 59.931 13C62.505 13 65.7342 14.2781 68.7761 16.503ZM74.0144 24.6924C74.576 26.9172 72.8445 30.2309 68.5857 29.0475C68.2113 28.9054 67.8368 28.8107 67.5092 28.7634C67.088 29.7575 66.62 30.8937 66.2925 32.1717C63.4845 28.3847 59.7404 25.3551 55.4348 23.4143C55.6037 23.3118 55.7808 23.2065 55.9647 23.0972C56.5449 22.7522 57.1932 22.3668 57.8684 21.8995C57.1664 21.0474 56.6517 20.29 56.4177 19.7693C55.856 18.4438 56.5113 14.9882 58.7577 14.5148C61.0041 14.0414 64.514 15.0828 67.9773 17.6391C71.4404 20.1953 73.4061 22.4675 74.0144 24.6924Z" fill="white"/>
<path d="M61.6593 19.2013C62.5954 19.58 63.8121 20.2427 65.3098 21.2368C67.0882 22.4202 68.6325 23.7457 69.6154 24.7871C67.9774 26.9646 66.9009 29.9469 66.2457 32.0298C66.5733 32.5032 66.9477 32.9765 67.2754 33.4498C67.603 32.2665 68.1646 30.515 68.9133 28.7634C69.1005 28.8109 69.3345 28.8109 69.5686 28.8109C70.1302 28.8109 70.7853 28.7161 71.3001 28.2901C71.6745 28.0061 72.0958 27.4854 72.049 26.5386C72.049 25.6392 71.3469 24.5031 69.8962 23.1303C68.8665 22.1362 67.4626 21.0474 66.0585 20.0534C62.0337 17.3551 59.2257 16.5977 57.9622 17.8758C57.1197 18.7279 57.2133 19.7693 57.4941 20.5267C55.9966 21.5208 54.7329 22.2309 53.8906 22.7043C54.4521 22.8936 54.9669 23.1303 55.5286 23.367C57.0261 22.5623 59.1789 21.1895 61.6593 19.2013ZM70.5046 25.9706C70.6449 26.2072 70.6917 26.4439 70.6917 26.5859C70.6917 27.0119 70.5514 27.1541 70.4578 27.2487C70.2706 27.3907 69.8962 27.4854 69.5686 27.4854C69.8494 26.9173 70.177 26.4439 70.5046 25.9706ZM58.9449 18.9173C59.0853 18.7752 59.4597 18.6806 60.0682 18.7752C59.6001 19.1539 59.1321 19.4853 58.6642 19.8167C58.6174 19.4853 58.6642 19.1539 58.9449 18.9173Z" fill="white"/>
<path d="M44.2056 20.9522C28.902 20.9522 16.5 33.4966 16.5 48.976C16.5 64.4555 28.902 77 44.2056 77C59.5093 77 71.9113 64.4555 71.9113 48.976C71.9113 33.4966 59.4625 20.9522 44.2056 20.9522ZM44.2056 75.4379C29.7444 75.4379 18.0444 63.6034 18.0444 48.976C18.0444 34.3487 29.7444 22.5143 44.2056 22.5143C58.6668 22.5143 70.3668 34.3487 70.3668 48.976C70.3668 63.6034 58.62 75.4379 44.2056 75.4379Z" fill="white"/>
<path d="M67.0868 48.7399C67.0868 62.2784 56.5101 73.3554 43.2188 73.8762C43.5464 73.8762 43.874 73.8762 44.2016 73.8762C57.914 73.8762 69.0524 62.6099 69.0524 48.7399H67.0868Z" fill="white"/>
<path d="M52.3527 37.0471C54.6789 37.0471 56.5648 35.1396 56.5648 32.7866C56.5648 30.4337 54.6789 28.5262 52.3527 28.5262C50.0265 28.5262 48.1407 30.4337 48.1407 32.7866C48.1407 35.1396 50.0265 37.0471 52.3527 37.0471Z" fill="white"/>
<path d="M59.2306 40.2181C60.2128 40.2181 61.0091 39.4128 61.0091 38.4193C61.0091 37.4259 60.2128 36.6205 59.2306 36.6205C58.2484 36.6205 57.4522 37.4259 57.4522 38.4193C57.4522 39.4128 58.2484 40.2181 59.2306 40.2181Z" fill="white"/>
<path fill-rule="evenodd" clip-rule="evenodd" d="M19.2999 48.9069C19.2995 48.9299 19.2994 48.9531 19.2994 48.9764C19.2994 49.0242 19.3003 49.072 19.3022 49.12C19.5036 62.815 30.5633 73.876 44.1502 73.876H44.197C44.74 73.876 45.279 73.8583 45.8134 73.8235C58.7741 72.9796 69.0478 62.0604 69.0478 48.7397H68.9897C68.7254 45.9981 63.8576 44.4164 57.4414 43.864C52.6678 43.4853 47.8473 43.9586 42.325 45.6628C37.5514 47.0829 33.2457 46.8463 30.1102 46.4676C23.3024 45.6819 19.4833 45.573 19.3058 48.7397H19.2994C19.2994 48.7954 19.2995 48.8512 19.2999 48.9069ZM42.4659 68.7164C43.1896 68.7164 43.7762 68.123 43.7762 67.391C43.7762 66.659 43.1896 66.0655 42.4659 66.0655C41.7422 66.0655 41.1554 66.659 41.1554 67.391C41.1554 68.123 41.7422 68.7164 42.4659 68.7164ZM50.6103 66.728C50.6103 67.4602 50.0237 68.0535 49.3 68.0535C48.5763 68.0535 47.9896 67.4602 47.9896 66.728C47.9896 65.996 48.5763 65.4027 49.3 65.4027C50.0237 65.4027 50.6103 65.996 50.6103 66.728ZM45.9298 71.1308C46.4726 71.1308 46.9125 70.6857 46.9125 70.1367C46.9125 69.5876 46.4726 69.1425 45.9298 69.1425C45.387 69.1425 44.9471 69.5876 44.9471 70.1367C44.9471 70.6857 45.387 71.1308 45.9298 71.1308ZM52.9451 69.4259C52.9451 69.9749 52.505 70.42 51.9622 70.42C51.4194 70.42 50.9795 69.9749 50.9795 69.4259C50.9795 68.8768 51.4194 68.4317 51.9622 68.4317C52.505 68.4317 52.9451 68.8768 52.9451 69.4259ZM36.8947 68.2427C38.0835 68.2427 39.0474 67.2677 39.0474 66.0652C39.0474 64.8625 38.0835 63.8876 36.8947 63.8876C35.7057 63.8876 34.7419 64.8625 34.7419 66.0652C34.7419 67.2677 35.7057 68.2427 36.8947 68.2427ZM58.2881 60.7161C58.2881 61.9188 57.3242 62.8938 56.1352 62.8938C54.9464 62.8938 53.9826 61.9188 53.9826 60.7161C53.9826 59.5136 54.9464 58.5387 56.1352 58.5387C57.3242 58.5387 58.2881 59.5136 58.2881 60.7161Z" fill="white"/>
</svg>
