<svg width="215" height="80" viewBox="0 0 215 80" fill="none" xmlns="http://www.w3.org/2000/svg">
<g style="mix-blend-mode:luminosity">
<g clip-path="url(#clip0)">
<path d="M72.0781 42.9142C72.0781 37.7529 75.8587 34.0381 81.0528 34.0381C86.247 34.0381 90.0275 37.7529 90.0275 42.9142C90.0275 48.0754 86.247 51.7903 81.0528 51.7903C75.8915 51.7903 72.0781 48.0754 72.0781 42.9142ZM86.2798 42.9142C86.2798 39.6925 84.2088 37.2598 81.0528 37.2598C77.8969 37.2598 75.8587 39.6925 75.8587 42.9142C75.8587 46.103 77.8969 48.5686 81.0528 48.5686C84.2088 48.5357 86.2798 46.103 86.2798 42.9142Z" fill="white"/>
<path d="M91.4375 49.0598L93.4099 46.2656C94.6262 47.5148 96.5001 48.5668 98.8671 48.5668C100.872 48.5668 101.859 47.6463 101.859 46.66C101.859 43.6356 91.9634 45.7067 91.9634 39.2304C91.9634 36.3704 94.4291 34.0034 98.4726 34.0034C101.201 34.0034 103.469 34.8253 105.179 36.4032L103.141 39.066C101.76 37.784 99.8861 37.1922 98.1438 37.1922C96.5659 37.1922 95.7112 37.8826 95.7112 38.9017C95.7112 41.6303 105.573 39.7893 105.573 46.1998C105.573 49.3557 103.338 51.7227 98.7027 51.7227C95.4153 51.7884 93.0483 50.6707 91.4375 49.0598Z" fill="white"/>
<path d="M122.991 51.4921L122.991 39.4601L118.159 51.4921L116.548 51.4921L111.715 39.4601L111.715 51.4921H108.066L108.066 34.2988H113.195L117.37 44.6871L121.545 34.2988H126.706L126.706 51.4592L122.991 51.4592V51.4921Z" fill="white"/>
<path d="M129.246 42.9124C129.246 37.7512 133.027 34.0364 138.221 34.0364C143.415 34.0364 147.196 37.7512 147.196 42.9124C147.196 48.0737 143.415 51.7886 138.221 51.7886C133.027 51.7886 129.246 48.0737 129.246 42.9124ZM143.448 42.9124C143.448 39.6908 141.377 37.258 138.221 37.258C135.065 37.258 133.027 39.6908 133.027 42.9124C133.027 46.1013 135.065 48.5668 138.221 48.5668C141.377 48.534 143.448 46.1013 143.448 42.9124Z" fill="white"/>
<path d="M148.602 49.0598L150.574 46.2656C151.79 47.5148 153.664 48.5668 156.031 48.5668C158.037 48.5668 159.023 47.6463 159.023 46.66C159.023 43.6356 149.128 45.7067 149.128 39.2304C149.128 36.3704 151.593 34.0034 155.637 34.0034C158.365 34.0034 160.634 34.8253 162.343 36.4032L160.304 39.066C158.924 37.784 157.05 37.1922 155.308 37.1922C153.73 37.1922 152.876 37.8826 152.876 38.9017C152.876 41.6303 162.737 39.7893 162.737 46.1998C162.737 49.3557 160.502 51.7227 155.867 51.7227C152.579 51.7884 150.212 50.6707 148.602 49.0598Z" fill="white"/>
<path d="M165.203 51.4921V34.2988H168.885V51.4592H165.203V51.4921Z" fill="white"/>
<path d="M171.125 49.0598L173.097 46.2656C174.313 47.5148 176.187 48.5668 178.554 48.5668C180.559 48.5668 181.546 47.6463 181.546 46.66C181.546 43.6356 171.65 45.7067 171.65 39.2304C171.65 36.3704 174.116 34.0034 178.16 34.0034C180.889 34.0034 183.156 34.8253 184.866 36.4032L182.828 39.066C181.447 37.784 179.573 37.1922 177.831 37.1922C176.253 37.1922 175.398 37.8826 175.398 38.9017C175.398 41.6303 185.261 39.7893 185.261 46.1998C185.261 49.3557 183.026 51.7227 178.39 51.7227C175.07 51.7884 172.702 50.6707 171.125 49.0598Z" fill="white"/>
<path fill-rule="evenodd" clip-rule="evenodd" d="M61.7002 23.3441C63.9536 25.0138 65.2055 26.5136 65.595 28.0135C65.8454 28.8624 65.6228 29.8812 65.0664 30.6453C64.51 31.4094 63.6198 31.8338 62.5905 31.8338C62.201 31.8338 61.8115 31.7772 61.422 31.664C61.0325 32.7677 60.7544 33.843 60.6709 34.7769L60.6431 35.1165C58.64 31.5791 55.4407 28.8624 51.6016 27.5607C51.7128 27.5324 52.5475 27.2777 54.0219 26.3721C53.855 26.1174 53.7159 25.8345 53.6047 25.6081L53.6046 25.608C53.2986 24.8723 53.4098 23.6554 53.8828 22.7498C54.2723 21.9858 54.8843 21.4764 55.5798 21.3349C55.858 21.2783 56.1362 21.25 56.4423 21.25C57.9724 21.25 59.8919 22.0141 61.7002 23.3441ZM64.8141 28.2398C65.1479 29.5699 64.1186 31.5508 61.587 30.8434C61.3644 30.7584 61.1418 30.7018 60.9471 30.6735C60.6967 31.2678 60.4185 31.947 60.2238 32.711C58.5546 30.4471 56.329 28.636 53.7695 27.4758C53.8699 27.4145 53.9752 27.3516 54.0845 27.2862C54.4294 27.08 54.8148 26.8496 55.2162 26.5702C54.7989 26.0608 54.4929 25.608 54.3538 25.2967C54.0199 24.5044 54.4094 22.4385 55.7448 22.1556C57.0802 21.8726 59.1666 22.4951 61.2253 24.0233C63.284 25.5514 64.4524 26.9098 64.8141 28.2398Z" fill="white"/>
<path d="M57.4696 24.9572C58.0261 25.1836 58.7494 25.5798 59.6396 26.174C60.6968 26.8815 61.6148 27.6739 62.1991 28.2965C61.2254 29.5982 60.5855 31.381 60.196 32.6262C60.3907 32.9092 60.6133 33.1922 60.8081 33.4751C61.0028 32.7677 61.3366 31.7207 61.7817 30.6735C61.893 30.7019 62.0321 30.7019 62.1713 30.7019C62.5051 30.7019 62.8945 30.6452 63.2005 30.3906C63.4231 30.2208 63.6735 29.9095 63.6457 29.3435C63.6457 28.8059 63.2284 28.1267 62.366 27.306C61.7539 26.7117 60.9194 26.0608 60.0847 25.4666C57.6922 23.8535 56.023 23.4007 55.2719 24.1648C54.7711 24.6742 54.8267 25.2968 54.9937 25.7496C54.1035 26.3438 53.3523 26.7683 52.8516 27.0513C53.1854 27.1645 53.4914 27.306 53.8253 27.4475C54.7155 26.9664 55.9952 26.1457 57.4696 24.9572ZM62.7276 29.0039C62.8111 29.1454 62.8389 29.2869 62.8389 29.3718C62.8389 29.6265 62.7555 29.7115 62.6998 29.768C62.5885 29.8529 62.366 29.9095 62.1713 29.9095C62.3382 29.5699 62.5329 29.2869 62.7276 29.0039ZM55.8561 24.7874C55.9396 24.7025 56.1621 24.6459 56.5238 24.7025C56.2456 24.9289 55.9674 25.127 55.6892 25.3251C55.6614 25.127 55.6892 24.9289 55.8561 24.7874Z" fill="white"/>
<path d="M47.0944 26.0039C37.9973 26.0039 30.625 33.5031 30.625 42.7569C30.625 52.0107 37.9973 59.5099 47.0944 59.5099C56.1916 59.5099 63.5638 52.0107 63.5638 42.7569C63.5638 33.5031 56.1638 26.0039 47.0944 26.0039ZM47.0944 58.576C38.498 58.576 31.5431 51.5012 31.5431 42.7569C31.5431 34.0125 38.498 26.9378 47.0944 26.9378C55.6908 26.9378 62.6458 34.0125 62.6458 42.7569C62.6458 51.5012 55.6629 58.576 47.0944 58.576Z" fill="white"/>
<g opacity="0.6">
<path opacity="0.6" d="M60.696 42.6157C60.696 50.7092 54.4087 57.3312 46.5078 57.6425C46.7025 57.6425 46.8973 57.6425 47.092 57.6425C55.2433 57.6425 61.8644 50.9073 61.8644 42.6157H60.696Z" fill="url(#paint0_linear)"/>
</g>
<path d="M51.9374 35.6256C53.3202 35.6256 54.4412 34.4853 54.4412 33.0787C54.4412 31.6721 53.3202 30.5317 51.9374 30.5317C50.5546 30.5317 49.4336 31.6721 49.4336 33.0787C49.4336 34.4853 50.5546 35.6256 51.9374 35.6256Z" fill="white"/>
<path d="M56.0259 37.5213C56.6098 37.5213 57.0831 37.0399 57.0831 36.446C57.0831 35.852 56.6098 35.3706 56.0259 35.3706C55.4421 35.3706 54.9688 35.852 54.9688 36.446C54.9688 37.0399 55.4421 37.5213 56.0259 37.5213Z" fill="white"/>
<path fill-rule="evenodd" clip-rule="evenodd" d="M32.2894 42.7155C32.2892 42.7293 32.2891 42.7431 32.2891 42.7571C32.2891 42.7856 32.2896 42.8143 32.2907 42.8429C32.4104 51.03 38.9848 57.6423 47.0615 57.6423H47.0861H47.0893C47.4121 57.6423 47.7325 57.6318 48.0502 57.611C55.7546 57.1065 61.8617 50.5788 61.8617 42.6156H61.8272C61.67 40.9766 58.7764 40.0311 54.9624 39.7008C52.1247 39.4745 49.2592 39.7574 45.9765 40.7762C43.1388 41.6252 40.5794 41.4837 38.7155 41.2573C34.6687 40.7876 32.3984 40.7225 32.2929 42.6156H32.2891C32.2891 42.6489 32.2892 42.6822 32.2894 42.7155ZM46.0602 54.5579C46.4904 54.5579 46.8392 54.2031 46.8392 53.7655C46.8392 53.3279 46.4904 52.9731 46.0602 52.9731C45.6301 52.9731 45.2813 53.3279 45.2813 53.7655C45.2813 54.2031 45.6301 54.5579 46.0602 54.5579ZM50.9017 53.3692C50.9017 53.8069 50.5529 54.1616 50.1227 54.1616C49.6926 54.1616 49.3438 53.8069 49.3438 53.3692C49.3438 52.9316 49.6926 52.5769 50.1227 52.5769C50.5529 52.5769 50.9017 52.9316 50.9017 53.3692ZM48.1193 56.0012C48.442 56.0012 48.7035 55.7352 48.7035 55.4069C48.7035 55.0787 48.442 54.8126 48.1193 54.8126C47.7967 54.8126 47.5352 55.0787 47.5352 55.4069C47.5352 55.7352 47.7967 56.0012 48.1193 56.0012ZM52.2895 54.982C52.2895 55.3102 52.0279 55.5763 51.7053 55.5763C51.3826 55.5763 51.1211 55.3102 51.1211 54.982C51.1211 54.6538 51.3826 54.3877 51.7053 54.3877C52.0279 54.3877 52.2895 54.6538 52.2895 54.982ZM42.7485 54.2747C43.4552 54.2747 44.0281 53.6918 44.0281 52.9729C44.0281 52.254 43.4552 51.6711 42.7485 51.6711C42.0417 51.6711 41.4688 52.254 41.4688 52.9729C41.4688 53.6918 42.0417 54.2747 42.7485 54.2747ZM55.4656 49.7752C55.4656 50.4942 54.8927 51.077 54.1859 51.077C53.4792 51.077 52.9063 50.4942 52.9063 49.7752C52.9062 49.0563 53.4792 48.4735 54.1859 48.4735C54.8927 48.4735 55.4656 49.0563 55.4656 49.7752Z" fill="white"/>
</g>
</g>
<defs>
<linearGradient id="paint0_linear" x1="63.2562" y1="43.9343" x2="46.9119" y2="59.1192" gradientUnits="userSpaceOnUse">
<stop offset="0.2888" stop-color="white"/>
<stop offset="0.7796" stop-color="white" stop-opacity="0"/>
</linearGradient>
<clipPath id="clip0">
<rect width="154.635" height="38.2602" fill="white" transform="translate(30.625 21.25)"/>
</clipPath>
</defs>
</svg>
