<svg width="272" height="271" viewBox="0 0 272 271" fill="none" xmlns="http://www.w3.org/2000/svg">
<g filter="url(#filter0_i-861572)">
<path d="M135.997 198.269C170.536 198.269 198.536 170.167 198.536 135.5C198.536 100.834 170.536 72.7309 135.997 72.7309C101.458 72.7309 73.459 100.834 73.459 135.5C73.459 170.167 101.458 198.269 135.997 198.269Z" fill="url(#paint0_radial-829131)"/>
<path d="M135.997 198.269C170.536 198.269 198.536 170.167 198.536 135.5C198.536 100.834 170.536 72.7309 135.997 72.7309C101.458 72.7309 73.459 100.834 73.459 135.5C73.459 170.167 101.458 198.269 135.997 198.269Z" fill="url(#paint1_radial-809162)"/>
</g>
<g style="mix-blend-mode:overlay" opacity="0.9">
<path fill-rule="evenodd" clip-rule="evenodd" d="M158.776 106.503C162.567 109.296 164.673 111.805 165.328 114.314C165.749 115.734 165.375 117.438 164.439 118.716C163.503 119.994 162.005 120.704 160.274 120.704C159.619 120.704 158.963 120.61 158.308 120.42C157.653 122.266 157.185 124.065 157.045 125.627L156.998 126.195C153.628 120.278 148.246 115.734 141.788 113.556C141.975 113.509 143.379 113.083 145.859 111.568C145.579 111.142 145.345 110.669 145.157 110.29C144.643 109.059 144.83 107.024 145.625 105.509C146.281 104.231 147.31 103.379 148.48 103.142C148.948 103.047 149.416 103 149.931 103C152.505 103 155.734 104.278 158.776 106.503ZM164.014 114.692C164.576 116.917 162.844 120.231 158.586 119.048C158.211 118.905 157.837 118.811 157.509 118.763C157.088 119.758 156.62 120.894 156.292 122.172C153.484 118.385 149.74 115.355 145.435 113.414C145.604 113.312 145.781 113.206 145.965 113.097C146.545 112.752 147.193 112.367 147.868 111.899C147.166 111.047 146.652 110.29 146.418 109.769C145.856 108.444 146.511 104.988 148.758 104.515C151.004 104.041 154.514 105.083 157.977 107.639C161.44 110.195 163.406 112.468 164.014 114.692Z" fill="white"/>
<path d="M151.659 109.201C152.595 109.58 153.812 110.243 155.31 111.237C157.088 112.42 158.633 113.746 159.615 114.787C157.977 116.965 156.901 119.947 156.246 122.03C156.573 122.503 156.948 122.977 157.275 123.45C157.603 122.266 158.165 120.515 158.913 118.763C159.101 118.811 159.334 118.811 159.569 118.811C160.13 118.811 160.785 118.716 161.3 118.29C161.674 118.006 162.096 117.485 162.049 116.539C162.049 115.639 161.347 114.503 159.896 113.13C158.867 112.136 157.463 111.047 156.059 110.053C152.034 107.355 149.226 106.598 147.962 107.876C147.12 108.728 147.213 109.769 147.494 110.527C145.997 111.521 144.733 112.231 143.891 112.704C144.452 112.894 144.967 113.13 145.529 113.367C147.026 112.562 149.179 111.189 151.659 109.201ZM160.505 115.971C160.645 116.207 160.692 116.444 160.692 116.586C160.692 117.012 160.551 117.154 160.458 117.249C160.271 117.391 159.896 117.485 159.569 117.485C159.849 116.917 160.177 116.444 160.505 115.971ZM148.945 108.917C149.085 108.775 149.46 108.681 150.068 108.775C149.6 109.154 149.132 109.485 148.664 109.817C148.617 109.485 148.664 109.154 148.945 108.917Z" fill="white"/>
<path d="M134.206 110.952C118.902 110.952 106.5 123.497 106.5 138.976C106.5 154.455 118.902 167 134.206 167C149.509 167 161.911 154.455 161.911 138.976C161.911 123.497 149.462 110.952 134.206 110.952ZM134.206 165.438C119.744 165.438 108.044 153.603 108.044 138.976C108.044 124.349 119.744 112.514 134.206 112.514C148.667 112.514 160.367 124.349 160.367 138.976C160.367 153.603 148.62 165.438 134.206 165.438Z" fill="white"/>
<path d="M157.087 138.74C157.087 152.278 146.51 163.355 133.219 163.876C133.546 163.876 133.874 163.876 134.202 163.876C147.914 163.876 159.052 152.61 159.052 138.74H157.087Z" fill="white"/>
<path d="M142.353 127.047C144.679 127.047 146.565 125.14 146.565 122.787C146.565 120.434 144.679 118.526 142.353 118.526C140.027 118.526 138.141 120.434 138.141 122.787C138.141 125.14 140.027 127.047 142.353 127.047Z" fill="white"/>
<path d="M149.231 130.218C150.213 130.218 151.009 129.413 151.009 128.419C151.009 127.426 150.213 126.621 149.231 126.621C148.248 126.621 147.452 127.426 147.452 128.419C147.452 129.413 148.248 130.218 149.231 130.218Z" fill="white"/>
<path fill-rule="evenodd" clip-rule="evenodd" d="M109.3 138.907C109.3 138.93 109.299 138.953 109.299 138.976C109.299 139.024 109.3 139.072 109.302 139.12C109.504 152.815 120.563 163.876 134.15 163.876H134.197C134.74 163.876 135.279 163.858 135.813 163.824C148.774 162.98 159.048 152.06 159.048 138.74H158.99C158.725 135.998 153.858 134.416 147.441 133.864C142.668 133.485 137.847 133.959 132.325 135.663C127.551 137.083 123.246 136.846 120.11 136.468C113.302 135.682 109.483 135.573 109.306 138.74H109.299C109.299 138.795 109.3 138.851 109.3 138.907ZM132.466 158.716C133.19 158.716 133.776 158.123 133.776 157.391C133.776 156.659 133.19 156.066 132.466 156.066C131.742 156.066 131.155 156.659 131.155 157.391C131.155 158.123 131.742 158.716 132.466 158.716ZM140.61 156.728C140.61 157.46 140.024 158.054 139.3 158.054C138.576 158.054 137.99 157.46 137.99 156.728C137.99 155.996 138.576 155.403 139.3 155.403C140.024 155.403 140.61 155.996 140.61 156.728ZM135.93 161.131C136.473 161.131 136.913 160.686 136.913 160.137C136.913 159.588 136.473 159.143 135.93 159.143C135.387 159.143 134.947 159.588 134.947 160.137C134.947 160.686 135.387 161.131 135.93 161.131ZM142.945 159.426C142.945 159.975 142.505 160.42 141.962 160.42C141.419 160.42 140.979 159.975 140.979 159.426C140.979 158.877 141.419 158.432 141.962 158.432C142.505 158.432 142.945 158.877 142.945 159.426ZM126.895 158.243C128.084 158.243 129.047 157.268 129.047 156.065C129.047 154.862 128.084 153.888 126.895 153.888C125.706 153.888 124.742 154.862 124.742 156.065C124.742 157.268 125.706 158.243 126.895 158.243ZM148.288 150.716C148.288 151.919 147.324 152.894 146.135 152.894C144.946 152.894 143.983 151.919 143.983 150.716C143.983 149.514 144.946 148.539 146.135 148.539C147.324 148.539 148.288 149.514 148.288 150.716Z" fill="white"/>
</g>
<defs>
<filter id="filter0_i-861572" x="73.459" y="72.7309" width="125.077" height="125.538" filterUnits="userSpaceOnUse" color-interpolation-filters="sRGB">
<feFlood flood-opacity="0" result="BackgroundImageFix"/>
<feBlend mode="normal" in="SourceGraphic" in2="BackgroundImageFix" result="shape"/>
<feColorMatrix in="SourceAlpha" type="matrix" values="0 0 0 0 0 0 0 0 0 0 0 0 0 0 0 0 0 0 127 0" result="hardAlpha"/>
<feOffset/>
<feGaussianBlur stdDeviation="13.3207"/>
<feComposite in2="hardAlpha" operator="arithmetic" k2="-1" k3="1"/>
<feColorMatrix type="matrix" values="0 0 0 0 1 0 0 0 0 1 0 0 0 0 1 0 0 0 1 0"/>
<feBlend mode="hard-light" in2="shape" result="effect1_innerShadow"/>
</filter>
<radialGradient id="paint0_radial-829131" cx="0" cy="0" r="1" gradientUnits="userSpaceOnUse" gradientTransform="translate(155.752 170.864) rotate(-108.646) scale(117.774 117.429)">
<stop offset="0.377782" stop-color="#4584FF"/>
<stop offset="0.766535" stop-color="#ACFAFF"/>
<stop offset="1" stop-color="#FFE9BF"/>
</radialGradient>
<radialGradient id="paint1_radial-809162" cx="0" cy="0" r="1" gradientUnits="userSpaceOnUse" gradientTransform="translate(130.869 90.9991) rotate(86.4582) scale(102.462 102.088)">
<stop stop-color="#A431FF" stop-opacity="0"/>
<stop offset="0.904105" stop-color="#A431FF"/>
</radialGradient>
</defs>
</svg>