<svg width="91" height="91" viewBox="0 0 91 91" fill="none" xmlns="http://www.w3.org/2000/svg">
<path fill-rule="evenodd" clip-rule="evenodd" d="M26 77H38.4432V58.6861H46.1564C50.3288 58.6861 53.8211 57.9342 56.6353 56.4304C59.4487 54.9266 61.5347 52.9618 62.8928 50.5363C64.2514 48.0624 64.9303 45.3453 64.9303 42.3862C64.9303 39.1844 64.2273 36.3466 62.8202 33.8726C61.4135 31.3986 59.3034 29.4579 56.4896 28.0512C53.6758 26.6445 50.2317 25.9407 46.1564 25.9407H26V77ZM50.5226 47.1159C49.3582 48.2321 47.5876 48.7898 45.2107 48.7898H38.4432V35.9827H45.2107C47.5876 35.9827 49.3582 36.5407 50.5226 37.6566C51.6869 38.772 52.2691 40.3488 52.2691 42.3862C52.2691 44.4237 51.6869 46.0005 50.5226 47.1159ZM65.1869 13H26V21.2209H65.1869V13Z" fill="white"/>
</svg>
