<svg width="214" height="80" viewBox="0 0 214 80" fill="none" xmlns="http://www.w3.org/2000/svg">
<g clip-path="url(#clip0)">
<path d="M48.8053 37.679L48.8053 41.0791L53.6234 41.0791L53.6234 44.2398L48.8053 44.2398L48.8053 47.9272L55.0069 47.9272L55.0069 51.2075L44.7109 51.2075L44.7109 34.3987L55.0069 34.3987L55.0069 37.679L48.8053 37.679Z" fill="white"/>
<path d="M68.7092 51.107L65.546 44.7616L63.8992 44.7616L63.8992 51.107L59.8047 51.107L59.8047 34.2981L66.6767 34.2981C68.0017 34.2981 69.127 34.5296 70.0528 34.9925C70.9947 35.4554 71.697 36.0939 72.1599 36.908C72.6228 37.7062 72.8543 38.6001 72.8543 39.5898C72.8543 40.7072 72.535 41.7049 71.8966 42.5828C71.2741 43.4608 70.3481 44.0833 69.119 44.4504L72.998 51.107L68.7092 51.107ZM63.8992 41.8644L66.4373 41.8644C67.1875 41.8644 67.7462 41.6808 68.1134 41.3138C68.4964 40.9466 68.688 40.4278 68.688 39.7574C68.688 39.1189 68.4964 38.616 68.1134 38.2489C67.7462 37.8817 67.1875 37.6982 66.4373 37.6982L63.8992 37.6982L63.8992 41.8644Z" fill="white"/>
<path d="M83.1974 51.3755C81.9683 51.3755 80.8667 51.176 79.8931 50.7769C78.9193 50.3779 78.1372 49.7873 77.5465 49.0051C76.9718 48.2229 76.6687 47.2811 76.6367 46.1797L80.9945 46.1797C81.0584 46.8022 81.2739 47.2811 81.6411 47.6163C82.0081 47.9355 82.487 48.0952 83.0777 48.0952C83.6842 48.0952 84.1631 47.9596 84.5143 47.6882C84.8655 47.4008 85.0411 47.0097 85.0411 46.5149C85.0411 46.0999 84.8974 45.7566 84.61 45.4853C84.3388 45.2139 83.9955 44.9905 83.5805 44.8148C83.1814 44.6392 82.6067 44.4397 81.8564 44.2162C80.7711 43.8811 79.8851 43.5458 79.1987 43.2106C78.5123 42.8753 77.9217 42.3805 77.4268 41.7261C76.932 41.0715 76.6846 40.2175 76.6846 39.164C76.6846 37.5997 77.2512 36.3785 78.3846 35.5005C79.5179 34.6066 80.9945 34.1597 82.8142 34.1597C84.666 34.1597 86.1585 34.6066 87.2918 35.5005C88.4252 36.3785 89.0318 37.6076 89.1116 39.1879L84.6819 39.1879C84.65 38.6452 84.4505 38.2222 84.0833 37.9189C83.7161 37.5997 83.2453 37.44 82.6706 37.44C82.1758 37.44 81.7767 37.5757 81.4734 37.8471C81.1701 38.1025 81.0184 38.4776 81.0184 38.9725C81.0184 39.5152 81.2739 39.9382 81.7847 40.2415C82.2955 40.5448 83.0936 40.872 84.1791 41.2232C85.2646 41.5903 86.1425 41.9415 86.8129 42.2767C87.4993 42.612 88.0899 43.0989 88.5848 43.7373C89.0796 44.3758 89.3271 45.198 89.3271 46.2036C89.3271 47.1613 89.0796 48.0313 88.5848 48.8135C88.106 49.5957 87.4035 50.2182 86.4777 50.6812C85.5519 51.144 84.4585 51.3755 83.1974 51.3755Z" fill="white"/>
<path d="M97.8602 34.3987L97.8602 51.2075L93.7656 51.2075L93.7656 34.3987L97.8602 34.3987Z" fill="white"/>
<path d="M108.822 51.3755C107.593 51.3755 106.492 51.176 105.518 50.7769C104.544 50.3779 103.762 49.7873 103.172 49.0051C102.597 48.2229 102.294 47.2811 102.262 46.1797L106.62 46.1797C106.683 46.8022 106.899 47.2811 107.266 47.6163C107.633 47.9355 108.112 48.0952 108.703 48.0952C109.309 48.0952 109.788 47.9596 110.139 47.6882C110.49 47.4008 110.666 47.0097 110.666 46.5149C110.666 46.0999 110.522 45.7566 110.235 45.4853C109.964 45.2139 109.621 44.9905 109.206 44.8148C108.807 44.6392 108.232 44.4397 107.482 44.2162C106.396 43.8811 105.51 43.5458 104.824 43.2106C104.137 42.8753 103.547 42.3805 103.052 41.7261C102.557 41.0715 102.31 40.2175 102.31 39.164C102.31 37.5997 102.876 36.3785 104.01 35.5005C105.143 34.6066 106.62 34.1597 108.439 34.1597C110.291 34.1597 111.783 34.6066 112.917 35.5005C114.05 36.3785 114.657 37.6076 114.737 39.1879L110.307 39.1879C110.275 38.6452 110.075 38.2222 109.708 37.9189C109.341 37.5997 108.87 37.44 108.296 37.44C107.801 37.44 107.402 37.5757 107.099 37.8471C106.795 38.1025 106.644 38.4776 106.644 38.9725C106.644 39.5152 106.899 39.9382 107.41 40.2415C107.921 40.5448 108.719 40.872 109.804 41.2232C110.89 41.5903 111.768 41.9415 112.438 42.2767C113.124 42.612 113.715 43.0989 114.21 43.7373C114.705 44.3758 114.952 45.198 114.952 46.2036C114.952 47.1613 114.705 48.0313 114.21 48.8135C113.731 49.5957 113.029 50.2182 112.103 50.6812C111.177 51.144 110.083 51.3755 108.822 51.3755Z" fill="white"/>
<path d="M131.478 34.3989L131.478 37.6793L127.025 37.6793L127.025 51.2077L122.93 51.2077L122.93 37.6793L118.477 37.6793L118.477 34.3989L131.478 34.3989Z" fill="white"/>
<path d="M139.544 37.679L139.544 41.0791L144.362 41.0791L144.362 44.2398L139.544 44.2398L139.544 47.9272L145.745 47.9272L145.745 51.2075L135.449 51.2075L135.449 34.3987L145.745 34.3987L145.745 37.679L139.544 37.679Z" fill="white"/>
<path d="M165.354 51.2075L161.26 51.2075L154.411 40.8396L154.411 51.2075L150.316 51.2075L150.316 34.3987L154.411 34.3987L161.26 44.8143L161.26 34.3987L165.354 34.3987L165.354 51.2075Z" fill="white"/>
<path d="M169.547 42.7797C169.547 41.1197 169.907 39.6431 170.624 38.3501C171.343 37.0412 172.341 36.0275 173.618 35.3092C174.911 34.5749 176.371 34.2078 177.999 34.2078C179.994 34.2078 181.702 34.7345 183.124 35.7881C184.544 36.8416 185.494 38.2783 185.973 40.098L181.471 40.098C181.136 39.3957 180.657 38.8609 180.035 38.4938C179.428 38.1266 178.733 37.9431 177.952 37.9431C176.691 37.9431 175.669 38.382 174.887 39.26C174.105 40.1379 173.713 41.3111 173.713 42.7797C173.713 44.2483 174.105 45.4216 174.887 46.2996C175.669 47.1776 176.691 47.6165 177.952 47.6165C178.733 47.6165 179.428 47.4329 180.035 47.0657C180.657 46.6987 181.136 46.1638 181.471 45.4615L185.973 45.4615C185.494 47.2813 184.544 48.7179 183.124 49.7715C181.702 50.809 179.994 51.3278 177.999 51.3278C176.371 51.3278 174.911 50.9687 173.618 50.2504C172.341 49.5161 171.343 48.5024 170.624 47.2095C169.907 45.9165 169.547 44.4399 169.547 42.7797Z" fill="white"/>
<path d="M194.489 37.6793L194.489 41.0793L199.308 41.0793L199.308 44.24L194.489 44.24L194.489 47.9274L200.691 47.9274L200.691 51.2077L190.395 51.2077L190.395 34.3989L200.691 34.3989L200.691 37.6793L194.489 37.6793Z" fill="white"/>
<path fill-rule="evenodd" clip-rule="evenodd" d="M37.5752 26.8677L15.9728 26.8677C15.1702 26.8677 14.5195 27.5183 14.5195 28.3209L14.5195 49.9223C14.5195 50.7249 15.1702 51.3756 15.9728 51.3756L20.3125 51.3756L20.3125 34.4158L27.0076 34.4158C28.3612 34.4158 29.5053 34.6494 30.4398 35.1167C31.3745 35.584 32.0754 36.2285 32.5426 37.0503C33.0099 37.8721 33.2435 38.8147 33.2435 39.8782C33.2435 40.8611 33.0179 41.7636 32.5668 42.5853C32.1156 43.391 31.4227 44.0436 30.4882 44.5431C29.5535 45.0426 28.3934 45.2924 27.0076 45.2924L24.4456 45.2924L24.4456 51.3756L37.5752 51.3756C38.3779 51.3756 39.0285 50.7249 39.0285 49.9223L39.0285 28.3209C39.0285 27.5183 38.3779 26.8677 37.5752 26.8677ZM26.6934 42.0052C27.483 42.0052 28.0711 41.82 28.4578 41.4493C28.8446 41.0787 29.0379 40.555 29.0379 39.8782C29.0379 39.2015 28.8446 38.6778 28.4578 38.3072C28.0711 37.9366 27.483 37.7513 26.6934 37.7513L24.4456 37.7513L24.4456 42.0052L26.6934 42.0052ZM20.3125 30.1174L33.3287 30.1174L33.3287 32.8481L20.3125 32.8481L20.3125 30.1174Z" fill="white"/>
</g>
<defs>
<clipPath id="clip0">
<rect width="186.436" height="26.235" fill="white" transform="translate(13.9844 26.6597)"/>
</clipPath>
</defs>
</svg>
