<svg width="126" height="127" viewBox="0 0 126 127" fill="none" xmlns="http://www.w3.org/2000/svg">
<g filter="url(#filter0_i-006524)">
<path d="M62.9994 126.269C97.5384 126.269 125.538 98.1666 125.538 63.5001C125.538 28.8336 97.5384 0.730836 62.9994 0.730835C28.4604 0.730833 0.460939 28.8336 0.460938 63.5001C0.460936 98.1666 28.4604 126.269 62.9994 126.269Z" fill="url(#paint0_radial-925068)"/>
<path d="M62.9994 126.269C97.5384 126.269 125.538 98.1666 125.538 63.5001C125.538 28.8336 97.5384 0.730836 62.9994 0.730835C28.4604 0.730833 0.460939 28.8336 0.460938 63.5001C0.460936 98.1666 28.4604 126.269 62.9994 126.269Z" fill="url(#paint1_radial-439383)"/>
</g>
<g style="mix-blend-mode:overlay" opacity="0.9">
<path d="M59.6302 53.8984L51.4922 37.2015L53.3162 34.8162L56.403 35.5178L59.6302 53.8984Z" fill="white"/>
<path d="M71.6174 57.7474L85.0887 44.9591L87.9126 45.9802L88.1731 49.135L71.6174 57.7474Z" fill="white"/>
<path d="M71.5968 70.2806L87.9064 79.1693L87.8027 82.1703L84.8807 83.3879L71.5968 70.2806Z" fill="white"/>
<path d="M59.8182 74.1628L56.6459 92.4645L53.7709 93.3312L51.6784 90.9559L59.8182 74.1628Z" fill="white"/>
<path d="M52.3488 64.0447L33.9457 66.5624L32.2492 64.0848L33.8795 61.3714L52.3488 64.0447Z" fill="white"/>
<path d="M55.3894 56.5497L49.2478 52.4945L49.4083 50.6675L51.3524 50.3897L55.3894 56.5497Z" fill="white"/>
<path d="M62.8749 53.3517L61.3932 46.1428L62.7975 44.9631L64.3697 46.1401L62.8749 53.3517Z" fill="white"/>
<path d="M68.0782 54.6412L70.2958 47.6237L72.0969 47.2775L72.8966 49.0712L68.0782 54.6412Z" fill="white"/>
<path d="M73.6454 64.0056L80.8715 62.61L82.0343 64.0284L80.8387 65.5864L73.6454 64.0056Z" fill="white"/>
<path d="M66.3754 74.0986L69.9944 80.5069L69.0191 82.0601L67.1619 81.4214L66.3754 74.0986Z" fill="white"/>
<path d="M62.9981 74.6486L64.3971 81.8739L62.9794 83.0374L61.4208 81.8426L62.9981 74.6486Z" fill="white"/>
<path d="M56.6691 72.5642L53.5003 79.2066L51.6686 79.2998L51.1252 77.4126L56.6691 72.5642Z" fill="white"/>
<path d="M54.3135 70.1627L49.231 75.4854L47.4616 75.0027L47.534 73.0401L54.3135 70.1627Z" fill="white"/>
<path d="M52.869 67.2944L46.431 70.8604L44.8859 69.8722L45.5399 68.0204L52.869 67.2944Z" fill="white"/>
</g>
<defs>
<filter id="filter0_i-006524" x="0.460938" y="0.730835" width="125.077" height="125.538" filterUnits="userSpaceOnUse" color-interpolation-filters="sRGB">
<feFlood flood-opacity="0" result="BackgroundImageFix"/>
<feBlend mode="normal" in="SourceGraphic" in2="BackgroundImageFix" result="shape"/>
<feColorMatrix in="SourceAlpha" type="matrix" values="0 0 0 0 0 0 0 0 0 0 0 0 0 0 0 0 0 0 127 0" result="hardAlpha"/>
<feOffset/>
<feGaussianBlur stdDeviation="13.3207"/>
<feComposite in2="hardAlpha" operator="arithmetic" k2="-1" k3="1"/>
<feColorMatrix type="matrix" values="0 0 0 0 1 0 0 0 0 1 0 0 0 0 1 0 0 0 1 0"/>
<feBlend mode="hard-light" in2="shape" result="effect1_innerShadow"/>
</filter>
<radialGradient id="paint0_radial-925068" cx="0" cy="0" r="1" gradientUnits="userSpaceOnUse" gradientTransform="translate(82.7535 98.8636) rotate(-108.646) scale(117.774 117.429)">
<stop offset="0.377782" stop-color="#53EC72"/>
<stop offset="0.766535" stop-color="#ACFAFF"/>
<stop offset="1" stop-color="#FFE9BF"/>
</radialGradient>
<radialGradient id="paint1_radial-439383" cx="0" cy="0" r="1" gradientUnits="userSpaceOnUse" gradientTransform="translate(57.8708 18.9991) rotate(86.4582) scale(102.462 102.088)">
<stop offset="0.244792" stop-color="#A431FF" stop-opacity="0"/>
<stop offset="0.904105" stop-color="#2F8741" stop-opacity="0.7"/>
</radialGradient>
</defs>
</svg>