<svg width="272" height="271" viewBox="0 0 272 271" fill="none" xmlns="http://www.w3.org/2000/svg">
<g filter="url(#filter0_i-882075)">
<path d="M135.997 198.269C170.536 198.269 198.536 170.167 198.536 135.5C198.536 100.834 170.536 72.7308 135.997 72.7308C101.458 72.7308 73.459 100.834 73.459 135.5C73.459 170.167 101.458 198.269 135.997 198.269Z" fill="url(#paint0_radial-869160)"/>
<path d="M135.997 198.269C170.536 198.269 198.536 170.167 198.536 135.5C198.536 100.834 170.536 72.7308 135.997 72.7308C101.458 72.7308 73.459 100.834 73.459 135.5C73.459 170.167 101.458 198.269 135.997 198.269Z" fill="url(#paint1_radial-496293)"/>
</g>
<g style="mix-blend-mode:overlay" opacity="0.9">
<path d="M132.634 125.898L124.496 109.201L126.32 106.816L129.407 107.518L132.634 125.898Z" fill="white"/>
<path d="M144.621 129.747L158.093 116.959L160.916 117.98L161.177 121.135L144.621 129.747Z" fill="white"/>
<path d="M144.601 142.281L160.91 151.169L160.807 154.17L157.885 155.388L144.601 142.281Z" fill="white"/>
<path d="M132.82 146.163L129.648 164.464L126.773 165.331L124.68 162.956L132.82 146.163Z" fill="white"/>
<path d="M125.353 136.045L106.95 138.562L105.253 136.085L106.883 133.371L125.353 136.045Z" fill="white"/>
<path d="M128.393 128.55L122.252 124.494L122.412 122.667L124.356 122.39L128.393 128.55Z" fill="white"/>
<path d="M135.881 125.352L134.399 118.143L135.803 116.963L137.376 118.14L135.881 125.352Z" fill="white"/>
<path d="M141.082 126.641L143.3 119.624L145.101 119.278L145.901 121.071L141.082 126.641Z" fill="white"/>
<path d="M146.651 136.006L153.877 134.61L155.04 136.028L153.845 137.586L146.651 136.006Z" fill="white"/>
<path d="M139.379 146.099L142.998 152.507L142.023 154.06L140.166 153.421L139.379 146.099Z" fill="white"/>
<path d="M136 146.649L137.399 153.874L135.981 155.037L134.423 153.843L136 146.649Z" fill="white"/>
<path d="M129.673 144.564L126.504 151.207L124.673 151.3L124.129 149.413L129.673 144.564Z" fill="white"/>
<path d="M127.317 142.163L122.235 147.485L120.466 147.003L120.538 145.04L127.317 142.163Z" fill="white"/>
<path d="M125.875 139.294L119.437 142.86L117.892 141.872L118.546 140.02L125.875 139.294Z" fill="white"/>
</g>
<defs>
<filter id="filter0_i-882075" x="73.459" y="72.7308" width="125.077" height="125.538" filterUnits="userSpaceOnUse" color-interpolation-filters="sRGB">
<feFlood flood-opacity="0" result="BackgroundImageFix"/>
<feBlend mode="normal" in="SourceGraphic" in2="BackgroundImageFix" result="shape"/>
<feColorMatrix in="SourceAlpha" type="matrix" values="0 0 0 0 0 0 0 0 0 0 0 0 0 0 0 0 0 0 127 0" result="hardAlpha"/>
<feOffset/>
<feGaussianBlur stdDeviation="13.3207"/>
<feComposite in2="hardAlpha" operator="arithmetic" k2="-1" k3="1"/>
<feColorMatrix type="matrix" values="0 0 0 0 1 0 0 0 0 1 0 0 0 0 1 0 0 0 1 0"/>
<feBlend mode="hard-light" in2="shape" result="effect1_innerShadow"/>
</filter>
<radialGradient id="paint0_radial-869160" cx="0" cy="0" r="1" gradientUnits="userSpaceOnUse" gradientTransform="translate(155.752 170.864) rotate(-108.646) scale(117.774 117.429)">
<stop offset="0.377782" stop-color="#53EC72"/>
<stop offset="0.766535" stop-color="#ACFAFF"/>
<stop offset="1" stop-color="#FFE9BF"/>
</radialGradient>
<radialGradient id="paint1_radial-496293" cx="0" cy="0" r="1" gradientUnits="userSpaceOnUse" gradientTransform="translate(130.869 90.9991) rotate(86.4582) scale(102.462 102.088)">
<stop offset="0.244792" stop-color="#A431FF" stop-opacity="0"/>
<stop offset="0.904105" stop-color="#2F8741" stop-opacity="0.7"/>
</radialGradient>
</defs>
</svg>