<svg width="306" height="307" viewBox="0 0 306 307" fill="none" xmlns="http://www.w3.org/2000/svg">
<g filter="url(#filter0_di-238263)">
<path d="M152.997 208.269C187.536 208.269 215.536 180.167 215.536 145.5C215.536 110.834 187.536 82.7308 152.997 82.7308C118.458 82.7308 90.459 110.834 90.459 145.5C90.459 180.167 118.458 208.269 152.997 208.269Z" fill="url(#paint0_radial-268385)"/>
<path d="M152.997 208.269C187.536 208.269 215.536 180.167 215.536 145.5C215.536 110.834 187.536 82.7308 152.997 82.7308C118.458 82.7308 90.459 110.834 90.459 145.5C90.459 180.167 118.458 208.269 152.997 208.269Z" fill="url(#paint1_radial-101418)"/>
</g>
<g style="mix-blend-mode:overlay" opacity="0.9">
<path d="M149.634 135.898L141.496 119.201L143.32 116.816L146.407 117.518L149.634 135.898Z" fill="white"/>
<path d="M161.621 139.747L175.093 126.959L177.916 127.98L178.177 131.135L161.621 139.747Z" fill="white"/>
<path d="M161.601 152.281L177.91 161.169L177.807 164.17L174.885 165.388L161.601 152.281Z" fill="white"/>
<path d="M149.82 156.163L146.648 174.464L143.773 175.331L141.68 172.956L149.82 156.163Z" fill="white"/>
<path d="M142.353 146.045L123.95 148.562L122.253 146.085L123.883 143.371L142.353 146.045Z" fill="white"/>
<path d="M145.393 138.55L139.252 134.494L139.412 132.667L141.356 132.39L145.393 138.55Z" fill="white"/>
<path d="M152.881 135.352L151.399 128.143L152.803 126.963L154.376 128.14L152.881 135.352Z" fill="white"/>
<path d="M158.082 136.641L160.3 129.624L162.101 129.278L162.901 131.071L158.082 136.641Z" fill="white"/>
<path d="M163.651 146.006L170.877 144.61L172.04 146.028L170.845 147.586L163.651 146.006Z" fill="white"/>
<path d="M156.379 156.099L159.998 162.507L159.023 164.06L157.166 163.421L156.379 156.099Z" fill="white"/>
<path d="M153 156.649L154.399 163.874L152.981 165.037L151.423 163.843L153 156.649Z" fill="white"/>
<path d="M146.673 154.564L143.504 161.207L141.673 161.3L141.129 159.413L146.673 154.564Z" fill="white"/>
<path d="M144.317 152.163L139.235 157.485L137.466 157.003L137.538 155.04L144.317 152.163Z" fill="white"/>
<path d="M142.875 149.294L136.437 152.86L134.892 151.872L135.546 150.02L142.875 149.294Z" fill="white"/>
</g>
<defs>
<filter id="filter0_di-238263" x="0.458981" y="0.601422" width="305.077" height="305.538" filterUnits="userSpaceOnUse" color-interpolation-filters="sRGB">
<feFlood flood-opacity="0" result="BackgroundImageFix"/>
<feColorMatrix in="SourceAlpha" type="matrix" values="0 0 0 0 0 0 0 0 0 0 0 0 0 0 0 0 0 0 127 0"/>
<feMorphology radius="40" operator="dilate" in="SourceAlpha" result="effect1_dropShadow"/>
<feOffset dy="7.87059"/>
<feGaussianBlur stdDeviation="25"/>
<feColorMatrix type="matrix" values="0 0 0 0 0.619608 0 0 0 0 0.847059 0 0 0 0 0.815686 0 0 0 0.25 0"/>
<feBlend mode="normal" in2="BackgroundImageFix" result="effect1_dropShadow"/>
<feBlend mode="normal" in="SourceGraphic" in2="effect1_dropShadow" result="shape"/>
<feColorMatrix in="SourceAlpha" type="matrix" values="0 0 0 0 0 0 0 0 0 0 0 0 0 0 0 0 0 0 127 0" result="hardAlpha"/>
<feOffset/>
<feGaussianBlur stdDeviation="13.3207"/>
<feComposite in2="hardAlpha" operator="arithmetic" k2="-1" k3="1"/>
<feColorMatrix type="matrix" values="0 0 0 0 1 0 0 0 0 1 0 0 0 0 1 0 0 0 1 0"/>
<feBlend mode="hard-light" in2="shape" result="effect2_innerShadow"/>
</filter>
<radialGradient id="paint0_radial-268385" cx="0" cy="0" r="1" gradientUnits="userSpaceOnUse" gradientTransform="translate(172.752 180.864) rotate(-108.646) scale(117.774 117.429)">
<stop offset="0.377782" stop-color="#53EC72"/>
<stop offset="0.766535" stop-color="#ACFAFF"/>
<stop offset="1" stop-color="#FFE9BF"/>
</radialGradient>
<radialGradient id="paint1_radial-101418" cx="0" cy="0" r="1" gradientUnits="userSpaceOnUse" gradientTransform="translate(147.869 100.999) rotate(86.4582) scale(102.462 102.088)">
<stop offset="0.244792" stop-color="#A431FF" stop-opacity="0"/>
<stop offset="0.904105" stop-color="#2F8741" stop-opacity="0.7"/>
</radialGradient>
</defs>
</svg>