<svg width="92" height="91" viewBox="0 0 92 91" fill="none" xmlns="http://www.w3.org/2000/svg">
<path d="M42.6302 35.8984L34.4922 19.2015L36.3162 16.8162L39.403 17.5178L42.6302 35.8984Z" fill="white"/>
<path d="M54.6174 39.7474L68.0887 26.9591L70.9126 27.9802L71.1731 31.135L54.6174 39.7474Z" fill="white"/>
<path d="M54.5968 52.2807L70.9064 61.1693L70.8027 64.1703L67.8807 65.3879L54.5968 52.2807Z" fill="white"/>
<path d="M42.8182 56.1628L39.6459 74.4645L36.7709 75.3312L34.6784 72.9559L42.8182 56.1628Z" fill="white"/>
<path d="M35.3488 46.0446L16.9457 48.5624L15.2492 46.0848L16.8795 43.3714L35.3488 46.0446Z" fill="white"/>
<path d="M38.3894 38.5497L32.2478 34.4945L32.4083 32.6675L34.3524 32.3897L38.3894 38.5497Z" fill="white"/>
<path d="M45.8749 35.3517L44.3932 28.1428L45.7975 26.9631L47.3697 28.1401L45.8749 35.3517Z" fill="white"/>
<path d="M51.0782 36.6412L53.2958 29.6237L55.0969 29.2775L55.8966 31.0712L51.0782 36.6412Z" fill="white"/>
<path d="M56.6454 46.0056L63.8715 44.61L65.0343 46.0284L63.8387 47.5864L56.6454 46.0056Z" fill="white"/>
<path d="M49.3754 56.0986L52.9944 62.5069L52.0191 64.0601L50.1619 63.4214L49.3754 56.0986Z" fill="white"/>
<path d="M45.9981 56.6486L47.3971 63.8739L45.9794 65.0374L44.4208 63.8426L45.9981 56.6486Z" fill="white"/>
<path d="M39.6691 54.5642L36.5003 61.2066L34.6686 61.2998L34.1252 59.4126L39.6691 54.5642Z" fill="white"/>
<path d="M37.3135 52.1628L32.231 57.4855L30.4616 57.0027L30.534 55.0402L37.3135 52.1628Z" fill="white"/>
<path d="M35.869 49.2944L29.431 52.8604L27.8859 51.8722L28.5399 50.0204L35.869 49.2944Z" fill="white"/>
</svg>
