<svg width="213" height="80" viewBox="0 0 213 80" fill="none" xmlns="http://www.w3.org/2000/svg">
<g style="mix-blend-mode:luminosity">
<g clip-path="url(#clip0)">
<path fill-rule="evenodd" clip-rule="evenodd" d="M117.934 31.4173H120.332C121.085 31.4173 121.629 31.2848 121.972 31.0177C122.313 30.7528 122.487 30.3272 122.487 29.7408C122.487 29.1676 122.313 28.7485 121.972 28.4813C121.629 28.2142 121.085 28.0818 120.332 28.0818H117.934V31.4173ZM120.045 33.8559H117.934V38.6702H114.469V25.4846H120.929C122.567 25.4846 123.828 25.8451 124.711 26.5639C125.591 27.2826 126.033 28.3206 126.033 29.68C126.033 30.6399 125.808 31.4368 125.355 32.0774C124.905 32.7158 124.25 33.1892 123.387 33.4954L126.83 38.6702H122.935L120.045 33.8559Z" fill="white"/>
<path fill-rule="evenodd" clip-rule="evenodd" d="M139.19 36.0122V38.6702H128.477V25.4846H138.925V28.1404H131.973V30.8179H137.502V33.3152H131.973V36.0122H139.19Z" fill="white"/>
<path fill-rule="evenodd" clip-rule="evenodd" d="M152.787 31.5222V38.8764H150.399L150.299 37.2685C149.542 38.4778 148.287 39.0824 146.536 39.0824C145.342 39.0824 144.284 38.8115 143.362 38.2696C142.438 37.7276 141.72 36.9304 141.202 35.8801C140.683 34.8298 140.426 33.5691 140.426 32.0978C140.426 30.6421 140.69 29.3881 141.22 28.34C141.752 27.2875 142.51 26.4813 143.49 25.9192C144.472 25.3549 145.632 25.0728 146.973 25.0728C148.473 25.0728 149.68 25.3482 150.598 25.8969C151.513 26.4455 152.236 27.3323 152.765 28.555L149.6 29.8516C149.442 29.1798 149.144 28.6782 148.704 28.349C148.27 28.0198 147.724 27.8541 147.073 27.8541C146.065 27.8541 145.292 28.2124 144.753 28.9268C144.217 29.6411 143.948 30.6914 143.948 32.0776C143.948 34.9351 145.024 36.3638 147.172 36.3638C147.982 36.3638 148.637 36.1712 149.135 35.786C149.631 35.4009 149.879 34.8455 149.879 34.1177V33.9117H146.616V31.5222H152.787Z" fill="white"/>
<path fill-rule="evenodd" clip-rule="evenodd" d="M165.967 36.0122V38.6702H155.254V25.4846H165.704V28.1404H158.75V30.8179H164.279V33.3152H158.75V36.0122H165.967Z" fill="white"/>
<path fill-rule="evenodd" clip-rule="evenodd" d="M180.387 38.6702H176.55L172.434 31.5389L171.43 29.5389H171.41L171.491 32.0188V38.6702H168.438V25.4846H172.275L176.391 32.616L177.395 34.6138H177.416L177.336 32.1382V25.4846H180.387V38.6702Z" fill="white"/>
<path fill-rule="evenodd" clip-rule="evenodd" d="M121.886 54.7406H120.469L116.514 48.6699L115.511 46.8842H115.5L115.555 48.3403V54.7406H114.469V45.6755H115.886L119.823 51.7191L120.841 53.5321H120.857L120.799 52.0759V45.6755H121.886V54.7406Z" fill="white"/>
<path fill-rule="evenodd" clip-rule="evenodd" d="M130.946 53.7117V54.7406H123.941V45.6755H130.725V46.7067H125.114V49.6312H129.483V50.6626H125.114V53.7117H130.946Z" fill="white"/>
<path fill-rule="evenodd" clip-rule="evenodd" d="M139.19 46.7046H136.033V54.7406H134.933V46.7046H131.773V45.6755H139.19V46.7046Z" fill="white"/>
<path fill-rule="evenodd" clip-rule="evenodd" d="M144.106 54.7406H142.726L140.016 45.6755H141.211L143.425 53.8741L145.592 45.6755H146.859L149.028 53.9038L151.25 45.6755H152.377L149.678 54.7406H148.304L146.676 48.8619L146.202 46.8166H146.191L145.718 48.8619L144.106 54.7406Z" fill="white"/>
<path fill-rule="evenodd" clip-rule="evenodd" d="M155.323 47.3798C154.735 48.0644 154.441 49.0062 154.441 50.2078C154.441 51.4114 154.735 52.3533 155.323 53.0357C155.911 53.7205 156.715 54.0629 157.732 54.0629C158.75 54.0629 159.55 53.7205 160.138 53.0357C160.726 52.3533 161.02 51.4114 161.02 50.2078C161.02 49.0062 160.726 48.0644 160.138 47.3798C159.55 46.6951 158.75 46.355 157.732 46.355C156.715 46.355 155.911 46.6951 155.323 47.3798ZM160.129 45.8673C160.813 46.27 161.339 46.8406 161.711 47.5834C162.08 48.3239 162.264 49.1987 162.264 50.2078C162.264 51.2169 162.08 52.0917 161.711 52.8346C161.339 53.5751 160.813 54.1478 160.129 54.5504C159.45 54.9509 158.65 55.1524 157.732 55.1524C156.813 55.1524 156.014 54.9509 155.332 54.5504C154.651 54.1478 154.127 53.5751 153.755 52.8346C153.384 52.0917 153.199 51.2169 153.199 50.2078C153.199 49.1987 153.384 48.3239 153.755 47.5834C154.127 46.8406 154.651 46.27 155.332 45.8673C156.014 45.4646 156.813 45.2632 157.732 45.2632C158.65 45.2632 159.45 45.4646 160.129 45.8673Z" fill="white"/>
<path fill-rule="evenodd" clip-rule="evenodd" d="M165.065 49.946H167.507C168.857 49.946 169.531 49.4071 169.531 48.3254C169.531 47.2456 168.857 46.7046 167.507 46.7046H165.065V49.946ZM167.347 50.9774H165.065V54.7406H163.906V45.6755H167.522C168.494 45.6755 169.275 45.9122 169.862 46.3876C170.451 46.8652 170.745 47.5118 170.745 48.3254C170.745 48.9678 170.556 49.5064 170.182 49.946C169.804 50.3857 169.288 50.6877 168.635 50.8525L171.323 54.7406H169.949L167.347 50.9774Z" fill="white"/>
<path fill-rule="evenodd" clip-rule="evenodd" d="M176.158 50.0489L174.514 51.775V54.8246H173.402V45.3308H174.514V50.2216L179.141 45.3308H180.6L176.938 49.2013L180.642 54.8246H179.307L176.158 50.0489Z" fill="white"/>
<path fill-rule="evenodd" clip-rule="evenodd" d="M56.4284 7.22119L59.6667 8.25167L59.6712 11.6041L56.4374 12.6434L54.4297 9.9345L56.4284 7.22119Z" fill="white"/>
<path fill-rule="evenodd" clip-rule="evenodd" d="M59.6641 8.25146L63.5356 28.6731L59.6686 11.6038L59.6641 8.25146Z" fill="white"/>
<path fill-rule="evenodd" clip-rule="evenodd" d="M54.4297 9.93457L56.4373 12.6435L63.5383 28.6734L54.4297 9.93457Z" fill="white"/>
<path fill-rule="evenodd" clip-rule="evenodd" d="M56.4414 12.6438L59.6752 11.6045L63.5423 28.6738L56.4414 12.6438Z" fill="white"/>
<path fill-rule="evenodd" clip-rule="evenodd" d="M77.3242 33.0628L92.5882 18.7732L90.5898 21.4865L77.3242 33.0628Z" fill="white"/>
<path fill-rule="evenodd" clip-rule="evenodd" d="M92.5926 18.7725L95.8309 19.8029L95.8354 23.1553L92.5992 24.1968L90.5938 21.488L92.5926 18.7725Z" fill="white"/>
<path fill-rule="evenodd" clip-rule="evenodd" d="M65.6445 20.1159L67.2906 18.8311L69.04 19.9787L68.4763 21.9689L66.3744 22.0552L65.6445 20.1159Z" fill="white"/>
<path fill-rule="evenodd" clip-rule="evenodd" d="M69.0361 19.9775L67.2889 28.0246L65.6406 20.1146L66.3705 22.054L68.4724 21.9699L69.0361 19.9775Z" fill="white"/>
<path fill-rule="evenodd" clip-rule="evenodd" d="M77.3242 33.0627L90.5898 21.4863L92.5952 24.1952L77.3242 33.0627Z" fill="white"/>
<path fill-rule="evenodd" clip-rule="evenodd" d="M75.7793 21.7449L77.87 21.5149L78.7324 23.399L77.1827 24.7921L75.3594 23.7705L75.7793 21.7449Z" fill="white"/>
<path fill-rule="evenodd" clip-rule="evenodd" d="M75.7788 21.7451L75.359 23.7707L77.1823 24.7923L78.732 23.3992L73.3086 29.5533L75.7788 21.7451Z" fill="white"/>
<path fill-rule="evenodd" clip-rule="evenodd" d="M92.5948 24.1965L95.831 23.1572L77.3242 33.064L92.5948 24.1965Z" fill="white"/>
<path fill-rule="evenodd" clip-rule="evenodd" d="M51.9663 25.1068L54.0413 24.7795L54.998 26.6194L53.5136 28.0855L51.6406 27.1501L51.9663 25.1068Z" fill="white"/>
<path fill-rule="evenodd" clip-rule="evenodd" d="M54.039 24.7783L58.5754 31.5958L51.6406 27.1488L53.5136 28.0842L54.9957 26.6203L54.039 24.7783Z" fill="white"/>
<path fill-rule="evenodd" clip-rule="evenodd" d="M34.0977 37.553L54.976 40.1911L37.336 38.5835L34.0977 37.553Z" fill="white"/>
<path fill-rule="evenodd" clip-rule="evenodd" d="M34.0885 37.553L37.3268 38.5835L37.3313 41.9359L34.0953 42.9752L32.0898 40.2663L34.0885 37.553Z" fill="white"/>
<path fill-rule="evenodd" clip-rule="evenodd" d="M37.332 38.5828L54.9698 40.1904L37.3365 41.9352L37.332 38.5828Z" fill="white"/>
<path fill-rule="evenodd" clip-rule="evenodd" d="M79.6484 40.1537L87.7444 38.5527L85.7501 39.194L85.7525 41.2638L87.751 41.8985L79.6484 40.1537Z" fill="white"/>
<path fill-rule="evenodd" clip-rule="evenodd" d="M85.75 39.1953L87.7464 38.554L88.9817 40.2235L87.7534 41.8997L85.7525 41.2651L85.75 39.1953Z" fill="white"/>
<path fill-rule="evenodd" clip-rule="evenodd" d="M37.3376 41.9352L54.9732 40.1904L34.1016 42.9745L37.3376 41.9352Z" fill="white"/>
<path fill-rule="evenodd" clip-rule="evenodd" d="M47.2656 44.6982L55.5299 43.8623L48.3211 47.8803L50.0189 46.6619L49.3654 44.696L47.2656 44.6982Z" fill="white"/>
<path fill-rule="evenodd" clip-rule="evenodd" d="M47.2656 44.6983L49.3653 44.696L50.0189 46.6619L48.3211 47.8804L46.6211 46.6663L47.2656 44.6983Z" fill="white"/>
<path fill-rule="evenodd" clip-rule="evenodd" d="M49.6289 50.4393L57.3227 47.1357L51.54 53.2079L52.8268 51.5737L51.6455 49.8645L49.6289 50.4393Z" fill="white"/>
<path fill-rule="evenodd" clip-rule="evenodd" d="M77.3516 47.3364L95.8901 57.1967L92.6493 56.1641L77.3516 47.3364Z" fill="white"/>
<path fill-rule="evenodd" clip-rule="evenodd" d="M77.3516 47.3364L92.6493 56.1641L90.6529 58.8795L77.3516 47.3364Z" fill="white"/>
<path fill-rule="evenodd" clip-rule="evenodd" d="M77.3516 47.3364L90.6529 58.8795L92.6563 61.5908L77.3516 47.3364Z" fill="white"/>
<path fill-rule="evenodd" clip-rule="evenodd" d="M49.6355 50.4398L51.6521 49.865L52.8333 51.5742L51.5465 53.2084L49.5703 52.5075L49.6355 50.4398Z" fill="white"/>
<path fill-rule="evenodd" clip-rule="evenodd" d="M53.875 55.3318L60.0305 49.936L56.5406 57.4081L57.2705 55.4686L55.6221 54.1839L53.875 55.3318Z" fill="white"/>
<path fill-rule="evenodd" clip-rule="evenodd" d="M63.5747 51.7668L59.7975 72.1996L59.793 68.8471L63.5747 51.7668Z" fill="white"/>
<path fill-rule="evenodd" clip-rule="evenodd" d="M63.5709 51.7668L59.7891 68.8471L56.5508 67.8166L63.5709 51.7668Z" fill="white"/>
<path fill-rule="evenodd" clip-rule="evenodd" d="M63.5695 51.7668L56.5494 67.8166L54.5508 70.53L63.5695 51.7668Z" fill="white"/>
<path fill-rule="evenodd" clip-rule="evenodd" d="M71.2852 51.7546L75.4575 58.7203L74.2247 57.0487L72.2238 57.6919L72.2283 59.7595L71.2852 51.7546Z" fill="white"/>
<path fill-rule="evenodd" clip-rule="evenodd" d="M67.3274 52.3213L69.0814 60.2953L68.4278 58.3294L66.3303 58.3339L65.6836 60.2998L67.3274 52.3213Z" fill="white"/>
<path fill-rule="evenodd" clip-rule="evenodd" d="M53.875 55.3321L55.6221 54.1841L57.2705 55.4689L56.5406 57.4084L54.4409 57.3243L53.875 55.3321Z" fill="white"/>
<path fill-rule="evenodd" clip-rule="evenodd" d="M92.6434 56.1641L95.8817 57.1967L95.8862 60.547L92.65 61.5908L90.6445 58.8795L92.6434 56.1641Z" fill="white"/>
<path fill-rule="evenodd" clip-rule="evenodd" d="M72.2227 57.6911L74.2235 57.0479L75.4563 58.7195L74.228 60.3958L72.2271 59.7587L72.2227 57.6911Z" fill="white"/>
<path fill-rule="evenodd" clip-rule="evenodd" d="M66.3304 58.3338L68.4301 58.3318L69.0836 60.2952L67.3859 61.5141L65.6836 60.3022L66.3304 58.3338Z" fill="white"/>
<path fill-rule="evenodd" clip-rule="evenodd" d="M56.5494 67.8174L59.7878 68.8479L59.7923 72.1999L56.5584 73.2416L54.5508 70.5307L56.5494 67.8174Z" fill="white"/>
</g>
</g>
<defs>
<clipPath id="clip0">
<rect width="148.75" height="66.34" fill="white" transform="translate(32.0508 6.94263)"/>
</clipPath>
</defs>
</svg>
