<svg width="214" height="80" viewBox="0 0 214 80" fill="none" xmlns="http://www.w3.org/2000/svg">
<g clip-path="url(#clip0)">
<path fill-rule="evenodd" clip-rule="evenodd" d="M22.2087 22.1699H58.4537V37.351C58.4537 37.5978 58.4558 37.8647 58.4579 38.1491C58.4818 41.2912 58.5219 46.582 56.029 50.6949C52.6439 56.3824 46.4292 60.7384 40.3801 61.2623L40.3314 61.2665L40.2828 61.2623C34.1874 60.7385 27.9715 56.382 24.5863 50.6929L24.5851 50.6909C22.1401 46.5432 22.1804 41.2986 22.2044 38.1601C22.2067 37.8718 22.2087 37.6013 22.2087 37.351V22.1699ZM23.3407 23.3019V37.351C23.3407 37.604 23.339 37.8728 23.3372 38.1556C23.3167 41.329 23.2851 46.2555 25.5597 50.1151C28.7835 55.5322 34.676 59.6238 40.331 60.1303C45.9404 59.6238 51.8334 55.5322 55.0574 50.1141L55.0599 50.11C57.3765 46.2896 57.3452 41.3229 57.3252 38.1429C57.3234 37.8646 57.3218 37.6 57.3218 37.351V23.3019H23.3407Z" fill="white"/>
<path d="M53.4313 27.1025H27.2344V34.988L47.4941 50.3277L45.9639 51.683L27.2344 37.637V41.0869C27.2344 51.9911 37.5173 56.057 40.3328 56.057C49.7588 54.7633 53.3089 46.7546 53.3089 42.6887L35.4362 29.2587H38.6802L53.4313 40.3477V27.1025Z" fill="white"/>
<path d="M62.1648 18.094H61.6133V17.9102H62.9461V18.094H62.3946V19.7485H62.1648V18.094Z" fill="white"/>
<path d="M64.7814 18.9213C64.7814 18.6455 64.7354 18.3698 64.7354 18.14C64.6895 18.3698 64.5975 18.5995 64.5056 18.8293L64.1839 19.7026H64.0001L63.7243 18.8293C63.6324 18.5995 63.5864 18.3698 63.5405 18.14C63.5405 18.3698 63.5405 18.6915 63.4945 18.9672L63.4485 19.7485H63.2188L63.3566 17.9102H63.6783L64.0001 18.7834C64.092 19.0132 64.1379 19.197 64.1839 19.3809C64.2299 19.197 64.2758 19.0132 64.3677 18.7834L64.6435 17.9102H64.9652L65.0571 19.7485H64.8273L64.7814 18.9213Z" fill="white"/>
<path d="M71.0311 45.8999C72.1341 46.5433 73.6967 47.1408 75.3513 47.1408C77.8331 47.1408 79.2578 45.8539 79.2578 43.9696C79.2578 42.2231 78.2467 41.212 75.7189 40.2469C72.6856 39.1439 70.8013 37.5812 70.8013 34.9615C70.8013 32.0661 73.1912 29.906 76.822 29.906C78.7523 29.906 80.131 30.3656 80.9583 30.8252L80.3149 32.8015C79.7174 32.4797 78.4765 31.9282 76.776 31.9282C74.2482 31.9282 73.2371 33.4449 73.2371 34.7318C73.2371 36.4782 74.3861 37.3514 76.9598 38.3166C80.131 39.5575 81.7396 41.0742 81.7396 43.7858C81.7396 46.6812 79.6255 49.163 75.2134 49.163C73.421 49.163 71.4447 48.6575 70.4336 47.9681L71.0311 45.8999Z" fill="white"/>
<path d="M96.5373 40.0627H89.2757V46.8187H97.3646V48.8409H86.8398V30.1814H96.905V32.2036H89.2757V38.0864H96.5373V40.0627Z" fill="white"/>
<path d="M102.328 48.8409V30.1814H104.948L110.923 39.649C112.301 41.8551 113.404 43.7854 114.278 45.7157L114.324 45.6697C114.094 43.1879 114.048 40.89 114.048 37.9945V30.1814H116.3V48.8409H113.864L107.935 39.3733C106.648 37.3051 105.407 35.145 104.442 33.1228L104.35 33.1688C104.488 35.5127 104.534 37.7647 104.534 40.89V48.8869H102.328V48.8409Z" fill="white"/>
<path d="M126 32.2037H120.301V30.1355H134.135V32.2037H128.436V48.841H126V32.2037Z" fill="white"/>
<path d="M140.476 30.1814V48.8409H138.086V30.1814H140.476Z" fill="white"/>
<path d="M146.543 48.8409V30.1814H149.163L155.137 39.649C156.516 41.8551 157.619 43.7854 158.492 45.7157L158.538 45.6697C158.309 43.1879 158.263 40.89 158.263 37.9945V30.1814H160.515V48.8409H158.079L152.15 39.3733C150.863 37.3051 149.622 35.145 148.657 33.1228L148.565 33.1688C148.703 35.5127 148.749 37.7647 148.749 40.89V48.8869H146.543V48.8409Z" fill="white"/>
<path d="M176.322 40.0627H169.061V46.8187H177.15V48.8409H166.625V30.1814H176.69V32.2036H169.015V38.0864H176.276V40.0627H176.322Z" fill="white"/>
<path d="M182.113 30.1814H184.503V46.8187H192.5V48.8409H182.113V30.1814Z" fill="white"/>
</g>
<defs>
<clipPath id="clip0">
<rect width="170.326" height="43.3398" fill="white" transform="translate(22.1797 17.9102)"/>
</clipPath>
</defs>
</svg>
