<svg width="126" height="127" viewBox="0 0 126 127" fill="none" xmlns="http://www.w3.org/2000/svg">
<g filter="url(#filter0_i-472639)">
<path d="M62.9994 126.269C97.5384 126.269 125.538 98.1666 125.538 63.5001C125.538 28.8336 97.5384 0.730836 62.9994 0.730835C28.4604 0.730833 0.460939 28.8336 0.460938 63.5001C0.460936 98.1666 28.4604 126.269 62.9994 126.269Z" fill="url(#paint0_radial-449279)"/>
<path d="M62.9994 126.269C97.5384 126.269 125.538 98.1666 125.538 63.5001C125.538 28.8336 97.5384 0.730836 62.9994 0.730835C28.4604 0.730833 0.460939 28.8336 0.460938 63.5001C0.460936 98.1666 28.4604 126.269 62.9994 126.269Z" fill="url(#paint1_radial-775909)"/>
</g>
<g style="mix-blend-mode:overlay" opacity="0.9">
<g clip-path="url(#clip0-460392)">
<path fill-rule="evenodd" clip-rule="evenodd" d="M33.0509 35.9763H93.0227V60.8178C93.0227 61.2216 93.0261 61.6583 93.0297 62.1238C93.0691 67.2652 93.1356 75.9229 89.0108 82.6531C83.4097 91.9597 73.1266 99.0876 63.1176 99.945L63.0371 99.9519L62.9566 99.945C52.871 99.0879 42.5862 91.9591 36.9849 82.6498L36.9829 82.6465C32.9374 75.8595 33.004 67.2774 33.0438 62.1417C33.0475 61.67 33.0509 61.2273 33.0509 60.8178V35.9763ZM34.9239 37.8286V60.8178C34.9239 61.2317 34.921 61.6716 34.918 62.1343C34.8842 67.3272 34.8318 75.3886 38.5955 81.7043C43.9297 90.5685 53.6795 97.2638 63.0365 98.0925C72.3178 97.2638 82.0686 90.5685 87.4031 81.7026L87.4071 81.696C91.2403 75.4444 91.1886 67.3172 91.1554 62.1136C91.1525 61.6582 91.1497 61.2252 91.1497 60.8178V37.8286H34.9239Z" fill="white"/>
<path d="M55.7372 45.0244L50.4901 45.0996H47.1441H41.973V57.5086L74.3684 81.4991C73.6079 82.2512 72.7714 83.0033 71.8589 83.6049L41.973 61.5697V62.6225C41.973 66.2324 41.6688 73.0761 44.7866 78.2653C48.2087 84.1313 54.1403 88.7189 60.2239 90.1478C60.5281 90.223 60.8323 90.2982 61.1364 90.2982C61.7448 90.4486 62.3532 90.5238 62.9615 90.599C65.9273 90.3734 68.9692 89.2453 71.7828 87.5908C71.8589 87.5908 71.8589 87.5156 71.9349 87.5156C72.2391 87.3652 72.5433 87.1396 72.8475 86.914C73.4558 86.5379 74.0642 86.0867 74.6726 85.6355C77.2581 83.6049 79.6155 81.0479 81.2885 78.1901C82.2771 76.4604 82.9615 74.5802 83.3418 72.7001C83.5699 71.6472 83.722 70.6695 83.798 69.6167L55.0528 48.4839H60.2999L83.9501 66.0068C83.9501 64.7283 83.9501 63.525 83.9501 62.5473V45.0244H55.7372Z" fill="white"/>
</g>
</g>
<defs>
<filter id="filter0_i-472639" x="0.460938" y="0.730835" width="125.077" height="125.538" filterUnits="userSpaceOnUse" color-interpolation-filters="sRGB">
<feFlood flood-opacity="0" result="BackgroundImageFix"/>
<feBlend mode="normal" in="SourceGraphic" in2="BackgroundImageFix" result="shape"/>
<feColorMatrix in="SourceAlpha" type="matrix" values="0 0 0 0 0 0 0 0 0 0 0 0 0 0 0 0 0 0 127 0" result="hardAlpha"/>
<feOffset/>
<feGaussianBlur stdDeviation="13.3207"/>
<feComposite in2="hardAlpha" operator="arithmetic" k2="-1" k3="1"/>
<feColorMatrix type="matrix" values="0 0 0 0 1 0 0 0 0 1 0 0 0 0 1 0 0 0 1 0"/>
<feBlend mode="hard-light" in2="shape" result="effect1_innerShadow"/>
</filter>
<radialGradient id="paint0_radial-449279" cx="0" cy="0" r="1" gradientUnits="userSpaceOnUse" gradientTransform="translate(82.7535 98.8636) rotate(-108.646) scale(117.774 117.429)">
<stop offset="0.377782" stop-color="#4584FF"/>
<stop offset="0.766535" stop-color="#ACFAFF"/>
<stop offset="1" stop-color="#FFE9BF"/>
</radialGradient>
<radialGradient id="paint1_radial-775909" cx="0" cy="0" r="1" gradientUnits="userSpaceOnUse" gradientTransform="translate(57.8708 18.9991) rotate(86.4582) scale(102.462 102.088)">
<stop offset="0.244792" stop-color="#A431FF" stop-opacity="0"/>
<stop offset="0.904105" stop-color="#3152FF" stop-opacity="0.7"/>
</radialGradient>
<clipPath id="clip0-460392">
<rect width="60" height="64" fill="white" transform="translate(33 36)"/>
</clipPath>
</defs>
</svg>