<svg width="272" height="271" viewBox="0 0 272 271" fill="none" xmlns="http://www.w3.org/2000/svg">
<g filter="url(#filter0_i-505255)">
<path d="M135.997 198.269C170.536 198.269 198.536 170.167 198.536 135.5C198.536 100.834 170.536 72.7308 135.997 72.7308C101.458 72.7308 73.459 100.834 73.459 135.5C73.459 170.167 101.458 198.269 135.997 198.269Z" fill="url(#paint0_radial-307194)"/>
<path d="M135.997 198.269C170.536 198.269 198.536 170.167 198.536 135.5C198.536 100.834 170.536 72.7308 135.997 72.7308C101.458 72.7308 73.459 100.834 73.459 135.5C73.459 170.167 101.458 198.269 135.997 198.269Z" fill="url(#paint1_radial-644042)"/>
</g>
<g style="mix-blend-mode:overlay" opacity="0.9">
<g clip-path="url(#clip0-789726)">
<path fill-rule="evenodd" clip-rule="evenodd" d="M106.053 107.976H166.025V132.818C166.025 133.222 166.028 133.658 166.032 134.124C166.071 139.265 166.138 147.923 162.013 154.653C156.412 163.96 146.129 171.088 136.12 171.945L136.039 171.952L135.959 171.945C125.873 171.088 115.588 163.959 109.987 154.65L109.985 154.647C105.939 147.859 106.006 139.277 106.046 134.142C106.049 133.67 106.053 133.227 106.053 132.818V107.976ZM107.926 109.829V132.818C107.926 133.232 107.923 133.672 107.92 134.134C107.886 139.327 107.834 147.389 111.597 153.704C116.932 162.568 126.681 169.264 136.038 170.093C145.32 169.264 155.071 162.568 160.405 153.703L160.409 153.696C164.242 147.444 164.191 139.317 164.157 134.114C164.154 133.658 164.152 133.225 164.152 132.818V109.829H107.926Z" fill="white"/>
<path d="M128.739 117.024L123.492 117.1H120.146H114.975V129.509L147.37 153.499C146.61 154.251 145.773 155.003 144.861 155.605L114.975 133.57V134.623C114.975 138.232 114.671 145.076 117.789 150.265C121.211 156.131 127.142 160.719 133.226 162.148C133.53 162.223 133.834 162.298 134.138 162.298C134.747 162.449 135.355 162.524 135.963 162.599C138.929 162.373 141.971 161.245 144.785 159.591C144.861 159.591 144.861 159.516 144.937 159.516C145.241 159.365 145.545 159.14 145.849 158.914C146.458 158.538 147.066 158.087 147.675 157.635C150.26 155.605 152.617 153.048 154.29 150.19C155.279 148.46 155.963 146.58 156.344 144.7C156.572 143.647 156.724 142.67 156.8 141.617L128.055 120.484H133.302L156.952 138.007C156.952 136.728 156.952 135.525 156.952 134.547V117.024H128.739Z" fill="white"/>
</g>
</g>
<defs>
<filter id="filter0_i-505255" x="73.459" y="72.7308" width="125.077" height="125.538" filterUnits="userSpaceOnUse" color-interpolation-filters="sRGB">
<feFlood flood-opacity="0" result="BackgroundImageFix"/>
<feBlend mode="normal" in="SourceGraphic" in2="BackgroundImageFix" result="shape"/>
<feColorMatrix in="SourceAlpha" type="matrix" values="0 0 0 0 0 0 0 0 0 0 0 0 0 0 0 0 0 0 127 0" result="hardAlpha"/>
<feOffset/>
<feGaussianBlur stdDeviation="13.3207"/>
<feComposite in2="hardAlpha" operator="arithmetic" k2="-1" k3="1"/>
<feColorMatrix type="matrix" values="0 0 0 0 1 0 0 0 0 1 0 0 0 0 1 0 0 0 1 0"/>
<feBlend mode="hard-light" in2="shape" result="effect1_innerShadow"/>
</filter>
<radialGradient id="paint0_radial-307194" cx="0" cy="0" r="1" gradientUnits="userSpaceOnUse" gradientTransform="translate(155.752 170.864) rotate(-108.646) scale(117.774 117.429)">
<stop offset="0.377782" stop-color="#4584FF"/>
<stop offset="0.766535" stop-color="#ACFAFF"/>
<stop offset="1" stop-color="#FFE9BF"/>
</radialGradient>
<radialGradient id="paint1_radial-644042" cx="0" cy="0" r="1" gradientUnits="userSpaceOnUse" gradientTransform="translate(130.869 90.9991) rotate(86.4582) scale(102.462 102.088)">
<stop offset="0.244792" stop-color="#A431FF" stop-opacity="0"/>
<stop offset="0.904105" stop-color="#3152FF" stop-opacity="0.7"/>
</radialGradient>
<clipPath id="clip0-789726">
<rect width="60" height="64" fill="white" transform="translate(106 108)"/>
</clipPath>
</defs>
</svg>