<svg width="306" height="307" viewBox="0 0 306 307" fill="none" xmlns="http://www.w3.org/2000/svg">
<g filter="url(#filter0_di-016704)">
<path d="M152.997 208.269C187.536 208.269 215.536 180.167 215.536 145.5C215.536 110.834 187.536 82.7308 152.997 82.7308C118.458 82.7308 90.459 110.834 90.459 145.5C90.459 180.167 118.458 208.269 152.997 208.269Z" fill="url(#paint0_radial-444441)"/>
<path d="M152.997 208.269C187.536 208.269 215.536 180.167 215.536 145.5C215.536 110.834 187.536 82.7308 152.997 82.7308C118.458 82.7308 90.459 110.834 90.459 145.5C90.459 180.167 118.458 208.269 152.997 208.269Z" fill="url(#paint1_radial-341757)"/>
</g>
<g style="mix-blend-mode:overlay" opacity="0.9">
<g clip-path="url(#clip0-265898)">
<path fill-rule="evenodd" clip-rule="evenodd" d="M123.053 117.976H183.025V142.818C183.025 143.222 183.028 143.658 183.032 144.124C183.071 149.265 183.138 157.923 179.013 164.653C173.412 173.96 163.129 181.088 153.12 181.945L153.039 181.952L152.959 181.945C142.873 181.088 132.588 173.959 126.987 164.65L126.985 164.647C122.939 157.859 123.006 149.277 123.046 144.142C123.049 143.67 123.053 143.227 123.053 142.818V117.976ZM124.926 119.829V142.818C124.926 143.232 124.923 143.672 124.92 144.134C124.886 149.327 124.834 157.389 128.597 163.704C133.932 172.568 143.681 179.264 153.038 180.093C162.32 179.264 172.071 172.568 177.405 163.703L177.409 163.696C181.242 157.444 181.191 149.317 181.157 144.114C181.154 143.658 181.152 143.225 181.152 142.818V119.829H124.926Z" fill="white"/>
<path d="M145.739 127.024L140.492 127.1H137.146H131.975V139.509L164.37 163.499C163.61 164.251 162.773 165.003 161.861 165.605L131.975 143.57V144.623C131.975 148.232 131.671 155.076 134.789 160.265C138.211 166.131 144.142 170.719 150.226 172.148C150.53 172.223 150.834 172.298 151.138 172.298C151.747 172.449 152.355 172.524 152.963 172.599C155.929 172.373 158.971 171.245 161.785 169.591C161.861 169.591 161.861 169.516 161.937 169.516C162.241 169.365 162.545 169.14 162.849 168.914C163.458 168.538 164.066 168.087 164.675 167.635C167.26 165.605 169.617 163.048 171.29 160.19C172.279 158.46 172.963 156.58 173.344 154.7C173.572 153.647 173.724 152.67 173.8 151.617L145.055 130.484H150.302L173.952 148.007C173.952 146.728 173.952 145.525 173.952 144.547V127.024H145.739Z" fill="white"/>
</g>
</g>
<defs>
<filter id="filter0_di-016704" x="0.458981" y="0.601422" width="305.077" height="305.538" filterUnits="userSpaceOnUse" color-interpolation-filters="sRGB">
<feFlood flood-opacity="0" result="BackgroundImageFix"/>
<feColorMatrix in="SourceAlpha" type="matrix" values="0 0 0 0 0 0 0 0 0 0 0 0 0 0 0 0 0 0 127 0"/>
<feMorphology radius="40" operator="dilate" in="SourceAlpha" result="effect1_dropShadow"/>
<feOffset dy="7.87059"/>
<feGaussianBlur stdDeviation="25"/>
<feColorMatrix type="matrix" values="0 0 0 0 0.270588 0 0 0 0 0.517647 0 0 0 0 1 0 0 0 0.28 0"/>
<feBlend mode="normal" in2="BackgroundImageFix" result="effect1_dropShadow"/>
<feBlend mode="normal" in="SourceGraphic" in2="effect1_dropShadow" result="shape"/>
<feColorMatrix in="SourceAlpha" type="matrix" values="0 0 0 0 0 0 0 0 0 0 0 0 0 0 0 0 0 0 127 0" result="hardAlpha"/>
<feOffset/>
<feGaussianBlur stdDeviation="13.3207"/>
<feComposite in2="hardAlpha" operator="arithmetic" k2="-1" k3="1"/>
<feColorMatrix type="matrix" values="0 0 0 0 1 0 0 0 0 1 0 0 0 0 1 0 0 0 1 0"/>
<feBlend mode="hard-light" in2="shape" result="effect2_innerShadow"/>
</filter>
<radialGradient id="paint0_radial-444441" cx="0" cy="0" r="1" gradientUnits="userSpaceOnUse" gradientTransform="translate(172.752 180.864) rotate(-108.646) scale(117.774 117.429)">
<stop offset="0.377782" stop-color="#4584FF"/>
<stop offset="0.766535" stop-color="#ACFAFF"/>
<stop offset="1" stop-color="#FFE9BF"/>
</radialGradient>
<radialGradient id="paint1_radial-341757" cx="0" cy="0" r="1" gradientUnits="userSpaceOnUse" gradientTransform="translate(147.869 100.999) rotate(86.4582) scale(102.462 102.088)">
<stop offset="0.244792" stop-color="#A431FF" stop-opacity="0"/>
<stop offset="0.904105" stop-color="#3152FF" stop-opacity="0.7"/>
</radialGradient>
<clipPath id="clip0-265898">
<rect width="60" height="64" fill="white" transform="translate(123 118)"/>
</clipPath>
</defs>
</svg>