<svg width="92" height="91" viewBox="0 0 92 91" fill="none" xmlns="http://www.w3.org/2000/svg">
<g clip-path="url(#clip0)">
<path fill-rule="evenodd" clip-rule="evenodd" d="M16.0509 17.9763H76.0227V42.8178C76.0227 43.2216 76.0261 43.6583 76.0297 44.1238C76.0691 49.2652 76.1356 57.9229 72.0108 64.6531C66.4097 73.9597 56.1266 81.0876 46.1176 81.945L46.0371 81.9519L45.9566 81.945C35.871 81.0879 25.5862 73.9591 19.9849 64.6498L19.9829 64.6465C15.9374 57.8595 16.004 49.2774 16.0438 44.1417C16.0475 43.67 16.0509 43.2273 16.0509 42.8178V17.9763ZM17.9239 19.8286V42.8178C17.9239 43.2317 17.921 43.6716 17.918 44.1343C17.8842 49.3272 17.8318 57.3886 21.5955 63.7043C26.9297 72.5685 36.6795 79.2638 46.0365 80.0925C55.3178 79.2638 65.0686 72.5685 70.4031 63.7026L70.4071 63.696C74.2403 57.4444 74.1886 49.3172 74.1554 44.1136C74.1525 43.6582 74.1497 43.2252 74.1497 42.8178V19.8286H17.9239Z" fill="white"/>
<path d="M38.7372 27.0244L33.4901 27.0996H30.1441H24.973V39.5085L57.3684 63.4991C56.6079 64.2512 55.7714 65.0032 54.8589 65.6049L24.973 43.5696V44.6225C24.973 48.2324 24.6688 55.0761 27.7866 60.2653C31.2087 66.1313 37.1403 70.7189 43.2239 72.1478C43.5281 72.223 43.8323 72.2982 44.1364 72.2982C44.7448 72.4486 45.3532 72.5238 45.9615 72.599C48.9273 72.3734 51.9692 71.2453 54.7828 69.5908C54.8589 69.5908 54.8589 69.5156 54.9349 69.5156C55.2391 69.3652 55.5433 69.1395 55.8475 68.9139C56.4558 68.5379 57.0642 68.0867 57.6726 67.6354C60.2581 65.6049 62.6155 63.0479 64.2885 60.1901C65.2771 58.4603 65.9615 56.5802 66.3418 54.7001C66.5699 53.6472 66.722 52.6695 66.798 51.6166L38.0528 30.4838H43.2999L66.9501 48.0068C66.9501 46.7283 66.9501 45.525 66.9501 44.5473V27.0244H38.7372Z" fill="white"/>
</g>
<defs>
<clipPath id="clip0">
<rect width="60" height="64" fill="white" transform="translate(16 18)"/>
</clipPath>
</defs>
</svg>
