<svg width="91" height="91" viewBox="0 0 91 91" fill="none" xmlns="http://www.w3.org/2000/svg">
<path opacity="0.9" fill-rule="evenodd" clip-rule="evenodd" d="M54.0623 30.7424C57.1317 28.1743 59.084 24.3151 59.084 20C59.084 12.268 52.816 6 45.084 6C37.352 6 31.084 12.268 31.084 20C31.084 24.3615 33.0784 28.2571 36.2049 30.8247L45.16 16.8797L54.0623 30.7424Z" fill="white"/>
<path opacity="0.9" fill-rule="evenodd" clip-rule="evenodd" d="M24.9321 52.1489C21.1748 50.7774 16.8593 51.0172 13.1244 53.1735C6.42826 57.0395 4.13401 65.6018 8 72.2979C11.866 78.994 20.4283 81.2882 27.1244 77.4222C30.9025 75.2409 33.2792 71.5646 33.9388 67.5719L17.3783 66.7888L24.9321 52.1489Z" fill="white"/>
<path opacity="0.9" fill-rule="evenodd" clip-rule="evenodd" d="M65.1513 52.1491C68.9088 50.7773 73.2245 51.0171 76.9596 53.1735C83.6557 57.0395 85.95 65.6018 82.084 72.2979C78.218 78.994 69.6557 81.2882 62.9596 77.4222C59.1815 75.2409 56.8047 71.5646 56.1451 67.5719L72.705 66.7888L65.1513 52.1491Z" fill="white"/>
</svg>
